G04 #@! TF.GenerationSoftware,KiCad,Pcbnew,5.1.5-52549c5~86~ubuntu19.04.1*
G04 #@! TF.CreationDate,2020-12-26T14:33:06+01:00*
G04 #@! TF.ProjectId,high-accuracy-logging-volt-ampmeter,68696768-2d61-4636-9375-726163792d6c,v1.0*
G04 #@! TF.SameCoordinates,Original*
G04 #@! TF.FileFunction,Soldermask,Bot*
G04 #@! TF.FilePolarity,Negative*
%FSLAX46Y46*%
G04 Gerber Fmt 4.6, Leading zero omitted, Abs format (unit mm)*
G04 Created by KiCad (PCBNEW 5.1.5-52549c5~86~ubuntu19.04.1) date 2020-12-26 14:33:06*
%MOMM*%
%LPD*%
G04 APERTURE LIST*
%ADD10C,0.100000*%
G04 APERTURE END LIST*
D10*
G36*
X173309449Y-106448650D02*
G01*
X173346914Y-106460015D01*
X173381438Y-106478469D01*
X173411698Y-106503302D01*
X173436531Y-106533562D01*
X173454985Y-106568086D01*
X173466350Y-106605551D01*
X173470800Y-106650738D01*
X173470800Y-107489262D01*
X173466350Y-107534449D01*
X173454985Y-107571914D01*
X173436531Y-107606438D01*
X173411698Y-107636698D01*
X173381438Y-107661531D01*
X173346914Y-107679985D01*
X173309449Y-107691350D01*
X173264262Y-107695800D01*
X172175738Y-107695800D01*
X172130551Y-107691350D01*
X172093086Y-107679985D01*
X172058562Y-107661531D01*
X172028302Y-107636698D01*
X172003469Y-107606438D01*
X171985015Y-107571914D01*
X171973650Y-107534449D01*
X171969200Y-107489262D01*
X171969200Y-106650738D01*
X171973650Y-106605551D01*
X171985015Y-106568086D01*
X172003469Y-106533562D01*
X172028302Y-106503302D01*
X172058562Y-106478469D01*
X172093086Y-106460015D01*
X172130551Y-106448650D01*
X172175738Y-106444200D01*
X173264262Y-106444200D01*
X173309449Y-106448650D01*
G37*
G36*
X147909449Y-106448650D02*
G01*
X147946914Y-106460015D01*
X147981438Y-106478469D01*
X148011698Y-106503302D01*
X148036531Y-106533562D01*
X148054985Y-106568086D01*
X148066350Y-106605551D01*
X148070800Y-106650738D01*
X148070800Y-107489262D01*
X148066350Y-107534449D01*
X148054985Y-107571914D01*
X148036531Y-107606438D01*
X148011698Y-107636698D01*
X147981438Y-107661531D01*
X147946914Y-107679985D01*
X147909449Y-107691350D01*
X147864262Y-107695800D01*
X146775738Y-107695800D01*
X146730551Y-107691350D01*
X146693086Y-107679985D01*
X146658562Y-107661531D01*
X146628302Y-107636698D01*
X146603469Y-107606438D01*
X146585015Y-107571914D01*
X146573650Y-107534449D01*
X146569200Y-107489262D01*
X146569200Y-106650738D01*
X146573650Y-106605551D01*
X146585015Y-106568086D01*
X146603469Y-106533562D01*
X146628302Y-106503302D01*
X146658562Y-106478469D01*
X146693086Y-106460015D01*
X146730551Y-106448650D01*
X146775738Y-106444200D01*
X147864262Y-106444200D01*
X147909449Y-106448650D01*
G37*
G36*
X141232754Y-105813817D02*
G01*
X141396689Y-105881721D01*
X141544227Y-105980303D01*
X141669697Y-106105773D01*
X141768279Y-106253311D01*
X141836183Y-106417246D01*
X141870800Y-106591279D01*
X141870800Y-106768721D01*
X141836183Y-106942754D01*
X141768279Y-107106689D01*
X141669697Y-107254227D01*
X141544227Y-107379697D01*
X141396689Y-107478279D01*
X141232754Y-107546183D01*
X141058721Y-107580800D01*
X140881279Y-107580800D01*
X140707246Y-107546183D01*
X140543311Y-107478279D01*
X140395773Y-107379697D01*
X140270303Y-107254227D01*
X140171721Y-107106689D01*
X140103817Y-106942754D01*
X140069200Y-106768721D01*
X140069200Y-106591279D01*
X140103817Y-106417246D01*
X140171721Y-106253311D01*
X140270303Y-106105773D01*
X140395773Y-105980303D01*
X140543311Y-105881721D01*
X140707246Y-105813817D01*
X140881279Y-105779200D01*
X141058721Y-105779200D01*
X141232754Y-105813817D01*
G37*
G36*
X144410800Y-107580800D02*
G01*
X142609200Y-107580800D01*
X142609200Y-105779200D01*
X144410800Y-105779200D01*
X144410800Y-107580800D01*
G37*
G36*
X166632754Y-105813817D02*
G01*
X166796689Y-105881721D01*
X166944227Y-105980303D01*
X167069697Y-106105773D01*
X167168279Y-106253311D01*
X167236183Y-106417246D01*
X167270800Y-106591279D01*
X167270800Y-106768721D01*
X167236183Y-106942754D01*
X167168279Y-107106689D01*
X167069697Y-107254227D01*
X166944227Y-107379697D01*
X166796689Y-107478279D01*
X166632754Y-107546183D01*
X166458721Y-107580800D01*
X166281279Y-107580800D01*
X166107246Y-107546183D01*
X165943311Y-107478279D01*
X165795773Y-107379697D01*
X165670303Y-107254227D01*
X165571721Y-107106689D01*
X165503817Y-106942754D01*
X165469200Y-106768721D01*
X165469200Y-106591279D01*
X165503817Y-106417246D01*
X165571721Y-106253311D01*
X165670303Y-106105773D01*
X165795773Y-105980303D01*
X165943311Y-105881721D01*
X166107246Y-105813817D01*
X166281279Y-105779200D01*
X166458721Y-105779200D01*
X166632754Y-105813817D01*
G37*
G36*
X164092754Y-105813817D02*
G01*
X164256689Y-105881721D01*
X164404227Y-105980303D01*
X164529697Y-106105773D01*
X164628279Y-106253311D01*
X164696183Y-106417246D01*
X164730800Y-106591279D01*
X164730800Y-106768721D01*
X164696183Y-106942754D01*
X164628279Y-107106689D01*
X164529697Y-107254227D01*
X164404227Y-107379697D01*
X164256689Y-107478279D01*
X164092754Y-107546183D01*
X163918721Y-107580800D01*
X163741279Y-107580800D01*
X163567246Y-107546183D01*
X163403311Y-107478279D01*
X163255773Y-107379697D01*
X163130303Y-107254227D01*
X163031721Y-107106689D01*
X162963817Y-106942754D01*
X162929200Y-106768721D01*
X162929200Y-106591279D01*
X162963817Y-106417246D01*
X163031721Y-106253311D01*
X163130303Y-106105773D01*
X163255773Y-105980303D01*
X163403311Y-105881721D01*
X163567246Y-105813817D01*
X163741279Y-105779200D01*
X163918721Y-105779200D01*
X164092754Y-105813817D01*
G37*
G36*
X138692754Y-105813817D02*
G01*
X138856689Y-105881721D01*
X139004227Y-105980303D01*
X139129697Y-106105773D01*
X139228279Y-106253311D01*
X139296183Y-106417246D01*
X139330800Y-106591279D01*
X139330800Y-106768721D01*
X139296183Y-106942754D01*
X139228279Y-107106689D01*
X139129697Y-107254227D01*
X139004227Y-107379697D01*
X138856689Y-107478279D01*
X138692754Y-107546183D01*
X138518721Y-107580800D01*
X138341279Y-107580800D01*
X138167246Y-107546183D01*
X138003311Y-107478279D01*
X137855773Y-107379697D01*
X137730303Y-107254227D01*
X137631721Y-107106689D01*
X137563817Y-106942754D01*
X137529200Y-106768721D01*
X137529200Y-106591279D01*
X137563817Y-106417246D01*
X137631721Y-106253311D01*
X137730303Y-106105773D01*
X137855773Y-105980303D01*
X138003311Y-105881721D01*
X138167246Y-105813817D01*
X138341279Y-105779200D01*
X138518721Y-105779200D01*
X138692754Y-105813817D01*
G37*
G36*
X169810800Y-107580800D02*
G01*
X168009200Y-107580800D01*
X168009200Y-105779200D01*
X169810800Y-105779200D01*
X169810800Y-107580800D01*
G37*
G36*
X173309449Y-104398650D02*
G01*
X173346914Y-104410015D01*
X173381438Y-104428469D01*
X173411698Y-104453302D01*
X173436531Y-104483562D01*
X173454985Y-104518086D01*
X173466350Y-104555551D01*
X173470800Y-104600738D01*
X173470800Y-105439262D01*
X173466350Y-105484449D01*
X173454985Y-105521914D01*
X173436531Y-105556438D01*
X173411698Y-105586698D01*
X173381438Y-105611531D01*
X173346914Y-105629985D01*
X173309449Y-105641350D01*
X173264262Y-105645800D01*
X172175738Y-105645800D01*
X172130551Y-105641350D01*
X172093086Y-105629985D01*
X172058562Y-105611531D01*
X172028302Y-105586698D01*
X172003469Y-105556438D01*
X171985015Y-105521914D01*
X171973650Y-105484449D01*
X171969200Y-105439262D01*
X171969200Y-104600738D01*
X171973650Y-104555551D01*
X171985015Y-104518086D01*
X172003469Y-104483562D01*
X172028302Y-104453302D01*
X172058562Y-104428469D01*
X172093086Y-104410015D01*
X172130551Y-104398650D01*
X172175738Y-104394200D01*
X173264262Y-104394200D01*
X173309449Y-104398650D01*
G37*
G36*
X147909449Y-104398650D02*
G01*
X147946914Y-104410015D01*
X147981438Y-104428469D01*
X148011698Y-104453302D01*
X148036531Y-104483562D01*
X148054985Y-104518086D01*
X148066350Y-104555551D01*
X148070800Y-104600738D01*
X148070800Y-105439262D01*
X148066350Y-105484449D01*
X148054985Y-105521914D01*
X148036531Y-105556438D01*
X148011698Y-105586698D01*
X147981438Y-105611531D01*
X147946914Y-105629985D01*
X147909449Y-105641350D01*
X147864262Y-105645800D01*
X146775738Y-105645800D01*
X146730551Y-105641350D01*
X146693086Y-105629985D01*
X146658562Y-105611531D01*
X146628302Y-105586698D01*
X146603469Y-105556438D01*
X146585015Y-105521914D01*
X146573650Y-105484449D01*
X146569200Y-105439262D01*
X146569200Y-104600738D01*
X146573650Y-104555551D01*
X146585015Y-104518086D01*
X146603469Y-104483562D01*
X146628302Y-104453302D01*
X146658562Y-104428469D01*
X146693086Y-104410015D01*
X146730551Y-104398650D01*
X146775738Y-104394200D01*
X147864262Y-104394200D01*
X147909449Y-104398650D01*
G37*
G36*
X116301587Y-103127233D02*
G01*
X116471387Y-103178742D01*
X116627881Y-103262389D01*
X116765044Y-103374956D01*
X116877611Y-103512119D01*
X116961258Y-103668612D01*
X117012767Y-103838412D01*
X117025800Y-103970741D01*
X117025800Y-104309258D01*
X117012767Y-104441587D01*
X116961258Y-104611387D01*
X116877611Y-104767881D01*
X116765044Y-104905044D01*
X116627881Y-105017611D01*
X116471388Y-105101258D01*
X116301588Y-105152767D01*
X116125000Y-105170159D01*
X115948413Y-105152767D01*
X115778613Y-105101258D01*
X115622120Y-105017611D01*
X115484959Y-104905046D01*
X115372387Y-104767878D01*
X115288742Y-104611388D01*
X115237233Y-104441588D01*
X115224200Y-104309259D01*
X115224200Y-103970742D01*
X115237233Y-103838413D01*
X115288742Y-103668613D01*
X115372389Y-103512119D01*
X115484956Y-103374956D01*
X115622119Y-103262389D01*
X115778612Y-103178742D01*
X115948412Y-103127233D01*
X116125000Y-103109841D01*
X116301587Y-103127233D01*
G37*
G36*
X155671587Y-103127233D02*
G01*
X155841387Y-103178742D01*
X155997881Y-103262389D01*
X156135044Y-103374956D01*
X156247611Y-103512119D01*
X156331258Y-103668612D01*
X156382767Y-103838412D01*
X156395800Y-103970741D01*
X156395800Y-104309258D01*
X156382767Y-104441587D01*
X156331258Y-104611387D01*
X156247611Y-104767881D01*
X156135044Y-104905044D01*
X155997881Y-105017611D01*
X155841388Y-105101258D01*
X155671588Y-105152767D01*
X155495000Y-105170159D01*
X155318413Y-105152767D01*
X155148613Y-105101258D01*
X154992120Y-105017611D01*
X154854959Y-104905046D01*
X154742387Y-104767878D01*
X154658742Y-104611388D01*
X154607233Y-104441588D01*
X154594200Y-104309259D01*
X154594200Y-103970742D01*
X154607233Y-103838413D01*
X154658742Y-103668613D01*
X154742389Y-103512119D01*
X154854956Y-103374956D01*
X154992119Y-103262389D01*
X155148612Y-103178742D01*
X155318412Y-103127233D01*
X155495000Y-103109841D01*
X155671587Y-103127233D01*
G37*
G36*
X158171587Y-103127233D02*
G01*
X158341387Y-103178742D01*
X158497881Y-103262389D01*
X158635044Y-103374956D01*
X158747611Y-103512119D01*
X158831258Y-103668612D01*
X158882767Y-103838412D01*
X158895800Y-103970741D01*
X158895800Y-104309258D01*
X158882767Y-104441587D01*
X158831258Y-104611387D01*
X158747611Y-104767881D01*
X158635044Y-104905044D01*
X158497881Y-105017611D01*
X158341388Y-105101258D01*
X158171588Y-105152767D01*
X157995000Y-105170159D01*
X157818413Y-105152767D01*
X157648613Y-105101258D01*
X157492120Y-105017611D01*
X157354959Y-104905046D01*
X157242387Y-104767878D01*
X157158742Y-104611388D01*
X157107233Y-104441588D01*
X157094200Y-104309259D01*
X157094200Y-103970742D01*
X157107233Y-103838413D01*
X157158742Y-103668613D01*
X157242389Y-103512119D01*
X157354956Y-103374956D01*
X157492119Y-103262389D01*
X157648612Y-103178742D01*
X157818412Y-103127233D01*
X157995000Y-103109841D01*
X158171587Y-103127233D01*
G37*
G36*
X113801587Y-103127233D02*
G01*
X113971387Y-103178742D01*
X114127881Y-103262389D01*
X114265044Y-103374956D01*
X114377611Y-103512119D01*
X114461258Y-103668612D01*
X114512767Y-103838412D01*
X114525800Y-103970741D01*
X114525800Y-104309258D01*
X114512767Y-104441587D01*
X114461258Y-104611387D01*
X114377611Y-104767881D01*
X114265044Y-104905044D01*
X114127881Y-105017611D01*
X113971388Y-105101258D01*
X113801588Y-105152767D01*
X113625000Y-105170159D01*
X113448413Y-105152767D01*
X113278613Y-105101258D01*
X113122120Y-105017611D01*
X112984959Y-104905046D01*
X112872387Y-104767878D01*
X112788742Y-104611388D01*
X112737233Y-104441588D01*
X112724200Y-104309259D01*
X112724200Y-103970742D01*
X112737233Y-103838413D01*
X112788742Y-103668613D01*
X112872389Y-103512119D01*
X112984956Y-103374956D01*
X113122119Y-103262389D01*
X113278612Y-103178742D01*
X113448412Y-103127233D01*
X113625000Y-103109841D01*
X113801587Y-103127233D01*
G37*
G36*
X153171587Y-103127233D02*
G01*
X153341387Y-103178742D01*
X153497881Y-103262389D01*
X153635044Y-103374956D01*
X153747611Y-103512119D01*
X153831258Y-103668612D01*
X153882767Y-103838412D01*
X153895800Y-103970741D01*
X153895800Y-104309258D01*
X153882767Y-104441587D01*
X153831258Y-104611387D01*
X153747611Y-104767881D01*
X153635044Y-104905044D01*
X153497881Y-105017611D01*
X153341388Y-105101258D01*
X153171588Y-105152767D01*
X152995000Y-105170159D01*
X152818413Y-105152767D01*
X152648613Y-105101258D01*
X152492120Y-105017611D01*
X152354959Y-104905046D01*
X152242387Y-104767878D01*
X152158742Y-104611388D01*
X152107233Y-104441588D01*
X152094200Y-104309259D01*
X152094200Y-103970742D01*
X152107233Y-103838413D01*
X152158742Y-103668613D01*
X152242389Y-103512119D01*
X152354956Y-103374956D01*
X152492119Y-103262389D01*
X152648612Y-103178742D01*
X152818412Y-103127233D01*
X152995000Y-103109841D01*
X153171587Y-103127233D01*
G37*
G36*
X132811587Y-103127233D02*
G01*
X132981387Y-103178742D01*
X133137881Y-103262389D01*
X133275044Y-103374956D01*
X133387611Y-103512119D01*
X133471258Y-103668612D01*
X133522767Y-103838412D01*
X133535800Y-103970741D01*
X133535800Y-104309258D01*
X133522767Y-104441587D01*
X133471258Y-104611387D01*
X133387611Y-104767881D01*
X133275044Y-104905044D01*
X133137881Y-105017611D01*
X132981388Y-105101258D01*
X132811588Y-105152767D01*
X132635000Y-105170159D01*
X132458413Y-105152767D01*
X132288613Y-105101258D01*
X132132120Y-105017611D01*
X131994959Y-104905046D01*
X131882387Y-104767878D01*
X131798742Y-104611388D01*
X131747233Y-104441588D01*
X131734200Y-104309259D01*
X131734200Y-103970742D01*
X131747233Y-103838413D01*
X131798742Y-103668613D01*
X131882389Y-103512119D01*
X131994956Y-103374956D01*
X132132119Y-103262389D01*
X132288612Y-103178742D01*
X132458412Y-103127233D01*
X132635000Y-103109841D01*
X132811587Y-103127233D01*
G37*
G36*
X130311587Y-103127233D02*
G01*
X130481387Y-103178742D01*
X130637881Y-103262389D01*
X130775044Y-103374956D01*
X130887611Y-103512119D01*
X130971258Y-103668612D01*
X131022767Y-103838412D01*
X131035800Y-103970741D01*
X131035800Y-104309258D01*
X131022767Y-104441587D01*
X130971258Y-104611387D01*
X130887611Y-104767881D01*
X130775044Y-104905044D01*
X130637881Y-105017611D01*
X130481388Y-105101258D01*
X130311588Y-105152767D01*
X130135000Y-105170159D01*
X129958413Y-105152767D01*
X129788613Y-105101258D01*
X129632120Y-105017611D01*
X129494959Y-104905046D01*
X129382387Y-104767878D01*
X129298742Y-104611388D01*
X129247233Y-104441588D01*
X129234200Y-104309259D01*
X129234200Y-103970742D01*
X129247233Y-103838413D01*
X129298742Y-103668613D01*
X129382389Y-103512119D01*
X129494956Y-103374956D01*
X129632119Y-103262389D01*
X129788612Y-103178742D01*
X129958412Y-103127233D01*
X130135000Y-103109841D01*
X130311587Y-103127233D01*
G37*
G36*
X121301587Y-103127233D02*
G01*
X121471387Y-103178742D01*
X121627881Y-103262389D01*
X121765044Y-103374956D01*
X121877611Y-103512119D01*
X121961258Y-103668612D01*
X122012767Y-103838412D01*
X122025800Y-103970741D01*
X122025800Y-104309258D01*
X122012767Y-104441587D01*
X121961258Y-104611387D01*
X121877611Y-104767881D01*
X121765044Y-104905044D01*
X121627881Y-105017611D01*
X121471388Y-105101258D01*
X121301588Y-105152767D01*
X121125000Y-105170159D01*
X120948413Y-105152767D01*
X120778613Y-105101258D01*
X120622120Y-105017611D01*
X120484959Y-104905046D01*
X120372387Y-104767878D01*
X120288742Y-104611388D01*
X120237233Y-104441588D01*
X120224200Y-104309259D01*
X120224200Y-103970742D01*
X120237233Y-103838413D01*
X120288742Y-103668613D01*
X120372389Y-103512119D01*
X120484956Y-103374956D01*
X120622119Y-103262389D01*
X120778612Y-103178742D01*
X120948412Y-103127233D01*
X121125000Y-103109841D01*
X121301587Y-103127233D01*
G37*
G36*
X118801587Y-103127233D02*
G01*
X118971387Y-103178742D01*
X119127881Y-103262389D01*
X119265044Y-103374956D01*
X119377611Y-103512119D01*
X119461258Y-103668612D01*
X119512767Y-103838412D01*
X119525800Y-103970741D01*
X119525800Y-104309258D01*
X119512767Y-104441587D01*
X119461258Y-104611387D01*
X119377611Y-104767881D01*
X119265044Y-104905044D01*
X119127881Y-105017611D01*
X118971388Y-105101258D01*
X118801588Y-105152767D01*
X118625000Y-105170159D01*
X118448413Y-105152767D01*
X118278613Y-105101258D01*
X118122120Y-105017611D01*
X117984959Y-104905046D01*
X117872387Y-104767878D01*
X117788742Y-104611388D01*
X117737233Y-104441588D01*
X117724200Y-104309259D01*
X117724200Y-103970742D01*
X117737233Y-103838413D01*
X117788742Y-103668613D01*
X117872389Y-103512119D01*
X117984956Y-103374956D01*
X118122119Y-103262389D01*
X118278612Y-103178742D01*
X118448412Y-103127233D01*
X118625000Y-103109841D01*
X118801587Y-103127233D01*
G37*
G36*
X151254586Y-103118171D02*
G01*
X151287352Y-103128111D01*
X151317552Y-103144253D01*
X151344023Y-103165977D01*
X151365747Y-103192448D01*
X151381889Y-103222648D01*
X151391829Y-103255414D01*
X151395800Y-103295738D01*
X151395800Y-104984262D01*
X151391829Y-105024586D01*
X151381889Y-105057352D01*
X151365747Y-105087552D01*
X151344023Y-105114023D01*
X151317552Y-105135747D01*
X151287352Y-105151889D01*
X151254586Y-105161829D01*
X151214262Y-105165800D01*
X149775738Y-105165800D01*
X149735414Y-105161829D01*
X149702648Y-105151889D01*
X149672448Y-105135747D01*
X149645977Y-105114023D01*
X149624253Y-105087552D01*
X149608111Y-105057352D01*
X149598171Y-105024586D01*
X149594200Y-104984262D01*
X149594200Y-103295738D01*
X149598171Y-103255414D01*
X149608111Y-103222648D01*
X149624253Y-103192448D01*
X149645977Y-103165977D01*
X149672448Y-103144253D01*
X149702648Y-103128111D01*
X149735414Y-103118171D01*
X149775738Y-103114200D01*
X151214262Y-103114200D01*
X151254586Y-103118171D01*
G37*
G36*
X128394586Y-103118171D02*
G01*
X128427352Y-103128111D01*
X128457552Y-103144253D01*
X128484023Y-103165977D01*
X128505747Y-103192448D01*
X128521889Y-103222648D01*
X128531829Y-103255414D01*
X128535800Y-103295738D01*
X128535800Y-104984262D01*
X128531829Y-105024586D01*
X128521889Y-105057352D01*
X128505747Y-105087552D01*
X128484023Y-105114023D01*
X128457552Y-105135747D01*
X128427352Y-105151889D01*
X128394586Y-105161829D01*
X128354262Y-105165800D01*
X126915738Y-105165800D01*
X126875414Y-105161829D01*
X126842648Y-105151889D01*
X126812448Y-105135747D01*
X126785977Y-105114023D01*
X126764253Y-105087552D01*
X126748111Y-105057352D01*
X126738171Y-105024586D01*
X126734200Y-104984262D01*
X126734200Y-103295738D01*
X126738171Y-103255414D01*
X126748111Y-103222648D01*
X126764253Y-103192448D01*
X126785977Y-103165977D01*
X126812448Y-103144253D01*
X126842648Y-103128111D01*
X126875414Y-103118171D01*
X126915738Y-103114200D01*
X128354262Y-103114200D01*
X128394586Y-103118171D01*
G37*
G36*
X111884586Y-103118171D02*
G01*
X111917352Y-103128111D01*
X111947552Y-103144253D01*
X111974023Y-103165977D01*
X111995747Y-103192448D01*
X112011889Y-103222648D01*
X112021829Y-103255414D01*
X112025800Y-103295738D01*
X112025800Y-104984262D01*
X112021829Y-105024586D01*
X112011889Y-105057352D01*
X111995747Y-105087552D01*
X111974023Y-105114023D01*
X111947552Y-105135747D01*
X111917352Y-105151889D01*
X111884586Y-105161829D01*
X111844262Y-105165800D01*
X110405738Y-105165800D01*
X110365414Y-105161829D01*
X110332648Y-105151889D01*
X110302448Y-105135747D01*
X110275977Y-105114023D01*
X110254253Y-105087552D01*
X110238111Y-105057352D01*
X110228171Y-105024586D01*
X110224200Y-104984262D01*
X110224200Y-103295738D01*
X110228171Y-103255414D01*
X110238111Y-103222648D01*
X110254253Y-103192448D01*
X110275977Y-103165977D01*
X110302448Y-103144253D01*
X110332648Y-103128111D01*
X110365414Y-103118171D01*
X110405738Y-103114200D01*
X111844262Y-103114200D01*
X111884586Y-103118171D01*
G37*
G36*
X161244449Y-103908650D02*
G01*
X161281914Y-103920015D01*
X161316438Y-103938469D01*
X161346698Y-103963302D01*
X161371531Y-103993562D01*
X161389985Y-104028086D01*
X161401350Y-104065551D01*
X161405800Y-104110738D01*
X161405800Y-104949262D01*
X161401350Y-104994449D01*
X161389985Y-105031914D01*
X161371531Y-105066438D01*
X161346698Y-105096698D01*
X161316438Y-105121531D01*
X161281914Y-105139985D01*
X161244449Y-105151350D01*
X161199262Y-105155800D01*
X160110738Y-105155800D01*
X160065551Y-105151350D01*
X160028086Y-105139985D01*
X159993562Y-105121531D01*
X159963302Y-105096698D01*
X159938469Y-105066438D01*
X159920015Y-105031914D01*
X159908650Y-104994449D01*
X159904200Y-104949262D01*
X159904200Y-104110738D01*
X159908650Y-104065551D01*
X159920015Y-104028086D01*
X159938469Y-103993562D01*
X159963302Y-103963302D01*
X159993562Y-103938469D01*
X160028086Y-103920015D01*
X160065551Y-103908650D01*
X160110738Y-103904200D01*
X161199262Y-103904200D01*
X161244449Y-103908650D01*
G37*
G36*
X135844449Y-103908650D02*
G01*
X135881914Y-103920015D01*
X135916438Y-103938469D01*
X135946698Y-103963302D01*
X135971531Y-103993562D01*
X135989985Y-104028086D01*
X136001350Y-104065551D01*
X136005800Y-104110738D01*
X136005800Y-104949262D01*
X136001350Y-104994449D01*
X135989985Y-105031914D01*
X135971531Y-105066438D01*
X135946698Y-105096698D01*
X135916438Y-105121531D01*
X135881914Y-105139985D01*
X135844449Y-105151350D01*
X135799262Y-105155800D01*
X134710738Y-105155800D01*
X134665551Y-105151350D01*
X134628086Y-105139985D01*
X134593562Y-105121531D01*
X134563302Y-105096698D01*
X134538469Y-105066438D01*
X134520015Y-105031914D01*
X134508650Y-104994449D01*
X134504200Y-104949262D01*
X134504200Y-104110738D01*
X134508650Y-104065551D01*
X134520015Y-104028086D01*
X134538469Y-103993562D01*
X134563302Y-103963302D01*
X134593562Y-103938469D01*
X134628086Y-103920015D01*
X134665551Y-103908650D01*
X134710738Y-103904200D01*
X135799262Y-103904200D01*
X135844449Y-103908650D01*
G37*
G36*
X138565800Y-104905800D02*
G01*
X136564200Y-104905800D01*
X136564200Y-104004200D01*
X138565800Y-104004200D01*
X138565800Y-104905800D01*
G37*
G36*
X163965800Y-104778800D02*
G01*
X161964200Y-104778800D01*
X161964200Y-103877200D01*
X163965800Y-103877200D01*
X163965800Y-104778800D01*
G37*
G36*
X169810800Y-104405800D02*
G01*
X168009200Y-104405800D01*
X168009200Y-102604200D01*
X169810800Y-102604200D01*
X169810800Y-104405800D01*
G37*
G36*
X144410800Y-104405800D02*
G01*
X142609200Y-104405800D01*
X142609200Y-102604200D01*
X144410800Y-102604200D01*
X144410800Y-104405800D01*
G37*
G36*
X141565800Y-103955800D02*
G01*
X139564200Y-103955800D01*
X139564200Y-103054200D01*
X141565800Y-103054200D01*
X141565800Y-103955800D01*
G37*
G36*
X173309449Y-102638650D02*
G01*
X173346914Y-102650015D01*
X173381438Y-102668469D01*
X173411698Y-102693302D01*
X173436531Y-102723562D01*
X173454985Y-102758086D01*
X173466350Y-102795551D01*
X173470800Y-102840738D01*
X173470800Y-103679262D01*
X173466350Y-103724449D01*
X173454985Y-103761914D01*
X173436531Y-103796438D01*
X173411698Y-103826698D01*
X173381438Y-103851531D01*
X173346914Y-103869985D01*
X173309449Y-103881350D01*
X173264262Y-103885800D01*
X172175738Y-103885800D01*
X172130551Y-103881350D01*
X172093086Y-103869985D01*
X172058562Y-103851531D01*
X172028302Y-103826698D01*
X172003469Y-103796438D01*
X171985015Y-103761914D01*
X171973650Y-103724449D01*
X171969200Y-103679262D01*
X171969200Y-102840738D01*
X171973650Y-102795551D01*
X171985015Y-102758086D01*
X172003469Y-102723562D01*
X172028302Y-102693302D01*
X172058562Y-102668469D01*
X172093086Y-102650015D01*
X172130551Y-102638650D01*
X172175738Y-102634200D01*
X173264262Y-102634200D01*
X173309449Y-102638650D01*
G37*
G36*
X147909449Y-102638650D02*
G01*
X147946914Y-102650015D01*
X147981438Y-102668469D01*
X148011698Y-102693302D01*
X148036531Y-102723562D01*
X148054985Y-102758086D01*
X148066350Y-102795551D01*
X148070800Y-102840738D01*
X148070800Y-103679262D01*
X148066350Y-103724449D01*
X148054985Y-103761914D01*
X148036531Y-103796438D01*
X148011698Y-103826698D01*
X147981438Y-103851531D01*
X147946914Y-103869985D01*
X147909449Y-103881350D01*
X147864262Y-103885800D01*
X146775738Y-103885800D01*
X146730551Y-103881350D01*
X146693086Y-103869985D01*
X146658562Y-103851531D01*
X146628302Y-103826698D01*
X146603469Y-103796438D01*
X146585015Y-103761914D01*
X146573650Y-103724449D01*
X146569200Y-103679262D01*
X146569200Y-102840738D01*
X146573650Y-102795551D01*
X146585015Y-102758086D01*
X146603469Y-102723562D01*
X146628302Y-102693302D01*
X146658562Y-102668469D01*
X146693086Y-102650015D01*
X146730551Y-102638650D01*
X146775738Y-102634200D01*
X147864262Y-102634200D01*
X147909449Y-102638650D01*
G37*
G36*
X166965800Y-103828800D02*
G01*
X164964200Y-103828800D01*
X164964200Y-102927200D01*
X166965800Y-102927200D01*
X166965800Y-103828800D01*
G37*
G36*
X135844449Y-101858650D02*
G01*
X135881914Y-101870015D01*
X135916438Y-101888469D01*
X135946698Y-101913302D01*
X135971531Y-101943562D01*
X135989985Y-101978086D01*
X136001350Y-102015551D01*
X136005800Y-102060738D01*
X136005800Y-102899262D01*
X136001350Y-102944449D01*
X135989985Y-102981914D01*
X135971531Y-103016438D01*
X135946698Y-103046698D01*
X135916438Y-103071531D01*
X135881914Y-103089985D01*
X135844449Y-103101350D01*
X135799262Y-103105800D01*
X134710738Y-103105800D01*
X134665551Y-103101350D01*
X134628086Y-103089985D01*
X134593562Y-103071531D01*
X134563302Y-103046698D01*
X134538469Y-103016438D01*
X134520015Y-102981914D01*
X134508650Y-102944449D01*
X134504200Y-102899262D01*
X134504200Y-102060738D01*
X134508650Y-102015551D01*
X134520015Y-101978086D01*
X134538469Y-101943562D01*
X134563302Y-101913302D01*
X134593562Y-101888469D01*
X134628086Y-101870015D01*
X134665551Y-101858650D01*
X134710738Y-101854200D01*
X135799262Y-101854200D01*
X135844449Y-101858650D01*
G37*
G36*
X161244449Y-101858650D02*
G01*
X161281914Y-101870015D01*
X161316438Y-101888469D01*
X161346698Y-101913302D01*
X161371531Y-101943562D01*
X161389985Y-101978086D01*
X161401350Y-102015551D01*
X161405800Y-102060738D01*
X161405800Y-102899262D01*
X161401350Y-102944449D01*
X161389985Y-102981914D01*
X161371531Y-103016438D01*
X161346698Y-103046698D01*
X161316438Y-103071531D01*
X161281914Y-103089985D01*
X161244449Y-103101350D01*
X161199262Y-103105800D01*
X160110738Y-103105800D01*
X160065551Y-103101350D01*
X160028086Y-103089985D01*
X159993562Y-103071531D01*
X159963302Y-103046698D01*
X159938469Y-103016438D01*
X159920015Y-102981914D01*
X159908650Y-102944449D01*
X159904200Y-102899262D01*
X159904200Y-102060738D01*
X159908650Y-102015551D01*
X159920015Y-101978086D01*
X159938469Y-101943562D01*
X159963302Y-101913302D01*
X159993562Y-101888469D01*
X160028086Y-101870015D01*
X160065551Y-101858650D01*
X160110738Y-101854200D01*
X161199262Y-101854200D01*
X161244449Y-101858650D01*
G37*
G36*
X138565800Y-103005800D02*
G01*
X136564200Y-103005800D01*
X136564200Y-102104200D01*
X138565800Y-102104200D01*
X138565800Y-103005800D01*
G37*
G36*
X163965800Y-102878800D02*
G01*
X161964200Y-102878800D01*
X161964200Y-101977200D01*
X163965800Y-101977200D01*
X163965800Y-102878800D01*
G37*
G36*
X169129449Y-100472650D02*
G01*
X169166914Y-100484015D01*
X169201438Y-100502469D01*
X169231698Y-100527302D01*
X169256531Y-100557562D01*
X169274985Y-100592086D01*
X169286350Y-100629551D01*
X169290800Y-100674738D01*
X169290800Y-101763262D01*
X169286350Y-101808449D01*
X169274985Y-101845914D01*
X169256531Y-101880438D01*
X169231698Y-101910698D01*
X169201438Y-101935531D01*
X169166914Y-101953985D01*
X169129449Y-101965350D01*
X169084262Y-101969800D01*
X168245738Y-101969800D01*
X168200551Y-101965350D01*
X168163086Y-101953985D01*
X168128562Y-101935531D01*
X168098302Y-101910698D01*
X168073469Y-101880438D01*
X168055015Y-101845914D01*
X168043650Y-101808449D01*
X168039200Y-101763262D01*
X168039200Y-100674738D01*
X168043650Y-100629551D01*
X168055015Y-100592086D01*
X168073469Y-100557562D01*
X168098302Y-100527302D01*
X168128562Y-100502469D01*
X168163086Y-100484015D01*
X168200551Y-100472650D01*
X168245738Y-100468200D01*
X169084262Y-100468200D01*
X169129449Y-100472650D01*
G37*
G36*
X167079449Y-100472650D02*
G01*
X167116914Y-100484015D01*
X167151438Y-100502469D01*
X167181698Y-100527302D01*
X167206531Y-100557562D01*
X167224985Y-100592086D01*
X167236350Y-100629551D01*
X167240800Y-100674738D01*
X167240800Y-101763262D01*
X167236350Y-101808449D01*
X167224985Y-101845914D01*
X167206531Y-101880438D01*
X167181698Y-101910698D01*
X167151438Y-101935531D01*
X167116914Y-101953985D01*
X167079449Y-101965350D01*
X167034262Y-101969800D01*
X166195738Y-101969800D01*
X166150551Y-101965350D01*
X166113086Y-101953985D01*
X166078562Y-101935531D01*
X166048302Y-101910698D01*
X166023469Y-101880438D01*
X166005015Y-101845914D01*
X165993650Y-101808449D01*
X165989200Y-101763262D01*
X165989200Y-100674738D01*
X165993650Y-100629551D01*
X166005015Y-100592086D01*
X166023469Y-100557562D01*
X166048302Y-100527302D01*
X166078562Y-100502469D01*
X166113086Y-100484015D01*
X166150551Y-100472650D01*
X166195738Y-100468200D01*
X167034262Y-100468200D01*
X167079449Y-100472650D01*
G37*
G36*
X147909449Y-100588650D02*
G01*
X147946914Y-100600015D01*
X147981438Y-100618469D01*
X148011698Y-100643302D01*
X148036531Y-100673562D01*
X148054985Y-100708086D01*
X148066350Y-100745551D01*
X148070800Y-100790738D01*
X148070800Y-101629262D01*
X148066350Y-101674449D01*
X148054985Y-101711914D01*
X148036531Y-101746438D01*
X148011698Y-101776698D01*
X147981438Y-101801531D01*
X147946914Y-101819985D01*
X147909449Y-101831350D01*
X147864262Y-101835800D01*
X146775738Y-101835800D01*
X146730551Y-101831350D01*
X146693086Y-101819985D01*
X146658562Y-101801531D01*
X146628302Y-101776698D01*
X146603469Y-101746438D01*
X146585015Y-101711914D01*
X146573650Y-101674449D01*
X146569200Y-101629262D01*
X146569200Y-100790738D01*
X146573650Y-100745551D01*
X146585015Y-100708086D01*
X146603469Y-100673562D01*
X146628302Y-100643302D01*
X146658562Y-100618469D01*
X146693086Y-100600015D01*
X146730551Y-100588650D01*
X146775738Y-100584200D01*
X147864262Y-100584200D01*
X147909449Y-100588650D01*
G37*
G36*
X173309449Y-100588650D02*
G01*
X173346914Y-100600015D01*
X173381438Y-100618469D01*
X173411698Y-100643302D01*
X173436531Y-100673562D01*
X173454985Y-100708086D01*
X173466350Y-100745551D01*
X173470800Y-100790738D01*
X173470800Y-101629262D01*
X173466350Y-101674449D01*
X173454985Y-101711914D01*
X173436531Y-101746438D01*
X173411698Y-101776698D01*
X173381438Y-101801531D01*
X173346914Y-101819985D01*
X173309449Y-101831350D01*
X173264262Y-101835800D01*
X172175738Y-101835800D01*
X172130551Y-101831350D01*
X172093086Y-101819985D01*
X172058562Y-101801531D01*
X172028302Y-101776698D01*
X172003469Y-101746438D01*
X171985015Y-101711914D01*
X171973650Y-101674449D01*
X171969200Y-101629262D01*
X171969200Y-100790738D01*
X171973650Y-100745551D01*
X171985015Y-100708086D01*
X172003469Y-100673562D01*
X172028302Y-100643302D01*
X172058562Y-100618469D01*
X172093086Y-100600015D01*
X172130551Y-100588650D01*
X172175738Y-100584200D01*
X173264262Y-100584200D01*
X173309449Y-100588650D01*
G37*
G36*
X130394449Y-100218650D02*
G01*
X130431914Y-100230015D01*
X130466438Y-100248469D01*
X130496698Y-100273302D01*
X130521531Y-100303562D01*
X130539985Y-100338086D01*
X130551350Y-100375551D01*
X130555800Y-100420738D01*
X130555800Y-101509262D01*
X130551350Y-101554449D01*
X130539985Y-101591914D01*
X130521531Y-101626438D01*
X130496698Y-101656698D01*
X130466438Y-101681531D01*
X130431914Y-101699985D01*
X130394449Y-101711350D01*
X130349262Y-101715800D01*
X129510738Y-101715800D01*
X129465551Y-101711350D01*
X129428086Y-101699985D01*
X129393562Y-101681531D01*
X129363302Y-101656698D01*
X129338469Y-101626438D01*
X129320015Y-101591914D01*
X129308650Y-101554449D01*
X129304200Y-101509262D01*
X129304200Y-100420738D01*
X129308650Y-100375551D01*
X129320015Y-100338086D01*
X129338469Y-100303562D01*
X129363302Y-100273302D01*
X129393562Y-100248469D01*
X129428086Y-100230015D01*
X129465551Y-100218650D01*
X129510738Y-100214200D01*
X130349262Y-100214200D01*
X130394449Y-100218650D01*
G37*
G36*
X128344449Y-100218650D02*
G01*
X128381914Y-100230015D01*
X128416438Y-100248469D01*
X128446698Y-100273302D01*
X128471531Y-100303562D01*
X128489985Y-100338086D01*
X128501350Y-100375551D01*
X128505800Y-100420738D01*
X128505800Y-101509262D01*
X128501350Y-101554449D01*
X128489985Y-101591914D01*
X128471531Y-101626438D01*
X128446698Y-101656698D01*
X128416438Y-101681531D01*
X128381914Y-101699985D01*
X128344449Y-101711350D01*
X128299262Y-101715800D01*
X127460738Y-101715800D01*
X127415551Y-101711350D01*
X127378086Y-101699985D01*
X127343562Y-101681531D01*
X127313302Y-101656698D01*
X127288469Y-101626438D01*
X127270015Y-101591914D01*
X127258650Y-101554449D01*
X127254200Y-101509262D01*
X127254200Y-100420738D01*
X127258650Y-100375551D01*
X127270015Y-100338086D01*
X127288469Y-100303562D01*
X127313302Y-100273302D01*
X127343562Y-100248469D01*
X127378086Y-100230015D01*
X127415551Y-100218650D01*
X127460738Y-100214200D01*
X128299262Y-100214200D01*
X128344449Y-100218650D01*
G37*
G36*
X138504449Y-99837650D02*
G01*
X138541914Y-99849015D01*
X138576438Y-99867469D01*
X138606698Y-99892302D01*
X138631531Y-99922562D01*
X138649985Y-99957086D01*
X138661350Y-99994551D01*
X138665800Y-100039738D01*
X138665800Y-101128262D01*
X138661350Y-101173449D01*
X138649985Y-101210914D01*
X138631531Y-101245438D01*
X138606698Y-101275698D01*
X138576438Y-101300531D01*
X138541914Y-101318985D01*
X138504449Y-101330350D01*
X138459262Y-101334800D01*
X137620738Y-101334800D01*
X137575551Y-101330350D01*
X137538086Y-101318985D01*
X137503562Y-101300531D01*
X137473302Y-101275698D01*
X137448469Y-101245438D01*
X137430015Y-101210914D01*
X137418650Y-101173449D01*
X137414200Y-101128262D01*
X137414200Y-100039738D01*
X137418650Y-99994551D01*
X137430015Y-99957086D01*
X137448469Y-99922562D01*
X137473302Y-99892302D01*
X137503562Y-99867469D01*
X137538086Y-99849015D01*
X137575551Y-99837650D01*
X137620738Y-99833200D01*
X138459262Y-99833200D01*
X138504449Y-99837650D01*
G37*
G36*
X140554449Y-99837650D02*
G01*
X140591914Y-99849015D01*
X140626438Y-99867469D01*
X140656698Y-99892302D01*
X140681531Y-99922562D01*
X140699985Y-99957086D01*
X140711350Y-99994551D01*
X140715800Y-100039738D01*
X140715800Y-101128262D01*
X140711350Y-101173449D01*
X140699985Y-101210914D01*
X140681531Y-101245438D01*
X140656698Y-101275698D01*
X140626438Y-101300531D01*
X140591914Y-101318985D01*
X140554449Y-101330350D01*
X140509262Y-101334800D01*
X139670738Y-101334800D01*
X139625551Y-101330350D01*
X139588086Y-101318985D01*
X139553562Y-101300531D01*
X139523302Y-101275698D01*
X139498469Y-101245438D01*
X139480015Y-101210914D01*
X139468650Y-101173449D01*
X139464200Y-101128262D01*
X139464200Y-100039738D01*
X139468650Y-99994551D01*
X139480015Y-99957086D01*
X139498469Y-99922562D01*
X139523302Y-99892302D01*
X139553562Y-99867469D01*
X139588086Y-99849015D01*
X139625551Y-99837650D01*
X139670738Y-99833200D01*
X140509262Y-99833200D01*
X140554449Y-99837650D01*
G37*
G36*
X142314449Y-99828650D02*
G01*
X142351914Y-99840015D01*
X142386438Y-99858469D01*
X142416698Y-99883302D01*
X142441531Y-99913562D01*
X142459985Y-99948086D01*
X142471350Y-99985551D01*
X142475800Y-100030738D01*
X142475800Y-101119262D01*
X142471350Y-101164449D01*
X142459985Y-101201914D01*
X142441531Y-101236438D01*
X142416698Y-101266698D01*
X142386438Y-101291531D01*
X142351914Y-101309985D01*
X142314449Y-101321350D01*
X142269262Y-101325800D01*
X141430738Y-101325800D01*
X141385551Y-101321350D01*
X141348086Y-101309985D01*
X141313562Y-101291531D01*
X141283302Y-101266698D01*
X141258469Y-101236438D01*
X141240015Y-101201914D01*
X141228650Y-101164449D01*
X141224200Y-101119262D01*
X141224200Y-100030738D01*
X141228650Y-99985551D01*
X141240015Y-99948086D01*
X141258469Y-99913562D01*
X141283302Y-99883302D01*
X141313562Y-99858469D01*
X141348086Y-99840015D01*
X141385551Y-99828650D01*
X141430738Y-99824200D01*
X142269262Y-99824200D01*
X142314449Y-99828650D01*
G37*
G36*
X144364449Y-99828650D02*
G01*
X144401914Y-99840015D01*
X144436438Y-99858469D01*
X144466698Y-99883302D01*
X144491531Y-99913562D01*
X144509985Y-99948086D01*
X144521350Y-99985551D01*
X144525800Y-100030738D01*
X144525800Y-101119262D01*
X144521350Y-101164449D01*
X144509985Y-101201914D01*
X144491531Y-101236438D01*
X144466698Y-101266698D01*
X144436438Y-101291531D01*
X144401914Y-101309985D01*
X144364449Y-101321350D01*
X144319262Y-101325800D01*
X143480738Y-101325800D01*
X143435551Y-101321350D01*
X143398086Y-101309985D01*
X143363562Y-101291531D01*
X143333302Y-101266698D01*
X143308469Y-101236438D01*
X143290015Y-101201914D01*
X143278650Y-101164449D01*
X143274200Y-101119262D01*
X143274200Y-100030738D01*
X143278650Y-99985551D01*
X143290015Y-99948086D01*
X143308469Y-99913562D01*
X143333302Y-99883302D01*
X143363562Y-99858469D01*
X143398086Y-99840015D01*
X143435551Y-99828650D01*
X143480738Y-99824200D01*
X144319262Y-99824200D01*
X144364449Y-99828650D01*
G37*
G36*
X158969449Y-99583650D02*
G01*
X159006914Y-99595015D01*
X159041438Y-99613469D01*
X159071698Y-99638302D01*
X159096531Y-99668562D01*
X159114985Y-99703086D01*
X159126350Y-99740551D01*
X159130800Y-99785738D01*
X159130800Y-100874262D01*
X159126350Y-100919449D01*
X159114985Y-100956914D01*
X159096531Y-100991438D01*
X159071698Y-101021698D01*
X159041438Y-101046531D01*
X159006914Y-101064985D01*
X158969449Y-101076350D01*
X158924262Y-101080800D01*
X158085738Y-101080800D01*
X158040551Y-101076350D01*
X158003086Y-101064985D01*
X157968562Y-101046531D01*
X157938302Y-101021698D01*
X157913469Y-100991438D01*
X157895015Y-100956914D01*
X157883650Y-100919449D01*
X157879200Y-100874262D01*
X157879200Y-99785738D01*
X157883650Y-99740551D01*
X157895015Y-99703086D01*
X157913469Y-99668562D01*
X157938302Y-99638302D01*
X157968562Y-99613469D01*
X158003086Y-99595015D01*
X158040551Y-99583650D01*
X158085738Y-99579200D01*
X158924262Y-99579200D01*
X158969449Y-99583650D01*
G37*
G36*
X156919449Y-99583650D02*
G01*
X156956914Y-99595015D01*
X156991438Y-99613469D01*
X157021698Y-99638302D01*
X157046531Y-99668562D01*
X157064985Y-99703086D01*
X157076350Y-99740551D01*
X157080800Y-99785738D01*
X157080800Y-100874262D01*
X157076350Y-100919449D01*
X157064985Y-100956914D01*
X157046531Y-100991438D01*
X157021698Y-101021698D01*
X156991438Y-101046531D01*
X156956914Y-101064985D01*
X156919449Y-101076350D01*
X156874262Y-101080800D01*
X156035738Y-101080800D01*
X155990551Y-101076350D01*
X155953086Y-101064985D01*
X155918562Y-101046531D01*
X155888302Y-101021698D01*
X155863469Y-100991438D01*
X155845015Y-100956914D01*
X155833650Y-100919449D01*
X155829200Y-100874262D01*
X155829200Y-99785738D01*
X155833650Y-99740551D01*
X155845015Y-99703086D01*
X155863469Y-99668562D01*
X155888302Y-99638302D01*
X155918562Y-99613469D01*
X155953086Y-99595015D01*
X155990551Y-99583650D01*
X156035738Y-99579200D01*
X156874262Y-99579200D01*
X156919449Y-99583650D01*
G37*
G36*
X122182754Y-97558817D02*
G01*
X122346689Y-97626721D01*
X122494227Y-97725303D01*
X122619697Y-97850773D01*
X122718279Y-97998311D01*
X122786183Y-98162246D01*
X122820800Y-98336279D01*
X122820800Y-98513721D01*
X122786183Y-98687754D01*
X122718279Y-98851689D01*
X122619697Y-98999227D01*
X122494227Y-99124697D01*
X122346689Y-99223279D01*
X122182754Y-99291183D01*
X122008721Y-99325800D01*
X121831279Y-99325800D01*
X121657246Y-99291183D01*
X121493311Y-99223279D01*
X121345773Y-99124697D01*
X121220303Y-98999227D01*
X121121721Y-98851689D01*
X121053817Y-98687754D01*
X121019200Y-98513721D01*
X121019200Y-98336279D01*
X121053817Y-98162246D01*
X121121721Y-97998311D01*
X121220303Y-97850773D01*
X121345773Y-97725303D01*
X121493311Y-97626721D01*
X121657246Y-97558817D01*
X121831279Y-97524200D01*
X122008721Y-97524200D01*
X122182754Y-97558817D01*
G37*
G36*
X152662754Y-97558817D02*
G01*
X152826689Y-97626721D01*
X152974227Y-97725303D01*
X153099697Y-97850773D01*
X153198279Y-97998311D01*
X153266183Y-98162246D01*
X153300800Y-98336279D01*
X153300800Y-98513721D01*
X153266183Y-98687754D01*
X153198279Y-98851689D01*
X153099697Y-98999227D01*
X152974227Y-99124697D01*
X152826689Y-99223279D01*
X152662754Y-99291183D01*
X152488721Y-99325800D01*
X152311279Y-99325800D01*
X152137246Y-99291183D01*
X151973311Y-99223279D01*
X151825773Y-99124697D01*
X151700303Y-98999227D01*
X151601721Y-98851689D01*
X151533817Y-98687754D01*
X151499200Y-98513721D01*
X151499200Y-98336279D01*
X151533817Y-98162246D01*
X151601721Y-97998311D01*
X151700303Y-97850773D01*
X151825773Y-97725303D01*
X151973311Y-97626721D01*
X152137246Y-97558817D01*
X152311279Y-97524200D01*
X152488721Y-97524200D01*
X152662754Y-97558817D01*
G37*
G36*
X155202754Y-97558817D02*
G01*
X155366689Y-97626721D01*
X155514227Y-97725303D01*
X155639697Y-97850773D01*
X155738279Y-97998311D01*
X155806183Y-98162246D01*
X155840800Y-98336279D01*
X155840800Y-98513721D01*
X155806183Y-98687754D01*
X155738279Y-98851689D01*
X155639697Y-98999227D01*
X155514227Y-99124697D01*
X155366689Y-99223279D01*
X155202754Y-99291183D01*
X155028721Y-99325800D01*
X154851279Y-99325800D01*
X154677246Y-99291183D01*
X154513311Y-99223279D01*
X154365773Y-99124697D01*
X154240303Y-98999227D01*
X154141721Y-98851689D01*
X154073817Y-98687754D01*
X154039200Y-98513721D01*
X154039200Y-98336279D01*
X154073817Y-98162246D01*
X154141721Y-97998311D01*
X154240303Y-97850773D01*
X154365773Y-97725303D01*
X154513311Y-97626721D01*
X154677246Y-97558817D01*
X154851279Y-97524200D01*
X155028721Y-97524200D01*
X155202754Y-97558817D01*
G37*
G36*
X157742754Y-97558817D02*
G01*
X157906689Y-97626721D01*
X158054227Y-97725303D01*
X158179697Y-97850773D01*
X158278279Y-97998311D01*
X158346183Y-98162246D01*
X158380800Y-98336279D01*
X158380800Y-98513721D01*
X158346183Y-98687754D01*
X158278279Y-98851689D01*
X158179697Y-98999227D01*
X158054227Y-99124697D01*
X157906689Y-99223279D01*
X157742754Y-99291183D01*
X157568721Y-99325800D01*
X157391279Y-99325800D01*
X157217246Y-99291183D01*
X157053311Y-99223279D01*
X156905773Y-99124697D01*
X156780303Y-98999227D01*
X156681721Y-98851689D01*
X156613817Y-98687754D01*
X156579200Y-98513721D01*
X156579200Y-98336279D01*
X156613817Y-98162246D01*
X156681721Y-97998311D01*
X156780303Y-97850773D01*
X156905773Y-97725303D01*
X157053311Y-97626721D01*
X157217246Y-97558817D01*
X157391279Y-97524200D01*
X157568721Y-97524200D01*
X157742754Y-97558817D01*
G37*
G36*
X160282754Y-97558817D02*
G01*
X160446689Y-97626721D01*
X160594227Y-97725303D01*
X160719697Y-97850773D01*
X160818279Y-97998311D01*
X160886183Y-98162246D01*
X160920800Y-98336279D01*
X160920800Y-98513721D01*
X160886183Y-98687754D01*
X160818279Y-98851689D01*
X160719697Y-98999227D01*
X160594227Y-99124697D01*
X160446689Y-99223279D01*
X160282754Y-99291183D01*
X160108721Y-99325800D01*
X159931279Y-99325800D01*
X159757246Y-99291183D01*
X159593311Y-99223279D01*
X159445773Y-99124697D01*
X159320303Y-98999227D01*
X159221721Y-98851689D01*
X159153817Y-98687754D01*
X159119200Y-98513721D01*
X159119200Y-98336279D01*
X159153817Y-98162246D01*
X159221721Y-97998311D01*
X159320303Y-97850773D01*
X159445773Y-97725303D01*
X159593311Y-97626721D01*
X159757246Y-97558817D01*
X159931279Y-97524200D01*
X160108721Y-97524200D01*
X160282754Y-97558817D01*
G37*
G36*
X162822754Y-97558817D02*
G01*
X162986689Y-97626721D01*
X163134227Y-97725303D01*
X163259697Y-97850773D01*
X163358279Y-97998311D01*
X163426183Y-98162246D01*
X163460800Y-98336279D01*
X163460800Y-98513721D01*
X163426183Y-98687754D01*
X163358279Y-98851689D01*
X163259697Y-98999227D01*
X163134227Y-99124697D01*
X162986689Y-99223279D01*
X162822754Y-99291183D01*
X162648721Y-99325800D01*
X162471279Y-99325800D01*
X162297246Y-99291183D01*
X162133311Y-99223279D01*
X161985773Y-99124697D01*
X161860303Y-98999227D01*
X161761721Y-98851689D01*
X161693817Y-98687754D01*
X161659200Y-98513721D01*
X161659200Y-98336279D01*
X161693817Y-98162246D01*
X161761721Y-97998311D01*
X161860303Y-97850773D01*
X161985773Y-97725303D01*
X162133311Y-97626721D01*
X162297246Y-97558817D01*
X162471279Y-97524200D01*
X162648721Y-97524200D01*
X162822754Y-97558817D01*
G37*
G36*
X165362754Y-97558817D02*
G01*
X165526689Y-97626721D01*
X165674227Y-97725303D01*
X165799697Y-97850773D01*
X165898279Y-97998311D01*
X165966183Y-98162246D01*
X166000800Y-98336279D01*
X166000800Y-98513721D01*
X165966183Y-98687754D01*
X165898279Y-98851689D01*
X165799697Y-98999227D01*
X165674227Y-99124697D01*
X165526689Y-99223279D01*
X165362754Y-99291183D01*
X165188721Y-99325800D01*
X165011279Y-99325800D01*
X164837246Y-99291183D01*
X164673311Y-99223279D01*
X164525773Y-99124697D01*
X164400303Y-98999227D01*
X164301721Y-98851689D01*
X164233817Y-98687754D01*
X164199200Y-98513721D01*
X164199200Y-98336279D01*
X164233817Y-98162246D01*
X164301721Y-97998311D01*
X164400303Y-97850773D01*
X164525773Y-97725303D01*
X164673311Y-97626721D01*
X164837246Y-97558817D01*
X165011279Y-97524200D01*
X165188721Y-97524200D01*
X165362754Y-97558817D01*
G37*
G36*
X167902754Y-97558817D02*
G01*
X168066689Y-97626721D01*
X168214227Y-97725303D01*
X168339697Y-97850773D01*
X168438279Y-97998311D01*
X168506183Y-98162246D01*
X168540800Y-98336279D01*
X168540800Y-98513721D01*
X168506183Y-98687754D01*
X168438279Y-98851689D01*
X168339697Y-98999227D01*
X168214227Y-99124697D01*
X168066689Y-99223279D01*
X167902754Y-99291183D01*
X167728721Y-99325800D01*
X167551279Y-99325800D01*
X167377246Y-99291183D01*
X167213311Y-99223279D01*
X167065773Y-99124697D01*
X166940303Y-98999227D01*
X166841721Y-98851689D01*
X166773817Y-98687754D01*
X166739200Y-98513721D01*
X166739200Y-98336279D01*
X166773817Y-98162246D01*
X166841721Y-97998311D01*
X166940303Y-97850773D01*
X167065773Y-97725303D01*
X167213311Y-97626721D01*
X167377246Y-97558817D01*
X167551279Y-97524200D01*
X167728721Y-97524200D01*
X167902754Y-97558817D01*
G37*
G36*
X170442754Y-97558817D02*
G01*
X170606689Y-97626721D01*
X170754227Y-97725303D01*
X170879697Y-97850773D01*
X170978279Y-97998311D01*
X171046183Y-98162246D01*
X171080800Y-98336279D01*
X171080800Y-98513721D01*
X171046183Y-98687754D01*
X170978279Y-98851689D01*
X170879697Y-98999227D01*
X170754227Y-99124697D01*
X170606689Y-99223279D01*
X170442754Y-99291183D01*
X170268721Y-99325800D01*
X170091279Y-99325800D01*
X169917246Y-99291183D01*
X169753311Y-99223279D01*
X169605773Y-99124697D01*
X169480303Y-98999227D01*
X169381721Y-98851689D01*
X169313817Y-98687754D01*
X169279200Y-98513721D01*
X169279200Y-98336279D01*
X169313817Y-98162246D01*
X169381721Y-97998311D01*
X169480303Y-97850773D01*
X169605773Y-97725303D01*
X169753311Y-97626721D01*
X169917246Y-97558817D01*
X170091279Y-97524200D01*
X170268721Y-97524200D01*
X170442754Y-97558817D01*
G37*
G36*
X173617754Y-97558817D02*
G01*
X173781689Y-97626721D01*
X173929227Y-97725303D01*
X174054697Y-97850773D01*
X174153279Y-97998311D01*
X174221183Y-98162246D01*
X174255800Y-98336279D01*
X174255800Y-98513721D01*
X174221183Y-98687754D01*
X174153279Y-98851689D01*
X174054697Y-98999227D01*
X173929227Y-99124697D01*
X173781689Y-99223279D01*
X173617754Y-99291183D01*
X173443721Y-99325800D01*
X173266279Y-99325800D01*
X173092246Y-99291183D01*
X172928311Y-99223279D01*
X172780773Y-99124697D01*
X172655303Y-98999227D01*
X172556721Y-98851689D01*
X172488817Y-98687754D01*
X172454200Y-98513721D01*
X172454200Y-98336279D01*
X172488817Y-98162246D01*
X172556721Y-97998311D01*
X172655303Y-97850773D01*
X172780773Y-97725303D01*
X172928311Y-97626721D01*
X173092246Y-97558817D01*
X173266279Y-97524200D01*
X173443721Y-97524200D01*
X173617754Y-97558817D01*
G37*
G36*
X145042754Y-97558817D02*
G01*
X145206689Y-97626721D01*
X145354227Y-97725303D01*
X145479697Y-97850773D01*
X145578279Y-97998311D01*
X145646183Y-98162246D01*
X145680800Y-98336279D01*
X145680800Y-98513721D01*
X145646183Y-98687754D01*
X145578279Y-98851689D01*
X145479697Y-98999227D01*
X145354227Y-99124697D01*
X145206689Y-99223279D01*
X145042754Y-99291183D01*
X144868721Y-99325800D01*
X144691279Y-99325800D01*
X144517246Y-99291183D01*
X144353311Y-99223279D01*
X144205773Y-99124697D01*
X144080303Y-98999227D01*
X143981721Y-98851689D01*
X143913817Y-98687754D01*
X143879200Y-98513721D01*
X143879200Y-98336279D01*
X143913817Y-98162246D01*
X143981721Y-97998311D01*
X144080303Y-97850773D01*
X144205773Y-97725303D01*
X144353311Y-97626721D01*
X144517246Y-97558817D01*
X144691279Y-97524200D01*
X144868721Y-97524200D01*
X145042754Y-97558817D01*
G37*
G36*
X124722754Y-97558817D02*
G01*
X124886689Y-97626721D01*
X125034227Y-97725303D01*
X125159697Y-97850773D01*
X125258279Y-97998311D01*
X125326183Y-98162246D01*
X125360800Y-98336279D01*
X125360800Y-98513721D01*
X125326183Y-98687754D01*
X125258279Y-98851689D01*
X125159697Y-98999227D01*
X125034227Y-99124697D01*
X124886689Y-99223279D01*
X124722754Y-99291183D01*
X124548721Y-99325800D01*
X124371279Y-99325800D01*
X124197246Y-99291183D01*
X124033311Y-99223279D01*
X123885773Y-99124697D01*
X123760303Y-98999227D01*
X123661721Y-98851689D01*
X123593817Y-98687754D01*
X123559200Y-98513721D01*
X123559200Y-98336279D01*
X123593817Y-98162246D01*
X123661721Y-97998311D01*
X123760303Y-97850773D01*
X123885773Y-97725303D01*
X124033311Y-97626721D01*
X124197246Y-97558817D01*
X124371279Y-97524200D01*
X124548721Y-97524200D01*
X124722754Y-97558817D01*
G37*
G36*
X150122754Y-97558817D02*
G01*
X150286689Y-97626721D01*
X150434227Y-97725303D01*
X150559697Y-97850773D01*
X150658279Y-97998311D01*
X150726183Y-98162246D01*
X150760800Y-98336279D01*
X150760800Y-98513721D01*
X150726183Y-98687754D01*
X150658279Y-98851689D01*
X150559697Y-98999227D01*
X150434227Y-99124697D01*
X150286689Y-99223279D01*
X150122754Y-99291183D01*
X149948721Y-99325800D01*
X149771279Y-99325800D01*
X149597246Y-99291183D01*
X149433311Y-99223279D01*
X149285773Y-99124697D01*
X149160303Y-98999227D01*
X149061721Y-98851689D01*
X148993817Y-98687754D01*
X148959200Y-98513721D01*
X148959200Y-98336279D01*
X148993817Y-98162246D01*
X149061721Y-97998311D01*
X149160303Y-97850773D01*
X149285773Y-97725303D01*
X149433311Y-97626721D01*
X149597246Y-97558817D01*
X149771279Y-97524200D01*
X149948721Y-97524200D01*
X150122754Y-97558817D01*
G37*
G36*
X127262754Y-97558817D02*
G01*
X127426689Y-97626721D01*
X127574227Y-97725303D01*
X127699697Y-97850773D01*
X127798279Y-97998311D01*
X127866183Y-98162246D01*
X127900800Y-98336279D01*
X127900800Y-98513721D01*
X127866183Y-98687754D01*
X127798279Y-98851689D01*
X127699697Y-98999227D01*
X127574227Y-99124697D01*
X127426689Y-99223279D01*
X127262754Y-99291183D01*
X127088721Y-99325800D01*
X126911279Y-99325800D01*
X126737246Y-99291183D01*
X126573311Y-99223279D01*
X126425773Y-99124697D01*
X126300303Y-98999227D01*
X126201721Y-98851689D01*
X126133817Y-98687754D01*
X126099200Y-98513721D01*
X126099200Y-98336279D01*
X126133817Y-98162246D01*
X126201721Y-97998311D01*
X126300303Y-97850773D01*
X126425773Y-97725303D01*
X126573311Y-97626721D01*
X126737246Y-97558817D01*
X126911279Y-97524200D01*
X127088721Y-97524200D01*
X127262754Y-97558817D01*
G37*
G36*
X129802754Y-97558817D02*
G01*
X129966689Y-97626721D01*
X130114227Y-97725303D01*
X130239697Y-97850773D01*
X130338279Y-97998311D01*
X130406183Y-98162246D01*
X130440800Y-98336279D01*
X130440800Y-98513721D01*
X130406183Y-98687754D01*
X130338279Y-98851689D01*
X130239697Y-98999227D01*
X130114227Y-99124697D01*
X129966689Y-99223279D01*
X129802754Y-99291183D01*
X129628721Y-99325800D01*
X129451279Y-99325800D01*
X129277246Y-99291183D01*
X129113311Y-99223279D01*
X128965773Y-99124697D01*
X128840303Y-98999227D01*
X128741721Y-98851689D01*
X128673817Y-98687754D01*
X128639200Y-98513721D01*
X128639200Y-98336279D01*
X128673817Y-98162246D01*
X128741721Y-97998311D01*
X128840303Y-97850773D01*
X128965773Y-97725303D01*
X129113311Y-97626721D01*
X129277246Y-97558817D01*
X129451279Y-97524200D01*
X129628721Y-97524200D01*
X129802754Y-97558817D01*
G37*
G36*
X132342754Y-97558817D02*
G01*
X132506689Y-97626721D01*
X132654227Y-97725303D01*
X132779697Y-97850773D01*
X132878279Y-97998311D01*
X132946183Y-98162246D01*
X132980800Y-98336279D01*
X132980800Y-98513721D01*
X132946183Y-98687754D01*
X132878279Y-98851689D01*
X132779697Y-98999227D01*
X132654227Y-99124697D01*
X132506689Y-99223279D01*
X132342754Y-99291183D01*
X132168721Y-99325800D01*
X131991279Y-99325800D01*
X131817246Y-99291183D01*
X131653311Y-99223279D01*
X131505773Y-99124697D01*
X131380303Y-98999227D01*
X131281721Y-98851689D01*
X131213817Y-98687754D01*
X131179200Y-98513721D01*
X131179200Y-98336279D01*
X131213817Y-98162246D01*
X131281721Y-97998311D01*
X131380303Y-97850773D01*
X131505773Y-97725303D01*
X131653311Y-97626721D01*
X131817246Y-97558817D01*
X131991279Y-97524200D01*
X132168721Y-97524200D01*
X132342754Y-97558817D01*
G37*
G36*
X134882754Y-97558817D02*
G01*
X135046689Y-97626721D01*
X135194227Y-97725303D01*
X135319697Y-97850773D01*
X135418279Y-97998311D01*
X135486183Y-98162246D01*
X135520800Y-98336279D01*
X135520800Y-98513721D01*
X135486183Y-98687754D01*
X135418279Y-98851689D01*
X135319697Y-98999227D01*
X135194227Y-99124697D01*
X135046689Y-99223279D01*
X134882754Y-99291183D01*
X134708721Y-99325800D01*
X134531279Y-99325800D01*
X134357246Y-99291183D01*
X134193311Y-99223279D01*
X134045773Y-99124697D01*
X133920303Y-98999227D01*
X133821721Y-98851689D01*
X133753817Y-98687754D01*
X133719200Y-98513721D01*
X133719200Y-98336279D01*
X133753817Y-98162246D01*
X133821721Y-97998311D01*
X133920303Y-97850773D01*
X134045773Y-97725303D01*
X134193311Y-97626721D01*
X134357246Y-97558817D01*
X134531279Y-97524200D01*
X134708721Y-97524200D01*
X134882754Y-97558817D01*
G37*
G36*
X137422754Y-97558817D02*
G01*
X137586689Y-97626721D01*
X137734227Y-97725303D01*
X137859697Y-97850773D01*
X137958279Y-97998311D01*
X138026183Y-98162246D01*
X138060800Y-98336279D01*
X138060800Y-98513721D01*
X138026183Y-98687754D01*
X137958279Y-98851689D01*
X137859697Y-98999227D01*
X137734227Y-99124697D01*
X137586689Y-99223279D01*
X137422754Y-99291183D01*
X137248721Y-99325800D01*
X137071279Y-99325800D01*
X136897246Y-99291183D01*
X136733311Y-99223279D01*
X136585773Y-99124697D01*
X136460303Y-98999227D01*
X136361721Y-98851689D01*
X136293817Y-98687754D01*
X136259200Y-98513721D01*
X136259200Y-98336279D01*
X136293817Y-98162246D01*
X136361721Y-97998311D01*
X136460303Y-97850773D01*
X136585773Y-97725303D01*
X136733311Y-97626721D01*
X136897246Y-97558817D01*
X137071279Y-97524200D01*
X137248721Y-97524200D01*
X137422754Y-97558817D01*
G37*
G36*
X139962754Y-97558817D02*
G01*
X140126689Y-97626721D01*
X140274227Y-97725303D01*
X140399697Y-97850773D01*
X140498279Y-97998311D01*
X140566183Y-98162246D01*
X140600800Y-98336279D01*
X140600800Y-98513721D01*
X140566183Y-98687754D01*
X140498279Y-98851689D01*
X140399697Y-98999227D01*
X140274227Y-99124697D01*
X140126689Y-99223279D01*
X139962754Y-99291183D01*
X139788721Y-99325800D01*
X139611279Y-99325800D01*
X139437246Y-99291183D01*
X139273311Y-99223279D01*
X139125773Y-99124697D01*
X139000303Y-98999227D01*
X138901721Y-98851689D01*
X138833817Y-98687754D01*
X138799200Y-98513721D01*
X138799200Y-98336279D01*
X138833817Y-98162246D01*
X138901721Y-97998311D01*
X139000303Y-97850773D01*
X139125773Y-97725303D01*
X139273311Y-97626721D01*
X139437246Y-97558817D01*
X139611279Y-97524200D01*
X139788721Y-97524200D01*
X139962754Y-97558817D01*
G37*
G36*
X142502754Y-97558817D02*
G01*
X142666689Y-97626721D01*
X142814227Y-97725303D01*
X142939697Y-97850773D01*
X143038279Y-97998311D01*
X143106183Y-98162246D01*
X143140800Y-98336279D01*
X143140800Y-98513721D01*
X143106183Y-98687754D01*
X143038279Y-98851689D01*
X142939697Y-98999227D01*
X142814227Y-99124697D01*
X142666689Y-99223279D01*
X142502754Y-99291183D01*
X142328721Y-99325800D01*
X142151279Y-99325800D01*
X141977246Y-99291183D01*
X141813311Y-99223279D01*
X141665773Y-99124697D01*
X141540303Y-98999227D01*
X141441721Y-98851689D01*
X141373817Y-98687754D01*
X141339200Y-98513721D01*
X141339200Y-98336279D01*
X141373817Y-98162246D01*
X141441721Y-97998311D01*
X141540303Y-97850773D01*
X141665773Y-97725303D01*
X141813311Y-97626721D01*
X141977246Y-97558817D01*
X142151279Y-97524200D01*
X142328721Y-97524200D01*
X142502754Y-97558817D01*
G37*
G36*
X147582754Y-97558817D02*
G01*
X147746689Y-97626721D01*
X147894227Y-97725303D01*
X148019697Y-97850773D01*
X148118279Y-97998311D01*
X148186183Y-98162246D01*
X148220800Y-98336279D01*
X148220800Y-98513721D01*
X148186183Y-98687754D01*
X148118279Y-98851689D01*
X148019697Y-98999227D01*
X147894227Y-99124697D01*
X147746689Y-99223279D01*
X147582754Y-99291183D01*
X147408721Y-99325800D01*
X147231279Y-99325800D01*
X147057246Y-99291183D01*
X146893311Y-99223279D01*
X146745773Y-99124697D01*
X146620303Y-98999227D01*
X146521721Y-98851689D01*
X146453817Y-98687754D01*
X146419200Y-98513721D01*
X146419200Y-98336279D01*
X146453817Y-98162246D01*
X146521721Y-97998311D01*
X146620303Y-97850773D01*
X146745773Y-97725303D01*
X146893311Y-97626721D01*
X147057246Y-97558817D01*
X147231279Y-97524200D01*
X147408721Y-97524200D01*
X147582754Y-97558817D01*
G37*
G36*
X112061588Y-96782233D02*
G01*
X112231388Y-96833742D01*
X112387881Y-96917389D01*
X112525044Y-97029956D01*
X112637611Y-97167119D01*
X112721258Y-97323612D01*
X112772767Y-97493412D01*
X112790159Y-97670000D01*
X112772767Y-97846588D01*
X112721258Y-98016388D01*
X112637611Y-98172881D01*
X112525044Y-98310044D01*
X112387881Y-98422611D01*
X112231388Y-98506258D01*
X112061588Y-98557767D01*
X111929259Y-98570800D01*
X111590741Y-98570800D01*
X111458412Y-98557767D01*
X111288612Y-98506258D01*
X111132119Y-98422611D01*
X110994956Y-98310044D01*
X110882389Y-98172881D01*
X110798742Y-98016388D01*
X110747233Y-97846588D01*
X110729841Y-97670000D01*
X110747233Y-97493412D01*
X110798742Y-97323612D01*
X110882389Y-97167119D01*
X110994956Y-97029956D01*
X111132119Y-96917389D01*
X111288612Y-96833742D01*
X111458412Y-96782233D01*
X111590741Y-96769200D01*
X111929259Y-96769200D01*
X112061588Y-96782233D01*
G37*
G36*
X117740800Y-98055800D02*
G01*
X115939200Y-98055800D01*
X115939200Y-96254200D01*
X117740800Y-96254200D01*
X117740800Y-98055800D01*
G37*
G36*
X130129449Y-95653650D02*
G01*
X130166914Y-95665015D01*
X130201438Y-95683469D01*
X130231698Y-95708302D01*
X130256531Y-95738562D01*
X130274985Y-95773086D01*
X130286350Y-95810551D01*
X130290800Y-95855738D01*
X130290800Y-96694262D01*
X130286350Y-96739449D01*
X130274985Y-96776914D01*
X130256531Y-96811438D01*
X130231698Y-96841698D01*
X130201438Y-96866531D01*
X130166914Y-96884985D01*
X130129449Y-96896350D01*
X130084262Y-96900800D01*
X128995738Y-96900800D01*
X128950551Y-96896350D01*
X128913086Y-96884985D01*
X128878562Y-96866531D01*
X128848302Y-96841698D01*
X128823469Y-96811438D01*
X128805015Y-96776914D01*
X128793650Y-96739449D01*
X128789200Y-96694262D01*
X128789200Y-95855738D01*
X128793650Y-95810551D01*
X128805015Y-95773086D01*
X128823469Y-95738562D01*
X128848302Y-95708302D01*
X128878562Y-95683469D01*
X128913086Y-95665015D01*
X128950551Y-95653650D01*
X128995738Y-95649200D01*
X130084262Y-95649200D01*
X130129449Y-95653650D01*
G37*
G36*
X135209449Y-95653650D02*
G01*
X135246914Y-95665015D01*
X135281438Y-95683469D01*
X135311698Y-95708302D01*
X135336531Y-95738562D01*
X135354985Y-95773086D01*
X135366350Y-95810551D01*
X135370800Y-95855738D01*
X135370800Y-96694262D01*
X135366350Y-96739449D01*
X135354985Y-96776914D01*
X135336531Y-96811438D01*
X135311698Y-96841698D01*
X135281438Y-96866531D01*
X135246914Y-96884985D01*
X135209449Y-96896350D01*
X135164262Y-96900800D01*
X134075738Y-96900800D01*
X134030551Y-96896350D01*
X133993086Y-96884985D01*
X133958562Y-96866531D01*
X133928302Y-96841698D01*
X133903469Y-96811438D01*
X133885015Y-96776914D01*
X133873650Y-96739449D01*
X133869200Y-96694262D01*
X133869200Y-95855738D01*
X133873650Y-95810551D01*
X133885015Y-95773086D01*
X133903469Y-95738562D01*
X133928302Y-95708302D01*
X133958562Y-95683469D01*
X133993086Y-95665015D01*
X134030551Y-95653650D01*
X134075738Y-95649200D01*
X135164262Y-95649200D01*
X135209449Y-95653650D01*
G37*
G36*
X132669449Y-95653650D02*
G01*
X132706914Y-95665015D01*
X132741438Y-95683469D01*
X132771698Y-95708302D01*
X132796531Y-95738562D01*
X132814985Y-95773086D01*
X132826350Y-95810551D01*
X132830800Y-95855738D01*
X132830800Y-96694262D01*
X132826350Y-96739449D01*
X132814985Y-96776914D01*
X132796531Y-96811438D01*
X132771698Y-96841698D01*
X132741438Y-96866531D01*
X132706914Y-96884985D01*
X132669449Y-96896350D01*
X132624262Y-96900800D01*
X131535738Y-96900800D01*
X131490551Y-96896350D01*
X131453086Y-96884985D01*
X131418562Y-96866531D01*
X131388302Y-96841698D01*
X131363469Y-96811438D01*
X131345015Y-96776914D01*
X131333650Y-96739449D01*
X131329200Y-96694262D01*
X131329200Y-95855738D01*
X131333650Y-95810551D01*
X131345015Y-95773086D01*
X131363469Y-95738562D01*
X131388302Y-95708302D01*
X131418562Y-95683469D01*
X131453086Y-95665015D01*
X131490551Y-95653650D01*
X131535738Y-95649200D01*
X132624262Y-95649200D01*
X132669449Y-95653650D01*
G37*
G36*
X112061588Y-94282233D02*
G01*
X112231388Y-94333742D01*
X112387881Y-94417389D01*
X112525044Y-94529956D01*
X112637611Y-94667119D01*
X112721258Y-94823612D01*
X112772767Y-94993412D01*
X112790159Y-95170000D01*
X112772767Y-95346588D01*
X112721258Y-95516388D01*
X112637611Y-95672881D01*
X112525044Y-95810044D01*
X112387881Y-95922611D01*
X112231388Y-96006258D01*
X112061588Y-96057767D01*
X111929259Y-96070800D01*
X111590741Y-96070800D01*
X111458412Y-96057767D01*
X111288612Y-96006258D01*
X111132119Y-95922611D01*
X110994956Y-95810044D01*
X110882389Y-95672881D01*
X110798742Y-95516388D01*
X110747233Y-95346588D01*
X110729841Y-95170000D01*
X110747233Y-94993412D01*
X110798742Y-94823612D01*
X110882389Y-94667119D01*
X110994956Y-94529956D01*
X111132119Y-94417389D01*
X111288612Y-94333742D01*
X111458412Y-94282233D01*
X111590741Y-94269200D01*
X111929259Y-94269200D01*
X112061588Y-94282233D01*
G37*
G36*
X155529449Y-94637650D02*
G01*
X155566914Y-94649015D01*
X155601438Y-94667469D01*
X155631698Y-94692302D01*
X155656531Y-94722562D01*
X155674985Y-94757086D01*
X155686350Y-94794551D01*
X155690800Y-94839738D01*
X155690800Y-95678262D01*
X155686350Y-95723449D01*
X155674985Y-95760914D01*
X155656531Y-95795438D01*
X155631698Y-95825698D01*
X155601438Y-95850531D01*
X155566914Y-95868985D01*
X155529449Y-95880350D01*
X155484262Y-95884800D01*
X154395738Y-95884800D01*
X154350551Y-95880350D01*
X154313086Y-95868985D01*
X154278562Y-95850531D01*
X154248302Y-95825698D01*
X154223469Y-95795438D01*
X154205015Y-95760914D01*
X154193650Y-95723449D01*
X154189200Y-95678262D01*
X154189200Y-94839738D01*
X154193650Y-94794551D01*
X154205015Y-94757086D01*
X154223469Y-94722562D01*
X154248302Y-94692302D01*
X154278562Y-94667469D01*
X154313086Y-94649015D01*
X154350551Y-94637650D01*
X154395738Y-94633200D01*
X155484262Y-94633200D01*
X155529449Y-94637650D01*
G37*
G36*
X137749449Y-94637650D02*
G01*
X137786914Y-94649015D01*
X137821438Y-94667469D01*
X137851698Y-94692302D01*
X137876531Y-94722562D01*
X137894985Y-94757086D01*
X137906350Y-94794551D01*
X137910800Y-94839738D01*
X137910800Y-95678262D01*
X137906350Y-95723449D01*
X137894985Y-95760914D01*
X137876531Y-95795438D01*
X137851698Y-95825698D01*
X137821438Y-95850531D01*
X137786914Y-95868985D01*
X137749449Y-95880350D01*
X137704262Y-95884800D01*
X136615738Y-95884800D01*
X136570551Y-95880350D01*
X136533086Y-95868985D01*
X136498562Y-95850531D01*
X136468302Y-95825698D01*
X136443469Y-95795438D01*
X136425015Y-95760914D01*
X136413650Y-95723449D01*
X136409200Y-95678262D01*
X136409200Y-94839738D01*
X136413650Y-94794551D01*
X136425015Y-94757086D01*
X136443469Y-94722562D01*
X136468302Y-94692302D01*
X136498562Y-94667469D01*
X136533086Y-94649015D01*
X136570551Y-94637650D01*
X136615738Y-94633200D01*
X137704262Y-94633200D01*
X137749449Y-94637650D01*
G37*
G36*
X142829449Y-94637650D02*
G01*
X142866914Y-94649015D01*
X142901438Y-94667469D01*
X142931698Y-94692302D01*
X142956531Y-94722562D01*
X142974985Y-94757086D01*
X142986350Y-94794551D01*
X142990800Y-94839738D01*
X142990800Y-95678262D01*
X142986350Y-95723449D01*
X142974985Y-95760914D01*
X142956531Y-95795438D01*
X142931698Y-95825698D01*
X142901438Y-95850531D01*
X142866914Y-95868985D01*
X142829449Y-95880350D01*
X142784262Y-95884800D01*
X141695738Y-95884800D01*
X141650551Y-95880350D01*
X141613086Y-95868985D01*
X141578562Y-95850531D01*
X141548302Y-95825698D01*
X141523469Y-95795438D01*
X141505015Y-95760914D01*
X141493650Y-95723449D01*
X141489200Y-95678262D01*
X141489200Y-94839738D01*
X141493650Y-94794551D01*
X141505015Y-94757086D01*
X141523469Y-94722562D01*
X141548302Y-94692302D01*
X141578562Y-94667469D01*
X141613086Y-94649015D01*
X141650551Y-94637650D01*
X141695738Y-94633200D01*
X142784262Y-94633200D01*
X142829449Y-94637650D01*
G37*
G36*
X152989449Y-94633950D02*
G01*
X153026914Y-94645315D01*
X153061438Y-94663769D01*
X153091698Y-94688602D01*
X153116531Y-94718862D01*
X153134985Y-94753386D01*
X153146350Y-94790851D01*
X153150800Y-94836038D01*
X153150800Y-95674562D01*
X153146350Y-95719749D01*
X153134985Y-95757214D01*
X153116531Y-95791738D01*
X153091698Y-95821998D01*
X153061438Y-95846831D01*
X153026914Y-95865285D01*
X152989449Y-95876650D01*
X152944262Y-95881100D01*
X151855738Y-95881100D01*
X151810551Y-95876650D01*
X151773086Y-95865285D01*
X151738562Y-95846831D01*
X151708302Y-95821998D01*
X151683469Y-95791738D01*
X151665015Y-95757214D01*
X151653650Y-95719749D01*
X151649200Y-95674562D01*
X151649200Y-94836038D01*
X151653650Y-94790851D01*
X151665015Y-94753386D01*
X151683469Y-94718862D01*
X151708302Y-94688602D01*
X151738562Y-94663769D01*
X151773086Y-94645315D01*
X151810551Y-94633950D01*
X151855738Y-94629500D01*
X152944262Y-94629500D01*
X152989449Y-94633950D01*
G37*
G36*
X150449449Y-94633950D02*
G01*
X150486914Y-94645315D01*
X150521438Y-94663769D01*
X150551698Y-94688602D01*
X150576531Y-94718862D01*
X150594985Y-94753386D01*
X150606350Y-94790851D01*
X150610800Y-94836038D01*
X150610800Y-95674562D01*
X150606350Y-95719749D01*
X150594985Y-95757214D01*
X150576531Y-95791738D01*
X150551698Y-95821998D01*
X150521438Y-95846831D01*
X150486914Y-95865285D01*
X150449449Y-95876650D01*
X150404262Y-95881100D01*
X149315738Y-95881100D01*
X149270551Y-95876650D01*
X149233086Y-95865285D01*
X149198562Y-95846831D01*
X149168302Y-95821998D01*
X149143469Y-95791738D01*
X149125015Y-95757214D01*
X149113650Y-95719749D01*
X149109200Y-95674562D01*
X149109200Y-94836038D01*
X149113650Y-94790851D01*
X149125015Y-94753386D01*
X149143469Y-94718862D01*
X149168302Y-94688602D01*
X149198562Y-94663769D01*
X149233086Y-94645315D01*
X149270551Y-94633950D01*
X149315738Y-94629500D01*
X150404262Y-94629500D01*
X150449449Y-94633950D01*
G37*
G36*
X167946507Y-93584582D02*
G01*
X168137740Y-93663793D01*
X168309846Y-93778791D01*
X168456209Y-93925154D01*
X168571207Y-94097260D01*
X168650418Y-94288493D01*
X168690800Y-94491505D01*
X168690800Y-94698495D01*
X168650418Y-94901507D01*
X168571207Y-95092740D01*
X168456209Y-95264846D01*
X168309846Y-95411209D01*
X168137740Y-95526207D01*
X167946507Y-95605418D01*
X167743495Y-95645800D01*
X167536505Y-95645800D01*
X167333493Y-95605418D01*
X167142260Y-95526207D01*
X166970154Y-95411209D01*
X166823791Y-95264846D01*
X166708793Y-95092740D01*
X166629582Y-94901507D01*
X166589200Y-94698495D01*
X166589200Y-94491505D01*
X166629582Y-94288493D01*
X166708793Y-94097260D01*
X166823791Y-93925154D01*
X166970154Y-93778791D01*
X167142260Y-93663793D01*
X167333493Y-93584582D01*
X167536505Y-93544200D01*
X167743495Y-93544200D01*
X167946507Y-93584582D01*
G37*
G36*
X117102754Y-93748817D02*
G01*
X117266689Y-93816721D01*
X117414227Y-93915303D01*
X117539697Y-94040773D01*
X117638279Y-94188311D01*
X117706183Y-94352246D01*
X117740800Y-94526279D01*
X117740800Y-94703721D01*
X117706183Y-94877754D01*
X117638279Y-95041689D01*
X117539697Y-95189227D01*
X117414227Y-95314697D01*
X117266689Y-95413279D01*
X117102754Y-95481183D01*
X116928721Y-95515800D01*
X116751279Y-95515800D01*
X116577246Y-95481183D01*
X116413311Y-95413279D01*
X116265773Y-95314697D01*
X116140303Y-95189227D01*
X116041721Y-95041689D01*
X115973817Y-94877754D01*
X115939200Y-94703721D01*
X115939200Y-94526279D01*
X115973817Y-94352246D01*
X116041721Y-94188311D01*
X116140303Y-94040773D01*
X116265773Y-93915303D01*
X116413311Y-93816721D01*
X116577246Y-93748817D01*
X116751279Y-93714200D01*
X116928721Y-93714200D01*
X117102754Y-93748817D01*
G37*
G36*
X135209449Y-93603650D02*
G01*
X135246914Y-93615015D01*
X135281438Y-93633469D01*
X135311698Y-93658302D01*
X135336531Y-93688562D01*
X135354985Y-93723086D01*
X135366350Y-93760551D01*
X135370800Y-93805738D01*
X135370800Y-94644262D01*
X135366350Y-94689449D01*
X135354985Y-94726914D01*
X135336531Y-94761438D01*
X135311698Y-94791698D01*
X135281438Y-94816531D01*
X135246914Y-94834985D01*
X135209449Y-94846350D01*
X135164262Y-94850800D01*
X134075738Y-94850800D01*
X134030551Y-94846350D01*
X133993086Y-94834985D01*
X133958562Y-94816531D01*
X133928302Y-94791698D01*
X133903469Y-94761438D01*
X133885015Y-94726914D01*
X133873650Y-94689449D01*
X133869200Y-94644262D01*
X133869200Y-93805738D01*
X133873650Y-93760551D01*
X133885015Y-93723086D01*
X133903469Y-93688562D01*
X133928302Y-93658302D01*
X133958562Y-93633469D01*
X133993086Y-93615015D01*
X134030551Y-93603650D01*
X134075738Y-93599200D01*
X135164262Y-93599200D01*
X135209449Y-93603650D01*
G37*
G36*
X132669449Y-93603650D02*
G01*
X132706914Y-93615015D01*
X132741438Y-93633469D01*
X132771698Y-93658302D01*
X132796531Y-93688562D01*
X132814985Y-93723086D01*
X132826350Y-93760551D01*
X132830800Y-93805738D01*
X132830800Y-94644262D01*
X132826350Y-94689449D01*
X132814985Y-94726914D01*
X132796531Y-94761438D01*
X132771698Y-94791698D01*
X132741438Y-94816531D01*
X132706914Y-94834985D01*
X132669449Y-94846350D01*
X132624262Y-94850800D01*
X131535738Y-94850800D01*
X131490551Y-94846350D01*
X131453086Y-94834985D01*
X131418562Y-94816531D01*
X131388302Y-94791698D01*
X131363469Y-94761438D01*
X131345015Y-94726914D01*
X131333650Y-94689449D01*
X131329200Y-94644262D01*
X131329200Y-93805738D01*
X131333650Y-93760551D01*
X131345015Y-93723086D01*
X131363469Y-93688562D01*
X131388302Y-93658302D01*
X131418562Y-93633469D01*
X131453086Y-93615015D01*
X131490551Y-93603650D01*
X131535738Y-93599200D01*
X132624262Y-93599200D01*
X132669449Y-93603650D01*
G37*
G36*
X130129449Y-93603650D02*
G01*
X130166914Y-93615015D01*
X130201438Y-93633469D01*
X130231698Y-93658302D01*
X130256531Y-93688562D01*
X130274985Y-93723086D01*
X130286350Y-93760551D01*
X130290800Y-93805738D01*
X130290800Y-94644262D01*
X130286350Y-94689449D01*
X130274985Y-94726914D01*
X130256531Y-94761438D01*
X130231698Y-94791698D01*
X130201438Y-94816531D01*
X130166914Y-94834985D01*
X130129449Y-94846350D01*
X130084262Y-94850800D01*
X128995738Y-94850800D01*
X128950551Y-94846350D01*
X128913086Y-94834985D01*
X128878562Y-94816531D01*
X128848302Y-94791698D01*
X128823469Y-94761438D01*
X128805015Y-94726914D01*
X128793650Y-94689449D01*
X128789200Y-94644262D01*
X128789200Y-93805738D01*
X128793650Y-93760551D01*
X128805015Y-93723086D01*
X128823469Y-93688562D01*
X128848302Y-93658302D01*
X128878562Y-93633469D01*
X128913086Y-93615015D01*
X128950551Y-93603650D01*
X128995738Y-93599200D01*
X130084262Y-93599200D01*
X130129449Y-93603650D01*
G37*
G36*
X155529449Y-92587650D02*
G01*
X155566914Y-92599015D01*
X155601438Y-92617469D01*
X155631698Y-92642302D01*
X155656531Y-92672562D01*
X155674985Y-92707086D01*
X155686350Y-92744551D01*
X155690800Y-92789738D01*
X155690800Y-93628262D01*
X155686350Y-93673449D01*
X155674985Y-93710914D01*
X155656531Y-93745438D01*
X155631698Y-93775698D01*
X155601438Y-93800531D01*
X155566914Y-93818985D01*
X155529449Y-93830350D01*
X155484262Y-93834800D01*
X154395738Y-93834800D01*
X154350551Y-93830350D01*
X154313086Y-93818985D01*
X154278562Y-93800531D01*
X154248302Y-93775698D01*
X154223469Y-93745438D01*
X154205015Y-93710914D01*
X154193650Y-93673449D01*
X154189200Y-93628262D01*
X154189200Y-92789738D01*
X154193650Y-92744551D01*
X154205015Y-92707086D01*
X154223469Y-92672562D01*
X154248302Y-92642302D01*
X154278562Y-92617469D01*
X154313086Y-92599015D01*
X154350551Y-92587650D01*
X154395738Y-92583200D01*
X155484262Y-92583200D01*
X155529449Y-92587650D01*
G37*
G36*
X137749449Y-92587650D02*
G01*
X137786914Y-92599015D01*
X137821438Y-92617469D01*
X137851698Y-92642302D01*
X137876531Y-92672562D01*
X137894985Y-92707086D01*
X137906350Y-92744551D01*
X137910800Y-92789738D01*
X137910800Y-93628262D01*
X137906350Y-93673449D01*
X137894985Y-93710914D01*
X137876531Y-93745438D01*
X137851698Y-93775698D01*
X137821438Y-93800531D01*
X137786914Y-93818985D01*
X137749449Y-93830350D01*
X137704262Y-93834800D01*
X136615738Y-93834800D01*
X136570551Y-93830350D01*
X136533086Y-93818985D01*
X136498562Y-93800531D01*
X136468302Y-93775698D01*
X136443469Y-93745438D01*
X136425015Y-93710914D01*
X136413650Y-93673449D01*
X136409200Y-93628262D01*
X136409200Y-92789738D01*
X136413650Y-92744551D01*
X136425015Y-92707086D01*
X136443469Y-92672562D01*
X136468302Y-92642302D01*
X136498562Y-92617469D01*
X136533086Y-92599015D01*
X136570551Y-92587650D01*
X136615738Y-92583200D01*
X137704262Y-92583200D01*
X137749449Y-92587650D01*
G37*
G36*
X142829449Y-92587650D02*
G01*
X142866914Y-92599015D01*
X142901438Y-92617469D01*
X142931698Y-92642302D01*
X142956531Y-92672562D01*
X142974985Y-92707086D01*
X142986350Y-92744551D01*
X142990800Y-92789738D01*
X142990800Y-93628262D01*
X142986350Y-93673449D01*
X142974985Y-93710914D01*
X142956531Y-93745438D01*
X142931698Y-93775698D01*
X142901438Y-93800531D01*
X142866914Y-93818985D01*
X142829449Y-93830350D01*
X142784262Y-93834800D01*
X141695738Y-93834800D01*
X141650551Y-93830350D01*
X141613086Y-93818985D01*
X141578562Y-93800531D01*
X141548302Y-93775698D01*
X141523469Y-93745438D01*
X141505015Y-93710914D01*
X141493650Y-93673449D01*
X141489200Y-93628262D01*
X141489200Y-92789738D01*
X141493650Y-92744551D01*
X141505015Y-92707086D01*
X141523469Y-92672562D01*
X141548302Y-92642302D01*
X141578562Y-92617469D01*
X141613086Y-92599015D01*
X141650551Y-92587650D01*
X141695738Y-92583200D01*
X142784262Y-92583200D01*
X142829449Y-92587650D01*
G37*
G36*
X152989449Y-92583950D02*
G01*
X153026914Y-92595315D01*
X153061438Y-92613769D01*
X153091698Y-92638602D01*
X153116531Y-92668862D01*
X153134985Y-92703386D01*
X153146350Y-92740851D01*
X153150800Y-92786038D01*
X153150800Y-93624562D01*
X153146350Y-93669749D01*
X153134985Y-93707214D01*
X153116531Y-93741738D01*
X153091698Y-93771998D01*
X153061438Y-93796831D01*
X153026914Y-93815285D01*
X152989449Y-93826650D01*
X152944262Y-93831100D01*
X151855738Y-93831100D01*
X151810551Y-93826650D01*
X151773086Y-93815285D01*
X151738562Y-93796831D01*
X151708302Y-93771998D01*
X151683469Y-93741738D01*
X151665015Y-93707214D01*
X151653650Y-93669749D01*
X151649200Y-93624562D01*
X151649200Y-92786038D01*
X151653650Y-92740851D01*
X151665015Y-92703386D01*
X151683469Y-92668862D01*
X151708302Y-92638602D01*
X151738562Y-92613769D01*
X151773086Y-92595315D01*
X151810551Y-92583950D01*
X151855738Y-92579500D01*
X152944262Y-92579500D01*
X152989449Y-92583950D01*
G37*
G36*
X150449449Y-92583950D02*
G01*
X150486914Y-92595315D01*
X150521438Y-92613769D01*
X150551698Y-92638602D01*
X150576531Y-92668862D01*
X150594985Y-92703386D01*
X150606350Y-92740851D01*
X150610800Y-92786038D01*
X150610800Y-93624562D01*
X150606350Y-93669749D01*
X150594985Y-93707214D01*
X150576531Y-93741738D01*
X150551698Y-93771998D01*
X150521438Y-93796831D01*
X150486914Y-93815285D01*
X150449449Y-93826650D01*
X150404262Y-93831100D01*
X149315738Y-93831100D01*
X149270551Y-93826650D01*
X149233086Y-93815285D01*
X149198562Y-93796831D01*
X149168302Y-93771998D01*
X149143469Y-93741738D01*
X149125015Y-93707214D01*
X149113650Y-93669749D01*
X149109200Y-93624562D01*
X149109200Y-92786038D01*
X149113650Y-92740851D01*
X149125015Y-92703386D01*
X149143469Y-92668862D01*
X149168302Y-92638602D01*
X149198562Y-92613769D01*
X149233086Y-92595315D01*
X149270551Y-92583950D01*
X149315738Y-92579500D01*
X150404262Y-92579500D01*
X150449449Y-92583950D01*
G37*
G36*
X112061588Y-91782233D02*
G01*
X112231388Y-91833742D01*
X112387881Y-91917389D01*
X112525044Y-92029956D01*
X112637611Y-92167119D01*
X112721258Y-92323612D01*
X112772767Y-92493412D01*
X112790159Y-92670000D01*
X112772767Y-92846588D01*
X112721258Y-93016388D01*
X112637611Y-93172881D01*
X112525044Y-93310044D01*
X112387881Y-93422611D01*
X112231388Y-93506258D01*
X112061588Y-93557767D01*
X111929259Y-93570800D01*
X111590741Y-93570800D01*
X111458412Y-93557767D01*
X111288612Y-93506258D01*
X111132119Y-93422611D01*
X110994956Y-93310044D01*
X110882389Y-93172881D01*
X110798742Y-93016388D01*
X110747233Y-92846588D01*
X110729841Y-92670000D01*
X110747233Y-92493412D01*
X110798742Y-92323612D01*
X110882389Y-92167119D01*
X110994956Y-92029956D01*
X111132119Y-91917389D01*
X111288612Y-91833742D01*
X111458412Y-91782233D01*
X111590741Y-91769200D01*
X111929259Y-91769200D01*
X112061588Y-91782233D01*
G37*
G36*
X112644586Y-89273171D02*
G01*
X112677352Y-89283111D01*
X112707552Y-89299253D01*
X112734023Y-89320977D01*
X112755747Y-89347448D01*
X112771889Y-89377648D01*
X112781829Y-89410414D01*
X112785800Y-89450738D01*
X112785800Y-90889262D01*
X112781829Y-90929586D01*
X112771889Y-90962352D01*
X112755747Y-90992552D01*
X112734023Y-91019023D01*
X112707552Y-91040747D01*
X112677352Y-91056889D01*
X112644586Y-91066829D01*
X112604262Y-91070800D01*
X110915738Y-91070800D01*
X110875414Y-91066829D01*
X110842648Y-91056889D01*
X110812448Y-91040747D01*
X110785977Y-91019023D01*
X110764253Y-90992552D01*
X110748111Y-90962352D01*
X110738171Y-90929586D01*
X110734200Y-90889262D01*
X110734200Y-89450738D01*
X110738171Y-89410414D01*
X110748111Y-89377648D01*
X110764253Y-89347448D01*
X110785977Y-89320977D01*
X110812448Y-89299253D01*
X110842648Y-89283111D01*
X110875414Y-89273171D01*
X110915738Y-89269200D01*
X112604262Y-89269200D01*
X112644586Y-89273171D01*
G37*
G36*
X168690800Y-88045800D02*
G01*
X166589200Y-88045800D01*
X166589200Y-85944200D01*
X168690800Y-85944200D01*
X168690800Y-88045800D01*
G37*
G36*
X137749449Y-86763650D02*
G01*
X137786914Y-86775015D01*
X137821438Y-86793469D01*
X137851698Y-86818302D01*
X137876531Y-86848562D01*
X137894985Y-86883086D01*
X137906350Y-86920551D01*
X137910800Y-86965738D01*
X137910800Y-87804262D01*
X137906350Y-87849449D01*
X137894985Y-87886914D01*
X137876531Y-87921438D01*
X137851698Y-87951698D01*
X137821438Y-87976531D01*
X137786914Y-87994985D01*
X137749449Y-88006350D01*
X137704262Y-88010800D01*
X136615738Y-88010800D01*
X136570551Y-88006350D01*
X136533086Y-87994985D01*
X136498562Y-87976531D01*
X136468302Y-87951698D01*
X136443469Y-87921438D01*
X136425015Y-87886914D01*
X136413650Y-87849449D01*
X136409200Y-87804262D01*
X136409200Y-86965738D01*
X136413650Y-86920551D01*
X136425015Y-86883086D01*
X136443469Y-86848562D01*
X136468302Y-86818302D01*
X136498562Y-86793469D01*
X136533086Y-86775015D01*
X136570551Y-86763650D01*
X136615738Y-86759200D01*
X137704262Y-86759200D01*
X137749449Y-86763650D01*
G37*
G36*
X135209449Y-86763650D02*
G01*
X135246914Y-86775015D01*
X135281438Y-86793469D01*
X135311698Y-86818302D01*
X135336531Y-86848562D01*
X135354985Y-86883086D01*
X135366350Y-86920551D01*
X135370800Y-86965738D01*
X135370800Y-87804262D01*
X135366350Y-87849449D01*
X135354985Y-87886914D01*
X135336531Y-87921438D01*
X135311698Y-87951698D01*
X135281438Y-87976531D01*
X135246914Y-87994985D01*
X135209449Y-88006350D01*
X135164262Y-88010800D01*
X134075738Y-88010800D01*
X134030551Y-88006350D01*
X133993086Y-87994985D01*
X133958562Y-87976531D01*
X133928302Y-87951698D01*
X133903469Y-87921438D01*
X133885015Y-87886914D01*
X133873650Y-87849449D01*
X133869200Y-87804262D01*
X133869200Y-86965738D01*
X133873650Y-86920551D01*
X133885015Y-86883086D01*
X133903469Y-86848562D01*
X133928302Y-86818302D01*
X133958562Y-86793469D01*
X133993086Y-86775015D01*
X134030551Y-86763650D01*
X134075738Y-86759200D01*
X135164262Y-86759200D01*
X135209449Y-86763650D01*
G37*
G36*
X155529449Y-86763650D02*
G01*
X155566914Y-86775015D01*
X155601438Y-86793469D01*
X155631698Y-86818302D01*
X155656531Y-86848562D01*
X155674985Y-86883086D01*
X155686350Y-86920551D01*
X155690800Y-86965738D01*
X155690800Y-87804262D01*
X155686350Y-87849449D01*
X155674985Y-87886914D01*
X155656531Y-87921438D01*
X155631698Y-87951698D01*
X155601438Y-87976531D01*
X155566914Y-87994985D01*
X155529449Y-88006350D01*
X155484262Y-88010800D01*
X154395738Y-88010800D01*
X154350551Y-88006350D01*
X154313086Y-87994985D01*
X154278562Y-87976531D01*
X154248302Y-87951698D01*
X154223469Y-87921438D01*
X154205015Y-87886914D01*
X154193650Y-87849449D01*
X154189200Y-87804262D01*
X154189200Y-86965738D01*
X154193650Y-86920551D01*
X154205015Y-86883086D01*
X154223469Y-86848562D01*
X154248302Y-86818302D01*
X154278562Y-86793469D01*
X154313086Y-86775015D01*
X154350551Y-86763650D01*
X154395738Y-86759200D01*
X155484262Y-86759200D01*
X155529449Y-86763650D01*
G37*
G36*
X135209449Y-84713650D02*
G01*
X135246914Y-84725015D01*
X135281438Y-84743469D01*
X135311698Y-84768302D01*
X135336531Y-84798562D01*
X135354985Y-84833086D01*
X135366350Y-84870551D01*
X135370800Y-84915738D01*
X135370800Y-85754262D01*
X135366350Y-85799449D01*
X135354985Y-85836914D01*
X135336531Y-85871438D01*
X135311698Y-85901698D01*
X135281438Y-85926531D01*
X135246914Y-85944985D01*
X135209449Y-85956350D01*
X135164262Y-85960800D01*
X134075738Y-85960800D01*
X134030551Y-85956350D01*
X133993086Y-85944985D01*
X133958562Y-85926531D01*
X133928302Y-85901698D01*
X133903469Y-85871438D01*
X133885015Y-85836914D01*
X133873650Y-85799449D01*
X133869200Y-85754262D01*
X133869200Y-84915738D01*
X133873650Y-84870551D01*
X133885015Y-84833086D01*
X133903469Y-84798562D01*
X133928302Y-84768302D01*
X133958562Y-84743469D01*
X133993086Y-84725015D01*
X134030551Y-84713650D01*
X134075738Y-84709200D01*
X135164262Y-84709200D01*
X135209449Y-84713650D01*
G37*
G36*
X155529449Y-84713650D02*
G01*
X155566914Y-84725015D01*
X155601438Y-84743469D01*
X155631698Y-84768302D01*
X155656531Y-84798562D01*
X155674985Y-84833086D01*
X155686350Y-84870551D01*
X155690800Y-84915738D01*
X155690800Y-85754262D01*
X155686350Y-85799449D01*
X155674985Y-85836914D01*
X155656531Y-85871438D01*
X155631698Y-85901698D01*
X155601438Y-85926531D01*
X155566914Y-85944985D01*
X155529449Y-85956350D01*
X155484262Y-85960800D01*
X154395738Y-85960800D01*
X154350551Y-85956350D01*
X154313086Y-85944985D01*
X154278562Y-85926531D01*
X154248302Y-85901698D01*
X154223469Y-85871438D01*
X154205015Y-85836914D01*
X154193650Y-85799449D01*
X154189200Y-85754262D01*
X154189200Y-84915738D01*
X154193650Y-84870551D01*
X154205015Y-84833086D01*
X154223469Y-84798562D01*
X154248302Y-84768302D01*
X154278562Y-84743469D01*
X154313086Y-84725015D01*
X154350551Y-84713650D01*
X154395738Y-84709200D01*
X155484262Y-84709200D01*
X155529449Y-84713650D01*
G37*
G36*
X137749449Y-84713650D02*
G01*
X137786914Y-84725015D01*
X137821438Y-84743469D01*
X137851698Y-84768302D01*
X137876531Y-84798562D01*
X137894985Y-84833086D01*
X137906350Y-84870551D01*
X137910800Y-84915738D01*
X137910800Y-85754262D01*
X137906350Y-85799449D01*
X137894985Y-85836914D01*
X137876531Y-85871438D01*
X137851698Y-85901698D01*
X137821438Y-85926531D01*
X137786914Y-85944985D01*
X137749449Y-85956350D01*
X137704262Y-85960800D01*
X136615738Y-85960800D01*
X136570551Y-85956350D01*
X136533086Y-85944985D01*
X136498562Y-85926531D01*
X136468302Y-85901698D01*
X136443469Y-85871438D01*
X136425015Y-85836914D01*
X136413650Y-85799449D01*
X136409200Y-85754262D01*
X136409200Y-84915738D01*
X136413650Y-84870551D01*
X136425015Y-84833086D01*
X136443469Y-84798562D01*
X136468302Y-84768302D01*
X136498562Y-84743469D01*
X136533086Y-84725015D01*
X136570551Y-84713650D01*
X136615738Y-84709200D01*
X137704262Y-84709200D01*
X137749449Y-84713650D01*
G37*
G36*
X112061588Y-82812233D02*
G01*
X112231388Y-82863742D01*
X112387881Y-82947389D01*
X112525044Y-83059956D01*
X112637611Y-83197119D01*
X112721258Y-83353612D01*
X112772767Y-83523412D01*
X112790159Y-83700000D01*
X112772767Y-83876588D01*
X112721258Y-84046388D01*
X112637611Y-84202881D01*
X112525044Y-84340044D01*
X112387881Y-84452611D01*
X112231388Y-84536258D01*
X112061588Y-84587767D01*
X111929259Y-84600800D01*
X111590741Y-84600800D01*
X111458412Y-84587767D01*
X111288612Y-84536258D01*
X111132119Y-84452611D01*
X110994956Y-84340044D01*
X110882389Y-84202881D01*
X110798742Y-84046388D01*
X110747233Y-83876588D01*
X110729841Y-83700000D01*
X110747233Y-83523412D01*
X110798742Y-83353612D01*
X110882389Y-83197119D01*
X110994956Y-83059956D01*
X111132119Y-82947389D01*
X111288612Y-82863742D01*
X111458412Y-82812233D01*
X111590741Y-82799200D01*
X111929259Y-82799200D01*
X112061588Y-82812233D01*
G37*
G36*
X165362754Y-82318817D02*
G01*
X165526689Y-82386721D01*
X165674227Y-82485303D01*
X165799697Y-82610773D01*
X165898279Y-82758311D01*
X165966183Y-82922246D01*
X166000800Y-83096279D01*
X166000800Y-83273721D01*
X165966183Y-83447754D01*
X165898279Y-83611689D01*
X165799697Y-83759227D01*
X165674227Y-83884697D01*
X165526689Y-83983279D01*
X165362754Y-84051183D01*
X165188721Y-84085800D01*
X165011279Y-84085800D01*
X164837246Y-84051183D01*
X164673311Y-83983279D01*
X164525773Y-83884697D01*
X164400303Y-83759227D01*
X164301721Y-83611689D01*
X164233817Y-83447754D01*
X164199200Y-83273721D01*
X164199200Y-83096279D01*
X164233817Y-82922246D01*
X164301721Y-82758311D01*
X164400303Y-82610773D01*
X164525773Y-82485303D01*
X164673311Y-82386721D01*
X164837246Y-82318817D01*
X165011279Y-82284200D01*
X165188721Y-82284200D01*
X165362754Y-82318817D01*
G37*
G36*
X170442754Y-82318817D02*
G01*
X170606689Y-82386721D01*
X170754227Y-82485303D01*
X170879697Y-82610773D01*
X170978279Y-82758311D01*
X171046183Y-82922246D01*
X171080800Y-83096279D01*
X171080800Y-83273721D01*
X171046183Y-83447754D01*
X170978279Y-83611689D01*
X170879697Y-83759227D01*
X170754227Y-83884697D01*
X170606689Y-83983279D01*
X170442754Y-84051183D01*
X170268721Y-84085800D01*
X170091279Y-84085800D01*
X169917246Y-84051183D01*
X169753311Y-83983279D01*
X169605773Y-83884697D01*
X169480303Y-83759227D01*
X169381721Y-83611689D01*
X169313817Y-83447754D01*
X169279200Y-83273721D01*
X169279200Y-83096279D01*
X169313817Y-82922246D01*
X169381721Y-82758311D01*
X169480303Y-82610773D01*
X169605773Y-82485303D01*
X169753311Y-82386721D01*
X169917246Y-82318817D01*
X170091279Y-82284200D01*
X170268721Y-82284200D01*
X170442754Y-82318817D01*
G37*
G36*
X167902754Y-82318817D02*
G01*
X168066689Y-82386721D01*
X168214227Y-82485303D01*
X168339697Y-82610773D01*
X168438279Y-82758311D01*
X168506183Y-82922246D01*
X168540800Y-83096279D01*
X168540800Y-83273721D01*
X168506183Y-83447754D01*
X168438279Y-83611689D01*
X168339697Y-83759227D01*
X168214227Y-83884697D01*
X168066689Y-83983279D01*
X167902754Y-84051183D01*
X167728721Y-84085800D01*
X167551279Y-84085800D01*
X167377246Y-84051183D01*
X167213311Y-83983279D01*
X167065773Y-83884697D01*
X166940303Y-83759227D01*
X166841721Y-83611689D01*
X166773817Y-83447754D01*
X166739200Y-83273721D01*
X166739200Y-83096279D01*
X166773817Y-82922246D01*
X166841721Y-82758311D01*
X166940303Y-82610773D01*
X167065773Y-82485303D01*
X167213311Y-82386721D01*
X167377246Y-82318817D01*
X167551279Y-82284200D01*
X167728721Y-82284200D01*
X167902754Y-82318817D01*
G37*
G36*
X162822754Y-82318817D02*
G01*
X162986689Y-82386721D01*
X163134227Y-82485303D01*
X163259697Y-82610773D01*
X163358279Y-82758311D01*
X163426183Y-82922246D01*
X163460800Y-83096279D01*
X163460800Y-83273721D01*
X163426183Y-83447754D01*
X163358279Y-83611689D01*
X163259697Y-83759227D01*
X163134227Y-83884697D01*
X162986689Y-83983279D01*
X162822754Y-84051183D01*
X162648721Y-84085800D01*
X162471279Y-84085800D01*
X162297246Y-84051183D01*
X162133311Y-83983279D01*
X161985773Y-83884697D01*
X161860303Y-83759227D01*
X161761721Y-83611689D01*
X161693817Y-83447754D01*
X161659200Y-83273721D01*
X161659200Y-83096279D01*
X161693817Y-82922246D01*
X161761721Y-82758311D01*
X161860303Y-82610773D01*
X161985773Y-82485303D01*
X162133311Y-82386721D01*
X162297246Y-82318817D01*
X162471279Y-82284200D01*
X162648721Y-82284200D01*
X162822754Y-82318817D01*
G37*
G36*
X160282754Y-82318817D02*
G01*
X160446689Y-82386721D01*
X160594227Y-82485303D01*
X160719697Y-82610773D01*
X160818279Y-82758311D01*
X160886183Y-82922246D01*
X160920800Y-83096279D01*
X160920800Y-83273721D01*
X160886183Y-83447754D01*
X160818279Y-83611689D01*
X160719697Y-83759227D01*
X160594227Y-83884697D01*
X160446689Y-83983279D01*
X160282754Y-84051183D01*
X160108721Y-84085800D01*
X159931279Y-84085800D01*
X159757246Y-84051183D01*
X159593311Y-83983279D01*
X159445773Y-83884697D01*
X159320303Y-83759227D01*
X159221721Y-83611689D01*
X159153817Y-83447754D01*
X159119200Y-83273721D01*
X159119200Y-83096279D01*
X159153817Y-82922246D01*
X159221721Y-82758311D01*
X159320303Y-82610773D01*
X159445773Y-82485303D01*
X159593311Y-82386721D01*
X159757246Y-82318817D01*
X159931279Y-82284200D01*
X160108721Y-82284200D01*
X160282754Y-82318817D01*
G37*
G36*
X157742754Y-82318817D02*
G01*
X157906689Y-82386721D01*
X158054227Y-82485303D01*
X158179697Y-82610773D01*
X158278279Y-82758311D01*
X158346183Y-82922246D01*
X158380800Y-83096279D01*
X158380800Y-83273721D01*
X158346183Y-83447754D01*
X158278279Y-83611689D01*
X158179697Y-83759227D01*
X158054227Y-83884697D01*
X157906689Y-83983279D01*
X157742754Y-84051183D01*
X157568721Y-84085800D01*
X157391279Y-84085800D01*
X157217246Y-84051183D01*
X157053311Y-83983279D01*
X156905773Y-83884697D01*
X156780303Y-83759227D01*
X156681721Y-83611689D01*
X156613817Y-83447754D01*
X156579200Y-83273721D01*
X156579200Y-83096279D01*
X156613817Y-82922246D01*
X156681721Y-82758311D01*
X156780303Y-82610773D01*
X156905773Y-82485303D01*
X157053311Y-82386721D01*
X157217246Y-82318817D01*
X157391279Y-82284200D01*
X157568721Y-82284200D01*
X157742754Y-82318817D01*
G37*
G36*
X155202754Y-82318817D02*
G01*
X155366689Y-82386721D01*
X155514227Y-82485303D01*
X155639697Y-82610773D01*
X155738279Y-82758311D01*
X155806183Y-82922246D01*
X155840800Y-83096279D01*
X155840800Y-83273721D01*
X155806183Y-83447754D01*
X155738279Y-83611689D01*
X155639697Y-83759227D01*
X155514227Y-83884697D01*
X155366689Y-83983279D01*
X155202754Y-84051183D01*
X155028721Y-84085800D01*
X154851279Y-84085800D01*
X154677246Y-84051183D01*
X154513311Y-83983279D01*
X154365773Y-83884697D01*
X154240303Y-83759227D01*
X154141721Y-83611689D01*
X154073817Y-83447754D01*
X154039200Y-83273721D01*
X154039200Y-83096279D01*
X154073817Y-82922246D01*
X154141721Y-82758311D01*
X154240303Y-82610773D01*
X154365773Y-82485303D01*
X154513311Y-82386721D01*
X154677246Y-82318817D01*
X154851279Y-82284200D01*
X155028721Y-82284200D01*
X155202754Y-82318817D01*
G37*
G36*
X152662754Y-82318817D02*
G01*
X152826689Y-82386721D01*
X152974227Y-82485303D01*
X153099697Y-82610773D01*
X153198279Y-82758311D01*
X153266183Y-82922246D01*
X153300800Y-83096279D01*
X153300800Y-83273721D01*
X153266183Y-83447754D01*
X153198279Y-83611689D01*
X153099697Y-83759227D01*
X152974227Y-83884697D01*
X152826689Y-83983279D01*
X152662754Y-84051183D01*
X152488721Y-84085800D01*
X152311279Y-84085800D01*
X152137246Y-84051183D01*
X151973311Y-83983279D01*
X151825773Y-83884697D01*
X151700303Y-83759227D01*
X151601721Y-83611689D01*
X151533817Y-83447754D01*
X151499200Y-83273721D01*
X151499200Y-83096279D01*
X151533817Y-82922246D01*
X151601721Y-82758311D01*
X151700303Y-82610773D01*
X151825773Y-82485303D01*
X151973311Y-82386721D01*
X152137246Y-82318817D01*
X152311279Y-82284200D01*
X152488721Y-82284200D01*
X152662754Y-82318817D01*
G37*
G36*
X150122754Y-82318817D02*
G01*
X150286689Y-82386721D01*
X150434227Y-82485303D01*
X150559697Y-82610773D01*
X150658279Y-82758311D01*
X150726183Y-82922246D01*
X150760800Y-83096279D01*
X150760800Y-83273721D01*
X150726183Y-83447754D01*
X150658279Y-83611689D01*
X150559697Y-83759227D01*
X150434227Y-83884697D01*
X150286689Y-83983279D01*
X150122754Y-84051183D01*
X149948721Y-84085800D01*
X149771279Y-84085800D01*
X149597246Y-84051183D01*
X149433311Y-83983279D01*
X149285773Y-83884697D01*
X149160303Y-83759227D01*
X149061721Y-83611689D01*
X148993817Y-83447754D01*
X148959200Y-83273721D01*
X148959200Y-83096279D01*
X148993817Y-82922246D01*
X149061721Y-82758311D01*
X149160303Y-82610773D01*
X149285773Y-82485303D01*
X149433311Y-82386721D01*
X149597246Y-82318817D01*
X149771279Y-82284200D01*
X149948721Y-82284200D01*
X150122754Y-82318817D01*
G37*
G36*
X147582754Y-82318817D02*
G01*
X147746689Y-82386721D01*
X147894227Y-82485303D01*
X148019697Y-82610773D01*
X148118279Y-82758311D01*
X148186183Y-82922246D01*
X148220800Y-83096279D01*
X148220800Y-83273721D01*
X148186183Y-83447754D01*
X148118279Y-83611689D01*
X148019697Y-83759227D01*
X147894227Y-83884697D01*
X147746689Y-83983279D01*
X147582754Y-84051183D01*
X147408721Y-84085800D01*
X147231279Y-84085800D01*
X147057246Y-84051183D01*
X146893311Y-83983279D01*
X146745773Y-83884697D01*
X146620303Y-83759227D01*
X146521721Y-83611689D01*
X146453817Y-83447754D01*
X146419200Y-83273721D01*
X146419200Y-83096279D01*
X146453817Y-82922246D01*
X146521721Y-82758311D01*
X146620303Y-82610773D01*
X146745773Y-82485303D01*
X146893311Y-82386721D01*
X147057246Y-82318817D01*
X147231279Y-82284200D01*
X147408721Y-82284200D01*
X147582754Y-82318817D01*
G37*
G36*
X142502754Y-82318817D02*
G01*
X142666689Y-82386721D01*
X142814227Y-82485303D01*
X142939697Y-82610773D01*
X143038279Y-82758311D01*
X143106183Y-82922246D01*
X143140800Y-83096279D01*
X143140800Y-83273721D01*
X143106183Y-83447754D01*
X143038279Y-83611689D01*
X142939697Y-83759227D01*
X142814227Y-83884697D01*
X142666689Y-83983279D01*
X142502754Y-84051183D01*
X142328721Y-84085800D01*
X142151279Y-84085800D01*
X141977246Y-84051183D01*
X141813311Y-83983279D01*
X141665773Y-83884697D01*
X141540303Y-83759227D01*
X141441721Y-83611689D01*
X141373817Y-83447754D01*
X141339200Y-83273721D01*
X141339200Y-83096279D01*
X141373817Y-82922246D01*
X141441721Y-82758311D01*
X141540303Y-82610773D01*
X141665773Y-82485303D01*
X141813311Y-82386721D01*
X141977246Y-82318817D01*
X142151279Y-82284200D01*
X142328721Y-82284200D01*
X142502754Y-82318817D01*
G37*
G36*
X145042754Y-82318817D02*
G01*
X145206689Y-82386721D01*
X145354227Y-82485303D01*
X145479697Y-82610773D01*
X145578279Y-82758311D01*
X145646183Y-82922246D01*
X145680800Y-83096279D01*
X145680800Y-83273721D01*
X145646183Y-83447754D01*
X145578279Y-83611689D01*
X145479697Y-83759227D01*
X145354227Y-83884697D01*
X145206689Y-83983279D01*
X145042754Y-84051183D01*
X144868721Y-84085800D01*
X144691279Y-84085800D01*
X144517246Y-84051183D01*
X144353311Y-83983279D01*
X144205773Y-83884697D01*
X144080303Y-83759227D01*
X143981721Y-83611689D01*
X143913817Y-83447754D01*
X143879200Y-83273721D01*
X143879200Y-83096279D01*
X143913817Y-82922246D01*
X143981721Y-82758311D01*
X144080303Y-82610773D01*
X144205773Y-82485303D01*
X144353311Y-82386721D01*
X144517246Y-82318817D01*
X144691279Y-82284200D01*
X144868721Y-82284200D01*
X145042754Y-82318817D01*
G37*
G36*
X122182754Y-82318817D02*
G01*
X122346689Y-82386721D01*
X122494227Y-82485303D01*
X122619697Y-82610773D01*
X122718279Y-82758311D01*
X122786183Y-82922246D01*
X122820800Y-83096279D01*
X122820800Y-83273721D01*
X122786183Y-83447754D01*
X122718279Y-83611689D01*
X122619697Y-83759227D01*
X122494227Y-83884697D01*
X122346689Y-83983279D01*
X122182754Y-84051183D01*
X122008721Y-84085800D01*
X121831279Y-84085800D01*
X121657246Y-84051183D01*
X121493311Y-83983279D01*
X121345773Y-83884697D01*
X121220303Y-83759227D01*
X121121721Y-83611689D01*
X121053817Y-83447754D01*
X121019200Y-83273721D01*
X121019200Y-83096279D01*
X121053817Y-82922246D01*
X121121721Y-82758311D01*
X121220303Y-82610773D01*
X121345773Y-82485303D01*
X121493311Y-82386721D01*
X121657246Y-82318817D01*
X121831279Y-82284200D01*
X122008721Y-82284200D01*
X122182754Y-82318817D01*
G37*
G36*
X124722754Y-82318817D02*
G01*
X124886689Y-82386721D01*
X125034227Y-82485303D01*
X125159697Y-82610773D01*
X125258279Y-82758311D01*
X125326183Y-82922246D01*
X125360800Y-83096279D01*
X125360800Y-83273721D01*
X125326183Y-83447754D01*
X125258279Y-83611689D01*
X125159697Y-83759227D01*
X125034227Y-83884697D01*
X124886689Y-83983279D01*
X124722754Y-84051183D01*
X124548721Y-84085800D01*
X124371279Y-84085800D01*
X124197246Y-84051183D01*
X124033311Y-83983279D01*
X123885773Y-83884697D01*
X123760303Y-83759227D01*
X123661721Y-83611689D01*
X123593817Y-83447754D01*
X123559200Y-83273721D01*
X123559200Y-83096279D01*
X123593817Y-82922246D01*
X123661721Y-82758311D01*
X123760303Y-82610773D01*
X123885773Y-82485303D01*
X124033311Y-82386721D01*
X124197246Y-82318817D01*
X124371279Y-82284200D01*
X124548721Y-82284200D01*
X124722754Y-82318817D01*
G37*
G36*
X127262754Y-82318817D02*
G01*
X127426689Y-82386721D01*
X127574227Y-82485303D01*
X127699697Y-82610773D01*
X127798279Y-82758311D01*
X127866183Y-82922246D01*
X127900800Y-83096279D01*
X127900800Y-83273721D01*
X127866183Y-83447754D01*
X127798279Y-83611689D01*
X127699697Y-83759227D01*
X127574227Y-83884697D01*
X127426689Y-83983279D01*
X127262754Y-84051183D01*
X127088721Y-84085800D01*
X126911279Y-84085800D01*
X126737246Y-84051183D01*
X126573311Y-83983279D01*
X126425773Y-83884697D01*
X126300303Y-83759227D01*
X126201721Y-83611689D01*
X126133817Y-83447754D01*
X126099200Y-83273721D01*
X126099200Y-83096279D01*
X126133817Y-82922246D01*
X126201721Y-82758311D01*
X126300303Y-82610773D01*
X126425773Y-82485303D01*
X126573311Y-82386721D01*
X126737246Y-82318817D01*
X126911279Y-82284200D01*
X127088721Y-82284200D01*
X127262754Y-82318817D01*
G37*
G36*
X129802754Y-82318817D02*
G01*
X129966689Y-82386721D01*
X130114227Y-82485303D01*
X130239697Y-82610773D01*
X130338279Y-82758311D01*
X130406183Y-82922246D01*
X130440800Y-83096279D01*
X130440800Y-83273721D01*
X130406183Y-83447754D01*
X130338279Y-83611689D01*
X130239697Y-83759227D01*
X130114227Y-83884697D01*
X129966689Y-83983279D01*
X129802754Y-84051183D01*
X129628721Y-84085800D01*
X129451279Y-84085800D01*
X129277246Y-84051183D01*
X129113311Y-83983279D01*
X128965773Y-83884697D01*
X128840303Y-83759227D01*
X128741721Y-83611689D01*
X128673817Y-83447754D01*
X128639200Y-83273721D01*
X128639200Y-83096279D01*
X128673817Y-82922246D01*
X128741721Y-82758311D01*
X128840303Y-82610773D01*
X128965773Y-82485303D01*
X129113311Y-82386721D01*
X129277246Y-82318817D01*
X129451279Y-82284200D01*
X129628721Y-82284200D01*
X129802754Y-82318817D01*
G37*
G36*
X134882754Y-82318817D02*
G01*
X135046689Y-82386721D01*
X135194227Y-82485303D01*
X135319697Y-82610773D01*
X135418279Y-82758311D01*
X135486183Y-82922246D01*
X135520800Y-83096279D01*
X135520800Y-83273721D01*
X135486183Y-83447754D01*
X135418279Y-83611689D01*
X135319697Y-83759227D01*
X135194227Y-83884697D01*
X135046689Y-83983279D01*
X134882754Y-84051183D01*
X134708721Y-84085800D01*
X134531279Y-84085800D01*
X134357246Y-84051183D01*
X134193311Y-83983279D01*
X134045773Y-83884697D01*
X133920303Y-83759227D01*
X133821721Y-83611689D01*
X133753817Y-83447754D01*
X133719200Y-83273721D01*
X133719200Y-83096279D01*
X133753817Y-82922246D01*
X133821721Y-82758311D01*
X133920303Y-82610773D01*
X134045773Y-82485303D01*
X134193311Y-82386721D01*
X134357246Y-82318817D01*
X134531279Y-82284200D01*
X134708721Y-82284200D01*
X134882754Y-82318817D01*
G37*
G36*
X137422754Y-82318817D02*
G01*
X137586689Y-82386721D01*
X137734227Y-82485303D01*
X137859697Y-82610773D01*
X137958279Y-82758311D01*
X138026183Y-82922246D01*
X138060800Y-83096279D01*
X138060800Y-83273721D01*
X138026183Y-83447754D01*
X137958279Y-83611689D01*
X137859697Y-83759227D01*
X137734227Y-83884697D01*
X137586689Y-83983279D01*
X137422754Y-84051183D01*
X137248721Y-84085800D01*
X137071279Y-84085800D01*
X136897246Y-84051183D01*
X136733311Y-83983279D01*
X136585773Y-83884697D01*
X136460303Y-83759227D01*
X136361721Y-83611689D01*
X136293817Y-83447754D01*
X136259200Y-83273721D01*
X136259200Y-83096279D01*
X136293817Y-82922246D01*
X136361721Y-82758311D01*
X136460303Y-82610773D01*
X136585773Y-82485303D01*
X136733311Y-82386721D01*
X136897246Y-82318817D01*
X137071279Y-82284200D01*
X137248721Y-82284200D01*
X137422754Y-82318817D01*
G37*
G36*
X139962754Y-82318817D02*
G01*
X140126689Y-82386721D01*
X140274227Y-82485303D01*
X140399697Y-82610773D01*
X140498279Y-82758311D01*
X140566183Y-82922246D01*
X140600800Y-83096279D01*
X140600800Y-83273721D01*
X140566183Y-83447754D01*
X140498279Y-83611689D01*
X140399697Y-83759227D01*
X140274227Y-83884697D01*
X140126689Y-83983279D01*
X139962754Y-84051183D01*
X139788721Y-84085800D01*
X139611279Y-84085800D01*
X139437246Y-84051183D01*
X139273311Y-83983279D01*
X139125773Y-83884697D01*
X139000303Y-83759227D01*
X138901721Y-83611689D01*
X138833817Y-83447754D01*
X138799200Y-83273721D01*
X138799200Y-83096279D01*
X138833817Y-82922246D01*
X138901721Y-82758311D01*
X139000303Y-82610773D01*
X139125773Y-82485303D01*
X139273311Y-82386721D01*
X139437246Y-82318817D01*
X139611279Y-82284200D01*
X139788721Y-82284200D01*
X139962754Y-82318817D01*
G37*
G36*
X132342754Y-82318817D02*
G01*
X132506689Y-82386721D01*
X132654227Y-82485303D01*
X132779697Y-82610773D01*
X132878279Y-82758311D01*
X132946183Y-82922246D01*
X132980800Y-83096279D01*
X132980800Y-83273721D01*
X132946183Y-83447754D01*
X132878279Y-83611689D01*
X132779697Y-83759227D01*
X132654227Y-83884697D01*
X132506689Y-83983279D01*
X132342754Y-84051183D01*
X132168721Y-84085800D01*
X131991279Y-84085800D01*
X131817246Y-84051183D01*
X131653311Y-83983279D01*
X131505773Y-83884697D01*
X131380303Y-83759227D01*
X131281721Y-83611689D01*
X131213817Y-83447754D01*
X131179200Y-83273721D01*
X131179200Y-83096279D01*
X131213817Y-82922246D01*
X131281721Y-82758311D01*
X131380303Y-82610773D01*
X131505773Y-82485303D01*
X131653311Y-82386721D01*
X131817246Y-82318817D01*
X131991279Y-82284200D01*
X132168721Y-82284200D01*
X132342754Y-82318817D01*
G37*
G36*
X112061588Y-80312233D02*
G01*
X112231388Y-80363742D01*
X112387881Y-80447389D01*
X112525044Y-80559956D01*
X112637611Y-80697119D01*
X112721258Y-80853612D01*
X112772767Y-81023412D01*
X112790159Y-81200000D01*
X112772767Y-81376588D01*
X112721258Y-81546388D01*
X112637611Y-81702881D01*
X112525044Y-81840044D01*
X112387881Y-81952611D01*
X112231388Y-82036258D01*
X112061588Y-82087767D01*
X111929259Y-82100800D01*
X111590741Y-82100800D01*
X111458412Y-82087767D01*
X111288612Y-82036258D01*
X111132119Y-81952611D01*
X110994956Y-81840044D01*
X110882389Y-81702881D01*
X110798742Y-81546388D01*
X110747233Y-81376588D01*
X110729841Y-81200000D01*
X110747233Y-81023412D01*
X110798742Y-80853612D01*
X110882389Y-80697119D01*
X110994956Y-80559956D01*
X111132119Y-80447389D01*
X111288612Y-80363742D01*
X111458412Y-80312233D01*
X111590741Y-80299200D01*
X111929259Y-80299200D01*
X112061588Y-80312233D01*
G37*
G36*
X133939449Y-80413650D02*
G01*
X133976914Y-80425015D01*
X134011438Y-80443469D01*
X134041698Y-80468302D01*
X134066531Y-80498562D01*
X134084985Y-80533086D01*
X134096350Y-80570551D01*
X134100800Y-80615738D01*
X134100800Y-81454262D01*
X134096350Y-81499449D01*
X134084985Y-81536914D01*
X134066531Y-81571438D01*
X134041698Y-81601698D01*
X134011438Y-81626531D01*
X133976914Y-81644985D01*
X133939449Y-81656350D01*
X133894262Y-81660800D01*
X132805738Y-81660800D01*
X132760551Y-81656350D01*
X132723086Y-81644985D01*
X132688562Y-81626531D01*
X132658302Y-81601698D01*
X132633469Y-81571438D01*
X132615015Y-81536914D01*
X132603650Y-81499449D01*
X132599200Y-81454262D01*
X132599200Y-80615738D01*
X132603650Y-80570551D01*
X132615015Y-80533086D01*
X132633469Y-80498562D01*
X132658302Y-80468302D01*
X132688562Y-80443469D01*
X132723086Y-80425015D01*
X132760551Y-80413650D01*
X132805738Y-80409200D01*
X133894262Y-80409200D01*
X133939449Y-80413650D01*
G37*
G36*
X163149449Y-80413650D02*
G01*
X163186914Y-80425015D01*
X163221438Y-80443469D01*
X163251698Y-80468302D01*
X163276531Y-80498562D01*
X163294985Y-80533086D01*
X163306350Y-80570551D01*
X163310800Y-80615738D01*
X163310800Y-81454262D01*
X163306350Y-81499449D01*
X163294985Y-81536914D01*
X163276531Y-81571438D01*
X163251698Y-81601698D01*
X163221438Y-81626531D01*
X163186914Y-81644985D01*
X163149449Y-81656350D01*
X163104262Y-81660800D01*
X162015738Y-81660800D01*
X161970551Y-81656350D01*
X161933086Y-81644985D01*
X161898562Y-81626531D01*
X161868302Y-81601698D01*
X161843469Y-81571438D01*
X161825015Y-81536914D01*
X161813650Y-81499449D01*
X161809200Y-81454262D01*
X161809200Y-80615738D01*
X161813650Y-80570551D01*
X161825015Y-80533086D01*
X161843469Y-80498562D01*
X161868302Y-80468302D01*
X161898562Y-80443469D01*
X161933086Y-80425015D01*
X161970551Y-80413650D01*
X162015738Y-80409200D01*
X163104262Y-80409200D01*
X163149449Y-80413650D01*
G37*
G36*
X173066449Y-80152650D02*
G01*
X173103914Y-80164015D01*
X173138438Y-80182469D01*
X173168698Y-80207302D01*
X173193531Y-80237562D01*
X173211985Y-80272086D01*
X173223350Y-80309551D01*
X173227800Y-80354738D01*
X173227800Y-81443262D01*
X173223350Y-81488449D01*
X173211985Y-81525914D01*
X173193531Y-81560438D01*
X173168698Y-81590698D01*
X173138438Y-81615531D01*
X173103914Y-81633985D01*
X173066449Y-81645350D01*
X173021262Y-81649800D01*
X172182738Y-81649800D01*
X172137551Y-81645350D01*
X172100086Y-81633985D01*
X172065562Y-81615531D01*
X172035302Y-81590698D01*
X172010469Y-81560438D01*
X171992015Y-81525914D01*
X171980650Y-81488449D01*
X171976200Y-81443262D01*
X171976200Y-80354738D01*
X171980650Y-80309551D01*
X171992015Y-80272086D01*
X172010469Y-80237562D01*
X172035302Y-80207302D01*
X172065562Y-80182469D01*
X172100086Y-80164015D01*
X172137551Y-80152650D01*
X172182738Y-80148200D01*
X173021262Y-80148200D01*
X173066449Y-80152650D01*
G37*
G36*
X171016449Y-80152650D02*
G01*
X171053914Y-80164015D01*
X171088438Y-80182469D01*
X171118698Y-80207302D01*
X171143531Y-80237562D01*
X171161985Y-80272086D01*
X171173350Y-80309551D01*
X171177800Y-80354738D01*
X171177800Y-81443262D01*
X171173350Y-81488449D01*
X171161985Y-81525914D01*
X171143531Y-81560438D01*
X171118698Y-81590698D01*
X171088438Y-81615531D01*
X171053914Y-81633985D01*
X171016449Y-81645350D01*
X170971262Y-81649800D01*
X170132738Y-81649800D01*
X170087551Y-81645350D01*
X170050086Y-81633985D01*
X170015562Y-81615531D01*
X169985302Y-81590698D01*
X169960469Y-81560438D01*
X169942015Y-81525914D01*
X169930650Y-81488449D01*
X169926200Y-81443262D01*
X169926200Y-80354738D01*
X169930650Y-80309551D01*
X169942015Y-80272086D01*
X169960469Y-80237562D01*
X169985302Y-80207302D01*
X170015562Y-80182469D01*
X170050086Y-80164015D01*
X170087551Y-80152650D01*
X170132738Y-80148200D01*
X170971262Y-80148200D01*
X171016449Y-80152650D01*
G37*
G36*
X141105800Y-81410800D02*
G01*
X139104200Y-81410800D01*
X139104200Y-80509200D01*
X141105800Y-80509200D01*
X141105800Y-81410800D01*
G37*
G36*
X166505800Y-80775800D02*
G01*
X164504200Y-80775800D01*
X164504200Y-79874200D01*
X166505800Y-79874200D01*
X166505800Y-80775800D01*
G37*
G36*
X144105800Y-80460800D02*
G01*
X142104200Y-80460800D01*
X142104200Y-79559200D01*
X144105800Y-79559200D01*
X144105800Y-80460800D01*
G37*
G36*
X160282754Y-78508817D02*
G01*
X160446689Y-78576721D01*
X160594227Y-78675303D01*
X160719697Y-78800773D01*
X160818279Y-78948311D01*
X160886183Y-79112246D01*
X160920800Y-79286279D01*
X160920800Y-79463721D01*
X160886183Y-79637754D01*
X160818279Y-79801689D01*
X160719697Y-79949227D01*
X160594227Y-80074697D01*
X160446689Y-80173279D01*
X160282754Y-80241183D01*
X160108721Y-80275800D01*
X159931279Y-80275800D01*
X159757246Y-80241183D01*
X159593311Y-80173279D01*
X159445773Y-80074697D01*
X159320303Y-79949227D01*
X159221721Y-79801689D01*
X159153817Y-79637754D01*
X159119200Y-79463721D01*
X159119200Y-79286279D01*
X159153817Y-79112246D01*
X159221721Y-78948311D01*
X159320303Y-78800773D01*
X159445773Y-78675303D01*
X159593311Y-78576721D01*
X159757246Y-78508817D01*
X159931279Y-78474200D01*
X160108721Y-78474200D01*
X160282754Y-78508817D01*
G37*
G36*
X169505800Y-79825800D02*
G01*
X167504200Y-79825800D01*
X167504200Y-78924200D01*
X169505800Y-78924200D01*
X169505800Y-79825800D01*
G37*
G36*
X133939449Y-78363650D02*
G01*
X133976914Y-78375015D01*
X134011438Y-78393469D01*
X134041698Y-78418302D01*
X134066531Y-78448562D01*
X134084985Y-78483086D01*
X134096350Y-78520551D01*
X134100800Y-78565738D01*
X134100800Y-79404262D01*
X134096350Y-79449449D01*
X134084985Y-79486914D01*
X134066531Y-79521438D01*
X134041698Y-79551698D01*
X134011438Y-79576531D01*
X133976914Y-79594985D01*
X133939449Y-79606350D01*
X133894262Y-79610800D01*
X132805738Y-79610800D01*
X132760551Y-79606350D01*
X132723086Y-79594985D01*
X132688562Y-79576531D01*
X132658302Y-79551698D01*
X132633469Y-79521438D01*
X132615015Y-79486914D01*
X132603650Y-79449449D01*
X132599200Y-79404262D01*
X132599200Y-78565738D01*
X132603650Y-78520551D01*
X132615015Y-78483086D01*
X132633469Y-78448562D01*
X132658302Y-78418302D01*
X132688562Y-78393469D01*
X132723086Y-78375015D01*
X132760551Y-78363650D01*
X132805738Y-78359200D01*
X133894262Y-78359200D01*
X133939449Y-78363650D01*
G37*
G36*
X163149449Y-78363650D02*
G01*
X163186914Y-78375015D01*
X163221438Y-78393469D01*
X163251698Y-78418302D01*
X163276531Y-78448562D01*
X163294985Y-78483086D01*
X163306350Y-78520551D01*
X163310800Y-78565738D01*
X163310800Y-79404262D01*
X163306350Y-79449449D01*
X163294985Y-79486914D01*
X163276531Y-79521438D01*
X163251698Y-79551698D01*
X163221438Y-79576531D01*
X163186914Y-79594985D01*
X163149449Y-79606350D01*
X163104262Y-79610800D01*
X162015738Y-79610800D01*
X161970551Y-79606350D01*
X161933086Y-79594985D01*
X161898562Y-79576531D01*
X161868302Y-79551698D01*
X161843469Y-79521438D01*
X161825015Y-79486914D01*
X161813650Y-79449449D01*
X161809200Y-79404262D01*
X161809200Y-78565738D01*
X161813650Y-78520551D01*
X161825015Y-78483086D01*
X161843469Y-78448562D01*
X161868302Y-78418302D01*
X161898562Y-78393469D01*
X161933086Y-78375015D01*
X161970551Y-78363650D01*
X162015738Y-78359200D01*
X163104262Y-78359200D01*
X163149449Y-78363650D01*
G37*
G36*
X112061588Y-77812233D02*
G01*
X112231388Y-77863742D01*
X112387881Y-77947389D01*
X112525044Y-78059956D01*
X112637611Y-78197119D01*
X112721258Y-78353612D01*
X112772767Y-78523412D01*
X112790159Y-78700000D01*
X112772767Y-78876588D01*
X112721258Y-79046388D01*
X112637611Y-79202881D01*
X112525044Y-79340044D01*
X112387881Y-79452611D01*
X112231388Y-79536258D01*
X112061588Y-79587767D01*
X111929259Y-79600800D01*
X111590741Y-79600800D01*
X111458412Y-79587767D01*
X111288612Y-79536258D01*
X111132119Y-79452611D01*
X110994956Y-79340044D01*
X110882389Y-79202881D01*
X110798742Y-79046388D01*
X110747233Y-78876588D01*
X110729841Y-78700000D01*
X110747233Y-78523412D01*
X110798742Y-78353612D01*
X110882389Y-78197119D01*
X110994956Y-78059956D01*
X111132119Y-77947389D01*
X111288612Y-77863742D01*
X111458412Y-77812233D01*
X111590741Y-77799200D01*
X111929259Y-77799200D01*
X112061588Y-77812233D01*
G37*
G36*
X141105800Y-79510800D02*
G01*
X139104200Y-79510800D01*
X139104200Y-78609200D01*
X141105800Y-78609200D01*
X141105800Y-79510800D01*
G37*
G36*
X129614449Y-77993650D02*
G01*
X129651914Y-78005015D01*
X129686438Y-78023469D01*
X129716698Y-78048302D01*
X129741531Y-78078562D01*
X129759985Y-78113086D01*
X129771350Y-78150551D01*
X129775800Y-78195738D01*
X129775800Y-79284262D01*
X129771350Y-79329449D01*
X129759985Y-79366914D01*
X129741531Y-79401438D01*
X129716698Y-79431698D01*
X129686438Y-79456531D01*
X129651914Y-79474985D01*
X129614449Y-79486350D01*
X129569262Y-79490800D01*
X128730738Y-79490800D01*
X128685551Y-79486350D01*
X128648086Y-79474985D01*
X128613562Y-79456531D01*
X128583302Y-79431698D01*
X128558469Y-79401438D01*
X128540015Y-79366914D01*
X128528650Y-79329449D01*
X128524200Y-79284262D01*
X128524200Y-78195738D01*
X128528650Y-78150551D01*
X128540015Y-78113086D01*
X128558469Y-78078562D01*
X128583302Y-78048302D01*
X128613562Y-78023469D01*
X128648086Y-78005015D01*
X128685551Y-77993650D01*
X128730738Y-77989200D01*
X129569262Y-77989200D01*
X129614449Y-77993650D01*
G37*
G36*
X131664449Y-77993650D02*
G01*
X131701914Y-78005015D01*
X131736438Y-78023469D01*
X131766698Y-78048302D01*
X131791531Y-78078562D01*
X131809985Y-78113086D01*
X131821350Y-78150551D01*
X131825800Y-78195738D01*
X131825800Y-79284262D01*
X131821350Y-79329449D01*
X131809985Y-79366914D01*
X131791531Y-79401438D01*
X131766698Y-79431698D01*
X131736438Y-79456531D01*
X131701914Y-79474985D01*
X131664449Y-79486350D01*
X131619262Y-79490800D01*
X130780738Y-79490800D01*
X130735551Y-79486350D01*
X130698086Y-79474985D01*
X130663562Y-79456531D01*
X130633302Y-79431698D01*
X130608469Y-79401438D01*
X130590015Y-79366914D01*
X130578650Y-79329449D01*
X130574200Y-79284262D01*
X130574200Y-78195738D01*
X130578650Y-78150551D01*
X130590015Y-78113086D01*
X130608469Y-78078562D01*
X130633302Y-78048302D01*
X130663562Y-78023469D01*
X130698086Y-78005015D01*
X130735551Y-77993650D01*
X130780738Y-77989200D01*
X131619262Y-77989200D01*
X131664449Y-77993650D01*
G37*
G36*
X166505800Y-78875800D02*
G01*
X164504200Y-78875800D01*
X164504200Y-77974200D01*
X166505800Y-77974200D01*
X166505800Y-78875800D01*
G37*
G36*
X169126588Y-75797233D02*
G01*
X169296388Y-75848742D01*
X169452881Y-75932389D01*
X169590044Y-76044956D01*
X169702611Y-76182119D01*
X169786258Y-76338613D01*
X169837767Y-76508413D01*
X169850800Y-76640742D01*
X169850800Y-77029259D01*
X169837767Y-77161588D01*
X169786258Y-77331388D01*
X169702611Y-77487881D01*
X169590044Y-77625044D01*
X169452881Y-77737611D01*
X169296387Y-77821258D01*
X169126587Y-77872767D01*
X168950000Y-77890159D01*
X168773412Y-77872767D01*
X168603612Y-77821258D01*
X168447119Y-77737611D01*
X168309956Y-77625044D01*
X168197389Y-77487881D01*
X168113742Y-77331387D01*
X168062233Y-77161587D01*
X168049200Y-77029258D01*
X168049200Y-76640741D01*
X168062233Y-76508412D01*
X168113742Y-76338612D01*
X168197387Y-76182122D01*
X168309959Y-76044954D01*
X168447120Y-75932389D01*
X168603613Y-75848742D01*
X168773413Y-75797233D01*
X168950000Y-75779841D01*
X169126588Y-75797233D01*
G37*
G36*
X172209586Y-75788171D02*
G01*
X172242352Y-75798111D01*
X172272552Y-75814253D01*
X172299023Y-75835977D01*
X172320747Y-75862448D01*
X172336889Y-75892648D01*
X172346829Y-75925414D01*
X172350800Y-75965738D01*
X172350800Y-77704262D01*
X172346829Y-77744586D01*
X172336889Y-77777352D01*
X172320747Y-77807552D01*
X172299023Y-77834023D01*
X172272552Y-77855747D01*
X172242352Y-77871889D01*
X172209586Y-77881829D01*
X172169262Y-77885800D01*
X170730738Y-77885800D01*
X170690414Y-77881829D01*
X170657648Y-77871889D01*
X170627448Y-77855747D01*
X170600977Y-77834023D01*
X170579253Y-77807552D01*
X170563111Y-77777352D01*
X170553171Y-77744586D01*
X170549200Y-77704262D01*
X170549200Y-75965738D01*
X170553171Y-75925414D01*
X170563111Y-75892648D01*
X170579253Y-75862448D01*
X170600977Y-75835977D01*
X170627448Y-75814253D01*
X170657648Y-75798111D01*
X170690414Y-75788171D01*
X170730738Y-75784200D01*
X172169262Y-75784200D01*
X172209586Y-75788171D01*
G37*
G36*
X134996588Y-75822233D02*
G01*
X135166388Y-75873742D01*
X135322881Y-75957389D01*
X135460044Y-76069956D01*
X135572611Y-76207119D01*
X135656258Y-76363613D01*
X135707767Y-76533413D01*
X135720800Y-76665742D01*
X135720800Y-77004259D01*
X135707767Y-77136588D01*
X135656258Y-77306388D01*
X135572611Y-77462881D01*
X135460044Y-77600044D01*
X135322881Y-77712611D01*
X135166387Y-77796258D01*
X134996587Y-77847767D01*
X134820000Y-77865159D01*
X134643412Y-77847767D01*
X134473612Y-77796258D01*
X134317119Y-77712611D01*
X134179956Y-77600044D01*
X134067389Y-77462881D01*
X133983742Y-77306387D01*
X133932233Y-77136587D01*
X133919200Y-77004258D01*
X133919200Y-76665741D01*
X133932233Y-76533412D01*
X133983742Y-76363612D01*
X134067387Y-76207122D01*
X134179959Y-76069954D01*
X134317120Y-75957389D01*
X134473613Y-75873742D01*
X134643413Y-75822233D01*
X134820000Y-75804841D01*
X134996588Y-75822233D01*
G37*
G36*
X144996588Y-75822233D02*
G01*
X145166388Y-75873742D01*
X145322881Y-75957389D01*
X145460044Y-76069956D01*
X145572611Y-76207119D01*
X145656258Y-76363613D01*
X145707767Y-76533413D01*
X145720800Y-76665742D01*
X145720800Y-77004259D01*
X145707767Y-77136588D01*
X145656258Y-77306388D01*
X145572611Y-77462881D01*
X145460044Y-77600044D01*
X145322881Y-77712611D01*
X145166387Y-77796258D01*
X144996587Y-77847767D01*
X144820000Y-77865159D01*
X144643412Y-77847767D01*
X144473612Y-77796258D01*
X144317119Y-77712611D01*
X144179956Y-77600044D01*
X144067389Y-77462881D01*
X143983742Y-77306387D01*
X143932233Y-77136587D01*
X143919200Y-77004258D01*
X143919200Y-76665741D01*
X143932233Y-76533412D01*
X143983742Y-76363612D01*
X144067387Y-76207122D01*
X144179959Y-76069954D01*
X144317120Y-75957389D01*
X144473613Y-75873742D01*
X144643413Y-75822233D01*
X144820000Y-75804841D01*
X144996588Y-75822233D01*
G37*
G36*
X142496588Y-75822233D02*
G01*
X142666388Y-75873742D01*
X142822881Y-75957389D01*
X142960044Y-76069956D01*
X143072611Y-76207119D01*
X143156258Y-76363613D01*
X143207767Y-76533413D01*
X143220800Y-76665742D01*
X143220800Y-77004259D01*
X143207767Y-77136588D01*
X143156258Y-77306388D01*
X143072611Y-77462881D01*
X142960044Y-77600044D01*
X142822881Y-77712611D01*
X142666387Y-77796258D01*
X142496587Y-77847767D01*
X142320000Y-77865159D01*
X142143412Y-77847767D01*
X141973612Y-77796258D01*
X141817119Y-77712611D01*
X141679956Y-77600044D01*
X141567389Y-77462881D01*
X141483742Y-77306387D01*
X141432233Y-77136587D01*
X141419200Y-77004258D01*
X141419200Y-76665741D01*
X141432233Y-76533412D01*
X141483742Y-76363612D01*
X141567387Y-76207122D01*
X141679959Y-76069954D01*
X141817120Y-75957389D01*
X141973613Y-75873742D01*
X142143413Y-75822233D01*
X142320000Y-75804841D01*
X142496588Y-75822233D01*
G37*
G36*
X139996588Y-75822233D02*
G01*
X140166388Y-75873742D01*
X140322881Y-75957389D01*
X140460044Y-76069956D01*
X140572611Y-76207119D01*
X140656258Y-76363613D01*
X140707767Y-76533413D01*
X140720800Y-76665742D01*
X140720800Y-77004259D01*
X140707767Y-77136588D01*
X140656258Y-77306388D01*
X140572611Y-77462881D01*
X140460044Y-77600044D01*
X140322881Y-77712611D01*
X140166387Y-77796258D01*
X139996587Y-77847767D01*
X139820000Y-77865159D01*
X139643412Y-77847767D01*
X139473612Y-77796258D01*
X139317119Y-77712611D01*
X139179956Y-77600044D01*
X139067389Y-77462881D01*
X138983742Y-77306387D01*
X138932233Y-77136587D01*
X138919200Y-77004258D01*
X138919200Y-76665741D01*
X138932233Y-76533412D01*
X138983742Y-76363612D01*
X139067387Y-76207122D01*
X139179959Y-76069954D01*
X139317120Y-75957389D01*
X139473613Y-75873742D01*
X139643413Y-75822233D01*
X139820000Y-75804841D01*
X139996588Y-75822233D01*
G37*
G36*
X137496588Y-75822233D02*
G01*
X137666388Y-75873742D01*
X137822881Y-75957389D01*
X137960044Y-76069956D01*
X138072611Y-76207119D01*
X138156258Y-76363613D01*
X138207767Y-76533413D01*
X138220800Y-76665742D01*
X138220800Y-77004259D01*
X138207767Y-77136588D01*
X138156258Y-77306388D01*
X138072611Y-77462881D01*
X137960044Y-77600044D01*
X137822881Y-77712611D01*
X137666387Y-77796258D01*
X137496587Y-77847767D01*
X137320000Y-77865159D01*
X137143412Y-77847767D01*
X136973612Y-77796258D01*
X136817119Y-77712611D01*
X136679956Y-77600044D01*
X136567389Y-77462881D01*
X136483742Y-77306387D01*
X136432233Y-77136587D01*
X136419200Y-77004258D01*
X136419200Y-76665741D01*
X136432233Y-76533412D01*
X136483742Y-76363612D01*
X136567387Y-76207122D01*
X136679959Y-76069954D01*
X136817120Y-75957389D01*
X136973613Y-75873742D01*
X137143413Y-75822233D01*
X137320000Y-75804841D01*
X137496588Y-75822233D01*
G37*
G36*
X148079586Y-75813171D02*
G01*
X148112352Y-75823111D01*
X148142552Y-75839253D01*
X148169023Y-75860977D01*
X148190747Y-75887448D01*
X148206889Y-75917648D01*
X148216829Y-75950414D01*
X148220800Y-75990738D01*
X148220800Y-77679262D01*
X148216829Y-77719586D01*
X148206889Y-77752352D01*
X148190747Y-77782552D01*
X148169023Y-77809023D01*
X148142552Y-77830747D01*
X148112352Y-77846889D01*
X148079586Y-77856829D01*
X148039262Y-77860800D01*
X146600738Y-77860800D01*
X146560414Y-77856829D01*
X146527648Y-77846889D01*
X146497448Y-77830747D01*
X146470977Y-77809023D01*
X146449253Y-77782552D01*
X146433111Y-77752352D01*
X146423171Y-77719586D01*
X146419200Y-77679262D01*
X146419200Y-75990738D01*
X146423171Y-75950414D01*
X146433111Y-75917648D01*
X146449253Y-75887448D01*
X146470977Y-75860977D01*
X146497448Y-75839253D01*
X146527648Y-75823111D01*
X146560414Y-75813171D01*
X146600738Y-75809200D01*
X148039262Y-75809200D01*
X148079586Y-75813171D01*
G37*
G36*
X160282754Y-75968817D02*
G01*
X160446689Y-76036721D01*
X160594227Y-76135303D01*
X160719697Y-76260773D01*
X160818279Y-76408311D01*
X160886183Y-76572246D01*
X160920800Y-76746279D01*
X160920800Y-76923721D01*
X160886183Y-77097754D01*
X160818279Y-77261689D01*
X160719697Y-77409227D01*
X160594227Y-77534697D01*
X160446689Y-77633279D01*
X160282754Y-77701183D01*
X160108721Y-77735800D01*
X159931279Y-77735800D01*
X159757246Y-77701183D01*
X159593311Y-77633279D01*
X159445773Y-77534697D01*
X159320303Y-77409227D01*
X159221721Y-77261689D01*
X159153817Y-77097754D01*
X159119200Y-76923721D01*
X159119200Y-76746279D01*
X159153817Y-76572246D01*
X159221721Y-76408311D01*
X159320303Y-76260773D01*
X159445773Y-76135303D01*
X159593311Y-76036721D01*
X159757246Y-75968817D01*
X159931279Y-75934200D01*
X160108721Y-75934200D01*
X160282754Y-75968817D01*
G37*
G36*
X124722754Y-75968817D02*
G01*
X124886689Y-76036721D01*
X125034227Y-76135303D01*
X125159697Y-76260773D01*
X125258279Y-76408311D01*
X125326183Y-76572246D01*
X125360800Y-76746279D01*
X125360800Y-76923721D01*
X125326183Y-77097754D01*
X125258279Y-77261689D01*
X125159697Y-77409227D01*
X125034227Y-77534697D01*
X124886689Y-77633279D01*
X124722754Y-77701183D01*
X124548721Y-77735800D01*
X124371279Y-77735800D01*
X124197246Y-77701183D01*
X124033311Y-77633279D01*
X123885773Y-77534697D01*
X123760303Y-77409227D01*
X123661721Y-77261689D01*
X123593817Y-77097754D01*
X123559200Y-76923721D01*
X123559200Y-76746279D01*
X123593817Y-76572246D01*
X123661721Y-76408311D01*
X123760303Y-76260773D01*
X123885773Y-76135303D01*
X124033311Y-76036721D01*
X124197246Y-75968817D01*
X124371279Y-75934200D01*
X124548721Y-75934200D01*
X124722754Y-75968817D01*
G37*
G36*
X127262754Y-75968817D02*
G01*
X127426689Y-76036721D01*
X127574227Y-76135303D01*
X127699697Y-76260773D01*
X127798279Y-76408311D01*
X127866183Y-76572246D01*
X127900800Y-76746279D01*
X127900800Y-76923721D01*
X127866183Y-77097754D01*
X127798279Y-77261689D01*
X127699697Y-77409227D01*
X127574227Y-77534697D01*
X127426689Y-77633279D01*
X127262754Y-77701183D01*
X127088721Y-77735800D01*
X126911279Y-77735800D01*
X126737246Y-77701183D01*
X126573311Y-77633279D01*
X126425773Y-77534697D01*
X126300303Y-77409227D01*
X126201721Y-77261689D01*
X126133817Y-77097754D01*
X126099200Y-76923721D01*
X126099200Y-76746279D01*
X126133817Y-76572246D01*
X126201721Y-76408311D01*
X126300303Y-76260773D01*
X126425773Y-76135303D01*
X126573311Y-76036721D01*
X126737246Y-75968817D01*
X126911279Y-75934200D01*
X127088721Y-75934200D01*
X127262754Y-75968817D01*
G37*
G36*
X122182754Y-75968817D02*
G01*
X122346689Y-76036721D01*
X122494227Y-76135303D01*
X122619697Y-76260773D01*
X122718279Y-76408311D01*
X122786183Y-76572246D01*
X122820800Y-76746279D01*
X122820800Y-76923721D01*
X122786183Y-77097754D01*
X122718279Y-77261689D01*
X122619697Y-77409227D01*
X122494227Y-77534697D01*
X122346689Y-77633279D01*
X122182754Y-77701183D01*
X122008721Y-77735800D01*
X121831279Y-77735800D01*
X121657246Y-77701183D01*
X121493311Y-77633279D01*
X121345773Y-77534697D01*
X121220303Y-77409227D01*
X121121721Y-77261689D01*
X121053817Y-77097754D01*
X121019200Y-76923721D01*
X121019200Y-76746279D01*
X121053817Y-76572246D01*
X121121721Y-76408311D01*
X121220303Y-76260773D01*
X121345773Y-76135303D01*
X121493311Y-76036721D01*
X121657246Y-75968817D01*
X121831279Y-75934200D01*
X122008721Y-75934200D01*
X122182754Y-75968817D01*
G37*
G36*
X119642754Y-75968817D02*
G01*
X119806689Y-76036721D01*
X119954227Y-76135303D01*
X120079697Y-76260773D01*
X120178279Y-76408311D01*
X120246183Y-76572246D01*
X120280800Y-76746279D01*
X120280800Y-76923721D01*
X120246183Y-77097754D01*
X120178279Y-77261689D01*
X120079697Y-77409227D01*
X119954227Y-77534697D01*
X119806689Y-77633279D01*
X119642754Y-77701183D01*
X119468721Y-77735800D01*
X119291279Y-77735800D01*
X119117246Y-77701183D01*
X118953311Y-77633279D01*
X118805773Y-77534697D01*
X118680303Y-77409227D01*
X118581721Y-77261689D01*
X118513817Y-77097754D01*
X118479200Y-76923721D01*
X118479200Y-76746279D01*
X118513817Y-76572246D01*
X118581721Y-76408311D01*
X118680303Y-76260773D01*
X118805773Y-76135303D01*
X118953311Y-76036721D01*
X119117246Y-75968817D01*
X119291279Y-75934200D01*
X119468721Y-75934200D01*
X119642754Y-75968817D01*
G37*
G36*
X155202754Y-75968817D02*
G01*
X155366689Y-76036721D01*
X155514227Y-76135303D01*
X155639697Y-76260773D01*
X155738279Y-76408311D01*
X155806183Y-76572246D01*
X155840800Y-76746279D01*
X155840800Y-76923721D01*
X155806183Y-77097754D01*
X155738279Y-77261689D01*
X155639697Y-77409227D01*
X155514227Y-77534697D01*
X155366689Y-77633279D01*
X155202754Y-77701183D01*
X155028721Y-77735800D01*
X154851279Y-77735800D01*
X154677246Y-77701183D01*
X154513311Y-77633279D01*
X154365773Y-77534697D01*
X154240303Y-77409227D01*
X154141721Y-77261689D01*
X154073817Y-77097754D01*
X154039200Y-76923721D01*
X154039200Y-76746279D01*
X154073817Y-76572246D01*
X154141721Y-76408311D01*
X154240303Y-76260773D01*
X154365773Y-76135303D01*
X154513311Y-76036721D01*
X154677246Y-75968817D01*
X154851279Y-75934200D01*
X155028721Y-75934200D01*
X155202754Y-75968817D01*
G37*
G36*
X157742754Y-75968817D02*
G01*
X157906689Y-76036721D01*
X158054227Y-76135303D01*
X158179697Y-76260773D01*
X158278279Y-76408311D01*
X158346183Y-76572246D01*
X158380800Y-76746279D01*
X158380800Y-76923721D01*
X158346183Y-77097754D01*
X158278279Y-77261689D01*
X158179697Y-77409227D01*
X158054227Y-77534697D01*
X157906689Y-77633279D01*
X157742754Y-77701183D01*
X157568721Y-77735800D01*
X157391279Y-77735800D01*
X157217246Y-77701183D01*
X157053311Y-77633279D01*
X156905773Y-77534697D01*
X156780303Y-77409227D01*
X156681721Y-77261689D01*
X156613817Y-77097754D01*
X156579200Y-76923721D01*
X156579200Y-76746279D01*
X156613817Y-76572246D01*
X156681721Y-76408311D01*
X156780303Y-76260773D01*
X156905773Y-76135303D01*
X157053311Y-76036721D01*
X157217246Y-75968817D01*
X157391279Y-75934200D01*
X157568721Y-75934200D01*
X157742754Y-75968817D01*
G37*
G36*
X162822754Y-75968817D02*
G01*
X162986689Y-76036721D01*
X163134227Y-76135303D01*
X163259697Y-76260773D01*
X163358279Y-76408311D01*
X163426183Y-76572246D01*
X163460800Y-76746279D01*
X163460800Y-76923721D01*
X163426183Y-77097754D01*
X163358279Y-77261689D01*
X163259697Y-77409227D01*
X163134227Y-77534697D01*
X162986689Y-77633279D01*
X162822754Y-77701183D01*
X162648721Y-77735800D01*
X162471279Y-77735800D01*
X162297246Y-77701183D01*
X162133311Y-77633279D01*
X161985773Y-77534697D01*
X161860303Y-77409227D01*
X161761721Y-77261689D01*
X161693817Y-77097754D01*
X161659200Y-76923721D01*
X161659200Y-76746279D01*
X161693817Y-76572246D01*
X161761721Y-76408311D01*
X161860303Y-76260773D01*
X161985773Y-76135303D01*
X162133311Y-76036721D01*
X162297246Y-75968817D01*
X162471279Y-75934200D01*
X162648721Y-75934200D01*
X162822754Y-75968817D01*
G37*
G36*
X112644586Y-75303171D02*
G01*
X112677352Y-75313111D01*
X112707552Y-75329253D01*
X112734023Y-75350977D01*
X112755747Y-75377448D01*
X112771889Y-75407648D01*
X112781829Y-75440414D01*
X112785800Y-75480738D01*
X112785800Y-76919262D01*
X112781829Y-76959586D01*
X112771889Y-76992352D01*
X112755747Y-77022552D01*
X112734023Y-77049023D01*
X112707552Y-77070747D01*
X112677352Y-77086889D01*
X112644586Y-77096829D01*
X112604262Y-77100800D01*
X110915738Y-77100800D01*
X110875414Y-77096829D01*
X110842648Y-77086889D01*
X110812448Y-77070747D01*
X110785977Y-77049023D01*
X110764253Y-77022552D01*
X110748111Y-76992352D01*
X110738171Y-76959586D01*
X110734200Y-76919262D01*
X110734200Y-75480738D01*
X110738171Y-75440414D01*
X110748111Y-75407648D01*
X110764253Y-75377448D01*
X110785977Y-75350977D01*
X110812448Y-75329253D01*
X110842648Y-75313111D01*
X110875414Y-75303171D01*
X110915738Y-75299200D01*
X112604262Y-75299200D01*
X112644586Y-75303171D01*
G37*
G36*
X129614449Y-75453650D02*
G01*
X129651914Y-75465015D01*
X129686438Y-75483469D01*
X129716698Y-75508302D01*
X129741531Y-75538562D01*
X129759985Y-75573086D01*
X129771350Y-75610551D01*
X129775800Y-75655738D01*
X129775800Y-76744262D01*
X129771350Y-76789449D01*
X129759985Y-76826914D01*
X129741531Y-76861438D01*
X129716698Y-76891698D01*
X129686438Y-76916531D01*
X129651914Y-76934985D01*
X129614449Y-76946350D01*
X129569262Y-76950800D01*
X128730738Y-76950800D01*
X128685551Y-76946350D01*
X128648086Y-76934985D01*
X128613562Y-76916531D01*
X128583302Y-76891698D01*
X128558469Y-76861438D01*
X128540015Y-76826914D01*
X128528650Y-76789449D01*
X128524200Y-76744262D01*
X128524200Y-75655738D01*
X128528650Y-75610551D01*
X128540015Y-75573086D01*
X128558469Y-75538562D01*
X128583302Y-75508302D01*
X128613562Y-75483469D01*
X128648086Y-75465015D01*
X128685551Y-75453650D01*
X128730738Y-75449200D01*
X129569262Y-75449200D01*
X129614449Y-75453650D01*
G37*
G36*
X131664449Y-75453650D02*
G01*
X131701914Y-75465015D01*
X131736438Y-75483469D01*
X131766698Y-75508302D01*
X131791531Y-75538562D01*
X131809985Y-75573086D01*
X131821350Y-75610551D01*
X131825800Y-75655738D01*
X131825800Y-76744262D01*
X131821350Y-76789449D01*
X131809985Y-76826914D01*
X131791531Y-76861438D01*
X131766698Y-76891698D01*
X131736438Y-76916531D01*
X131701914Y-76934985D01*
X131664449Y-76946350D01*
X131619262Y-76950800D01*
X130780738Y-76950800D01*
X130735551Y-76946350D01*
X130698086Y-76934985D01*
X130663562Y-76916531D01*
X130633302Y-76891698D01*
X130608469Y-76861438D01*
X130590015Y-76826914D01*
X130578650Y-76789449D01*
X130574200Y-76744262D01*
X130574200Y-75655738D01*
X130578650Y-75610551D01*
X130590015Y-75573086D01*
X130608469Y-75538562D01*
X130633302Y-75508302D01*
X130663562Y-75483469D01*
X130698086Y-75465015D01*
X130735551Y-75453650D01*
X130780738Y-75449200D01*
X131619262Y-75449200D01*
X131664449Y-75453650D01*
G37*
M02*
