G04 #@! TF.GenerationSoftware,KiCad,Pcbnew,5.1.5-52549c5~86~ubuntu19.04.1*
G04 #@! TF.CreationDate,2020-12-26T14:33:06+01:00*
G04 #@! TF.ProjectId,high-accuracy-logging-volt-ampmeter,68696768-2d61-4636-9375-726163792d6c,v1.0*
G04 #@! TF.SameCoordinates,Original*
G04 #@! TF.FileFunction,Copper,L1,Top*
G04 #@! TF.FilePolarity,Positive*
%FSLAX46Y46*%
G04 Gerber Fmt 4.6, Leading zero omitted, Abs format (unit mm)*
G04 Created by KiCad (PCBNEW 5.1.5-52549c5~86~ubuntu19.04.1) date 2020-12-26 14:33:06*
%MOMM*%
%LPD*%
G04 APERTURE LIST*
%ADD10C,1.700000*%
%ADD11O,1.700000X1.700000*%
%ADD12R,1.700000X1.700000*%
%ADD13C,2.000000*%
%ADD14R,2.000000X2.000000*%
%ADD15O,1.700000X1.950000*%
%ADD16C,0.100000*%
%ADD17O,1.950000X1.700000*%
%ADD18O,1.700000X2.000000*%
%ADD19C,0.800000*%
%ADD20C,1.016000*%
%ADD21C,0.508000*%
%ADD22C,0.381000*%
%ADD23C,0.762000*%
%ADD24C,0.254000*%
G04 APERTURE END LIST*
D10*
X127000000Y-76835000D03*
X124460000Y-76835000D03*
X121920000Y-76835000D03*
X119380000Y-76835000D03*
D11*
X116840000Y-94615000D03*
D12*
X116840000Y-97155000D03*
D13*
X167640000Y-94595000D03*
D14*
X167640000Y-86995000D03*
D10*
X170180000Y-98425000D03*
X167640000Y-98425000D03*
X165100000Y-98425000D03*
X162560000Y-98425000D03*
X160020000Y-98425000D03*
X157480000Y-98425000D03*
X154940000Y-98425000D03*
X152400000Y-98425000D03*
X149860000Y-98425000D03*
X147320000Y-98425000D03*
X144780000Y-98425000D03*
X142240000Y-98425000D03*
X139700000Y-98425000D03*
X137160000Y-98425000D03*
X134620000Y-98425000D03*
X132080000Y-98425000D03*
X129540000Y-98425000D03*
X127000000Y-98425000D03*
X124460000Y-98425000D03*
X121920000Y-98425000D03*
X121920000Y-83185000D03*
X124460000Y-83185000D03*
X127000000Y-83185000D03*
X129540000Y-83185000D03*
X132080000Y-83185000D03*
X134620000Y-83185000D03*
X137160000Y-83185000D03*
X139700000Y-83185000D03*
X142240000Y-83185000D03*
X144780000Y-83185000D03*
X147320000Y-83185000D03*
X149860000Y-83185000D03*
X152400000Y-83185000D03*
X154940000Y-83185000D03*
X157480000Y-83185000D03*
X160020000Y-83185000D03*
X162560000Y-83185000D03*
X165100000Y-83185000D03*
X167640000Y-83185000D03*
X170180000Y-83185000D03*
D15*
X157995000Y-104140000D03*
X155495000Y-104140000D03*
X152995000Y-104140000D03*
G04 #@! TA.AperFunction,ComponentPad*
D16*
G36*
X151119504Y-103166204D02*
G01*
X151143773Y-103169804D01*
X151167571Y-103175765D01*
X151190671Y-103184030D01*
X151212849Y-103194520D01*
X151233893Y-103207133D01*
X151253598Y-103221747D01*
X151271777Y-103238223D01*
X151288253Y-103256402D01*
X151302867Y-103276107D01*
X151315480Y-103297151D01*
X151325970Y-103319329D01*
X151334235Y-103342429D01*
X151340196Y-103366227D01*
X151343796Y-103390496D01*
X151345000Y-103415000D01*
X151345000Y-104865000D01*
X151343796Y-104889504D01*
X151340196Y-104913773D01*
X151334235Y-104937571D01*
X151325970Y-104960671D01*
X151315480Y-104982849D01*
X151302867Y-105003893D01*
X151288253Y-105023598D01*
X151271777Y-105041777D01*
X151253598Y-105058253D01*
X151233893Y-105072867D01*
X151212849Y-105085480D01*
X151190671Y-105095970D01*
X151167571Y-105104235D01*
X151143773Y-105110196D01*
X151119504Y-105113796D01*
X151095000Y-105115000D01*
X149895000Y-105115000D01*
X149870496Y-105113796D01*
X149846227Y-105110196D01*
X149822429Y-105104235D01*
X149799329Y-105095970D01*
X149777151Y-105085480D01*
X149756107Y-105072867D01*
X149736402Y-105058253D01*
X149718223Y-105041777D01*
X149701747Y-105023598D01*
X149687133Y-105003893D01*
X149674520Y-104982849D01*
X149664030Y-104960671D01*
X149655765Y-104937571D01*
X149649804Y-104913773D01*
X149646204Y-104889504D01*
X149645000Y-104865000D01*
X149645000Y-103415000D01*
X149646204Y-103390496D01*
X149649804Y-103366227D01*
X149655765Y-103342429D01*
X149664030Y-103319329D01*
X149674520Y-103297151D01*
X149687133Y-103276107D01*
X149701747Y-103256402D01*
X149718223Y-103238223D01*
X149736402Y-103221747D01*
X149756107Y-103207133D01*
X149777151Y-103194520D01*
X149799329Y-103184030D01*
X149822429Y-103175765D01*
X149846227Y-103169804D01*
X149870496Y-103166204D01*
X149895000Y-103165000D01*
X151095000Y-103165000D01*
X151119504Y-103166204D01*
G37*
G04 #@! TD.AperFunction*
D11*
X138430000Y-106680000D03*
X140970000Y-106680000D03*
D12*
X143510000Y-106680000D03*
D17*
X111760000Y-83700000D03*
X111760000Y-81200000D03*
X111760000Y-78700000D03*
G04 #@! TA.AperFunction,ComponentPad*
D16*
G36*
X112509504Y-75351204D02*
G01*
X112533773Y-75354804D01*
X112557571Y-75360765D01*
X112580671Y-75369030D01*
X112602849Y-75379520D01*
X112623893Y-75392133D01*
X112643598Y-75406747D01*
X112661777Y-75423223D01*
X112678253Y-75441402D01*
X112692867Y-75461107D01*
X112705480Y-75482151D01*
X112715970Y-75504329D01*
X112724235Y-75527429D01*
X112730196Y-75551227D01*
X112733796Y-75575496D01*
X112735000Y-75600000D01*
X112735000Y-76800000D01*
X112733796Y-76824504D01*
X112730196Y-76848773D01*
X112724235Y-76872571D01*
X112715970Y-76895671D01*
X112705480Y-76917849D01*
X112692867Y-76938893D01*
X112678253Y-76958598D01*
X112661777Y-76976777D01*
X112643598Y-76993253D01*
X112623893Y-77007867D01*
X112602849Y-77020480D01*
X112580671Y-77030970D01*
X112557571Y-77039235D01*
X112533773Y-77045196D01*
X112509504Y-77048796D01*
X112485000Y-77050000D01*
X111035000Y-77050000D01*
X111010496Y-77048796D01*
X110986227Y-77045196D01*
X110962429Y-77039235D01*
X110939329Y-77030970D01*
X110917151Y-77020480D01*
X110896107Y-77007867D01*
X110876402Y-76993253D01*
X110858223Y-76976777D01*
X110841747Y-76958598D01*
X110827133Y-76938893D01*
X110814520Y-76917849D01*
X110804030Y-76895671D01*
X110795765Y-76872571D01*
X110789804Y-76848773D01*
X110786204Y-76824504D01*
X110785000Y-76800000D01*
X110785000Y-75600000D01*
X110786204Y-75575496D01*
X110789804Y-75551227D01*
X110795765Y-75527429D01*
X110804030Y-75504329D01*
X110814520Y-75482151D01*
X110827133Y-75461107D01*
X110841747Y-75441402D01*
X110858223Y-75423223D01*
X110876402Y-75406747D01*
X110896107Y-75392133D01*
X110917151Y-75379520D01*
X110939329Y-75369030D01*
X110962429Y-75360765D01*
X110986227Y-75354804D01*
X111010496Y-75351204D01*
X111035000Y-75350000D01*
X112485000Y-75350000D01*
X112509504Y-75351204D01*
G37*
G04 #@! TD.AperFunction*
D10*
X162560000Y-76835000D03*
X160020000Y-76835000D03*
X157480000Y-76835000D03*
X154940000Y-76835000D03*
D15*
X121125000Y-104140000D03*
X118625000Y-104140000D03*
X116125000Y-104140000D03*
X113625000Y-104140000D03*
G04 #@! TA.AperFunction,ComponentPad*
D16*
G36*
X111749504Y-103166204D02*
G01*
X111773773Y-103169804D01*
X111797571Y-103175765D01*
X111820671Y-103184030D01*
X111842849Y-103194520D01*
X111863893Y-103207133D01*
X111883598Y-103221747D01*
X111901777Y-103238223D01*
X111918253Y-103256402D01*
X111932867Y-103276107D01*
X111945480Y-103297151D01*
X111955970Y-103319329D01*
X111964235Y-103342429D01*
X111970196Y-103366227D01*
X111973796Y-103390496D01*
X111975000Y-103415000D01*
X111975000Y-104865000D01*
X111973796Y-104889504D01*
X111970196Y-104913773D01*
X111964235Y-104937571D01*
X111955970Y-104960671D01*
X111945480Y-104982849D01*
X111932867Y-105003893D01*
X111918253Y-105023598D01*
X111901777Y-105041777D01*
X111883598Y-105058253D01*
X111863893Y-105072867D01*
X111842849Y-105085480D01*
X111820671Y-105095970D01*
X111797571Y-105104235D01*
X111773773Y-105110196D01*
X111749504Y-105113796D01*
X111725000Y-105115000D01*
X110525000Y-105115000D01*
X110500496Y-105113796D01*
X110476227Y-105110196D01*
X110452429Y-105104235D01*
X110429329Y-105095970D01*
X110407151Y-105085480D01*
X110386107Y-105072867D01*
X110366402Y-105058253D01*
X110348223Y-105041777D01*
X110331747Y-105023598D01*
X110317133Y-105003893D01*
X110304520Y-104982849D01*
X110294030Y-104960671D01*
X110285765Y-104937571D01*
X110279804Y-104913773D01*
X110276204Y-104889504D01*
X110275000Y-104865000D01*
X110275000Y-103415000D01*
X110276204Y-103390496D01*
X110279804Y-103366227D01*
X110285765Y-103342429D01*
X110294030Y-103319329D01*
X110304520Y-103297151D01*
X110317133Y-103276107D01*
X110331747Y-103256402D01*
X110348223Y-103238223D01*
X110366402Y-103221747D01*
X110386107Y-103207133D01*
X110407151Y-103194520D01*
X110429329Y-103184030D01*
X110452429Y-103175765D01*
X110476227Y-103169804D01*
X110500496Y-103166204D01*
X110525000Y-103165000D01*
X111725000Y-103165000D01*
X111749504Y-103166204D01*
G37*
G04 #@! TD.AperFunction*
D18*
X168950000Y-76835000D03*
G04 #@! TA.AperFunction,ComponentPad*
D16*
G36*
X172074504Y-75836204D02*
G01*
X172098773Y-75839804D01*
X172122571Y-75845765D01*
X172145671Y-75854030D01*
X172167849Y-75864520D01*
X172188893Y-75877133D01*
X172208598Y-75891747D01*
X172226777Y-75908223D01*
X172243253Y-75926402D01*
X172257867Y-75946107D01*
X172270480Y-75967151D01*
X172280970Y-75989329D01*
X172289235Y-76012429D01*
X172295196Y-76036227D01*
X172298796Y-76060496D01*
X172300000Y-76085000D01*
X172300000Y-77585000D01*
X172298796Y-77609504D01*
X172295196Y-77633773D01*
X172289235Y-77657571D01*
X172280970Y-77680671D01*
X172270480Y-77702849D01*
X172257867Y-77723893D01*
X172243253Y-77743598D01*
X172226777Y-77761777D01*
X172208598Y-77778253D01*
X172188893Y-77792867D01*
X172167849Y-77805480D01*
X172145671Y-77815970D01*
X172122571Y-77824235D01*
X172098773Y-77830196D01*
X172074504Y-77833796D01*
X172050000Y-77835000D01*
X170850000Y-77835000D01*
X170825496Y-77833796D01*
X170801227Y-77830196D01*
X170777429Y-77824235D01*
X170754329Y-77815970D01*
X170732151Y-77805480D01*
X170711107Y-77792867D01*
X170691402Y-77778253D01*
X170673223Y-77761777D01*
X170656747Y-77743598D01*
X170642133Y-77723893D01*
X170629520Y-77702849D01*
X170619030Y-77680671D01*
X170610765Y-77657571D01*
X170604804Y-77633773D01*
X170601204Y-77609504D01*
X170600000Y-77585000D01*
X170600000Y-76085000D01*
X170601204Y-76060496D01*
X170604804Y-76036227D01*
X170610765Y-76012429D01*
X170619030Y-75989329D01*
X170629520Y-75967151D01*
X170642133Y-75946107D01*
X170656747Y-75926402D01*
X170673223Y-75908223D01*
X170691402Y-75891747D01*
X170711107Y-75877133D01*
X170732151Y-75864520D01*
X170754329Y-75854030D01*
X170777429Y-75845765D01*
X170801227Y-75839804D01*
X170825496Y-75836204D01*
X170850000Y-75835000D01*
X172050000Y-75835000D01*
X172074504Y-75836204D01*
G37*
G04 #@! TD.AperFunction*
D12*
X168910000Y-103505000D03*
X143510000Y-103505000D03*
D10*
X173355000Y-98425000D03*
G04 #@! TA.AperFunction,SMDPad,CuDef*
D16*
G36*
X152874505Y-80461204D02*
G01*
X152898773Y-80464804D01*
X152922572Y-80470765D01*
X152945671Y-80479030D01*
X152967850Y-80489520D01*
X152988893Y-80502132D01*
X153008599Y-80516747D01*
X153026777Y-80533223D01*
X153043253Y-80551401D01*
X153057868Y-80571107D01*
X153070480Y-80592150D01*
X153080970Y-80614329D01*
X153089235Y-80637428D01*
X153095196Y-80661227D01*
X153098796Y-80685495D01*
X153100000Y-80709999D01*
X153100000Y-81360001D01*
X153098796Y-81384505D01*
X153095196Y-81408773D01*
X153089235Y-81432572D01*
X153080970Y-81455671D01*
X153070480Y-81477850D01*
X153057868Y-81498893D01*
X153043253Y-81518599D01*
X153026777Y-81536777D01*
X153008599Y-81553253D01*
X152988893Y-81567868D01*
X152967850Y-81580480D01*
X152945671Y-81590970D01*
X152922572Y-81599235D01*
X152898773Y-81605196D01*
X152874505Y-81608796D01*
X152850001Y-81610000D01*
X151949999Y-81610000D01*
X151925495Y-81608796D01*
X151901227Y-81605196D01*
X151877428Y-81599235D01*
X151854329Y-81590970D01*
X151832150Y-81580480D01*
X151811107Y-81567868D01*
X151791401Y-81553253D01*
X151773223Y-81536777D01*
X151756747Y-81518599D01*
X151742132Y-81498893D01*
X151729520Y-81477850D01*
X151719030Y-81455671D01*
X151710765Y-81432572D01*
X151704804Y-81408773D01*
X151701204Y-81384505D01*
X151700000Y-81360001D01*
X151700000Y-80709999D01*
X151701204Y-80685495D01*
X151704804Y-80661227D01*
X151710765Y-80637428D01*
X151719030Y-80614329D01*
X151729520Y-80592150D01*
X151742132Y-80571107D01*
X151756747Y-80551401D01*
X151773223Y-80533223D01*
X151791401Y-80516747D01*
X151811107Y-80502132D01*
X151832150Y-80489520D01*
X151854329Y-80479030D01*
X151877428Y-80470765D01*
X151901227Y-80464804D01*
X151925495Y-80461204D01*
X151949999Y-80460000D01*
X152850001Y-80460000D01*
X152874505Y-80461204D01*
G37*
G04 #@! TD.AperFunction*
G04 #@! TA.AperFunction,SMDPad,CuDef*
G36*
X152874505Y-78411204D02*
G01*
X152898773Y-78414804D01*
X152922572Y-78420765D01*
X152945671Y-78429030D01*
X152967850Y-78439520D01*
X152988893Y-78452132D01*
X153008599Y-78466747D01*
X153026777Y-78483223D01*
X153043253Y-78501401D01*
X153057868Y-78521107D01*
X153070480Y-78542150D01*
X153080970Y-78564329D01*
X153089235Y-78587428D01*
X153095196Y-78611227D01*
X153098796Y-78635495D01*
X153100000Y-78659999D01*
X153100000Y-79310001D01*
X153098796Y-79334505D01*
X153095196Y-79358773D01*
X153089235Y-79382572D01*
X153080970Y-79405671D01*
X153070480Y-79427850D01*
X153057868Y-79448893D01*
X153043253Y-79468599D01*
X153026777Y-79486777D01*
X153008599Y-79503253D01*
X152988893Y-79517868D01*
X152967850Y-79530480D01*
X152945671Y-79540970D01*
X152922572Y-79549235D01*
X152898773Y-79555196D01*
X152874505Y-79558796D01*
X152850001Y-79560000D01*
X151949999Y-79560000D01*
X151925495Y-79558796D01*
X151901227Y-79555196D01*
X151877428Y-79549235D01*
X151854329Y-79540970D01*
X151832150Y-79530480D01*
X151811107Y-79517868D01*
X151791401Y-79503253D01*
X151773223Y-79486777D01*
X151756747Y-79468599D01*
X151742132Y-79448893D01*
X151729520Y-79427850D01*
X151719030Y-79405671D01*
X151710765Y-79382572D01*
X151704804Y-79358773D01*
X151701204Y-79334505D01*
X151700000Y-79310001D01*
X151700000Y-78659999D01*
X151701204Y-78635495D01*
X151704804Y-78611227D01*
X151710765Y-78587428D01*
X151719030Y-78564329D01*
X151729520Y-78542150D01*
X151742132Y-78521107D01*
X151756747Y-78501401D01*
X151773223Y-78483223D01*
X151791401Y-78466747D01*
X151811107Y-78452132D01*
X151832150Y-78439520D01*
X151854329Y-78429030D01*
X151877428Y-78420765D01*
X151901227Y-78414804D01*
X151925495Y-78411204D01*
X151949999Y-78410000D01*
X152850001Y-78410000D01*
X152874505Y-78411204D01*
G37*
G04 #@! TD.AperFunction*
G04 #@! TA.AperFunction,SMDPad,CuDef*
G36*
X155414505Y-78411204D02*
G01*
X155438773Y-78414804D01*
X155462572Y-78420765D01*
X155485671Y-78429030D01*
X155507850Y-78439520D01*
X155528893Y-78452132D01*
X155548599Y-78466747D01*
X155566777Y-78483223D01*
X155583253Y-78501401D01*
X155597868Y-78521107D01*
X155610480Y-78542150D01*
X155620970Y-78564329D01*
X155629235Y-78587428D01*
X155635196Y-78611227D01*
X155638796Y-78635495D01*
X155640000Y-78659999D01*
X155640000Y-79310001D01*
X155638796Y-79334505D01*
X155635196Y-79358773D01*
X155629235Y-79382572D01*
X155620970Y-79405671D01*
X155610480Y-79427850D01*
X155597868Y-79448893D01*
X155583253Y-79468599D01*
X155566777Y-79486777D01*
X155548599Y-79503253D01*
X155528893Y-79517868D01*
X155507850Y-79530480D01*
X155485671Y-79540970D01*
X155462572Y-79549235D01*
X155438773Y-79555196D01*
X155414505Y-79558796D01*
X155390001Y-79560000D01*
X154489999Y-79560000D01*
X154465495Y-79558796D01*
X154441227Y-79555196D01*
X154417428Y-79549235D01*
X154394329Y-79540970D01*
X154372150Y-79530480D01*
X154351107Y-79517868D01*
X154331401Y-79503253D01*
X154313223Y-79486777D01*
X154296747Y-79468599D01*
X154282132Y-79448893D01*
X154269520Y-79427850D01*
X154259030Y-79405671D01*
X154250765Y-79382572D01*
X154244804Y-79358773D01*
X154241204Y-79334505D01*
X154240000Y-79310001D01*
X154240000Y-78659999D01*
X154241204Y-78635495D01*
X154244804Y-78611227D01*
X154250765Y-78587428D01*
X154259030Y-78564329D01*
X154269520Y-78542150D01*
X154282132Y-78521107D01*
X154296747Y-78501401D01*
X154313223Y-78483223D01*
X154331401Y-78466747D01*
X154351107Y-78452132D01*
X154372150Y-78439520D01*
X154394329Y-78429030D01*
X154417428Y-78420765D01*
X154441227Y-78414804D01*
X154465495Y-78411204D01*
X154489999Y-78410000D01*
X155390001Y-78410000D01*
X155414505Y-78411204D01*
G37*
G04 #@! TD.AperFunction*
G04 #@! TA.AperFunction,SMDPad,CuDef*
G36*
X155414505Y-80461204D02*
G01*
X155438773Y-80464804D01*
X155462572Y-80470765D01*
X155485671Y-80479030D01*
X155507850Y-80489520D01*
X155528893Y-80502132D01*
X155548599Y-80516747D01*
X155566777Y-80533223D01*
X155583253Y-80551401D01*
X155597868Y-80571107D01*
X155610480Y-80592150D01*
X155620970Y-80614329D01*
X155629235Y-80637428D01*
X155635196Y-80661227D01*
X155638796Y-80685495D01*
X155640000Y-80709999D01*
X155640000Y-81360001D01*
X155638796Y-81384505D01*
X155635196Y-81408773D01*
X155629235Y-81432572D01*
X155620970Y-81455671D01*
X155610480Y-81477850D01*
X155597868Y-81498893D01*
X155583253Y-81518599D01*
X155566777Y-81536777D01*
X155548599Y-81553253D01*
X155528893Y-81567868D01*
X155507850Y-81580480D01*
X155485671Y-81590970D01*
X155462572Y-81599235D01*
X155438773Y-81605196D01*
X155414505Y-81608796D01*
X155390001Y-81610000D01*
X154489999Y-81610000D01*
X154465495Y-81608796D01*
X154441227Y-81605196D01*
X154417428Y-81599235D01*
X154394329Y-81590970D01*
X154372150Y-81580480D01*
X154351107Y-81567868D01*
X154331401Y-81553253D01*
X154313223Y-81536777D01*
X154296747Y-81518599D01*
X154282132Y-81498893D01*
X154269520Y-81477850D01*
X154259030Y-81455671D01*
X154250765Y-81432572D01*
X154244804Y-81408773D01*
X154241204Y-81384505D01*
X154240000Y-81360001D01*
X154240000Y-80709999D01*
X154241204Y-80685495D01*
X154244804Y-80661227D01*
X154250765Y-80637428D01*
X154259030Y-80614329D01*
X154269520Y-80592150D01*
X154282132Y-80571107D01*
X154296747Y-80551401D01*
X154313223Y-80533223D01*
X154331401Y-80516747D01*
X154351107Y-80502132D01*
X154372150Y-80489520D01*
X154394329Y-80479030D01*
X154417428Y-80470765D01*
X154441227Y-80464804D01*
X154465495Y-80461204D01*
X154489999Y-80460000D01*
X155390001Y-80460000D01*
X155414505Y-80461204D01*
G37*
G04 #@! TD.AperFunction*
D15*
X134820000Y-76835000D03*
X137320000Y-76835000D03*
X139820000Y-76835000D03*
X142320000Y-76835000D03*
X144820000Y-76835000D03*
G04 #@! TA.AperFunction,ComponentPad*
D16*
G36*
X147944504Y-75861204D02*
G01*
X147968773Y-75864804D01*
X147992571Y-75870765D01*
X148015671Y-75879030D01*
X148037849Y-75889520D01*
X148058893Y-75902133D01*
X148078598Y-75916747D01*
X148096777Y-75933223D01*
X148113253Y-75951402D01*
X148127867Y-75971107D01*
X148140480Y-75992151D01*
X148150970Y-76014329D01*
X148159235Y-76037429D01*
X148165196Y-76061227D01*
X148168796Y-76085496D01*
X148170000Y-76110000D01*
X148170000Y-77560000D01*
X148168796Y-77584504D01*
X148165196Y-77608773D01*
X148159235Y-77632571D01*
X148150970Y-77655671D01*
X148140480Y-77677849D01*
X148127867Y-77698893D01*
X148113253Y-77718598D01*
X148096777Y-77736777D01*
X148078598Y-77753253D01*
X148058893Y-77767867D01*
X148037849Y-77780480D01*
X148015671Y-77790970D01*
X147992571Y-77799235D01*
X147968773Y-77805196D01*
X147944504Y-77808796D01*
X147920000Y-77810000D01*
X146720000Y-77810000D01*
X146695496Y-77808796D01*
X146671227Y-77805196D01*
X146647429Y-77799235D01*
X146624329Y-77790970D01*
X146602151Y-77780480D01*
X146581107Y-77767867D01*
X146561402Y-77753253D01*
X146543223Y-77736777D01*
X146526747Y-77718598D01*
X146512133Y-77698893D01*
X146499520Y-77677849D01*
X146489030Y-77655671D01*
X146480765Y-77632571D01*
X146474804Y-77608773D01*
X146471204Y-77584504D01*
X146470000Y-77560000D01*
X146470000Y-76110000D01*
X146471204Y-76085496D01*
X146474804Y-76061227D01*
X146480765Y-76037429D01*
X146489030Y-76014329D01*
X146499520Y-75992151D01*
X146512133Y-75971107D01*
X146526747Y-75951402D01*
X146543223Y-75933223D01*
X146561402Y-75916747D01*
X146581107Y-75902133D01*
X146602151Y-75889520D01*
X146624329Y-75879030D01*
X146647429Y-75870765D01*
X146671227Y-75864804D01*
X146695496Y-75861204D01*
X146720000Y-75860000D01*
X147920000Y-75860000D01*
X147944504Y-75861204D01*
G37*
G04 #@! TD.AperFunction*
D15*
X132635000Y-104140000D03*
X130135000Y-104140000D03*
G04 #@! TA.AperFunction,ComponentPad*
D16*
G36*
X128259504Y-103166204D02*
G01*
X128283773Y-103169804D01*
X128307571Y-103175765D01*
X128330671Y-103184030D01*
X128352849Y-103194520D01*
X128373893Y-103207133D01*
X128393598Y-103221747D01*
X128411777Y-103238223D01*
X128428253Y-103256402D01*
X128442867Y-103276107D01*
X128455480Y-103297151D01*
X128465970Y-103319329D01*
X128474235Y-103342429D01*
X128480196Y-103366227D01*
X128483796Y-103390496D01*
X128485000Y-103415000D01*
X128485000Y-104865000D01*
X128483796Y-104889504D01*
X128480196Y-104913773D01*
X128474235Y-104937571D01*
X128465970Y-104960671D01*
X128455480Y-104982849D01*
X128442867Y-105003893D01*
X128428253Y-105023598D01*
X128411777Y-105041777D01*
X128393598Y-105058253D01*
X128373893Y-105072867D01*
X128352849Y-105085480D01*
X128330671Y-105095970D01*
X128307571Y-105104235D01*
X128283773Y-105110196D01*
X128259504Y-105113796D01*
X128235000Y-105115000D01*
X127035000Y-105115000D01*
X127010496Y-105113796D01*
X126986227Y-105110196D01*
X126962429Y-105104235D01*
X126939329Y-105095970D01*
X126917151Y-105085480D01*
X126896107Y-105072867D01*
X126876402Y-105058253D01*
X126858223Y-105041777D01*
X126841747Y-105023598D01*
X126827133Y-105003893D01*
X126814520Y-104982849D01*
X126804030Y-104960671D01*
X126795765Y-104937571D01*
X126789804Y-104913773D01*
X126786204Y-104889504D01*
X126785000Y-104865000D01*
X126785000Y-103415000D01*
X126786204Y-103390496D01*
X126789804Y-103366227D01*
X126795765Y-103342429D01*
X126804030Y-103319329D01*
X126814520Y-103297151D01*
X126827133Y-103276107D01*
X126841747Y-103256402D01*
X126858223Y-103238223D01*
X126876402Y-103221747D01*
X126896107Y-103207133D01*
X126917151Y-103194520D01*
X126939329Y-103184030D01*
X126962429Y-103175765D01*
X126986227Y-103169804D01*
X127010496Y-103166204D01*
X127035000Y-103165000D01*
X128235000Y-103165000D01*
X128259504Y-103166204D01*
G37*
G04 #@! TD.AperFunction*
D11*
X163830000Y-106680000D03*
X166370000Y-106680000D03*
D12*
X168910000Y-106680000D03*
D10*
X160020000Y-79375000D03*
D17*
X111760000Y-97670000D03*
X111760000Y-95170000D03*
X111760000Y-92670000D03*
G04 #@! TA.AperFunction,ComponentPad*
D16*
G36*
X112509504Y-89321204D02*
G01*
X112533773Y-89324804D01*
X112557571Y-89330765D01*
X112580671Y-89339030D01*
X112602849Y-89349520D01*
X112623893Y-89362133D01*
X112643598Y-89376747D01*
X112661777Y-89393223D01*
X112678253Y-89411402D01*
X112692867Y-89431107D01*
X112705480Y-89452151D01*
X112715970Y-89474329D01*
X112724235Y-89497429D01*
X112730196Y-89521227D01*
X112733796Y-89545496D01*
X112735000Y-89570000D01*
X112735000Y-90770000D01*
X112733796Y-90794504D01*
X112730196Y-90818773D01*
X112724235Y-90842571D01*
X112715970Y-90865671D01*
X112705480Y-90887849D01*
X112692867Y-90908893D01*
X112678253Y-90928598D01*
X112661777Y-90946777D01*
X112643598Y-90963253D01*
X112623893Y-90977867D01*
X112602849Y-90990480D01*
X112580671Y-91000970D01*
X112557571Y-91009235D01*
X112533773Y-91015196D01*
X112509504Y-91018796D01*
X112485000Y-91020000D01*
X111035000Y-91020000D01*
X111010496Y-91018796D01*
X110986227Y-91015196D01*
X110962429Y-91009235D01*
X110939329Y-91000970D01*
X110917151Y-90990480D01*
X110896107Y-90977867D01*
X110876402Y-90963253D01*
X110858223Y-90946777D01*
X110841747Y-90928598D01*
X110827133Y-90908893D01*
X110814520Y-90887849D01*
X110804030Y-90865671D01*
X110795765Y-90842571D01*
X110789804Y-90818773D01*
X110786204Y-90794504D01*
X110785000Y-90770000D01*
X110785000Y-89570000D01*
X110786204Y-89545496D01*
X110789804Y-89521227D01*
X110795765Y-89497429D01*
X110804030Y-89474329D01*
X110814520Y-89452151D01*
X110827133Y-89431107D01*
X110841747Y-89411402D01*
X110858223Y-89393223D01*
X110876402Y-89376747D01*
X110896107Y-89362133D01*
X110917151Y-89349520D01*
X110939329Y-89339030D01*
X110962429Y-89330765D01*
X110986227Y-89324804D01*
X111010496Y-89321204D01*
X111035000Y-89320000D01*
X112485000Y-89320000D01*
X112509504Y-89321204D01*
G37*
G04 #@! TD.AperFunction*
D19*
X172720000Y-83185000D03*
X133350000Y-90805000D03*
X151130000Y-90805000D03*
X171704000Y-99822000D03*
X109220000Y-106045000D03*
X145415000Y-103251000D03*
X135255000Y-106045000D03*
X138049000Y-81280000D03*
X150114000Y-80137000D03*
X149860000Y-92075000D03*
X122555000Y-89535000D03*
X117475000Y-84455000D03*
X165100000Y-100965000D03*
X114300000Y-89535000D03*
X114300000Y-98425000D03*
D20*
X111760000Y-97670000D02*
X112515000Y-97670000D01*
X115570000Y-94615000D02*
X116840000Y-94615000D01*
X112515000Y-97670000D02*
X115570000Y-94615000D01*
X111760000Y-90170000D02*
X111760000Y-83700000D01*
D21*
X152400000Y-85725000D02*
X152400000Y-83185000D01*
X149860000Y-88265000D02*
X152400000Y-85725000D01*
X120015000Y-88265000D02*
X149860000Y-88265000D01*
X111760000Y-95170000D02*
X113110000Y-95170000D01*
X113110000Y-95170000D02*
X120015000Y-88265000D01*
X149860000Y-85090000D02*
X149860000Y-83185000D01*
X119380000Y-86995000D02*
X147955000Y-86995000D01*
X147955000Y-86995000D02*
X149860000Y-85090000D01*
X111760000Y-92670000D02*
X113705000Y-92670000D01*
X113705000Y-92670000D02*
X119380000Y-86995000D01*
D22*
X154940000Y-81035000D02*
X156600000Y-81035000D01*
X157480000Y-81915000D02*
X157480000Y-83185000D01*
X156600000Y-81035000D02*
X157480000Y-81915000D01*
X152790000Y-81035000D02*
X154940000Y-83185000D01*
X152400000Y-81035000D02*
X152790000Y-81035000D01*
D21*
X141605000Y-100965000D02*
X139700000Y-99060000D01*
X139700000Y-99060000D02*
X139700000Y-98425000D01*
X144780000Y-100965000D02*
X141605000Y-100965000D01*
X145415000Y-103251000D02*
X145415000Y-101600000D01*
X145415000Y-101600000D02*
X144780000Y-100965000D01*
D20*
X118745000Y-83185000D02*
X121920000Y-83185000D01*
X111760000Y-78700000D02*
X114260000Y-78700000D01*
X114260000Y-78700000D02*
X118745000Y-83185000D01*
D23*
X157995000Y-102355000D02*
X157995000Y-104140000D01*
X165100000Y-98425000D02*
X165100000Y-99060000D01*
X159385000Y-100965000D02*
X157995000Y-102355000D01*
X163195000Y-100965000D02*
X159385000Y-100965000D01*
X165100000Y-99060000D02*
X163195000Y-100965000D01*
D20*
X110490000Y-104140000D02*
X111125000Y-104140000D01*
X109220000Y-102870000D02*
X110490000Y-104140000D01*
X109220000Y-80645000D02*
X109220000Y-102870000D01*
X111760000Y-78700000D02*
X111165000Y-78700000D01*
X111165000Y-78700000D02*
X109220000Y-80645000D01*
D23*
X134239000Y-107061000D02*
X135255000Y-106045000D01*
X112776000Y-107061000D02*
X134239000Y-107061000D01*
X111125000Y-104140000D02*
X111125000Y-105410000D01*
X111125000Y-105410000D02*
X112776000Y-107061000D01*
D22*
X119380000Y-76835000D02*
X119380000Y-78740000D01*
X119380000Y-78740000D02*
X120650000Y-80010000D01*
X120650000Y-80010000D02*
X133350000Y-80010000D01*
X134620000Y-81280000D02*
X134620000Y-83185000D01*
X133350000Y-80010000D02*
X134620000Y-81280000D01*
X138049000Y-81280000D02*
X148971000Y-81280000D01*
X148971000Y-81280000D02*
X150114000Y-80137000D01*
X150114000Y-80137000D02*
X150114000Y-80137000D01*
X121920000Y-76835000D02*
X121920000Y-78105000D01*
X121920000Y-78105000D02*
X122555000Y-78740000D01*
X122555000Y-78740000D02*
X135255000Y-78740000D01*
X137160000Y-80645000D02*
X137160000Y-83185000D01*
X135255000Y-78740000D02*
X137160000Y-80645000D01*
X157480000Y-76835000D02*
X157480000Y-79375000D01*
X157480000Y-79375000D02*
X156845000Y-80010000D01*
X137795000Y-80010000D02*
X137160000Y-80645000D01*
X137795000Y-80010000D02*
X148971000Y-80010000D01*
X148971000Y-80010000D02*
X149860000Y-79121000D01*
X149860000Y-79121000D02*
X150495000Y-79121000D01*
X151384000Y-80010000D02*
X156845000Y-80010000D01*
X150495000Y-79121000D02*
X151384000Y-80010000D01*
D21*
X149860000Y-90805000D02*
X149860000Y-92075000D01*
X148590000Y-89535000D02*
X149860000Y-90805000D01*
X122555000Y-89535000D02*
X148590000Y-89535000D01*
X114220000Y-81200000D02*
X111760000Y-81200000D01*
X117475000Y-84455000D02*
X114220000Y-81200000D01*
X152995000Y-104140000D02*
X152995000Y-102830000D01*
X152995000Y-102830000D02*
X151765000Y-101600000D01*
X151765000Y-101600000D02*
X150495000Y-101600000D01*
X149860000Y-100965000D02*
X149860000Y-98425000D01*
X150495000Y-101600000D02*
X149860000Y-100965000D01*
X150495000Y-104140000D02*
X147320000Y-100965000D01*
X147320000Y-100965000D02*
X147320000Y-98425000D01*
X168910000Y-103505000D02*
X165735000Y-103505000D01*
X165100000Y-102870000D02*
X165100000Y-100965000D01*
X165735000Y-103505000D02*
X165100000Y-102870000D01*
X146431000Y-100076000D02*
X144780000Y-98425000D01*
X146431000Y-104013000D02*
X146431000Y-100076000D01*
X118625000Y-105290000D02*
X119253000Y-105918000D01*
X145415000Y-105029000D02*
X146431000Y-104013000D01*
X118625000Y-104140000D02*
X118625000Y-105290000D01*
X119253000Y-105918000D02*
X133477000Y-105918000D01*
X134366000Y-105029000D02*
X145415000Y-105029000D01*
X133477000Y-105918000D02*
X134366000Y-105029000D01*
X116125000Y-104140000D02*
X116125000Y-102315000D01*
X116125000Y-102315000D02*
X117475000Y-100965000D01*
X117475000Y-100965000D02*
X123825000Y-100965000D01*
X124460000Y-100330000D02*
X124460000Y-98425000D01*
X123825000Y-100965000D02*
X124460000Y-100330000D01*
X139700000Y-83185000D02*
X139700000Y-84455000D01*
X139700000Y-84455000D02*
X139700000Y-85090000D01*
X139700000Y-85090000D02*
X139065000Y-85725000D01*
X139065000Y-85725000D02*
X118110000Y-85725000D01*
X118110000Y-85725000D02*
X114300000Y-89535000D01*
X114300000Y-89535000D02*
X114300000Y-89535000D01*
X114300000Y-89535000D02*
X114300000Y-89535000D01*
X113625000Y-104140000D02*
X113625000Y-101640000D01*
X114300000Y-100965000D02*
X114300000Y-98425000D01*
X113625000Y-101640000D02*
X114300000Y-100965000D01*
X167640000Y-86995000D02*
X167640000Y-83185000D01*
X127635000Y-104140000D02*
X127635000Y-102870000D01*
X127635000Y-102870000D02*
X129540000Y-100965000D01*
X129540000Y-100965000D02*
X131445000Y-100965000D01*
X132080000Y-100330000D02*
X132080000Y-98425000D01*
X131445000Y-100965000D02*
X132080000Y-100330000D01*
X132635000Y-104140000D02*
X132635000Y-102950000D01*
X134620000Y-100965000D02*
X134620000Y-98425000D01*
X132635000Y-102950000D02*
X134620000Y-100965000D01*
X162560000Y-98425000D02*
X162560000Y-97155000D01*
X162560000Y-97155000D02*
X163195000Y-96520000D01*
X163195000Y-96520000D02*
X172720000Y-96520000D01*
X173355000Y-97155000D02*
X173355000Y-98425000D01*
X172720000Y-96520000D02*
X173355000Y-97155000D01*
D23*
X168950000Y-76835000D02*
X168950000Y-76240000D01*
D22*
X152146000Y-78105000D02*
X152400000Y-78359000D01*
X142320000Y-76915000D02*
X144526000Y-79121000D01*
X144526000Y-79121000D02*
X148844000Y-79121000D01*
X152400000Y-78359000D02*
X152400000Y-78985000D01*
X142320000Y-76835000D02*
X142320000Y-76915000D01*
X148844000Y-79121000D02*
X149860000Y-78105000D01*
X149860000Y-78105000D02*
X152146000Y-78105000D01*
X153425000Y-77470000D02*
X154940000Y-78985000D01*
X144820000Y-77637000D02*
X145669000Y-78486000D01*
X149542500Y-77470000D02*
X153425000Y-77470000D01*
X144820000Y-76835000D02*
X144820000Y-77637000D01*
X145669000Y-78486000D02*
X148526500Y-78486000D01*
X148526500Y-78486000D02*
X149542500Y-77470000D01*
D23*
X120650000Y-97155000D02*
X121920000Y-98425000D01*
X116840000Y-97155000D02*
X120650000Y-97155000D01*
D24*
G36*
X174575001Y-97577931D02*
G01*
X174508475Y-97478368D01*
X174301632Y-97271525D01*
X174244000Y-97233017D01*
X174244000Y-97198660D01*
X174248300Y-97155000D01*
X174244000Y-97111340D01*
X174244000Y-97111333D01*
X174231136Y-96980726D01*
X174180303Y-96813149D01*
X174097753Y-96658709D01*
X174039568Y-96587810D01*
X174014495Y-96557259D01*
X174014494Y-96557258D01*
X173986659Y-96523341D01*
X173952742Y-96495506D01*
X173379498Y-95922263D01*
X173351659Y-95888341D01*
X173216291Y-95777247D01*
X173061851Y-95694697D01*
X172894274Y-95643864D01*
X172763667Y-95631000D01*
X172763660Y-95631000D01*
X172720000Y-95626700D01*
X172676340Y-95631000D01*
X168855608Y-95631000D01*
X168775415Y-95550807D01*
X169039814Y-95455044D01*
X169180704Y-95165429D01*
X169262384Y-94853892D01*
X169281718Y-94532405D01*
X169237961Y-94213325D01*
X169132795Y-93908912D01*
X169039814Y-93734956D01*
X168775413Y-93639192D01*
X167819605Y-94595000D01*
X167833748Y-94609143D01*
X167654143Y-94788748D01*
X167640000Y-94774605D01*
X167625858Y-94788748D01*
X167446253Y-94609143D01*
X167460395Y-94595000D01*
X166504587Y-93639192D01*
X166240186Y-93734956D01*
X166099296Y-94024571D01*
X166017616Y-94336108D01*
X165998282Y-94657595D01*
X166042039Y-94976675D01*
X166147205Y-95281088D01*
X166240186Y-95455044D01*
X166504585Y-95550807D01*
X166424392Y-95631000D01*
X163238660Y-95631000D01*
X163195000Y-95626700D01*
X163151340Y-95631000D01*
X163151333Y-95631000D01*
X163037325Y-95642229D01*
X163020725Y-95643864D01*
X162969892Y-95659284D01*
X162853149Y-95694697D01*
X162698709Y-95777247D01*
X162563341Y-95888341D01*
X162535505Y-95922259D01*
X161962259Y-96495506D01*
X161928342Y-96523341D01*
X161900507Y-96557258D01*
X161900505Y-96557260D01*
X161817248Y-96658709D01*
X161734698Y-96813148D01*
X161683864Y-96980726D01*
X161666700Y-97155000D01*
X161671001Y-97198669D01*
X161671001Y-97233016D01*
X161613368Y-97271525D01*
X161406525Y-97478368D01*
X161290000Y-97652760D01*
X161173475Y-97478368D01*
X160966632Y-97271525D01*
X160723411Y-97109010D01*
X160453158Y-96997068D01*
X160166260Y-96940000D01*
X159873740Y-96940000D01*
X159586842Y-96997068D01*
X159316589Y-97109010D01*
X159073368Y-97271525D01*
X158866525Y-97478368D01*
X158750000Y-97652760D01*
X158633475Y-97478368D01*
X158426632Y-97271525D01*
X158183411Y-97109010D01*
X157913158Y-96997068D01*
X157626260Y-96940000D01*
X157333740Y-96940000D01*
X157046842Y-96997068D01*
X156776589Y-97109010D01*
X156533368Y-97271525D01*
X156326525Y-97478368D01*
X156210000Y-97652760D01*
X156093475Y-97478368D01*
X155886632Y-97271525D01*
X155643411Y-97109010D01*
X155373158Y-96997068D01*
X155086260Y-96940000D01*
X154793740Y-96940000D01*
X154506842Y-96997068D01*
X154236589Y-97109010D01*
X153993368Y-97271525D01*
X153786525Y-97478368D01*
X153670000Y-97652760D01*
X153553475Y-97478368D01*
X153346632Y-97271525D01*
X153103411Y-97109010D01*
X152833158Y-96997068D01*
X152546260Y-96940000D01*
X152253740Y-96940000D01*
X151966842Y-96997068D01*
X151696589Y-97109010D01*
X151453368Y-97271525D01*
X151246525Y-97478368D01*
X151130000Y-97652760D01*
X151013475Y-97478368D01*
X150806632Y-97271525D01*
X150563411Y-97109010D01*
X150293158Y-96997068D01*
X150006260Y-96940000D01*
X149713740Y-96940000D01*
X149426842Y-96997068D01*
X149156589Y-97109010D01*
X148913368Y-97271525D01*
X148706525Y-97478368D01*
X148590000Y-97652760D01*
X148473475Y-97478368D01*
X148266632Y-97271525D01*
X148023411Y-97109010D01*
X147753158Y-96997068D01*
X147466260Y-96940000D01*
X147173740Y-96940000D01*
X146886842Y-96997068D01*
X146616589Y-97109010D01*
X146373368Y-97271525D01*
X146166525Y-97478368D01*
X146050000Y-97652760D01*
X145933475Y-97478368D01*
X145726632Y-97271525D01*
X145483411Y-97109010D01*
X145213158Y-96997068D01*
X144926260Y-96940000D01*
X144633740Y-96940000D01*
X144346842Y-96997068D01*
X144076589Y-97109010D01*
X143833368Y-97271525D01*
X143626525Y-97478368D01*
X143510000Y-97652760D01*
X143393475Y-97478368D01*
X143186632Y-97271525D01*
X142943411Y-97109010D01*
X142673158Y-96997068D01*
X142386260Y-96940000D01*
X142093740Y-96940000D01*
X141806842Y-96997068D01*
X141536589Y-97109010D01*
X141293368Y-97271525D01*
X141086525Y-97478368D01*
X140970000Y-97652760D01*
X140853475Y-97478368D01*
X140646632Y-97271525D01*
X140403411Y-97109010D01*
X140133158Y-96997068D01*
X139846260Y-96940000D01*
X139553740Y-96940000D01*
X139266842Y-96997068D01*
X138996589Y-97109010D01*
X138753368Y-97271525D01*
X138546525Y-97478368D01*
X138430000Y-97652760D01*
X138313475Y-97478368D01*
X138106632Y-97271525D01*
X137863411Y-97109010D01*
X137593158Y-96997068D01*
X137306260Y-96940000D01*
X137013740Y-96940000D01*
X136726842Y-96997068D01*
X136456589Y-97109010D01*
X136213368Y-97271525D01*
X136006525Y-97478368D01*
X135890000Y-97652760D01*
X135773475Y-97478368D01*
X135566632Y-97271525D01*
X135323411Y-97109010D01*
X135053158Y-96997068D01*
X134766260Y-96940000D01*
X134473740Y-96940000D01*
X134186842Y-96997068D01*
X133916589Y-97109010D01*
X133673368Y-97271525D01*
X133466525Y-97478368D01*
X133350000Y-97652760D01*
X133233475Y-97478368D01*
X133026632Y-97271525D01*
X132783411Y-97109010D01*
X132513158Y-96997068D01*
X132226260Y-96940000D01*
X131933740Y-96940000D01*
X131646842Y-96997068D01*
X131376589Y-97109010D01*
X131133368Y-97271525D01*
X130926525Y-97478368D01*
X130810000Y-97652760D01*
X130693475Y-97478368D01*
X130486632Y-97271525D01*
X130243411Y-97109010D01*
X129973158Y-96997068D01*
X129686260Y-96940000D01*
X129393740Y-96940000D01*
X129106842Y-96997068D01*
X128836589Y-97109010D01*
X128593368Y-97271525D01*
X128386525Y-97478368D01*
X128270000Y-97652760D01*
X128153475Y-97478368D01*
X127946632Y-97271525D01*
X127703411Y-97109010D01*
X127433158Y-96997068D01*
X127146260Y-96940000D01*
X126853740Y-96940000D01*
X126566842Y-96997068D01*
X126296589Y-97109010D01*
X126053368Y-97271525D01*
X125846525Y-97478368D01*
X125730000Y-97652760D01*
X125613475Y-97478368D01*
X125406632Y-97271525D01*
X125163411Y-97109010D01*
X124893158Y-96997068D01*
X124606260Y-96940000D01*
X124313740Y-96940000D01*
X124026842Y-96997068D01*
X123756589Y-97109010D01*
X123513368Y-97271525D01*
X123306525Y-97478368D01*
X123190000Y-97652760D01*
X123073475Y-97478368D01*
X122866632Y-97271525D01*
X122623411Y-97109010D01*
X122353158Y-96997068D01*
X122066260Y-96940000D01*
X121871840Y-96940000D01*
X121403712Y-96471872D01*
X121371896Y-96433104D01*
X121217190Y-96306140D01*
X121040687Y-96211798D01*
X120849171Y-96153702D01*
X120699902Y-96139000D01*
X120650000Y-96134085D01*
X120600098Y-96139000D01*
X118303218Y-96139000D01*
X118279502Y-96060820D01*
X118220537Y-95950506D01*
X118141185Y-95853815D01*
X118044494Y-95774463D01*
X117934180Y-95715498D01*
X117853534Y-95691034D01*
X117937588Y-95615269D01*
X118111641Y-95381920D01*
X118236825Y-95119099D01*
X118281476Y-94971890D01*
X118160155Y-94742000D01*
X116967000Y-94742000D01*
X116967000Y-94762000D01*
X116713000Y-94762000D01*
X116713000Y-94742000D01*
X115519845Y-94742000D01*
X115398524Y-94971890D01*
X115443175Y-95119099D01*
X115568359Y-95381920D01*
X115742412Y-95615269D01*
X115826466Y-95691034D01*
X115745820Y-95715498D01*
X115635506Y-95774463D01*
X115538815Y-95853815D01*
X115459463Y-95950506D01*
X115400498Y-96060820D01*
X115364188Y-96180518D01*
X115351928Y-96305000D01*
X115351928Y-98005000D01*
X115364188Y-98129482D01*
X115400498Y-98249180D01*
X115426593Y-98298000D01*
X115330015Y-98298000D01*
X115295226Y-98123102D01*
X115217205Y-97934744D01*
X115103937Y-97765226D01*
X114959774Y-97621063D01*
X114790256Y-97507795D01*
X114601898Y-97429774D01*
X114401939Y-97390000D01*
X114198061Y-97390000D01*
X113998102Y-97429774D01*
X113809744Y-97507795D01*
X113640226Y-97621063D01*
X113496063Y-97765226D01*
X113382795Y-97934744D01*
X113304774Y-98123102D01*
X113269985Y-98298000D01*
X113229595Y-98298000D01*
X113234352Y-98289858D01*
X113326476Y-98026890D01*
X113205155Y-97797000D01*
X111887000Y-97797000D01*
X111887000Y-97817000D01*
X111633000Y-97817000D01*
X111633000Y-97797000D01*
X111613000Y-97797000D01*
X111613000Y-97543000D01*
X111633000Y-97543000D01*
X111633000Y-97523000D01*
X111887000Y-97523000D01*
X111887000Y-97543000D01*
X113205155Y-97543000D01*
X113326476Y-97313110D01*
X113234352Y-97050142D01*
X113087496Y-96798807D01*
X112894429Y-96580951D01*
X112688278Y-96424462D01*
X112714014Y-96410706D01*
X112940134Y-96225134D01*
X113075719Y-96059924D01*
X113110000Y-96063300D01*
X113153660Y-96059000D01*
X113153667Y-96059000D01*
X113284274Y-96046136D01*
X113451851Y-95995303D01*
X113606291Y-95912753D01*
X113741659Y-95801659D01*
X113769499Y-95767736D01*
X115458492Y-94078743D01*
X115443175Y-94110901D01*
X115398524Y-94258110D01*
X115519845Y-94488000D01*
X116713000Y-94488000D01*
X116713000Y-93294186D01*
X116967000Y-93294186D01*
X116967000Y-94488000D01*
X118160155Y-94488000D01*
X118281476Y-94258110D01*
X118236825Y-94110901D01*
X118111641Y-93848080D01*
X117937588Y-93614731D01*
X117765471Y-93459587D01*
X166684192Y-93459587D01*
X167640000Y-94415395D01*
X168595808Y-93459587D01*
X168500044Y-93195186D01*
X168210429Y-93054296D01*
X167898892Y-92972616D01*
X167577405Y-92953282D01*
X167258325Y-92997039D01*
X166953912Y-93102205D01*
X166779956Y-93195186D01*
X166684192Y-93459587D01*
X117765471Y-93459587D01*
X117721355Y-93419822D01*
X117471252Y-93270843D01*
X117196891Y-93173519D01*
X116967000Y-93294186D01*
X116713000Y-93294186D01*
X116483109Y-93173519D01*
X116298082Y-93239154D01*
X120383236Y-89154000D01*
X121592539Y-89154000D01*
X121559774Y-89233102D01*
X121520000Y-89433061D01*
X121520000Y-89636939D01*
X121559774Y-89836898D01*
X121637795Y-90025256D01*
X121751063Y-90194774D01*
X121895226Y-90338937D01*
X122064744Y-90452205D01*
X122253102Y-90530226D01*
X122453061Y-90570000D01*
X122656939Y-90570000D01*
X122856898Y-90530226D01*
X123045256Y-90452205D01*
X123087468Y-90424000D01*
X148221765Y-90424000D01*
X148971000Y-91173236D01*
X148971001Y-91542531D01*
X148942795Y-91584744D01*
X148864774Y-91773102D01*
X148825000Y-91973061D01*
X148825000Y-92176939D01*
X148864774Y-92376898D01*
X148942795Y-92565256D01*
X149056063Y-92734774D01*
X149200226Y-92878937D01*
X149369744Y-92992205D01*
X149558102Y-93070226D01*
X149758061Y-93110000D01*
X149961939Y-93110000D01*
X150161898Y-93070226D01*
X150350256Y-92992205D01*
X150519774Y-92878937D01*
X150663937Y-92734774D01*
X150777205Y-92565256D01*
X150855226Y-92376898D01*
X150895000Y-92176939D01*
X150895000Y-91973061D01*
X150855226Y-91773102D01*
X150777205Y-91584744D01*
X150749000Y-91542532D01*
X150749000Y-90848659D01*
X150753300Y-90804999D01*
X150749000Y-90761334D01*
X150749000Y-90761333D01*
X150736136Y-90630726D01*
X150736136Y-90630724D01*
X150685302Y-90463147D01*
X150657501Y-90411136D01*
X150602753Y-90308709D01*
X150491659Y-90173341D01*
X150457743Y-90145507D01*
X149466235Y-89154000D01*
X149816340Y-89154000D01*
X149860000Y-89158300D01*
X149903660Y-89154000D01*
X149903667Y-89154000D01*
X150034274Y-89141136D01*
X150201851Y-89090303D01*
X150356291Y-89007753D01*
X150491659Y-88896659D01*
X150519499Y-88862736D01*
X152997743Y-86384493D01*
X153031659Y-86356659D01*
X153142753Y-86221291D01*
X153225303Y-86066851D01*
X153271274Y-85915303D01*
X153276136Y-85899276D01*
X153282688Y-85832753D01*
X153289000Y-85768667D01*
X153289000Y-85768661D01*
X153293300Y-85725001D01*
X153289000Y-85681341D01*
X153289000Y-84376983D01*
X153346632Y-84338475D01*
X153553475Y-84131632D01*
X153670000Y-83957240D01*
X153786525Y-84131632D01*
X153993368Y-84338475D01*
X154236589Y-84500990D01*
X154506842Y-84612932D01*
X154793740Y-84670000D01*
X155086260Y-84670000D01*
X155373158Y-84612932D01*
X155643411Y-84500990D01*
X155886632Y-84338475D01*
X156093475Y-84131632D01*
X156210000Y-83957240D01*
X156326525Y-84131632D01*
X156533368Y-84338475D01*
X156776589Y-84500990D01*
X157046842Y-84612932D01*
X157333740Y-84670000D01*
X157626260Y-84670000D01*
X157913158Y-84612932D01*
X158183411Y-84500990D01*
X158426632Y-84338475D01*
X158633475Y-84131632D01*
X158750000Y-83957240D01*
X158866525Y-84131632D01*
X159073368Y-84338475D01*
X159316589Y-84500990D01*
X159586842Y-84612932D01*
X159873740Y-84670000D01*
X160166260Y-84670000D01*
X160453158Y-84612932D01*
X160723411Y-84500990D01*
X160966632Y-84338475D01*
X161173475Y-84131632D01*
X161290000Y-83957240D01*
X161406525Y-84131632D01*
X161613368Y-84338475D01*
X161856589Y-84500990D01*
X162126842Y-84612932D01*
X162413740Y-84670000D01*
X162706260Y-84670000D01*
X162993158Y-84612932D01*
X163263411Y-84500990D01*
X163506632Y-84338475D01*
X163713475Y-84131632D01*
X163830000Y-83957240D01*
X163946525Y-84131632D01*
X164153368Y-84338475D01*
X164396589Y-84500990D01*
X164666842Y-84612932D01*
X164953740Y-84670000D01*
X165246260Y-84670000D01*
X165533158Y-84612932D01*
X165803411Y-84500990D01*
X166046632Y-84338475D01*
X166253475Y-84131632D01*
X166370000Y-83957240D01*
X166486525Y-84131632D01*
X166693368Y-84338475D01*
X166751001Y-84376984D01*
X166751000Y-85356928D01*
X166640000Y-85356928D01*
X166515518Y-85369188D01*
X166395820Y-85405498D01*
X166285506Y-85464463D01*
X166188815Y-85543815D01*
X166109463Y-85640506D01*
X166050498Y-85750820D01*
X166014188Y-85870518D01*
X166001928Y-85995000D01*
X166001928Y-87995000D01*
X166014188Y-88119482D01*
X166050498Y-88239180D01*
X166109463Y-88349494D01*
X166188815Y-88446185D01*
X166285506Y-88525537D01*
X166395820Y-88584502D01*
X166515518Y-88620812D01*
X166640000Y-88633072D01*
X168640000Y-88633072D01*
X168764482Y-88620812D01*
X168884180Y-88584502D01*
X168994494Y-88525537D01*
X169091185Y-88446185D01*
X169170537Y-88349494D01*
X169229502Y-88239180D01*
X169265812Y-88119482D01*
X169278072Y-87995000D01*
X169278072Y-85995000D01*
X169265812Y-85870518D01*
X169229502Y-85750820D01*
X169170537Y-85640506D01*
X169091185Y-85543815D01*
X168994494Y-85464463D01*
X168884180Y-85405498D01*
X168764482Y-85369188D01*
X168640000Y-85356928D01*
X168529000Y-85356928D01*
X168529000Y-84376983D01*
X168586632Y-84338475D01*
X168793475Y-84131632D01*
X168910000Y-83957240D01*
X169026525Y-84131632D01*
X169233368Y-84338475D01*
X169476589Y-84500990D01*
X169746842Y-84612932D01*
X170033740Y-84670000D01*
X170326260Y-84670000D01*
X170613158Y-84612932D01*
X170883411Y-84500990D01*
X171126632Y-84338475D01*
X171333475Y-84131632D01*
X171495990Y-83888411D01*
X171607932Y-83618158D01*
X171665000Y-83331260D01*
X171665000Y-83038740D01*
X171607932Y-82751842D01*
X171495990Y-82481589D01*
X171333475Y-82238368D01*
X171126632Y-82031525D01*
X170883411Y-81869010D01*
X170613158Y-81757068D01*
X170326260Y-81700000D01*
X170033740Y-81700000D01*
X169746842Y-81757068D01*
X169476589Y-81869010D01*
X169233368Y-82031525D01*
X169026525Y-82238368D01*
X168910000Y-82412760D01*
X168793475Y-82238368D01*
X168586632Y-82031525D01*
X168343411Y-81869010D01*
X168073158Y-81757068D01*
X167786260Y-81700000D01*
X167493740Y-81700000D01*
X167206842Y-81757068D01*
X166936589Y-81869010D01*
X166693368Y-82031525D01*
X166486525Y-82238368D01*
X166370000Y-82412760D01*
X166253475Y-82238368D01*
X166046632Y-82031525D01*
X165803411Y-81869010D01*
X165533158Y-81757068D01*
X165246260Y-81700000D01*
X164953740Y-81700000D01*
X164666842Y-81757068D01*
X164396589Y-81869010D01*
X164153368Y-82031525D01*
X163946525Y-82238368D01*
X163830000Y-82412760D01*
X163713475Y-82238368D01*
X163506632Y-82031525D01*
X163263411Y-81869010D01*
X162993158Y-81757068D01*
X162706260Y-81700000D01*
X162413740Y-81700000D01*
X162126842Y-81757068D01*
X161856589Y-81869010D01*
X161613368Y-82031525D01*
X161406525Y-82238368D01*
X161290000Y-82412760D01*
X161173475Y-82238368D01*
X160966632Y-82031525D01*
X160782000Y-81908158D01*
X160782000Y-80651842D01*
X160966632Y-80528475D01*
X161173475Y-80321632D01*
X161335990Y-80078411D01*
X161447932Y-79808158D01*
X161505000Y-79521260D01*
X161505000Y-79228740D01*
X161447932Y-78941842D01*
X161335990Y-78671589D01*
X161173475Y-78428368D01*
X160966632Y-78221525D01*
X160792240Y-78105000D01*
X160966632Y-77988475D01*
X161091710Y-77863397D01*
X161711208Y-77863397D01*
X161788843Y-78112472D01*
X162052883Y-78238371D01*
X162336411Y-78310339D01*
X162628531Y-78325611D01*
X162918019Y-78283599D01*
X163193747Y-78185919D01*
X163331157Y-78112472D01*
X163408792Y-77863397D01*
X162560000Y-77014605D01*
X161711208Y-77863397D01*
X161091710Y-77863397D01*
X161173475Y-77781632D01*
X161289311Y-77608271D01*
X161531603Y-77683792D01*
X162380395Y-76835000D01*
X162739605Y-76835000D01*
X163588397Y-77683792D01*
X163837472Y-77606157D01*
X163963371Y-77342117D01*
X164035339Y-77058589D01*
X164050611Y-76766469D01*
X164028201Y-76612050D01*
X167465000Y-76612050D01*
X167465000Y-77057949D01*
X167486487Y-77276110D01*
X167571401Y-77556033D01*
X167709294Y-77814013D01*
X167894866Y-78040134D01*
X168120986Y-78225706D01*
X168378966Y-78363599D01*
X168658889Y-78448513D01*
X168950000Y-78477185D01*
X169241110Y-78448513D01*
X169521033Y-78363599D01*
X169779013Y-78225706D01*
X170005134Y-78040134D01*
X170057223Y-77976663D01*
X170111595Y-78078386D01*
X170222038Y-78212962D01*
X170356614Y-78323405D01*
X170510150Y-78405472D01*
X170676746Y-78456008D01*
X170850000Y-78473072D01*
X172050000Y-78473072D01*
X172223254Y-78456008D01*
X172389850Y-78405472D01*
X172543386Y-78323405D01*
X172677962Y-78212962D01*
X172788405Y-78078386D01*
X172870472Y-77924850D01*
X172921008Y-77758254D01*
X172938072Y-77585000D01*
X172938072Y-76085000D01*
X172921008Y-75911746D01*
X172870472Y-75745150D01*
X172788405Y-75591614D01*
X172677962Y-75457038D01*
X172543386Y-75346595D01*
X172389850Y-75264528D01*
X172223254Y-75213992D01*
X172050000Y-75196928D01*
X170850000Y-75196928D01*
X170676746Y-75213992D01*
X170510150Y-75264528D01*
X170356614Y-75346595D01*
X170222038Y-75457038D01*
X170111595Y-75591614D01*
X170057223Y-75693337D01*
X170005134Y-75629866D01*
X169779014Y-75444294D01*
X169521034Y-75306401D01*
X169241111Y-75221487D01*
X168950000Y-75192815D01*
X168658890Y-75221487D01*
X168378967Y-75306401D01*
X168120987Y-75444294D01*
X167894866Y-75629866D01*
X167709294Y-75855986D01*
X167571401Y-76113966D01*
X167486487Y-76393889D01*
X167465000Y-76612050D01*
X164028201Y-76612050D01*
X164008599Y-76476981D01*
X163910919Y-76201253D01*
X163837472Y-76063843D01*
X163588397Y-75986208D01*
X162739605Y-76835000D01*
X162380395Y-76835000D01*
X161531603Y-75986208D01*
X161289311Y-76061729D01*
X161173475Y-75888368D01*
X161091710Y-75806603D01*
X161711208Y-75806603D01*
X162560000Y-76655395D01*
X163408792Y-75806603D01*
X163331157Y-75557528D01*
X163067117Y-75431629D01*
X162783589Y-75359661D01*
X162491469Y-75344389D01*
X162201981Y-75386401D01*
X161926253Y-75484081D01*
X161788843Y-75557528D01*
X161711208Y-75806603D01*
X161091710Y-75806603D01*
X160966632Y-75681525D01*
X160723411Y-75519010D01*
X160453158Y-75407068D01*
X160166260Y-75350000D01*
X159873740Y-75350000D01*
X159586842Y-75407068D01*
X159316589Y-75519010D01*
X159073368Y-75681525D01*
X158866525Y-75888368D01*
X158750000Y-76062760D01*
X158633475Y-75888368D01*
X158426632Y-75681525D01*
X158183411Y-75519010D01*
X157913158Y-75407068D01*
X157626260Y-75350000D01*
X157333740Y-75350000D01*
X157046842Y-75407068D01*
X156776589Y-75519010D01*
X156533368Y-75681525D01*
X156326525Y-75888368D01*
X156210000Y-76062760D01*
X156093475Y-75888368D01*
X155886632Y-75681525D01*
X155643411Y-75519010D01*
X155373158Y-75407068D01*
X155086260Y-75350000D01*
X154793740Y-75350000D01*
X154506842Y-75407068D01*
X154236589Y-75519010D01*
X153993368Y-75681525D01*
X153786525Y-75888368D01*
X153624010Y-76131589D01*
X153512068Y-76401842D01*
X153463834Y-76644331D01*
X153425000Y-76640506D01*
X153384450Y-76644500D01*
X149583050Y-76644500D01*
X149542500Y-76640506D01*
X149501949Y-76644500D01*
X149501947Y-76644500D01*
X149380674Y-76656444D01*
X149225066Y-76703647D01*
X149081657Y-76780301D01*
X149020096Y-76830823D01*
X148955959Y-76883459D01*
X148930106Y-76914961D01*
X148808072Y-77036995D01*
X148808072Y-76110000D01*
X148791008Y-75936746D01*
X148740472Y-75770150D01*
X148658405Y-75616614D01*
X148547962Y-75482038D01*
X148413386Y-75371595D01*
X148259850Y-75289528D01*
X148093254Y-75238992D01*
X147920000Y-75221928D01*
X146720000Y-75221928D01*
X146546746Y-75238992D01*
X146380150Y-75289528D01*
X146226614Y-75371595D01*
X146092038Y-75482038D01*
X145981595Y-75616614D01*
X145927223Y-75718337D01*
X145875134Y-75654866D01*
X145649014Y-75469294D01*
X145391034Y-75331401D01*
X145111111Y-75246487D01*
X144820000Y-75217815D01*
X144528890Y-75246487D01*
X144248967Y-75331401D01*
X143990987Y-75469294D01*
X143764866Y-75654866D01*
X143579294Y-75880986D01*
X143570000Y-75898374D01*
X143560706Y-75880986D01*
X143375134Y-75654866D01*
X143149014Y-75469294D01*
X142891034Y-75331401D01*
X142611111Y-75246487D01*
X142320000Y-75217815D01*
X142028890Y-75246487D01*
X141748967Y-75331401D01*
X141490987Y-75469294D01*
X141264866Y-75654866D01*
X141079294Y-75880986D01*
X141070000Y-75898374D01*
X141060706Y-75880986D01*
X140875134Y-75654866D01*
X140649014Y-75469294D01*
X140391034Y-75331401D01*
X140111111Y-75246487D01*
X139820000Y-75217815D01*
X139528890Y-75246487D01*
X139248967Y-75331401D01*
X138990987Y-75469294D01*
X138764866Y-75654866D01*
X138579294Y-75880986D01*
X138565538Y-75906722D01*
X138409049Y-75700571D01*
X138191193Y-75507504D01*
X137939858Y-75360648D01*
X137676890Y-75268524D01*
X137447000Y-75389845D01*
X137447000Y-76708000D01*
X137467000Y-76708000D01*
X137467000Y-76962000D01*
X137447000Y-76962000D01*
X137447000Y-77343000D01*
X137193000Y-77343000D01*
X137193000Y-76962000D01*
X134947000Y-76962000D01*
X134947000Y-76982000D01*
X134693000Y-76982000D01*
X134693000Y-76962000D01*
X133493835Y-76962000D01*
X133353680Y-77194267D01*
X133427558Y-77475830D01*
X133554947Y-77737570D01*
X133689254Y-77914500D01*
X127832864Y-77914500D01*
X127848792Y-77863397D01*
X127000000Y-77014605D01*
X126151208Y-77863397D01*
X126167136Y-77914500D01*
X125480607Y-77914500D01*
X125613475Y-77781632D01*
X125729311Y-77608271D01*
X125971603Y-77683792D01*
X126820395Y-76835000D01*
X127179605Y-76835000D01*
X128028397Y-77683792D01*
X128277472Y-77606157D01*
X128403371Y-77342117D01*
X128475339Y-77058589D01*
X128490611Y-76766469D01*
X128448599Y-76476981D01*
X128448157Y-76475733D01*
X133353680Y-76475733D01*
X133493835Y-76708000D01*
X134693000Y-76708000D01*
X134693000Y-75389845D01*
X134947000Y-75389845D01*
X134947000Y-76708000D01*
X137193000Y-76708000D01*
X137193000Y-75389845D01*
X136963110Y-75268524D01*
X136700142Y-75360648D01*
X136448807Y-75507504D01*
X136230951Y-75700571D01*
X136070000Y-75912600D01*
X135909049Y-75700571D01*
X135691193Y-75507504D01*
X135439858Y-75360648D01*
X135176890Y-75268524D01*
X134947000Y-75389845D01*
X134693000Y-75389845D01*
X134463110Y-75268524D01*
X134200142Y-75360648D01*
X133948807Y-75507504D01*
X133730951Y-75700571D01*
X133554947Y-75932430D01*
X133427558Y-76194170D01*
X133353680Y-76475733D01*
X128448157Y-76475733D01*
X128350919Y-76201253D01*
X128277472Y-76063843D01*
X128028397Y-75986208D01*
X127179605Y-76835000D01*
X126820395Y-76835000D01*
X125971603Y-75986208D01*
X125729311Y-76061729D01*
X125613475Y-75888368D01*
X125531710Y-75806603D01*
X126151208Y-75806603D01*
X127000000Y-76655395D01*
X127848792Y-75806603D01*
X127771157Y-75557528D01*
X127507117Y-75431629D01*
X127223589Y-75359661D01*
X126931469Y-75344389D01*
X126641981Y-75386401D01*
X126366253Y-75484081D01*
X126228843Y-75557528D01*
X126151208Y-75806603D01*
X125531710Y-75806603D01*
X125406632Y-75681525D01*
X125163411Y-75519010D01*
X124893158Y-75407068D01*
X124606260Y-75350000D01*
X124313740Y-75350000D01*
X124026842Y-75407068D01*
X123756589Y-75519010D01*
X123513368Y-75681525D01*
X123306525Y-75888368D01*
X123190000Y-76062760D01*
X123073475Y-75888368D01*
X122866632Y-75681525D01*
X122623411Y-75519010D01*
X122353158Y-75407068D01*
X122066260Y-75350000D01*
X121773740Y-75350000D01*
X121486842Y-75407068D01*
X121216589Y-75519010D01*
X120973368Y-75681525D01*
X120766525Y-75888368D01*
X120650000Y-76062760D01*
X120533475Y-75888368D01*
X120326632Y-75681525D01*
X120083411Y-75519010D01*
X119813158Y-75407068D01*
X119526260Y-75350000D01*
X119233740Y-75350000D01*
X118946842Y-75407068D01*
X118676589Y-75519010D01*
X118433368Y-75681525D01*
X118226525Y-75888368D01*
X118064010Y-76131589D01*
X117952068Y-76401842D01*
X117895000Y-76688740D01*
X117895000Y-76981260D01*
X117952068Y-77268158D01*
X118064010Y-77538411D01*
X118226525Y-77781632D01*
X118433368Y-77988475D01*
X118554501Y-78069413D01*
X118554501Y-78699440D01*
X118550506Y-78740000D01*
X118566445Y-78901826D01*
X118613647Y-79057433D01*
X118690301Y-79200842D01*
X118747907Y-79271034D01*
X118793460Y-79326541D01*
X118824960Y-79352392D01*
X120037606Y-80565039D01*
X120063459Y-80596541D01*
X120122507Y-80645000D01*
X120189157Y-80699699D01*
X120222584Y-80717566D01*
X120332566Y-80776353D01*
X120488174Y-80823556D01*
X120609447Y-80835500D01*
X120609449Y-80835500D01*
X120649999Y-80839494D01*
X120690550Y-80835500D01*
X133008068Y-80835500D01*
X133794500Y-81621933D01*
X133794500Y-81950587D01*
X133673368Y-82031525D01*
X133466525Y-82238368D01*
X133350000Y-82412760D01*
X133233475Y-82238368D01*
X133026632Y-82031525D01*
X132783411Y-81869010D01*
X132513158Y-81757068D01*
X132226260Y-81700000D01*
X131933740Y-81700000D01*
X131646842Y-81757068D01*
X131376589Y-81869010D01*
X131133368Y-82031525D01*
X130926525Y-82238368D01*
X130810000Y-82412760D01*
X130693475Y-82238368D01*
X130486632Y-82031525D01*
X130243411Y-81869010D01*
X129973158Y-81757068D01*
X129686260Y-81700000D01*
X129393740Y-81700000D01*
X129106842Y-81757068D01*
X128836589Y-81869010D01*
X128593368Y-82031525D01*
X128386525Y-82238368D01*
X128270000Y-82412760D01*
X128153475Y-82238368D01*
X127946632Y-82031525D01*
X127703411Y-81869010D01*
X127433158Y-81757068D01*
X127146260Y-81700000D01*
X126853740Y-81700000D01*
X126566842Y-81757068D01*
X126296589Y-81869010D01*
X126053368Y-82031525D01*
X125846525Y-82238368D01*
X125730689Y-82411729D01*
X125488397Y-82336208D01*
X124639605Y-83185000D01*
X124653748Y-83199143D01*
X124474143Y-83378748D01*
X124460000Y-83364605D01*
X124445858Y-83378748D01*
X124266253Y-83199143D01*
X124280395Y-83185000D01*
X123431603Y-82336208D01*
X123189311Y-82411729D01*
X123073475Y-82238368D01*
X122991710Y-82156603D01*
X123611208Y-82156603D01*
X124460000Y-83005395D01*
X125308792Y-82156603D01*
X125231157Y-81907528D01*
X124967117Y-81781629D01*
X124683589Y-81709661D01*
X124391469Y-81694389D01*
X124101981Y-81736401D01*
X123826253Y-81834081D01*
X123688843Y-81907528D01*
X123611208Y-82156603D01*
X122991710Y-82156603D01*
X122866632Y-82031525D01*
X122623411Y-81869010D01*
X122353158Y-81757068D01*
X122066260Y-81700000D01*
X121773740Y-81700000D01*
X121486842Y-81757068D01*
X121216589Y-81869010D01*
X120973368Y-82031525D01*
X120962893Y-82042000D01*
X119218446Y-82042000D01*
X115107927Y-77931482D01*
X115072133Y-77887867D01*
X114898089Y-77745032D01*
X114699523Y-77638897D01*
X114484067Y-77573539D01*
X114316146Y-77557000D01*
X114316139Y-77557000D01*
X114260000Y-77551471D01*
X114203861Y-77557000D01*
X113118174Y-77557000D01*
X113186185Y-77501185D01*
X113265537Y-77404494D01*
X113324502Y-77294180D01*
X113360812Y-77174482D01*
X113373072Y-77050000D01*
X113370000Y-76485750D01*
X113211250Y-76327000D01*
X111887000Y-76327000D01*
X111887000Y-76347000D01*
X111633000Y-76347000D01*
X111633000Y-76327000D01*
X110308750Y-76327000D01*
X110150000Y-76485750D01*
X110146928Y-77050000D01*
X110159188Y-77174482D01*
X110195498Y-77294180D01*
X110254463Y-77404494D01*
X110333815Y-77501185D01*
X110430506Y-77580537D01*
X110540820Y-77639502D01*
X110575608Y-77650055D01*
X110437324Y-77818554D01*
X110396477Y-77852076D01*
X110396471Y-77852082D01*
X110352867Y-77887867D01*
X110317081Y-77931472D01*
X108451482Y-79797073D01*
X108407867Y-79832867D01*
X108265032Y-80006912D01*
X108158897Y-80205478D01*
X108139735Y-80268647D01*
X108107565Y-80374698D01*
X108093539Y-80420934D01*
X108077000Y-80588855D01*
X108077000Y-80588861D01*
X108071471Y-80645000D01*
X108077000Y-80701139D01*
X108077001Y-102813851D01*
X108071471Y-102870000D01*
X108093539Y-103094067D01*
X108158898Y-103309523D01*
X108265033Y-103508089D01*
X108407868Y-103682133D01*
X108451478Y-103717923D01*
X109641120Y-104907566D01*
X109653992Y-105038254D01*
X109704528Y-105204850D01*
X109786595Y-105358386D01*
X109897038Y-105492962D01*
X110031614Y-105603405D01*
X110139436Y-105661037D01*
X110164519Y-105743724D01*
X110181799Y-105800687D01*
X110276141Y-105977190D01*
X110403105Y-106131896D01*
X110441868Y-106163708D01*
X112022292Y-107744133D01*
X112054104Y-107782896D01*
X112208809Y-107909859D01*
X112208810Y-107909860D01*
X112385313Y-108004202D01*
X112576829Y-108062298D01*
X112776000Y-108081915D01*
X112825902Y-108077000D01*
X134189098Y-108077000D01*
X134239000Y-108081915D01*
X134288902Y-108077000D01*
X134438171Y-108062298D01*
X134629687Y-108004202D01*
X134806190Y-107909860D01*
X134960896Y-107782896D01*
X134992712Y-107744128D01*
X135833797Y-106903044D01*
X135914774Y-106848937D01*
X136058937Y-106704774D01*
X136172205Y-106535256D01*
X136250226Y-106346898D01*
X136290000Y-106146939D01*
X136290000Y-105943061D01*
X136285015Y-105918000D01*
X137153158Y-105918000D01*
X137114010Y-105976589D01*
X137002068Y-106246842D01*
X136945000Y-106533740D01*
X136945000Y-106826260D01*
X137002068Y-107113158D01*
X137114010Y-107383411D01*
X137276525Y-107626632D01*
X137483368Y-107833475D01*
X137726589Y-107995990D01*
X137996842Y-108107932D01*
X138283740Y-108165000D01*
X138576260Y-108165000D01*
X138863158Y-108107932D01*
X139133411Y-107995990D01*
X139376632Y-107833475D01*
X139583475Y-107626632D01*
X139705195Y-107444466D01*
X139774822Y-107561355D01*
X139969731Y-107777588D01*
X140203080Y-107951641D01*
X140465901Y-108076825D01*
X140613110Y-108121476D01*
X140843000Y-108000155D01*
X140843000Y-106807000D01*
X140823000Y-106807000D01*
X140823000Y-106553000D01*
X140843000Y-106553000D01*
X140843000Y-106533000D01*
X141097000Y-106533000D01*
X141097000Y-106553000D01*
X141117000Y-106553000D01*
X141117000Y-106807000D01*
X141097000Y-106807000D01*
X141097000Y-108000155D01*
X141326890Y-108121476D01*
X141474099Y-108076825D01*
X141736920Y-107951641D01*
X141970269Y-107777588D01*
X142046034Y-107693534D01*
X142070498Y-107774180D01*
X142129463Y-107884494D01*
X142208815Y-107981185D01*
X142305506Y-108060537D01*
X142415820Y-108119502D01*
X142535518Y-108155812D01*
X142660000Y-108168072D01*
X144360000Y-108168072D01*
X144484482Y-108155812D01*
X144604180Y-108119502D01*
X144714494Y-108060537D01*
X144811185Y-107981185D01*
X144890537Y-107884494D01*
X144949502Y-107774180D01*
X144985812Y-107654482D01*
X144998072Y-107530000D01*
X144998072Y-106533740D01*
X162345000Y-106533740D01*
X162345000Y-106826260D01*
X162402068Y-107113158D01*
X162514010Y-107383411D01*
X162676525Y-107626632D01*
X162883368Y-107833475D01*
X163126589Y-107995990D01*
X163396842Y-108107932D01*
X163683740Y-108165000D01*
X163976260Y-108165000D01*
X164263158Y-108107932D01*
X164533411Y-107995990D01*
X164776632Y-107833475D01*
X164983475Y-107626632D01*
X165105195Y-107444466D01*
X165174822Y-107561355D01*
X165369731Y-107777588D01*
X165603080Y-107951641D01*
X165865901Y-108076825D01*
X166013110Y-108121476D01*
X166243000Y-108000155D01*
X166243000Y-106807000D01*
X166223000Y-106807000D01*
X166223000Y-106553000D01*
X166243000Y-106553000D01*
X166243000Y-105359845D01*
X166497000Y-105359845D01*
X166497000Y-106553000D01*
X166517000Y-106553000D01*
X166517000Y-106807000D01*
X166497000Y-106807000D01*
X166497000Y-108000155D01*
X166726890Y-108121476D01*
X166874099Y-108076825D01*
X167136920Y-107951641D01*
X167370269Y-107777588D01*
X167446034Y-107693534D01*
X167470498Y-107774180D01*
X167529463Y-107884494D01*
X167608815Y-107981185D01*
X167705506Y-108060537D01*
X167815820Y-108119502D01*
X167935518Y-108155812D01*
X168060000Y-108168072D01*
X169760000Y-108168072D01*
X169884482Y-108155812D01*
X170004180Y-108119502D01*
X170114494Y-108060537D01*
X170211185Y-107981185D01*
X170290537Y-107884494D01*
X170349502Y-107774180D01*
X170385812Y-107654482D01*
X170398072Y-107530000D01*
X170398072Y-105830000D01*
X170385812Y-105705518D01*
X170349502Y-105585820D01*
X170290537Y-105475506D01*
X170211185Y-105378815D01*
X170114494Y-105299463D01*
X170004180Y-105240498D01*
X169884482Y-105204188D01*
X169760000Y-105191928D01*
X168060000Y-105191928D01*
X167935518Y-105204188D01*
X167815820Y-105240498D01*
X167705506Y-105299463D01*
X167608815Y-105378815D01*
X167529463Y-105475506D01*
X167470498Y-105585820D01*
X167446034Y-105666466D01*
X167370269Y-105582412D01*
X167136920Y-105408359D01*
X166874099Y-105283175D01*
X166726890Y-105238524D01*
X166497000Y-105359845D01*
X166243000Y-105359845D01*
X166013110Y-105238524D01*
X165865901Y-105283175D01*
X165603080Y-105408359D01*
X165369731Y-105582412D01*
X165174822Y-105798645D01*
X165105195Y-105915534D01*
X164983475Y-105733368D01*
X164776632Y-105526525D01*
X164533411Y-105364010D01*
X164263158Y-105252068D01*
X163976260Y-105195000D01*
X163683740Y-105195000D01*
X163396842Y-105252068D01*
X163126589Y-105364010D01*
X162883368Y-105526525D01*
X162676525Y-105733368D01*
X162514010Y-105976589D01*
X162402068Y-106246842D01*
X162345000Y-106533740D01*
X144998072Y-106533740D01*
X144998072Y-105918000D01*
X145371340Y-105918000D01*
X145415000Y-105922300D01*
X145458660Y-105918000D01*
X145458667Y-105918000D01*
X145589274Y-105905136D01*
X145756851Y-105854303D01*
X145911291Y-105771753D01*
X146046659Y-105660659D01*
X146074499Y-105626736D01*
X147028743Y-104672493D01*
X147062659Y-104644659D01*
X147173753Y-104509291D01*
X147256303Y-104354851D01*
X147307136Y-104187274D01*
X147320000Y-104056667D01*
X147320000Y-104056660D01*
X147324300Y-104013000D01*
X147320000Y-103969340D01*
X147320000Y-102222235D01*
X149006928Y-103909164D01*
X149006928Y-104865000D01*
X149023992Y-105038254D01*
X149074528Y-105204850D01*
X149156595Y-105358386D01*
X149267038Y-105492962D01*
X149401614Y-105603405D01*
X149555150Y-105685472D01*
X149721746Y-105736008D01*
X149895000Y-105753072D01*
X151095000Y-105753072D01*
X151268254Y-105736008D01*
X151434850Y-105685472D01*
X151588386Y-105603405D01*
X151722962Y-105492962D01*
X151833405Y-105358386D01*
X151887777Y-105256663D01*
X151939866Y-105320134D01*
X152165987Y-105505706D01*
X152423967Y-105643599D01*
X152703890Y-105728513D01*
X152995000Y-105757185D01*
X153286111Y-105728513D01*
X153566034Y-105643599D01*
X153824014Y-105505706D01*
X154050134Y-105320134D01*
X154235706Y-105094014D01*
X154249462Y-105068278D01*
X154405951Y-105274429D01*
X154623807Y-105467496D01*
X154875142Y-105614352D01*
X155138110Y-105706476D01*
X155368000Y-105585155D01*
X155368000Y-104267000D01*
X155348000Y-104267000D01*
X155348000Y-104013000D01*
X155368000Y-104013000D01*
X155368000Y-103993000D01*
X155622000Y-103993000D01*
X155622000Y-104013000D01*
X155642000Y-104013000D01*
X155642000Y-104267000D01*
X155622000Y-104267000D01*
X155622000Y-105585155D01*
X155851890Y-105706476D01*
X156114858Y-105614352D01*
X156366193Y-105467496D01*
X156584049Y-105274429D01*
X156740538Y-105068278D01*
X156754294Y-105094014D01*
X156939866Y-105320134D01*
X157165987Y-105505706D01*
X157423967Y-105643599D01*
X157703890Y-105728513D01*
X157995000Y-105757185D01*
X158286111Y-105728513D01*
X158566034Y-105643599D01*
X158824014Y-105505706D01*
X159050134Y-105320134D01*
X159235706Y-105094014D01*
X159373599Y-104836033D01*
X159458513Y-104556110D01*
X159480000Y-104337949D01*
X159480000Y-103942050D01*
X159458513Y-103723889D01*
X159373599Y-103443966D01*
X159235706Y-103185986D01*
X159050134Y-102959866D01*
X159011000Y-102927750D01*
X159011000Y-102775840D01*
X159805841Y-101981000D01*
X163145098Y-101981000D01*
X163195000Y-101985915D01*
X163244902Y-101981000D01*
X163394171Y-101966298D01*
X163585687Y-101908202D01*
X163762190Y-101813860D01*
X163916896Y-101686896D01*
X163948712Y-101648128D01*
X164170725Y-101426116D01*
X164182795Y-101455256D01*
X164211001Y-101497469D01*
X164211000Y-102826340D01*
X164206700Y-102870000D01*
X164211000Y-102913660D01*
X164211000Y-102913666D01*
X164220052Y-103005571D01*
X164223864Y-103044274D01*
X164243409Y-103108706D01*
X164274697Y-103211850D01*
X164357247Y-103366290D01*
X164468341Y-103501659D01*
X164502263Y-103529498D01*
X165075505Y-104102741D01*
X165103341Y-104136659D01*
X165238709Y-104247753D01*
X165393149Y-104330303D01*
X165474566Y-104355000D01*
X165560725Y-104381136D01*
X165577325Y-104382771D01*
X165691333Y-104394000D01*
X165691340Y-104394000D01*
X165735000Y-104398300D01*
X165778660Y-104394000D01*
X167425769Y-104394000D01*
X167434188Y-104479482D01*
X167470498Y-104599180D01*
X167529463Y-104709494D01*
X167608815Y-104806185D01*
X167705506Y-104885537D01*
X167815820Y-104944502D01*
X167935518Y-104980812D01*
X168060000Y-104993072D01*
X169760000Y-104993072D01*
X169884482Y-104980812D01*
X170004180Y-104944502D01*
X170114494Y-104885537D01*
X170211185Y-104806185D01*
X170290537Y-104709494D01*
X170349502Y-104599180D01*
X170385812Y-104479482D01*
X170398072Y-104355000D01*
X170398072Y-102655000D01*
X170385812Y-102530518D01*
X170349502Y-102410820D01*
X170290537Y-102300506D01*
X170211185Y-102203815D01*
X170114494Y-102124463D01*
X170004180Y-102065498D01*
X169884482Y-102029188D01*
X169760000Y-102016928D01*
X168060000Y-102016928D01*
X167935518Y-102029188D01*
X167815820Y-102065498D01*
X167705506Y-102124463D01*
X167608815Y-102203815D01*
X167529463Y-102300506D01*
X167470498Y-102410820D01*
X167434188Y-102530518D01*
X167425769Y-102616000D01*
X166103236Y-102616000D01*
X165989000Y-102501765D01*
X165989000Y-101497468D01*
X166017205Y-101455256D01*
X166095226Y-101266898D01*
X166135000Y-101066939D01*
X166135000Y-100863061D01*
X166095226Y-100663102D01*
X166017205Y-100474744D01*
X165903937Y-100305226D01*
X165759774Y-100161063D01*
X165590256Y-100047795D01*
X165561116Y-100035725D01*
X165783133Y-99813708D01*
X165821896Y-99781896D01*
X165918670Y-99663976D01*
X166046632Y-99578475D01*
X166171710Y-99453397D01*
X166791208Y-99453397D01*
X166868843Y-99702472D01*
X167132883Y-99828371D01*
X167416411Y-99900339D01*
X167708531Y-99915611D01*
X167998019Y-99873599D01*
X168273747Y-99775919D01*
X168411157Y-99702472D01*
X168488792Y-99453397D01*
X167640000Y-98604605D01*
X166791208Y-99453397D01*
X166171710Y-99453397D01*
X166253475Y-99371632D01*
X166369311Y-99198271D01*
X166611603Y-99273792D01*
X167460395Y-98425000D01*
X167446253Y-98410858D01*
X167625858Y-98231253D01*
X167640000Y-98245395D01*
X167654143Y-98231253D01*
X167833748Y-98410858D01*
X167819605Y-98425000D01*
X168668397Y-99273792D01*
X168910689Y-99198271D01*
X169026525Y-99371632D01*
X169233368Y-99578475D01*
X169476589Y-99740990D01*
X169746842Y-99852932D01*
X170033740Y-99910000D01*
X170326260Y-99910000D01*
X170613158Y-99852932D01*
X170883411Y-99740990D01*
X171126632Y-99578475D01*
X171333475Y-99371632D01*
X171456842Y-99187000D01*
X172078158Y-99187000D01*
X172201525Y-99371632D01*
X172408368Y-99578475D01*
X172651589Y-99740990D01*
X172921842Y-99852932D01*
X173208740Y-99910000D01*
X173501260Y-99910000D01*
X173788158Y-99852932D01*
X174058411Y-99740990D01*
X174301632Y-99578475D01*
X174508475Y-99371632D01*
X174575001Y-99272069D01*
X174575001Y-108408000D01*
X107365000Y-108408000D01*
X107365000Y-75350000D01*
X110146928Y-75350000D01*
X110150000Y-75914250D01*
X110308750Y-76073000D01*
X111633000Y-76073000D01*
X111633000Y-74873750D01*
X111887000Y-74873750D01*
X111887000Y-76073000D01*
X113211250Y-76073000D01*
X113370000Y-75914250D01*
X113373072Y-75350000D01*
X113360812Y-75225518D01*
X113324502Y-75105820D01*
X113265537Y-74995506D01*
X113186185Y-74898815D01*
X113089494Y-74819463D01*
X112979180Y-74760498D01*
X112859482Y-74724188D01*
X112735000Y-74711928D01*
X112045750Y-74715000D01*
X111887000Y-74873750D01*
X111633000Y-74873750D01*
X111474250Y-74715000D01*
X110785000Y-74711928D01*
X110660518Y-74724188D01*
X110540820Y-74760498D01*
X110430506Y-74819463D01*
X110333815Y-74898815D01*
X110254463Y-74995506D01*
X110195498Y-75105820D01*
X110159188Y-75225518D01*
X110146928Y-75350000D01*
X107365000Y-75350000D01*
X107365000Y-73202000D01*
X174575000Y-73202000D01*
X174575001Y-97577931D01*
G37*
X174575001Y-97577931D02*
X174508475Y-97478368D01*
X174301632Y-97271525D01*
X174244000Y-97233017D01*
X174244000Y-97198660D01*
X174248300Y-97155000D01*
X174244000Y-97111340D01*
X174244000Y-97111333D01*
X174231136Y-96980726D01*
X174180303Y-96813149D01*
X174097753Y-96658709D01*
X174039568Y-96587810D01*
X174014495Y-96557259D01*
X174014494Y-96557258D01*
X173986659Y-96523341D01*
X173952742Y-96495506D01*
X173379498Y-95922263D01*
X173351659Y-95888341D01*
X173216291Y-95777247D01*
X173061851Y-95694697D01*
X172894274Y-95643864D01*
X172763667Y-95631000D01*
X172763660Y-95631000D01*
X172720000Y-95626700D01*
X172676340Y-95631000D01*
X168855608Y-95631000D01*
X168775415Y-95550807D01*
X169039814Y-95455044D01*
X169180704Y-95165429D01*
X169262384Y-94853892D01*
X169281718Y-94532405D01*
X169237961Y-94213325D01*
X169132795Y-93908912D01*
X169039814Y-93734956D01*
X168775413Y-93639192D01*
X167819605Y-94595000D01*
X167833748Y-94609143D01*
X167654143Y-94788748D01*
X167640000Y-94774605D01*
X167625858Y-94788748D01*
X167446253Y-94609143D01*
X167460395Y-94595000D01*
X166504587Y-93639192D01*
X166240186Y-93734956D01*
X166099296Y-94024571D01*
X166017616Y-94336108D01*
X165998282Y-94657595D01*
X166042039Y-94976675D01*
X166147205Y-95281088D01*
X166240186Y-95455044D01*
X166504585Y-95550807D01*
X166424392Y-95631000D01*
X163238660Y-95631000D01*
X163195000Y-95626700D01*
X163151340Y-95631000D01*
X163151333Y-95631000D01*
X163037325Y-95642229D01*
X163020725Y-95643864D01*
X162969892Y-95659284D01*
X162853149Y-95694697D01*
X162698709Y-95777247D01*
X162563341Y-95888341D01*
X162535505Y-95922259D01*
X161962259Y-96495506D01*
X161928342Y-96523341D01*
X161900507Y-96557258D01*
X161900505Y-96557260D01*
X161817248Y-96658709D01*
X161734698Y-96813148D01*
X161683864Y-96980726D01*
X161666700Y-97155000D01*
X161671001Y-97198669D01*
X161671001Y-97233016D01*
X161613368Y-97271525D01*
X161406525Y-97478368D01*
X161290000Y-97652760D01*
X161173475Y-97478368D01*
X160966632Y-97271525D01*
X160723411Y-97109010D01*
X160453158Y-96997068D01*
X160166260Y-96940000D01*
X159873740Y-96940000D01*
X159586842Y-96997068D01*
X159316589Y-97109010D01*
X159073368Y-97271525D01*
X158866525Y-97478368D01*
X158750000Y-97652760D01*
X158633475Y-97478368D01*
X158426632Y-97271525D01*
X158183411Y-97109010D01*
X157913158Y-96997068D01*
X157626260Y-96940000D01*
X157333740Y-96940000D01*
X157046842Y-96997068D01*
X156776589Y-97109010D01*
X156533368Y-97271525D01*
X156326525Y-97478368D01*
X156210000Y-97652760D01*
X156093475Y-97478368D01*
X155886632Y-97271525D01*
X155643411Y-97109010D01*
X155373158Y-96997068D01*
X155086260Y-96940000D01*
X154793740Y-96940000D01*
X154506842Y-96997068D01*
X154236589Y-97109010D01*
X153993368Y-97271525D01*
X153786525Y-97478368D01*
X153670000Y-97652760D01*
X153553475Y-97478368D01*
X153346632Y-97271525D01*
X153103411Y-97109010D01*
X152833158Y-96997068D01*
X152546260Y-96940000D01*
X152253740Y-96940000D01*
X151966842Y-96997068D01*
X151696589Y-97109010D01*
X151453368Y-97271525D01*
X151246525Y-97478368D01*
X151130000Y-97652760D01*
X151013475Y-97478368D01*
X150806632Y-97271525D01*
X150563411Y-97109010D01*
X150293158Y-96997068D01*
X150006260Y-96940000D01*
X149713740Y-96940000D01*
X149426842Y-96997068D01*
X149156589Y-97109010D01*
X148913368Y-97271525D01*
X148706525Y-97478368D01*
X148590000Y-97652760D01*
X148473475Y-97478368D01*
X148266632Y-97271525D01*
X148023411Y-97109010D01*
X147753158Y-96997068D01*
X147466260Y-96940000D01*
X147173740Y-96940000D01*
X146886842Y-96997068D01*
X146616589Y-97109010D01*
X146373368Y-97271525D01*
X146166525Y-97478368D01*
X146050000Y-97652760D01*
X145933475Y-97478368D01*
X145726632Y-97271525D01*
X145483411Y-97109010D01*
X145213158Y-96997068D01*
X144926260Y-96940000D01*
X144633740Y-96940000D01*
X144346842Y-96997068D01*
X144076589Y-97109010D01*
X143833368Y-97271525D01*
X143626525Y-97478368D01*
X143510000Y-97652760D01*
X143393475Y-97478368D01*
X143186632Y-97271525D01*
X142943411Y-97109010D01*
X142673158Y-96997068D01*
X142386260Y-96940000D01*
X142093740Y-96940000D01*
X141806842Y-96997068D01*
X141536589Y-97109010D01*
X141293368Y-97271525D01*
X141086525Y-97478368D01*
X140970000Y-97652760D01*
X140853475Y-97478368D01*
X140646632Y-97271525D01*
X140403411Y-97109010D01*
X140133158Y-96997068D01*
X139846260Y-96940000D01*
X139553740Y-96940000D01*
X139266842Y-96997068D01*
X138996589Y-97109010D01*
X138753368Y-97271525D01*
X138546525Y-97478368D01*
X138430000Y-97652760D01*
X138313475Y-97478368D01*
X138106632Y-97271525D01*
X137863411Y-97109010D01*
X137593158Y-96997068D01*
X137306260Y-96940000D01*
X137013740Y-96940000D01*
X136726842Y-96997068D01*
X136456589Y-97109010D01*
X136213368Y-97271525D01*
X136006525Y-97478368D01*
X135890000Y-97652760D01*
X135773475Y-97478368D01*
X135566632Y-97271525D01*
X135323411Y-97109010D01*
X135053158Y-96997068D01*
X134766260Y-96940000D01*
X134473740Y-96940000D01*
X134186842Y-96997068D01*
X133916589Y-97109010D01*
X133673368Y-97271525D01*
X133466525Y-97478368D01*
X133350000Y-97652760D01*
X133233475Y-97478368D01*
X133026632Y-97271525D01*
X132783411Y-97109010D01*
X132513158Y-96997068D01*
X132226260Y-96940000D01*
X131933740Y-96940000D01*
X131646842Y-96997068D01*
X131376589Y-97109010D01*
X131133368Y-97271525D01*
X130926525Y-97478368D01*
X130810000Y-97652760D01*
X130693475Y-97478368D01*
X130486632Y-97271525D01*
X130243411Y-97109010D01*
X129973158Y-96997068D01*
X129686260Y-96940000D01*
X129393740Y-96940000D01*
X129106842Y-96997068D01*
X128836589Y-97109010D01*
X128593368Y-97271525D01*
X128386525Y-97478368D01*
X128270000Y-97652760D01*
X128153475Y-97478368D01*
X127946632Y-97271525D01*
X127703411Y-97109010D01*
X127433158Y-96997068D01*
X127146260Y-96940000D01*
X126853740Y-96940000D01*
X126566842Y-96997068D01*
X126296589Y-97109010D01*
X126053368Y-97271525D01*
X125846525Y-97478368D01*
X125730000Y-97652760D01*
X125613475Y-97478368D01*
X125406632Y-97271525D01*
X125163411Y-97109010D01*
X124893158Y-96997068D01*
X124606260Y-96940000D01*
X124313740Y-96940000D01*
X124026842Y-96997068D01*
X123756589Y-97109010D01*
X123513368Y-97271525D01*
X123306525Y-97478368D01*
X123190000Y-97652760D01*
X123073475Y-97478368D01*
X122866632Y-97271525D01*
X122623411Y-97109010D01*
X122353158Y-96997068D01*
X122066260Y-96940000D01*
X121871840Y-96940000D01*
X121403712Y-96471872D01*
X121371896Y-96433104D01*
X121217190Y-96306140D01*
X121040687Y-96211798D01*
X120849171Y-96153702D01*
X120699902Y-96139000D01*
X120650000Y-96134085D01*
X120600098Y-96139000D01*
X118303218Y-96139000D01*
X118279502Y-96060820D01*
X118220537Y-95950506D01*
X118141185Y-95853815D01*
X118044494Y-95774463D01*
X117934180Y-95715498D01*
X117853534Y-95691034D01*
X117937588Y-95615269D01*
X118111641Y-95381920D01*
X118236825Y-95119099D01*
X118281476Y-94971890D01*
X118160155Y-94742000D01*
X116967000Y-94742000D01*
X116967000Y-94762000D01*
X116713000Y-94762000D01*
X116713000Y-94742000D01*
X115519845Y-94742000D01*
X115398524Y-94971890D01*
X115443175Y-95119099D01*
X115568359Y-95381920D01*
X115742412Y-95615269D01*
X115826466Y-95691034D01*
X115745820Y-95715498D01*
X115635506Y-95774463D01*
X115538815Y-95853815D01*
X115459463Y-95950506D01*
X115400498Y-96060820D01*
X115364188Y-96180518D01*
X115351928Y-96305000D01*
X115351928Y-98005000D01*
X115364188Y-98129482D01*
X115400498Y-98249180D01*
X115426593Y-98298000D01*
X115330015Y-98298000D01*
X115295226Y-98123102D01*
X115217205Y-97934744D01*
X115103937Y-97765226D01*
X114959774Y-97621063D01*
X114790256Y-97507795D01*
X114601898Y-97429774D01*
X114401939Y-97390000D01*
X114198061Y-97390000D01*
X113998102Y-97429774D01*
X113809744Y-97507795D01*
X113640226Y-97621063D01*
X113496063Y-97765226D01*
X113382795Y-97934744D01*
X113304774Y-98123102D01*
X113269985Y-98298000D01*
X113229595Y-98298000D01*
X113234352Y-98289858D01*
X113326476Y-98026890D01*
X113205155Y-97797000D01*
X111887000Y-97797000D01*
X111887000Y-97817000D01*
X111633000Y-97817000D01*
X111633000Y-97797000D01*
X111613000Y-97797000D01*
X111613000Y-97543000D01*
X111633000Y-97543000D01*
X111633000Y-97523000D01*
X111887000Y-97523000D01*
X111887000Y-97543000D01*
X113205155Y-97543000D01*
X113326476Y-97313110D01*
X113234352Y-97050142D01*
X113087496Y-96798807D01*
X112894429Y-96580951D01*
X112688278Y-96424462D01*
X112714014Y-96410706D01*
X112940134Y-96225134D01*
X113075719Y-96059924D01*
X113110000Y-96063300D01*
X113153660Y-96059000D01*
X113153667Y-96059000D01*
X113284274Y-96046136D01*
X113451851Y-95995303D01*
X113606291Y-95912753D01*
X113741659Y-95801659D01*
X113769499Y-95767736D01*
X115458492Y-94078743D01*
X115443175Y-94110901D01*
X115398524Y-94258110D01*
X115519845Y-94488000D01*
X116713000Y-94488000D01*
X116713000Y-93294186D01*
X116967000Y-93294186D01*
X116967000Y-94488000D01*
X118160155Y-94488000D01*
X118281476Y-94258110D01*
X118236825Y-94110901D01*
X118111641Y-93848080D01*
X117937588Y-93614731D01*
X117765471Y-93459587D01*
X166684192Y-93459587D01*
X167640000Y-94415395D01*
X168595808Y-93459587D01*
X168500044Y-93195186D01*
X168210429Y-93054296D01*
X167898892Y-92972616D01*
X167577405Y-92953282D01*
X167258325Y-92997039D01*
X166953912Y-93102205D01*
X166779956Y-93195186D01*
X166684192Y-93459587D01*
X117765471Y-93459587D01*
X117721355Y-93419822D01*
X117471252Y-93270843D01*
X117196891Y-93173519D01*
X116967000Y-93294186D01*
X116713000Y-93294186D01*
X116483109Y-93173519D01*
X116298082Y-93239154D01*
X120383236Y-89154000D01*
X121592539Y-89154000D01*
X121559774Y-89233102D01*
X121520000Y-89433061D01*
X121520000Y-89636939D01*
X121559774Y-89836898D01*
X121637795Y-90025256D01*
X121751063Y-90194774D01*
X121895226Y-90338937D01*
X122064744Y-90452205D01*
X122253102Y-90530226D01*
X122453061Y-90570000D01*
X122656939Y-90570000D01*
X122856898Y-90530226D01*
X123045256Y-90452205D01*
X123087468Y-90424000D01*
X148221765Y-90424000D01*
X148971000Y-91173236D01*
X148971001Y-91542531D01*
X148942795Y-91584744D01*
X148864774Y-91773102D01*
X148825000Y-91973061D01*
X148825000Y-92176939D01*
X148864774Y-92376898D01*
X148942795Y-92565256D01*
X149056063Y-92734774D01*
X149200226Y-92878937D01*
X149369744Y-92992205D01*
X149558102Y-93070226D01*
X149758061Y-93110000D01*
X149961939Y-93110000D01*
X150161898Y-93070226D01*
X150350256Y-92992205D01*
X150519774Y-92878937D01*
X150663937Y-92734774D01*
X150777205Y-92565256D01*
X150855226Y-92376898D01*
X150895000Y-92176939D01*
X150895000Y-91973061D01*
X150855226Y-91773102D01*
X150777205Y-91584744D01*
X150749000Y-91542532D01*
X150749000Y-90848659D01*
X150753300Y-90804999D01*
X150749000Y-90761334D01*
X150749000Y-90761333D01*
X150736136Y-90630726D01*
X150736136Y-90630724D01*
X150685302Y-90463147D01*
X150657501Y-90411136D01*
X150602753Y-90308709D01*
X150491659Y-90173341D01*
X150457743Y-90145507D01*
X149466235Y-89154000D01*
X149816340Y-89154000D01*
X149860000Y-89158300D01*
X149903660Y-89154000D01*
X149903667Y-89154000D01*
X150034274Y-89141136D01*
X150201851Y-89090303D01*
X150356291Y-89007753D01*
X150491659Y-88896659D01*
X150519499Y-88862736D01*
X152997743Y-86384493D01*
X153031659Y-86356659D01*
X153142753Y-86221291D01*
X153225303Y-86066851D01*
X153271274Y-85915303D01*
X153276136Y-85899276D01*
X153282688Y-85832753D01*
X153289000Y-85768667D01*
X153289000Y-85768661D01*
X153293300Y-85725001D01*
X153289000Y-85681341D01*
X153289000Y-84376983D01*
X153346632Y-84338475D01*
X153553475Y-84131632D01*
X153670000Y-83957240D01*
X153786525Y-84131632D01*
X153993368Y-84338475D01*
X154236589Y-84500990D01*
X154506842Y-84612932D01*
X154793740Y-84670000D01*
X155086260Y-84670000D01*
X155373158Y-84612932D01*
X155643411Y-84500990D01*
X155886632Y-84338475D01*
X156093475Y-84131632D01*
X156210000Y-83957240D01*
X156326525Y-84131632D01*
X156533368Y-84338475D01*
X156776589Y-84500990D01*
X157046842Y-84612932D01*
X157333740Y-84670000D01*
X157626260Y-84670000D01*
X157913158Y-84612932D01*
X158183411Y-84500990D01*
X158426632Y-84338475D01*
X158633475Y-84131632D01*
X158750000Y-83957240D01*
X158866525Y-84131632D01*
X159073368Y-84338475D01*
X159316589Y-84500990D01*
X159586842Y-84612932D01*
X159873740Y-84670000D01*
X160166260Y-84670000D01*
X160453158Y-84612932D01*
X160723411Y-84500990D01*
X160966632Y-84338475D01*
X161173475Y-84131632D01*
X161290000Y-83957240D01*
X161406525Y-84131632D01*
X161613368Y-84338475D01*
X161856589Y-84500990D01*
X162126842Y-84612932D01*
X162413740Y-84670000D01*
X162706260Y-84670000D01*
X162993158Y-84612932D01*
X163263411Y-84500990D01*
X163506632Y-84338475D01*
X163713475Y-84131632D01*
X163830000Y-83957240D01*
X163946525Y-84131632D01*
X164153368Y-84338475D01*
X164396589Y-84500990D01*
X164666842Y-84612932D01*
X164953740Y-84670000D01*
X165246260Y-84670000D01*
X165533158Y-84612932D01*
X165803411Y-84500990D01*
X166046632Y-84338475D01*
X166253475Y-84131632D01*
X166370000Y-83957240D01*
X166486525Y-84131632D01*
X166693368Y-84338475D01*
X166751001Y-84376984D01*
X166751000Y-85356928D01*
X166640000Y-85356928D01*
X166515518Y-85369188D01*
X166395820Y-85405498D01*
X166285506Y-85464463D01*
X166188815Y-85543815D01*
X166109463Y-85640506D01*
X166050498Y-85750820D01*
X166014188Y-85870518D01*
X166001928Y-85995000D01*
X166001928Y-87995000D01*
X166014188Y-88119482D01*
X166050498Y-88239180D01*
X166109463Y-88349494D01*
X166188815Y-88446185D01*
X166285506Y-88525537D01*
X166395820Y-88584502D01*
X166515518Y-88620812D01*
X166640000Y-88633072D01*
X168640000Y-88633072D01*
X168764482Y-88620812D01*
X168884180Y-88584502D01*
X168994494Y-88525537D01*
X169091185Y-88446185D01*
X169170537Y-88349494D01*
X169229502Y-88239180D01*
X169265812Y-88119482D01*
X169278072Y-87995000D01*
X169278072Y-85995000D01*
X169265812Y-85870518D01*
X169229502Y-85750820D01*
X169170537Y-85640506D01*
X169091185Y-85543815D01*
X168994494Y-85464463D01*
X168884180Y-85405498D01*
X168764482Y-85369188D01*
X168640000Y-85356928D01*
X168529000Y-85356928D01*
X168529000Y-84376983D01*
X168586632Y-84338475D01*
X168793475Y-84131632D01*
X168910000Y-83957240D01*
X169026525Y-84131632D01*
X169233368Y-84338475D01*
X169476589Y-84500990D01*
X169746842Y-84612932D01*
X170033740Y-84670000D01*
X170326260Y-84670000D01*
X170613158Y-84612932D01*
X170883411Y-84500990D01*
X171126632Y-84338475D01*
X171333475Y-84131632D01*
X171495990Y-83888411D01*
X171607932Y-83618158D01*
X171665000Y-83331260D01*
X171665000Y-83038740D01*
X171607932Y-82751842D01*
X171495990Y-82481589D01*
X171333475Y-82238368D01*
X171126632Y-82031525D01*
X170883411Y-81869010D01*
X170613158Y-81757068D01*
X170326260Y-81700000D01*
X170033740Y-81700000D01*
X169746842Y-81757068D01*
X169476589Y-81869010D01*
X169233368Y-82031525D01*
X169026525Y-82238368D01*
X168910000Y-82412760D01*
X168793475Y-82238368D01*
X168586632Y-82031525D01*
X168343411Y-81869010D01*
X168073158Y-81757068D01*
X167786260Y-81700000D01*
X167493740Y-81700000D01*
X167206842Y-81757068D01*
X166936589Y-81869010D01*
X166693368Y-82031525D01*
X166486525Y-82238368D01*
X166370000Y-82412760D01*
X166253475Y-82238368D01*
X166046632Y-82031525D01*
X165803411Y-81869010D01*
X165533158Y-81757068D01*
X165246260Y-81700000D01*
X164953740Y-81700000D01*
X164666842Y-81757068D01*
X164396589Y-81869010D01*
X164153368Y-82031525D01*
X163946525Y-82238368D01*
X163830000Y-82412760D01*
X163713475Y-82238368D01*
X163506632Y-82031525D01*
X163263411Y-81869010D01*
X162993158Y-81757068D01*
X162706260Y-81700000D01*
X162413740Y-81700000D01*
X162126842Y-81757068D01*
X161856589Y-81869010D01*
X161613368Y-82031525D01*
X161406525Y-82238368D01*
X161290000Y-82412760D01*
X161173475Y-82238368D01*
X160966632Y-82031525D01*
X160782000Y-81908158D01*
X160782000Y-80651842D01*
X160966632Y-80528475D01*
X161173475Y-80321632D01*
X161335990Y-80078411D01*
X161447932Y-79808158D01*
X161505000Y-79521260D01*
X161505000Y-79228740D01*
X161447932Y-78941842D01*
X161335990Y-78671589D01*
X161173475Y-78428368D01*
X160966632Y-78221525D01*
X160792240Y-78105000D01*
X160966632Y-77988475D01*
X161091710Y-77863397D01*
X161711208Y-77863397D01*
X161788843Y-78112472D01*
X162052883Y-78238371D01*
X162336411Y-78310339D01*
X162628531Y-78325611D01*
X162918019Y-78283599D01*
X163193747Y-78185919D01*
X163331157Y-78112472D01*
X163408792Y-77863397D01*
X162560000Y-77014605D01*
X161711208Y-77863397D01*
X161091710Y-77863397D01*
X161173475Y-77781632D01*
X161289311Y-77608271D01*
X161531603Y-77683792D01*
X162380395Y-76835000D01*
X162739605Y-76835000D01*
X163588397Y-77683792D01*
X163837472Y-77606157D01*
X163963371Y-77342117D01*
X164035339Y-77058589D01*
X164050611Y-76766469D01*
X164028201Y-76612050D01*
X167465000Y-76612050D01*
X167465000Y-77057949D01*
X167486487Y-77276110D01*
X167571401Y-77556033D01*
X167709294Y-77814013D01*
X167894866Y-78040134D01*
X168120986Y-78225706D01*
X168378966Y-78363599D01*
X168658889Y-78448513D01*
X168950000Y-78477185D01*
X169241110Y-78448513D01*
X169521033Y-78363599D01*
X169779013Y-78225706D01*
X170005134Y-78040134D01*
X170057223Y-77976663D01*
X170111595Y-78078386D01*
X170222038Y-78212962D01*
X170356614Y-78323405D01*
X170510150Y-78405472D01*
X170676746Y-78456008D01*
X170850000Y-78473072D01*
X172050000Y-78473072D01*
X172223254Y-78456008D01*
X172389850Y-78405472D01*
X172543386Y-78323405D01*
X172677962Y-78212962D01*
X172788405Y-78078386D01*
X172870472Y-77924850D01*
X172921008Y-77758254D01*
X172938072Y-77585000D01*
X172938072Y-76085000D01*
X172921008Y-75911746D01*
X172870472Y-75745150D01*
X172788405Y-75591614D01*
X172677962Y-75457038D01*
X172543386Y-75346595D01*
X172389850Y-75264528D01*
X172223254Y-75213992D01*
X172050000Y-75196928D01*
X170850000Y-75196928D01*
X170676746Y-75213992D01*
X170510150Y-75264528D01*
X170356614Y-75346595D01*
X170222038Y-75457038D01*
X170111595Y-75591614D01*
X170057223Y-75693337D01*
X170005134Y-75629866D01*
X169779014Y-75444294D01*
X169521034Y-75306401D01*
X169241111Y-75221487D01*
X168950000Y-75192815D01*
X168658890Y-75221487D01*
X168378967Y-75306401D01*
X168120987Y-75444294D01*
X167894866Y-75629866D01*
X167709294Y-75855986D01*
X167571401Y-76113966D01*
X167486487Y-76393889D01*
X167465000Y-76612050D01*
X164028201Y-76612050D01*
X164008599Y-76476981D01*
X163910919Y-76201253D01*
X163837472Y-76063843D01*
X163588397Y-75986208D01*
X162739605Y-76835000D01*
X162380395Y-76835000D01*
X161531603Y-75986208D01*
X161289311Y-76061729D01*
X161173475Y-75888368D01*
X161091710Y-75806603D01*
X161711208Y-75806603D01*
X162560000Y-76655395D01*
X163408792Y-75806603D01*
X163331157Y-75557528D01*
X163067117Y-75431629D01*
X162783589Y-75359661D01*
X162491469Y-75344389D01*
X162201981Y-75386401D01*
X161926253Y-75484081D01*
X161788843Y-75557528D01*
X161711208Y-75806603D01*
X161091710Y-75806603D01*
X160966632Y-75681525D01*
X160723411Y-75519010D01*
X160453158Y-75407068D01*
X160166260Y-75350000D01*
X159873740Y-75350000D01*
X159586842Y-75407068D01*
X159316589Y-75519010D01*
X159073368Y-75681525D01*
X158866525Y-75888368D01*
X158750000Y-76062760D01*
X158633475Y-75888368D01*
X158426632Y-75681525D01*
X158183411Y-75519010D01*
X157913158Y-75407068D01*
X157626260Y-75350000D01*
X157333740Y-75350000D01*
X157046842Y-75407068D01*
X156776589Y-75519010D01*
X156533368Y-75681525D01*
X156326525Y-75888368D01*
X156210000Y-76062760D01*
X156093475Y-75888368D01*
X155886632Y-75681525D01*
X155643411Y-75519010D01*
X155373158Y-75407068D01*
X155086260Y-75350000D01*
X154793740Y-75350000D01*
X154506842Y-75407068D01*
X154236589Y-75519010D01*
X153993368Y-75681525D01*
X153786525Y-75888368D01*
X153624010Y-76131589D01*
X153512068Y-76401842D01*
X153463834Y-76644331D01*
X153425000Y-76640506D01*
X153384450Y-76644500D01*
X149583050Y-76644500D01*
X149542500Y-76640506D01*
X149501949Y-76644500D01*
X149501947Y-76644500D01*
X149380674Y-76656444D01*
X149225066Y-76703647D01*
X149081657Y-76780301D01*
X149020096Y-76830823D01*
X148955959Y-76883459D01*
X148930106Y-76914961D01*
X148808072Y-77036995D01*
X148808072Y-76110000D01*
X148791008Y-75936746D01*
X148740472Y-75770150D01*
X148658405Y-75616614D01*
X148547962Y-75482038D01*
X148413386Y-75371595D01*
X148259850Y-75289528D01*
X148093254Y-75238992D01*
X147920000Y-75221928D01*
X146720000Y-75221928D01*
X146546746Y-75238992D01*
X146380150Y-75289528D01*
X146226614Y-75371595D01*
X146092038Y-75482038D01*
X145981595Y-75616614D01*
X145927223Y-75718337D01*
X145875134Y-75654866D01*
X145649014Y-75469294D01*
X145391034Y-75331401D01*
X145111111Y-75246487D01*
X144820000Y-75217815D01*
X144528890Y-75246487D01*
X144248967Y-75331401D01*
X143990987Y-75469294D01*
X143764866Y-75654866D01*
X143579294Y-75880986D01*
X143570000Y-75898374D01*
X143560706Y-75880986D01*
X143375134Y-75654866D01*
X143149014Y-75469294D01*
X142891034Y-75331401D01*
X142611111Y-75246487D01*
X142320000Y-75217815D01*
X142028890Y-75246487D01*
X141748967Y-75331401D01*
X141490987Y-75469294D01*
X141264866Y-75654866D01*
X141079294Y-75880986D01*
X141070000Y-75898374D01*
X141060706Y-75880986D01*
X140875134Y-75654866D01*
X140649014Y-75469294D01*
X140391034Y-75331401D01*
X140111111Y-75246487D01*
X139820000Y-75217815D01*
X139528890Y-75246487D01*
X139248967Y-75331401D01*
X138990987Y-75469294D01*
X138764866Y-75654866D01*
X138579294Y-75880986D01*
X138565538Y-75906722D01*
X138409049Y-75700571D01*
X138191193Y-75507504D01*
X137939858Y-75360648D01*
X137676890Y-75268524D01*
X137447000Y-75389845D01*
X137447000Y-76708000D01*
X137467000Y-76708000D01*
X137467000Y-76962000D01*
X137447000Y-76962000D01*
X137447000Y-77343000D01*
X137193000Y-77343000D01*
X137193000Y-76962000D01*
X134947000Y-76962000D01*
X134947000Y-76982000D01*
X134693000Y-76982000D01*
X134693000Y-76962000D01*
X133493835Y-76962000D01*
X133353680Y-77194267D01*
X133427558Y-77475830D01*
X133554947Y-77737570D01*
X133689254Y-77914500D01*
X127832864Y-77914500D01*
X127848792Y-77863397D01*
X127000000Y-77014605D01*
X126151208Y-77863397D01*
X126167136Y-77914500D01*
X125480607Y-77914500D01*
X125613475Y-77781632D01*
X125729311Y-77608271D01*
X125971603Y-77683792D01*
X126820395Y-76835000D01*
X127179605Y-76835000D01*
X128028397Y-77683792D01*
X128277472Y-77606157D01*
X128403371Y-77342117D01*
X128475339Y-77058589D01*
X128490611Y-76766469D01*
X128448599Y-76476981D01*
X128448157Y-76475733D01*
X133353680Y-76475733D01*
X133493835Y-76708000D01*
X134693000Y-76708000D01*
X134693000Y-75389845D01*
X134947000Y-75389845D01*
X134947000Y-76708000D01*
X137193000Y-76708000D01*
X137193000Y-75389845D01*
X136963110Y-75268524D01*
X136700142Y-75360648D01*
X136448807Y-75507504D01*
X136230951Y-75700571D01*
X136070000Y-75912600D01*
X135909049Y-75700571D01*
X135691193Y-75507504D01*
X135439858Y-75360648D01*
X135176890Y-75268524D01*
X134947000Y-75389845D01*
X134693000Y-75389845D01*
X134463110Y-75268524D01*
X134200142Y-75360648D01*
X133948807Y-75507504D01*
X133730951Y-75700571D01*
X133554947Y-75932430D01*
X133427558Y-76194170D01*
X133353680Y-76475733D01*
X128448157Y-76475733D01*
X128350919Y-76201253D01*
X128277472Y-76063843D01*
X128028397Y-75986208D01*
X127179605Y-76835000D01*
X126820395Y-76835000D01*
X125971603Y-75986208D01*
X125729311Y-76061729D01*
X125613475Y-75888368D01*
X125531710Y-75806603D01*
X126151208Y-75806603D01*
X127000000Y-76655395D01*
X127848792Y-75806603D01*
X127771157Y-75557528D01*
X127507117Y-75431629D01*
X127223589Y-75359661D01*
X126931469Y-75344389D01*
X126641981Y-75386401D01*
X126366253Y-75484081D01*
X126228843Y-75557528D01*
X126151208Y-75806603D01*
X125531710Y-75806603D01*
X125406632Y-75681525D01*
X125163411Y-75519010D01*
X124893158Y-75407068D01*
X124606260Y-75350000D01*
X124313740Y-75350000D01*
X124026842Y-75407068D01*
X123756589Y-75519010D01*
X123513368Y-75681525D01*
X123306525Y-75888368D01*
X123190000Y-76062760D01*
X123073475Y-75888368D01*
X122866632Y-75681525D01*
X122623411Y-75519010D01*
X122353158Y-75407068D01*
X122066260Y-75350000D01*
X121773740Y-75350000D01*
X121486842Y-75407068D01*
X121216589Y-75519010D01*
X120973368Y-75681525D01*
X120766525Y-75888368D01*
X120650000Y-76062760D01*
X120533475Y-75888368D01*
X120326632Y-75681525D01*
X120083411Y-75519010D01*
X119813158Y-75407068D01*
X119526260Y-75350000D01*
X119233740Y-75350000D01*
X118946842Y-75407068D01*
X118676589Y-75519010D01*
X118433368Y-75681525D01*
X118226525Y-75888368D01*
X118064010Y-76131589D01*
X117952068Y-76401842D01*
X117895000Y-76688740D01*
X117895000Y-76981260D01*
X117952068Y-77268158D01*
X118064010Y-77538411D01*
X118226525Y-77781632D01*
X118433368Y-77988475D01*
X118554501Y-78069413D01*
X118554501Y-78699440D01*
X118550506Y-78740000D01*
X118566445Y-78901826D01*
X118613647Y-79057433D01*
X118690301Y-79200842D01*
X118747907Y-79271034D01*
X118793460Y-79326541D01*
X118824960Y-79352392D01*
X120037606Y-80565039D01*
X120063459Y-80596541D01*
X120122507Y-80645000D01*
X120189157Y-80699699D01*
X120222584Y-80717566D01*
X120332566Y-80776353D01*
X120488174Y-80823556D01*
X120609447Y-80835500D01*
X120609449Y-80835500D01*
X120649999Y-80839494D01*
X120690550Y-80835500D01*
X133008068Y-80835500D01*
X133794500Y-81621933D01*
X133794500Y-81950587D01*
X133673368Y-82031525D01*
X133466525Y-82238368D01*
X133350000Y-82412760D01*
X133233475Y-82238368D01*
X133026632Y-82031525D01*
X132783411Y-81869010D01*
X132513158Y-81757068D01*
X132226260Y-81700000D01*
X131933740Y-81700000D01*
X131646842Y-81757068D01*
X131376589Y-81869010D01*
X131133368Y-82031525D01*
X130926525Y-82238368D01*
X130810000Y-82412760D01*
X130693475Y-82238368D01*
X130486632Y-82031525D01*
X130243411Y-81869010D01*
X129973158Y-81757068D01*
X129686260Y-81700000D01*
X129393740Y-81700000D01*
X129106842Y-81757068D01*
X128836589Y-81869010D01*
X128593368Y-82031525D01*
X128386525Y-82238368D01*
X128270000Y-82412760D01*
X128153475Y-82238368D01*
X127946632Y-82031525D01*
X127703411Y-81869010D01*
X127433158Y-81757068D01*
X127146260Y-81700000D01*
X126853740Y-81700000D01*
X126566842Y-81757068D01*
X126296589Y-81869010D01*
X126053368Y-82031525D01*
X125846525Y-82238368D01*
X125730689Y-82411729D01*
X125488397Y-82336208D01*
X124639605Y-83185000D01*
X124653748Y-83199143D01*
X124474143Y-83378748D01*
X124460000Y-83364605D01*
X124445858Y-83378748D01*
X124266253Y-83199143D01*
X124280395Y-83185000D01*
X123431603Y-82336208D01*
X123189311Y-82411729D01*
X123073475Y-82238368D01*
X122991710Y-82156603D01*
X123611208Y-82156603D01*
X124460000Y-83005395D01*
X125308792Y-82156603D01*
X125231157Y-81907528D01*
X124967117Y-81781629D01*
X124683589Y-81709661D01*
X124391469Y-81694389D01*
X124101981Y-81736401D01*
X123826253Y-81834081D01*
X123688843Y-81907528D01*
X123611208Y-82156603D01*
X122991710Y-82156603D01*
X122866632Y-82031525D01*
X122623411Y-81869010D01*
X122353158Y-81757068D01*
X122066260Y-81700000D01*
X121773740Y-81700000D01*
X121486842Y-81757068D01*
X121216589Y-81869010D01*
X120973368Y-82031525D01*
X120962893Y-82042000D01*
X119218446Y-82042000D01*
X115107927Y-77931482D01*
X115072133Y-77887867D01*
X114898089Y-77745032D01*
X114699523Y-77638897D01*
X114484067Y-77573539D01*
X114316146Y-77557000D01*
X114316139Y-77557000D01*
X114260000Y-77551471D01*
X114203861Y-77557000D01*
X113118174Y-77557000D01*
X113186185Y-77501185D01*
X113265537Y-77404494D01*
X113324502Y-77294180D01*
X113360812Y-77174482D01*
X113373072Y-77050000D01*
X113370000Y-76485750D01*
X113211250Y-76327000D01*
X111887000Y-76327000D01*
X111887000Y-76347000D01*
X111633000Y-76347000D01*
X111633000Y-76327000D01*
X110308750Y-76327000D01*
X110150000Y-76485750D01*
X110146928Y-77050000D01*
X110159188Y-77174482D01*
X110195498Y-77294180D01*
X110254463Y-77404494D01*
X110333815Y-77501185D01*
X110430506Y-77580537D01*
X110540820Y-77639502D01*
X110575608Y-77650055D01*
X110437324Y-77818554D01*
X110396477Y-77852076D01*
X110396471Y-77852082D01*
X110352867Y-77887867D01*
X110317081Y-77931472D01*
X108451482Y-79797073D01*
X108407867Y-79832867D01*
X108265032Y-80006912D01*
X108158897Y-80205478D01*
X108139735Y-80268647D01*
X108107565Y-80374698D01*
X108093539Y-80420934D01*
X108077000Y-80588855D01*
X108077000Y-80588861D01*
X108071471Y-80645000D01*
X108077000Y-80701139D01*
X108077001Y-102813851D01*
X108071471Y-102870000D01*
X108093539Y-103094067D01*
X108158898Y-103309523D01*
X108265033Y-103508089D01*
X108407868Y-103682133D01*
X108451478Y-103717923D01*
X109641120Y-104907566D01*
X109653992Y-105038254D01*
X109704528Y-105204850D01*
X109786595Y-105358386D01*
X109897038Y-105492962D01*
X110031614Y-105603405D01*
X110139436Y-105661037D01*
X110164519Y-105743724D01*
X110181799Y-105800687D01*
X110276141Y-105977190D01*
X110403105Y-106131896D01*
X110441868Y-106163708D01*
X112022292Y-107744133D01*
X112054104Y-107782896D01*
X112208809Y-107909859D01*
X112208810Y-107909860D01*
X112385313Y-108004202D01*
X112576829Y-108062298D01*
X112776000Y-108081915D01*
X112825902Y-108077000D01*
X134189098Y-108077000D01*
X134239000Y-108081915D01*
X134288902Y-108077000D01*
X134438171Y-108062298D01*
X134629687Y-108004202D01*
X134806190Y-107909860D01*
X134960896Y-107782896D01*
X134992712Y-107744128D01*
X135833797Y-106903044D01*
X135914774Y-106848937D01*
X136058937Y-106704774D01*
X136172205Y-106535256D01*
X136250226Y-106346898D01*
X136290000Y-106146939D01*
X136290000Y-105943061D01*
X136285015Y-105918000D01*
X137153158Y-105918000D01*
X137114010Y-105976589D01*
X137002068Y-106246842D01*
X136945000Y-106533740D01*
X136945000Y-106826260D01*
X137002068Y-107113158D01*
X137114010Y-107383411D01*
X137276525Y-107626632D01*
X137483368Y-107833475D01*
X137726589Y-107995990D01*
X137996842Y-108107932D01*
X138283740Y-108165000D01*
X138576260Y-108165000D01*
X138863158Y-108107932D01*
X139133411Y-107995990D01*
X139376632Y-107833475D01*
X139583475Y-107626632D01*
X139705195Y-107444466D01*
X139774822Y-107561355D01*
X139969731Y-107777588D01*
X140203080Y-107951641D01*
X140465901Y-108076825D01*
X140613110Y-108121476D01*
X140843000Y-108000155D01*
X140843000Y-106807000D01*
X140823000Y-106807000D01*
X140823000Y-106553000D01*
X140843000Y-106553000D01*
X140843000Y-106533000D01*
X141097000Y-106533000D01*
X141097000Y-106553000D01*
X141117000Y-106553000D01*
X141117000Y-106807000D01*
X141097000Y-106807000D01*
X141097000Y-108000155D01*
X141326890Y-108121476D01*
X141474099Y-108076825D01*
X141736920Y-107951641D01*
X141970269Y-107777588D01*
X142046034Y-107693534D01*
X142070498Y-107774180D01*
X142129463Y-107884494D01*
X142208815Y-107981185D01*
X142305506Y-108060537D01*
X142415820Y-108119502D01*
X142535518Y-108155812D01*
X142660000Y-108168072D01*
X144360000Y-108168072D01*
X144484482Y-108155812D01*
X144604180Y-108119502D01*
X144714494Y-108060537D01*
X144811185Y-107981185D01*
X144890537Y-107884494D01*
X144949502Y-107774180D01*
X144985812Y-107654482D01*
X144998072Y-107530000D01*
X144998072Y-106533740D01*
X162345000Y-106533740D01*
X162345000Y-106826260D01*
X162402068Y-107113158D01*
X162514010Y-107383411D01*
X162676525Y-107626632D01*
X162883368Y-107833475D01*
X163126589Y-107995990D01*
X163396842Y-108107932D01*
X163683740Y-108165000D01*
X163976260Y-108165000D01*
X164263158Y-108107932D01*
X164533411Y-107995990D01*
X164776632Y-107833475D01*
X164983475Y-107626632D01*
X165105195Y-107444466D01*
X165174822Y-107561355D01*
X165369731Y-107777588D01*
X165603080Y-107951641D01*
X165865901Y-108076825D01*
X166013110Y-108121476D01*
X166243000Y-108000155D01*
X166243000Y-106807000D01*
X166223000Y-106807000D01*
X166223000Y-106553000D01*
X166243000Y-106553000D01*
X166243000Y-105359845D01*
X166497000Y-105359845D01*
X166497000Y-106553000D01*
X166517000Y-106553000D01*
X166517000Y-106807000D01*
X166497000Y-106807000D01*
X166497000Y-108000155D01*
X166726890Y-108121476D01*
X166874099Y-108076825D01*
X167136920Y-107951641D01*
X167370269Y-107777588D01*
X167446034Y-107693534D01*
X167470498Y-107774180D01*
X167529463Y-107884494D01*
X167608815Y-107981185D01*
X167705506Y-108060537D01*
X167815820Y-108119502D01*
X167935518Y-108155812D01*
X168060000Y-108168072D01*
X169760000Y-108168072D01*
X169884482Y-108155812D01*
X170004180Y-108119502D01*
X170114494Y-108060537D01*
X170211185Y-107981185D01*
X170290537Y-107884494D01*
X170349502Y-107774180D01*
X170385812Y-107654482D01*
X170398072Y-107530000D01*
X170398072Y-105830000D01*
X170385812Y-105705518D01*
X170349502Y-105585820D01*
X170290537Y-105475506D01*
X170211185Y-105378815D01*
X170114494Y-105299463D01*
X170004180Y-105240498D01*
X169884482Y-105204188D01*
X169760000Y-105191928D01*
X168060000Y-105191928D01*
X167935518Y-105204188D01*
X167815820Y-105240498D01*
X167705506Y-105299463D01*
X167608815Y-105378815D01*
X167529463Y-105475506D01*
X167470498Y-105585820D01*
X167446034Y-105666466D01*
X167370269Y-105582412D01*
X167136920Y-105408359D01*
X166874099Y-105283175D01*
X166726890Y-105238524D01*
X166497000Y-105359845D01*
X166243000Y-105359845D01*
X166013110Y-105238524D01*
X165865901Y-105283175D01*
X165603080Y-105408359D01*
X165369731Y-105582412D01*
X165174822Y-105798645D01*
X165105195Y-105915534D01*
X164983475Y-105733368D01*
X164776632Y-105526525D01*
X164533411Y-105364010D01*
X164263158Y-105252068D01*
X163976260Y-105195000D01*
X163683740Y-105195000D01*
X163396842Y-105252068D01*
X163126589Y-105364010D01*
X162883368Y-105526525D01*
X162676525Y-105733368D01*
X162514010Y-105976589D01*
X162402068Y-106246842D01*
X162345000Y-106533740D01*
X144998072Y-106533740D01*
X144998072Y-105918000D01*
X145371340Y-105918000D01*
X145415000Y-105922300D01*
X145458660Y-105918000D01*
X145458667Y-105918000D01*
X145589274Y-105905136D01*
X145756851Y-105854303D01*
X145911291Y-105771753D01*
X146046659Y-105660659D01*
X146074499Y-105626736D01*
X147028743Y-104672493D01*
X147062659Y-104644659D01*
X147173753Y-104509291D01*
X147256303Y-104354851D01*
X147307136Y-104187274D01*
X147320000Y-104056667D01*
X147320000Y-104056660D01*
X147324300Y-104013000D01*
X147320000Y-103969340D01*
X147320000Y-102222235D01*
X149006928Y-103909164D01*
X149006928Y-104865000D01*
X149023992Y-105038254D01*
X149074528Y-105204850D01*
X149156595Y-105358386D01*
X149267038Y-105492962D01*
X149401614Y-105603405D01*
X149555150Y-105685472D01*
X149721746Y-105736008D01*
X149895000Y-105753072D01*
X151095000Y-105753072D01*
X151268254Y-105736008D01*
X151434850Y-105685472D01*
X151588386Y-105603405D01*
X151722962Y-105492962D01*
X151833405Y-105358386D01*
X151887777Y-105256663D01*
X151939866Y-105320134D01*
X152165987Y-105505706D01*
X152423967Y-105643599D01*
X152703890Y-105728513D01*
X152995000Y-105757185D01*
X153286111Y-105728513D01*
X153566034Y-105643599D01*
X153824014Y-105505706D01*
X154050134Y-105320134D01*
X154235706Y-105094014D01*
X154249462Y-105068278D01*
X154405951Y-105274429D01*
X154623807Y-105467496D01*
X154875142Y-105614352D01*
X155138110Y-105706476D01*
X155368000Y-105585155D01*
X155368000Y-104267000D01*
X155348000Y-104267000D01*
X155348000Y-104013000D01*
X155368000Y-104013000D01*
X155368000Y-103993000D01*
X155622000Y-103993000D01*
X155622000Y-104013000D01*
X155642000Y-104013000D01*
X155642000Y-104267000D01*
X155622000Y-104267000D01*
X155622000Y-105585155D01*
X155851890Y-105706476D01*
X156114858Y-105614352D01*
X156366193Y-105467496D01*
X156584049Y-105274429D01*
X156740538Y-105068278D01*
X156754294Y-105094014D01*
X156939866Y-105320134D01*
X157165987Y-105505706D01*
X157423967Y-105643599D01*
X157703890Y-105728513D01*
X157995000Y-105757185D01*
X158286111Y-105728513D01*
X158566034Y-105643599D01*
X158824014Y-105505706D01*
X159050134Y-105320134D01*
X159235706Y-105094014D01*
X159373599Y-104836033D01*
X159458513Y-104556110D01*
X159480000Y-104337949D01*
X159480000Y-103942050D01*
X159458513Y-103723889D01*
X159373599Y-103443966D01*
X159235706Y-103185986D01*
X159050134Y-102959866D01*
X159011000Y-102927750D01*
X159011000Y-102775840D01*
X159805841Y-101981000D01*
X163145098Y-101981000D01*
X163195000Y-101985915D01*
X163244902Y-101981000D01*
X163394171Y-101966298D01*
X163585687Y-101908202D01*
X163762190Y-101813860D01*
X163916896Y-101686896D01*
X163948712Y-101648128D01*
X164170725Y-101426116D01*
X164182795Y-101455256D01*
X164211001Y-101497469D01*
X164211000Y-102826340D01*
X164206700Y-102870000D01*
X164211000Y-102913660D01*
X164211000Y-102913666D01*
X164220052Y-103005571D01*
X164223864Y-103044274D01*
X164243409Y-103108706D01*
X164274697Y-103211850D01*
X164357247Y-103366290D01*
X164468341Y-103501659D01*
X164502263Y-103529498D01*
X165075505Y-104102741D01*
X165103341Y-104136659D01*
X165238709Y-104247753D01*
X165393149Y-104330303D01*
X165474566Y-104355000D01*
X165560725Y-104381136D01*
X165577325Y-104382771D01*
X165691333Y-104394000D01*
X165691340Y-104394000D01*
X165735000Y-104398300D01*
X165778660Y-104394000D01*
X167425769Y-104394000D01*
X167434188Y-104479482D01*
X167470498Y-104599180D01*
X167529463Y-104709494D01*
X167608815Y-104806185D01*
X167705506Y-104885537D01*
X167815820Y-104944502D01*
X167935518Y-104980812D01*
X168060000Y-104993072D01*
X169760000Y-104993072D01*
X169884482Y-104980812D01*
X170004180Y-104944502D01*
X170114494Y-104885537D01*
X170211185Y-104806185D01*
X170290537Y-104709494D01*
X170349502Y-104599180D01*
X170385812Y-104479482D01*
X170398072Y-104355000D01*
X170398072Y-102655000D01*
X170385812Y-102530518D01*
X170349502Y-102410820D01*
X170290537Y-102300506D01*
X170211185Y-102203815D01*
X170114494Y-102124463D01*
X170004180Y-102065498D01*
X169884482Y-102029188D01*
X169760000Y-102016928D01*
X168060000Y-102016928D01*
X167935518Y-102029188D01*
X167815820Y-102065498D01*
X167705506Y-102124463D01*
X167608815Y-102203815D01*
X167529463Y-102300506D01*
X167470498Y-102410820D01*
X167434188Y-102530518D01*
X167425769Y-102616000D01*
X166103236Y-102616000D01*
X165989000Y-102501765D01*
X165989000Y-101497468D01*
X166017205Y-101455256D01*
X166095226Y-101266898D01*
X166135000Y-101066939D01*
X166135000Y-100863061D01*
X166095226Y-100663102D01*
X166017205Y-100474744D01*
X165903937Y-100305226D01*
X165759774Y-100161063D01*
X165590256Y-100047795D01*
X165561116Y-100035725D01*
X165783133Y-99813708D01*
X165821896Y-99781896D01*
X165918670Y-99663976D01*
X166046632Y-99578475D01*
X166171710Y-99453397D01*
X166791208Y-99453397D01*
X166868843Y-99702472D01*
X167132883Y-99828371D01*
X167416411Y-99900339D01*
X167708531Y-99915611D01*
X167998019Y-99873599D01*
X168273747Y-99775919D01*
X168411157Y-99702472D01*
X168488792Y-99453397D01*
X167640000Y-98604605D01*
X166791208Y-99453397D01*
X166171710Y-99453397D01*
X166253475Y-99371632D01*
X166369311Y-99198271D01*
X166611603Y-99273792D01*
X167460395Y-98425000D01*
X167446253Y-98410858D01*
X167625858Y-98231253D01*
X167640000Y-98245395D01*
X167654143Y-98231253D01*
X167833748Y-98410858D01*
X167819605Y-98425000D01*
X168668397Y-99273792D01*
X168910689Y-99198271D01*
X169026525Y-99371632D01*
X169233368Y-99578475D01*
X169476589Y-99740990D01*
X169746842Y-99852932D01*
X170033740Y-99910000D01*
X170326260Y-99910000D01*
X170613158Y-99852932D01*
X170883411Y-99740990D01*
X171126632Y-99578475D01*
X171333475Y-99371632D01*
X171456842Y-99187000D01*
X172078158Y-99187000D01*
X172201525Y-99371632D01*
X172408368Y-99578475D01*
X172651589Y-99740990D01*
X172921842Y-99852932D01*
X173208740Y-99910000D01*
X173501260Y-99910000D01*
X173788158Y-99852932D01*
X174058411Y-99740990D01*
X174301632Y-99578475D01*
X174508475Y-99371632D01*
X174575001Y-99272069D01*
X174575001Y-108408000D01*
X107365000Y-108408000D01*
X107365000Y-75350000D01*
X110146928Y-75350000D01*
X110150000Y-75914250D01*
X110308750Y-76073000D01*
X111633000Y-76073000D01*
X111633000Y-74873750D01*
X111887000Y-74873750D01*
X111887000Y-76073000D01*
X113211250Y-76073000D01*
X113370000Y-75914250D01*
X113373072Y-75350000D01*
X113360812Y-75225518D01*
X113324502Y-75105820D01*
X113265537Y-74995506D01*
X113186185Y-74898815D01*
X113089494Y-74819463D01*
X112979180Y-74760498D01*
X112859482Y-74724188D01*
X112735000Y-74711928D01*
X112045750Y-74715000D01*
X111887000Y-74873750D01*
X111633000Y-74873750D01*
X111474250Y-74715000D01*
X110785000Y-74711928D01*
X110660518Y-74724188D01*
X110540820Y-74760498D01*
X110430506Y-74819463D01*
X110333815Y-74898815D01*
X110254463Y-74995506D01*
X110195498Y-75105820D01*
X110159188Y-75225518D01*
X110146928Y-75350000D01*
X107365000Y-75350000D01*
X107365000Y-73202000D01*
X174575000Y-73202000D01*
X174575001Y-97577931D01*
G36*
X121252000Y-104013000D02*
G01*
X121272000Y-104013000D01*
X121272000Y-104267000D01*
X121252000Y-104267000D01*
X121252000Y-104287000D01*
X120998000Y-104287000D01*
X120998000Y-104267000D01*
X120978000Y-104267000D01*
X120978000Y-104013000D01*
X120998000Y-104013000D01*
X120998000Y-103993000D01*
X121252000Y-103993000D01*
X121252000Y-104013000D01*
G37*
X121252000Y-104013000D02*
X121272000Y-104013000D01*
X121272000Y-104267000D01*
X121252000Y-104267000D01*
X121252000Y-104287000D01*
X120998000Y-104287000D01*
X120998000Y-104267000D01*
X120978000Y-104267000D01*
X120978000Y-104013000D01*
X120998000Y-104013000D01*
X120998000Y-103993000D01*
X121252000Y-103993000D01*
X121252000Y-104013000D01*
M02*
