G04 #@! TF.GenerationSoftware,KiCad,Pcbnew,5.1.5-52549c5~86~ubuntu19.04.1*
G04 #@! TF.CreationDate,2020-12-26T14:33:06+01:00*
G04 #@! TF.ProjectId,high-accuracy-logging-volt-ampmeter,68696768-2d61-4636-9375-726163792d6c,v1.0*
G04 #@! TF.SameCoordinates,Original*
G04 #@! TF.FileFunction,Soldermask,Top*
G04 #@! TF.FilePolarity,Negative*
%FSLAX46Y46*%
G04 Gerber Fmt 4.6, Leading zero omitted, Abs format (unit mm)*
G04 Created by KiCad (PCBNEW 5.1.5-52549c5~86~ubuntu19.04.1) date 2020-12-26 14:33:06*
%MOMM*%
%LPD*%
G04 APERTURE LIST*
%ADD10C,0.150000*%
%ADD11C,0.010000*%
%ADD12C,0.100000*%
G04 APERTURE END LIST*
D10*
X152477500Y-89574714D02*
X152715595Y-90241380D01*
X152953690Y-89574714D01*
X153858452Y-90241380D02*
X153287023Y-90241380D01*
X153572738Y-90241380D02*
X153572738Y-89241380D01*
X153477500Y-89384238D01*
X153382261Y-89479476D01*
X153287023Y-89527095D01*
X154287023Y-90146142D02*
X154334642Y-90193761D01*
X154287023Y-90241380D01*
X154239404Y-90193761D01*
X154287023Y-90146142D01*
X154287023Y-90241380D01*
X154953690Y-89241380D02*
X155048928Y-89241380D01*
X155144166Y-89289000D01*
X155191785Y-89336619D01*
X155239404Y-89431857D01*
X155287023Y-89622333D01*
X155287023Y-89860428D01*
X155239404Y-90050904D01*
X155191785Y-90146142D01*
X155144166Y-90193761D01*
X155048928Y-90241380D01*
X154953690Y-90241380D01*
X154858452Y-90193761D01*
X154810833Y-90146142D01*
X154763214Y-90050904D01*
X154715595Y-89860428D01*
X154715595Y-89622333D01*
X154763214Y-89431857D01*
X154810833Y-89336619D01*
X154858452Y-89289000D01*
X154953690Y-89241380D01*
D11*
G36*
X159126964Y-87460018D02*
G01*
X159183812Y-87761570D01*
X159603338Y-87934512D01*
X159854984Y-87763395D01*
X159925458Y-87715750D01*
X159989163Y-87673210D01*
X160043126Y-87637715D01*
X160084373Y-87611210D01*
X160109934Y-87595636D01*
X160116895Y-87592278D01*
X160129435Y-87600914D01*
X160156231Y-87624792D01*
X160194280Y-87660859D01*
X160240579Y-87706067D01*
X160292123Y-87757364D01*
X160345909Y-87811701D01*
X160398935Y-87866028D01*
X160448195Y-87917295D01*
X160490687Y-87962451D01*
X160523407Y-87998446D01*
X160543351Y-88022230D01*
X160548119Y-88030190D01*
X160541257Y-88044865D01*
X160522020Y-88077014D01*
X160492430Y-88123492D01*
X160454510Y-88181156D01*
X160410282Y-88246860D01*
X160384654Y-88284336D01*
X160337941Y-88352768D01*
X160296432Y-88414520D01*
X160262140Y-88466519D01*
X160237080Y-88505692D01*
X160223264Y-88528965D01*
X160221188Y-88533855D01*
X160225895Y-88547755D01*
X160238723Y-88580150D01*
X160257738Y-88626485D01*
X160281003Y-88682206D01*
X160306584Y-88742758D01*
X160332545Y-88803586D01*
X160356950Y-88860136D01*
X160377863Y-88907852D01*
X160393349Y-88942181D01*
X160401472Y-88958568D01*
X160401952Y-88959212D01*
X160414707Y-88962341D01*
X160448677Y-88969321D01*
X160500340Y-88979467D01*
X160566176Y-88992092D01*
X160642664Y-89006509D01*
X160687290Y-89014823D01*
X160769021Y-89030384D01*
X160842843Y-89045192D01*
X160905021Y-89058436D01*
X160951822Y-89069305D01*
X160979509Y-89076989D01*
X160985074Y-89079427D01*
X160990526Y-89095930D01*
X160994924Y-89133200D01*
X160998272Y-89186880D01*
X161000574Y-89252612D01*
X161001832Y-89326037D01*
X161002048Y-89402796D01*
X161001227Y-89478532D01*
X160999371Y-89548886D01*
X160996482Y-89609500D01*
X160992565Y-89656016D01*
X160987622Y-89684075D01*
X160984657Y-89689916D01*
X160966934Y-89696917D01*
X160929381Y-89706927D01*
X160876964Y-89718769D01*
X160814652Y-89731267D01*
X160792900Y-89735310D01*
X160688024Y-89754520D01*
X160605180Y-89769991D01*
X160541630Y-89782337D01*
X160494637Y-89792173D01*
X160461463Y-89800114D01*
X160439371Y-89806776D01*
X160425624Y-89812773D01*
X160417484Y-89818719D01*
X160416345Y-89819894D01*
X160404977Y-89838826D01*
X160387635Y-89875669D01*
X160366050Y-89925913D01*
X160341954Y-89985046D01*
X160317079Y-90048556D01*
X160293157Y-90111932D01*
X160271919Y-90170662D01*
X160255097Y-90220235D01*
X160244422Y-90256139D01*
X160241627Y-90273862D01*
X160241860Y-90274483D01*
X160251331Y-90288970D01*
X160272818Y-90320844D01*
X160304063Y-90366789D01*
X160342807Y-90423485D01*
X160386793Y-90487617D01*
X160399319Y-90505842D01*
X160443984Y-90571914D01*
X160483288Y-90632200D01*
X160515088Y-90683235D01*
X160537245Y-90721560D01*
X160547617Y-90743711D01*
X160548119Y-90746432D01*
X160539405Y-90760736D01*
X160515325Y-90789072D01*
X160478976Y-90828396D01*
X160433453Y-90875661D01*
X160381852Y-90927823D01*
X160327267Y-90981835D01*
X160272794Y-91034653D01*
X160221529Y-91083231D01*
X160176567Y-91124523D01*
X160141004Y-91155485D01*
X160117935Y-91173070D01*
X160111554Y-91175941D01*
X160096699Y-91169178D01*
X160066286Y-91150939D01*
X160025268Y-91124297D01*
X159993709Y-91102852D01*
X159936525Y-91063503D01*
X159868806Y-91017171D01*
X159800880Y-90970913D01*
X159764361Y-90946155D01*
X159640752Y-90862547D01*
X159536991Y-90918650D01*
X159489720Y-90943228D01*
X159449523Y-90962331D01*
X159422326Y-90973227D01*
X159415402Y-90974743D01*
X159407077Y-90963549D01*
X159390654Y-90931917D01*
X159367357Y-90882765D01*
X159338414Y-90819010D01*
X159305050Y-90743571D01*
X159268491Y-90659364D01*
X159229964Y-90569308D01*
X159190694Y-90476321D01*
X159151908Y-90383320D01*
X159114830Y-90293223D01*
X159080689Y-90208948D01*
X159050708Y-90133413D01*
X159026116Y-90069534D01*
X159008136Y-90020231D01*
X158997997Y-89988421D01*
X158996366Y-89977496D01*
X159009291Y-89963561D01*
X159037589Y-89940940D01*
X159075346Y-89914333D01*
X159078515Y-89912228D01*
X159176100Y-89834114D01*
X159254786Y-89742982D01*
X159313891Y-89641745D01*
X159352732Y-89533318D01*
X159370628Y-89420614D01*
X159366897Y-89306548D01*
X159340857Y-89194034D01*
X159291825Y-89085985D01*
X159277400Y-89062345D01*
X159202369Y-88966887D01*
X159113730Y-88890232D01*
X159014549Y-88832780D01*
X158907895Y-88794929D01*
X158796836Y-88777078D01*
X158684439Y-88779625D01*
X158573773Y-88802970D01*
X158467906Y-88847510D01*
X158369905Y-88913645D01*
X158339590Y-88940487D01*
X158262438Y-89024512D01*
X158206218Y-89112966D01*
X158167653Y-89212115D01*
X158146174Y-89310303D01*
X158140872Y-89420697D01*
X158158552Y-89531640D01*
X158197419Y-89639381D01*
X158255677Y-89740169D01*
X158331531Y-89830256D01*
X158423183Y-89905892D01*
X158435228Y-89913864D01*
X158473389Y-89939974D01*
X158502399Y-89962595D01*
X158516268Y-89977039D01*
X158516469Y-89977496D01*
X158513492Y-89993121D01*
X158501689Y-90028582D01*
X158482286Y-90080962D01*
X158456512Y-90147345D01*
X158425591Y-90224814D01*
X158390751Y-90310450D01*
X158353217Y-90401337D01*
X158314217Y-90494559D01*
X158274977Y-90587197D01*
X158236724Y-90676335D01*
X158200683Y-90759055D01*
X158168083Y-90832441D01*
X158140148Y-90893575D01*
X158118105Y-90939541D01*
X158103182Y-90967421D01*
X158097172Y-90974743D01*
X158078809Y-90969041D01*
X158044448Y-90953749D01*
X158000016Y-90931599D01*
X157975583Y-90918650D01*
X157871822Y-90862547D01*
X157748213Y-90946155D01*
X157685114Y-90988987D01*
X157616030Y-91036122D01*
X157551293Y-91080503D01*
X157518866Y-91102852D01*
X157473259Y-91133477D01*
X157434640Y-91157747D01*
X157408048Y-91172587D01*
X157399410Y-91175724D01*
X157386839Y-91167261D01*
X157359016Y-91143636D01*
X157318639Y-91107302D01*
X157268405Y-91060711D01*
X157211012Y-91006317D01*
X157174714Y-90971392D01*
X157111210Y-90908996D01*
X157056327Y-90853188D01*
X157012286Y-90806354D01*
X156981305Y-90770882D01*
X156965602Y-90749161D01*
X156964095Y-90744752D01*
X156971086Y-90727985D01*
X156990406Y-90694082D01*
X157019909Y-90646476D01*
X157057455Y-90588599D01*
X157100900Y-90523884D01*
X157113255Y-90505842D01*
X157158273Y-90440267D01*
X157198660Y-90381228D01*
X157232160Y-90332042D01*
X157256514Y-90296028D01*
X157269464Y-90276502D01*
X157270715Y-90274483D01*
X157268844Y-90258922D01*
X157258913Y-90224709D01*
X157242653Y-90176355D01*
X157221795Y-90118371D01*
X157198073Y-90055270D01*
X157173216Y-89991563D01*
X157148958Y-89931761D01*
X157127029Y-89880376D01*
X157109162Y-89841919D01*
X157097087Y-89820902D01*
X157096229Y-89819894D01*
X157088846Y-89813888D01*
X157076375Y-89807948D01*
X157056080Y-89801460D01*
X157025222Y-89793809D01*
X156981066Y-89784380D01*
X156920874Y-89772559D01*
X156841907Y-89757729D01*
X156741430Y-89739277D01*
X156719675Y-89735310D01*
X156655198Y-89722853D01*
X156598989Y-89710666D01*
X156556013Y-89699926D01*
X156531240Y-89691809D01*
X156527918Y-89689916D01*
X156522444Y-89673138D01*
X156517994Y-89635645D01*
X156514572Y-89581794D01*
X156512181Y-89515944D01*
X156510823Y-89442453D01*
X156510501Y-89365680D01*
X156511219Y-89289983D01*
X156512979Y-89219720D01*
X156515784Y-89159250D01*
X156519638Y-89112930D01*
X156524543Y-89085119D01*
X156527500Y-89079427D01*
X156543963Y-89073686D01*
X156581449Y-89064345D01*
X156636225Y-89052215D01*
X156704555Y-89038107D01*
X156782706Y-89022830D01*
X156825284Y-89014823D01*
X156906071Y-88999721D01*
X156978113Y-88986040D01*
X157037889Y-88974467D01*
X157081879Y-88965687D01*
X157106561Y-88960387D01*
X157110623Y-88959212D01*
X157117489Y-88945965D01*
X157132002Y-88914057D01*
X157152229Y-88868047D01*
X157176234Y-88812492D01*
X157202082Y-88751953D01*
X157227840Y-88690986D01*
X157251573Y-88634151D01*
X157271346Y-88586006D01*
X157285224Y-88551110D01*
X157291274Y-88534021D01*
X157291386Y-88533274D01*
X157284528Y-88519793D01*
X157265302Y-88488770D01*
X157235728Y-88443289D01*
X157197827Y-88386432D01*
X157153620Y-88321283D01*
X157127921Y-88283862D01*
X157081093Y-88215247D01*
X157039501Y-88152952D01*
X157005175Y-88100129D01*
X156980143Y-88059927D01*
X156966435Y-88035500D01*
X156964456Y-88030024D01*
X156972966Y-88017278D01*
X156996493Y-87990063D01*
X157032032Y-87951428D01*
X157076577Y-87904423D01*
X157127123Y-87852095D01*
X157180664Y-87797495D01*
X157234195Y-87743670D01*
X157284711Y-87693670D01*
X157329206Y-87650543D01*
X157364675Y-87617339D01*
X157388113Y-87597106D01*
X157395954Y-87592278D01*
X157408720Y-87599067D01*
X157439256Y-87618142D01*
X157484590Y-87647561D01*
X157541756Y-87685381D01*
X157607784Y-87729661D01*
X157657590Y-87763395D01*
X157909236Y-87934512D01*
X158118999Y-87848041D01*
X158328763Y-87761570D01*
X158385611Y-87460018D01*
X158442460Y-87158466D01*
X159070115Y-87158466D01*
X159126964Y-87460018D01*
G37*
X159126964Y-87460018D02*
X159183812Y-87761570D01*
X159603338Y-87934512D01*
X159854984Y-87763395D01*
X159925458Y-87715750D01*
X159989163Y-87673210D01*
X160043126Y-87637715D01*
X160084373Y-87611210D01*
X160109934Y-87595636D01*
X160116895Y-87592278D01*
X160129435Y-87600914D01*
X160156231Y-87624792D01*
X160194280Y-87660859D01*
X160240579Y-87706067D01*
X160292123Y-87757364D01*
X160345909Y-87811701D01*
X160398935Y-87866028D01*
X160448195Y-87917295D01*
X160490687Y-87962451D01*
X160523407Y-87998446D01*
X160543351Y-88022230D01*
X160548119Y-88030190D01*
X160541257Y-88044865D01*
X160522020Y-88077014D01*
X160492430Y-88123492D01*
X160454510Y-88181156D01*
X160410282Y-88246860D01*
X160384654Y-88284336D01*
X160337941Y-88352768D01*
X160296432Y-88414520D01*
X160262140Y-88466519D01*
X160237080Y-88505692D01*
X160223264Y-88528965D01*
X160221188Y-88533855D01*
X160225895Y-88547755D01*
X160238723Y-88580150D01*
X160257738Y-88626485D01*
X160281003Y-88682206D01*
X160306584Y-88742758D01*
X160332545Y-88803586D01*
X160356950Y-88860136D01*
X160377863Y-88907852D01*
X160393349Y-88942181D01*
X160401472Y-88958568D01*
X160401952Y-88959212D01*
X160414707Y-88962341D01*
X160448677Y-88969321D01*
X160500340Y-88979467D01*
X160566176Y-88992092D01*
X160642664Y-89006509D01*
X160687290Y-89014823D01*
X160769021Y-89030384D01*
X160842843Y-89045192D01*
X160905021Y-89058436D01*
X160951822Y-89069305D01*
X160979509Y-89076989D01*
X160985074Y-89079427D01*
X160990526Y-89095930D01*
X160994924Y-89133200D01*
X160998272Y-89186880D01*
X161000574Y-89252612D01*
X161001832Y-89326037D01*
X161002048Y-89402796D01*
X161001227Y-89478532D01*
X160999371Y-89548886D01*
X160996482Y-89609500D01*
X160992565Y-89656016D01*
X160987622Y-89684075D01*
X160984657Y-89689916D01*
X160966934Y-89696917D01*
X160929381Y-89706927D01*
X160876964Y-89718769D01*
X160814652Y-89731267D01*
X160792900Y-89735310D01*
X160688024Y-89754520D01*
X160605180Y-89769991D01*
X160541630Y-89782337D01*
X160494637Y-89792173D01*
X160461463Y-89800114D01*
X160439371Y-89806776D01*
X160425624Y-89812773D01*
X160417484Y-89818719D01*
X160416345Y-89819894D01*
X160404977Y-89838826D01*
X160387635Y-89875669D01*
X160366050Y-89925913D01*
X160341954Y-89985046D01*
X160317079Y-90048556D01*
X160293157Y-90111932D01*
X160271919Y-90170662D01*
X160255097Y-90220235D01*
X160244422Y-90256139D01*
X160241627Y-90273862D01*
X160241860Y-90274483D01*
X160251331Y-90288970D01*
X160272818Y-90320844D01*
X160304063Y-90366789D01*
X160342807Y-90423485D01*
X160386793Y-90487617D01*
X160399319Y-90505842D01*
X160443984Y-90571914D01*
X160483288Y-90632200D01*
X160515088Y-90683235D01*
X160537245Y-90721560D01*
X160547617Y-90743711D01*
X160548119Y-90746432D01*
X160539405Y-90760736D01*
X160515325Y-90789072D01*
X160478976Y-90828396D01*
X160433453Y-90875661D01*
X160381852Y-90927823D01*
X160327267Y-90981835D01*
X160272794Y-91034653D01*
X160221529Y-91083231D01*
X160176567Y-91124523D01*
X160141004Y-91155485D01*
X160117935Y-91173070D01*
X160111554Y-91175941D01*
X160096699Y-91169178D01*
X160066286Y-91150939D01*
X160025268Y-91124297D01*
X159993709Y-91102852D01*
X159936525Y-91063503D01*
X159868806Y-91017171D01*
X159800880Y-90970913D01*
X159764361Y-90946155D01*
X159640752Y-90862547D01*
X159536991Y-90918650D01*
X159489720Y-90943228D01*
X159449523Y-90962331D01*
X159422326Y-90973227D01*
X159415402Y-90974743D01*
X159407077Y-90963549D01*
X159390654Y-90931917D01*
X159367357Y-90882765D01*
X159338414Y-90819010D01*
X159305050Y-90743571D01*
X159268491Y-90659364D01*
X159229964Y-90569308D01*
X159190694Y-90476321D01*
X159151908Y-90383320D01*
X159114830Y-90293223D01*
X159080689Y-90208948D01*
X159050708Y-90133413D01*
X159026116Y-90069534D01*
X159008136Y-90020231D01*
X158997997Y-89988421D01*
X158996366Y-89977496D01*
X159009291Y-89963561D01*
X159037589Y-89940940D01*
X159075346Y-89914333D01*
X159078515Y-89912228D01*
X159176100Y-89834114D01*
X159254786Y-89742982D01*
X159313891Y-89641745D01*
X159352732Y-89533318D01*
X159370628Y-89420614D01*
X159366897Y-89306548D01*
X159340857Y-89194034D01*
X159291825Y-89085985D01*
X159277400Y-89062345D01*
X159202369Y-88966887D01*
X159113730Y-88890232D01*
X159014549Y-88832780D01*
X158907895Y-88794929D01*
X158796836Y-88777078D01*
X158684439Y-88779625D01*
X158573773Y-88802970D01*
X158467906Y-88847510D01*
X158369905Y-88913645D01*
X158339590Y-88940487D01*
X158262438Y-89024512D01*
X158206218Y-89112966D01*
X158167653Y-89212115D01*
X158146174Y-89310303D01*
X158140872Y-89420697D01*
X158158552Y-89531640D01*
X158197419Y-89639381D01*
X158255677Y-89740169D01*
X158331531Y-89830256D01*
X158423183Y-89905892D01*
X158435228Y-89913864D01*
X158473389Y-89939974D01*
X158502399Y-89962595D01*
X158516268Y-89977039D01*
X158516469Y-89977496D01*
X158513492Y-89993121D01*
X158501689Y-90028582D01*
X158482286Y-90080962D01*
X158456512Y-90147345D01*
X158425591Y-90224814D01*
X158390751Y-90310450D01*
X158353217Y-90401337D01*
X158314217Y-90494559D01*
X158274977Y-90587197D01*
X158236724Y-90676335D01*
X158200683Y-90759055D01*
X158168083Y-90832441D01*
X158140148Y-90893575D01*
X158118105Y-90939541D01*
X158103182Y-90967421D01*
X158097172Y-90974743D01*
X158078809Y-90969041D01*
X158044448Y-90953749D01*
X158000016Y-90931599D01*
X157975583Y-90918650D01*
X157871822Y-90862547D01*
X157748213Y-90946155D01*
X157685114Y-90988987D01*
X157616030Y-91036122D01*
X157551293Y-91080503D01*
X157518866Y-91102852D01*
X157473259Y-91133477D01*
X157434640Y-91157747D01*
X157408048Y-91172587D01*
X157399410Y-91175724D01*
X157386839Y-91167261D01*
X157359016Y-91143636D01*
X157318639Y-91107302D01*
X157268405Y-91060711D01*
X157211012Y-91006317D01*
X157174714Y-90971392D01*
X157111210Y-90908996D01*
X157056327Y-90853188D01*
X157012286Y-90806354D01*
X156981305Y-90770882D01*
X156965602Y-90749161D01*
X156964095Y-90744752D01*
X156971086Y-90727985D01*
X156990406Y-90694082D01*
X157019909Y-90646476D01*
X157057455Y-90588599D01*
X157100900Y-90523884D01*
X157113255Y-90505842D01*
X157158273Y-90440267D01*
X157198660Y-90381228D01*
X157232160Y-90332042D01*
X157256514Y-90296028D01*
X157269464Y-90276502D01*
X157270715Y-90274483D01*
X157268844Y-90258922D01*
X157258913Y-90224709D01*
X157242653Y-90176355D01*
X157221795Y-90118371D01*
X157198073Y-90055270D01*
X157173216Y-89991563D01*
X157148958Y-89931761D01*
X157127029Y-89880376D01*
X157109162Y-89841919D01*
X157097087Y-89820902D01*
X157096229Y-89819894D01*
X157088846Y-89813888D01*
X157076375Y-89807948D01*
X157056080Y-89801460D01*
X157025222Y-89793809D01*
X156981066Y-89784380D01*
X156920874Y-89772559D01*
X156841907Y-89757729D01*
X156741430Y-89739277D01*
X156719675Y-89735310D01*
X156655198Y-89722853D01*
X156598989Y-89710666D01*
X156556013Y-89699926D01*
X156531240Y-89691809D01*
X156527918Y-89689916D01*
X156522444Y-89673138D01*
X156517994Y-89635645D01*
X156514572Y-89581794D01*
X156512181Y-89515944D01*
X156510823Y-89442453D01*
X156510501Y-89365680D01*
X156511219Y-89289983D01*
X156512979Y-89219720D01*
X156515784Y-89159250D01*
X156519638Y-89112930D01*
X156524543Y-89085119D01*
X156527500Y-89079427D01*
X156543963Y-89073686D01*
X156581449Y-89064345D01*
X156636225Y-89052215D01*
X156704555Y-89038107D01*
X156782706Y-89022830D01*
X156825284Y-89014823D01*
X156906071Y-88999721D01*
X156978113Y-88986040D01*
X157037889Y-88974467D01*
X157081879Y-88965687D01*
X157106561Y-88960387D01*
X157110623Y-88959212D01*
X157117489Y-88945965D01*
X157132002Y-88914057D01*
X157152229Y-88868047D01*
X157176234Y-88812492D01*
X157202082Y-88751953D01*
X157227840Y-88690986D01*
X157251573Y-88634151D01*
X157271346Y-88586006D01*
X157285224Y-88551110D01*
X157291274Y-88534021D01*
X157291386Y-88533274D01*
X157284528Y-88519793D01*
X157265302Y-88488770D01*
X157235728Y-88443289D01*
X157197827Y-88386432D01*
X157153620Y-88321283D01*
X157127921Y-88283862D01*
X157081093Y-88215247D01*
X157039501Y-88152952D01*
X157005175Y-88100129D01*
X156980143Y-88059927D01*
X156966435Y-88035500D01*
X156964456Y-88030024D01*
X156972966Y-88017278D01*
X156996493Y-87990063D01*
X157032032Y-87951428D01*
X157076577Y-87904423D01*
X157127123Y-87852095D01*
X157180664Y-87797495D01*
X157234195Y-87743670D01*
X157284711Y-87693670D01*
X157329206Y-87650543D01*
X157364675Y-87617339D01*
X157388113Y-87597106D01*
X157395954Y-87592278D01*
X157408720Y-87599067D01*
X157439256Y-87618142D01*
X157484590Y-87647561D01*
X157541756Y-87685381D01*
X157607784Y-87729661D01*
X157657590Y-87763395D01*
X157909236Y-87934512D01*
X158118999Y-87848041D01*
X158328763Y-87761570D01*
X158385611Y-87460018D01*
X158442460Y-87158466D01*
X159070115Y-87158466D01*
X159126964Y-87460018D01*
G36*
X160549460Y-91628030D02*
G01*
X160592711Y-91641245D01*
X160620558Y-91657941D01*
X160629629Y-91671145D01*
X160627132Y-91686797D01*
X160610931Y-91711385D01*
X160597232Y-91728800D01*
X160568992Y-91760283D01*
X160547775Y-91773529D01*
X160529688Y-91772664D01*
X160476035Y-91759010D01*
X160436630Y-91759630D01*
X160404632Y-91775104D01*
X160393890Y-91784161D01*
X160359505Y-91816027D01*
X160359505Y-92232179D01*
X160221188Y-92232179D01*
X160221188Y-91628614D01*
X160290347Y-91628614D01*
X160331869Y-91630256D01*
X160353291Y-91636087D01*
X160359502Y-91647461D01*
X160359505Y-91647798D01*
X160362439Y-91659713D01*
X160375704Y-91658159D01*
X160394084Y-91649563D01*
X160432046Y-91633568D01*
X160462872Y-91623945D01*
X160502536Y-91621478D01*
X160549460Y-91628030D01*
G37*
X160549460Y-91628030D02*
X160592711Y-91641245D01*
X160620558Y-91657941D01*
X160629629Y-91671145D01*
X160627132Y-91686797D01*
X160610931Y-91711385D01*
X160597232Y-91728800D01*
X160568992Y-91760283D01*
X160547775Y-91773529D01*
X160529688Y-91772664D01*
X160476035Y-91759010D01*
X160436630Y-91759630D01*
X160404632Y-91775104D01*
X160393890Y-91784161D01*
X160359505Y-91816027D01*
X160359505Y-92232179D01*
X160221188Y-92232179D01*
X160221188Y-91628614D01*
X160290347Y-91628614D01*
X160331869Y-91630256D01*
X160353291Y-91636087D01*
X160359502Y-91647461D01*
X160359505Y-91647798D01*
X160362439Y-91659713D01*
X160375704Y-91658159D01*
X160394084Y-91649563D01*
X160432046Y-91633568D01*
X160462872Y-91623945D01*
X160502536Y-91621478D01*
X160549460Y-91628030D01*
G36*
X157995988Y-91639002D02*
G01*
X158027283Y-91653950D01*
X158057591Y-91675541D01*
X158080682Y-91700391D01*
X158097500Y-91732087D01*
X158108994Y-91774214D01*
X158116109Y-91830358D01*
X158119793Y-91904106D01*
X158120992Y-91999044D01*
X158121011Y-92008985D01*
X158121287Y-92232179D01*
X157982970Y-92232179D01*
X157982970Y-92026418D01*
X157982872Y-91950189D01*
X157982191Y-91894939D01*
X157980349Y-91856501D01*
X157976767Y-91830706D01*
X157970868Y-91813384D01*
X157962073Y-91800368D01*
X157949820Y-91787507D01*
X157906953Y-91759873D01*
X157860157Y-91754745D01*
X157815576Y-91772217D01*
X157800072Y-91785221D01*
X157788690Y-91797447D01*
X157780519Y-91810540D01*
X157775026Y-91828615D01*
X157771680Y-91855787D01*
X157769949Y-91896170D01*
X157769303Y-91953879D01*
X157769208Y-92024132D01*
X157769208Y-92232179D01*
X157630891Y-92232179D01*
X157630891Y-91628614D01*
X157700050Y-91628614D01*
X157741572Y-91630256D01*
X157762994Y-91636087D01*
X157769205Y-91647461D01*
X157769208Y-91647798D01*
X157772090Y-91658938D01*
X157784801Y-91657674D01*
X157810074Y-91645434D01*
X157867395Y-91627424D01*
X157932963Y-91625421D01*
X157995988Y-91639002D01*
G37*
X157995988Y-91639002D02*
X158027283Y-91653950D01*
X158057591Y-91675541D01*
X158080682Y-91700391D01*
X158097500Y-91732087D01*
X158108994Y-91774214D01*
X158116109Y-91830358D01*
X158119793Y-91904106D01*
X158120992Y-91999044D01*
X158121011Y-92008985D01*
X158121287Y-92232179D01*
X157982970Y-92232179D01*
X157982970Y-92026418D01*
X157982872Y-91950189D01*
X157982191Y-91894939D01*
X157980349Y-91856501D01*
X157976767Y-91830706D01*
X157970868Y-91813384D01*
X157962073Y-91800368D01*
X157949820Y-91787507D01*
X157906953Y-91759873D01*
X157860157Y-91754745D01*
X157815576Y-91772217D01*
X157800072Y-91785221D01*
X157788690Y-91797447D01*
X157780519Y-91810540D01*
X157775026Y-91828615D01*
X157771680Y-91855787D01*
X157769949Y-91896170D01*
X157769303Y-91953879D01*
X157769208Y-92024132D01*
X157769208Y-92232179D01*
X157630891Y-92232179D01*
X157630891Y-91628614D01*
X157700050Y-91628614D01*
X157741572Y-91630256D01*
X157762994Y-91636087D01*
X157769205Y-91647461D01*
X157769208Y-91647798D01*
X157772090Y-91658938D01*
X157784801Y-91657674D01*
X157810074Y-91645434D01*
X157867395Y-91627424D01*
X157932963Y-91625421D01*
X157995988Y-91639002D01*
G36*
X161427898Y-91626457D02*
G01*
X161460096Y-91634279D01*
X161521825Y-91662921D01*
X161574610Y-91706667D01*
X161611141Y-91759117D01*
X161616160Y-91770893D01*
X161623045Y-91801740D01*
X161627864Y-91847371D01*
X161629505Y-91893492D01*
X161629505Y-91980693D01*
X161447178Y-91980693D01*
X161371979Y-91980978D01*
X161319003Y-91982704D01*
X161285325Y-91987181D01*
X161268020Y-91995720D01*
X161264163Y-92009630D01*
X161270829Y-92030222D01*
X161282770Y-92054315D01*
X161316080Y-92094525D01*
X161362368Y-92114558D01*
X161418944Y-92113905D01*
X161483031Y-92092101D01*
X161538417Y-92065193D01*
X161584375Y-92101532D01*
X161630333Y-92137872D01*
X161587096Y-92177819D01*
X161529374Y-92215563D01*
X161458386Y-92238320D01*
X161382029Y-92244688D01*
X161308199Y-92233268D01*
X161296287Y-92229393D01*
X161231399Y-92195506D01*
X161183130Y-92144986D01*
X161150465Y-92076325D01*
X161132385Y-91988014D01*
X161132175Y-91986121D01*
X161130556Y-91889878D01*
X161137100Y-91855542D01*
X161264852Y-91855542D01*
X161276584Y-91860822D01*
X161308438Y-91864867D01*
X161355397Y-91867176D01*
X161385154Y-91867525D01*
X161440648Y-91867306D01*
X161475346Y-91865916D01*
X161493601Y-91862251D01*
X161499766Y-91855210D01*
X161498195Y-91843690D01*
X161496878Y-91839233D01*
X161474382Y-91797355D01*
X161439003Y-91763604D01*
X161407780Y-91748773D01*
X161366301Y-91749668D01*
X161324269Y-91768164D01*
X161289012Y-91798786D01*
X161267854Y-91836062D01*
X161264852Y-91855542D01*
X161137100Y-91855542D01*
X161146690Y-91805229D01*
X161178698Y-91734191D01*
X161224701Y-91678779D01*
X161282821Y-91641009D01*
X161351180Y-91622896D01*
X161427898Y-91626457D01*
G37*
X161427898Y-91626457D02*
X161460096Y-91634279D01*
X161521825Y-91662921D01*
X161574610Y-91706667D01*
X161611141Y-91759117D01*
X161616160Y-91770893D01*
X161623045Y-91801740D01*
X161627864Y-91847371D01*
X161629505Y-91893492D01*
X161629505Y-91980693D01*
X161447178Y-91980693D01*
X161371979Y-91980978D01*
X161319003Y-91982704D01*
X161285325Y-91987181D01*
X161268020Y-91995720D01*
X161264163Y-92009630D01*
X161270829Y-92030222D01*
X161282770Y-92054315D01*
X161316080Y-92094525D01*
X161362368Y-92114558D01*
X161418944Y-92113905D01*
X161483031Y-92092101D01*
X161538417Y-92065193D01*
X161584375Y-92101532D01*
X161630333Y-92137872D01*
X161587096Y-92177819D01*
X161529374Y-92215563D01*
X161458386Y-92238320D01*
X161382029Y-92244688D01*
X161308199Y-92233268D01*
X161296287Y-92229393D01*
X161231399Y-92195506D01*
X161183130Y-92144986D01*
X161150465Y-92076325D01*
X161132385Y-91988014D01*
X161132175Y-91986121D01*
X161130556Y-91889878D01*
X161137100Y-91855542D01*
X161264852Y-91855542D01*
X161276584Y-91860822D01*
X161308438Y-91864867D01*
X161355397Y-91867176D01*
X161385154Y-91867525D01*
X161440648Y-91867306D01*
X161475346Y-91865916D01*
X161493601Y-91862251D01*
X161499766Y-91855210D01*
X161498195Y-91843690D01*
X161496878Y-91839233D01*
X161474382Y-91797355D01*
X161439003Y-91763604D01*
X161407780Y-91748773D01*
X161366301Y-91749668D01*
X161324269Y-91768164D01*
X161289012Y-91798786D01*
X161267854Y-91836062D01*
X161264852Y-91855542D01*
X161137100Y-91855542D01*
X161146690Y-91805229D01*
X161178698Y-91734191D01*
X161224701Y-91678779D01*
X161282821Y-91641009D01*
X161351180Y-91622896D01*
X161427898Y-91626457D01*
G36*
X160967226Y-91633880D02*
G01*
X161040080Y-91664830D01*
X161063027Y-91679895D01*
X161092354Y-91703048D01*
X161110764Y-91721253D01*
X161113961Y-91727183D01*
X161104935Y-91740340D01*
X161081837Y-91762667D01*
X161063344Y-91778250D01*
X161012728Y-91818926D01*
X160972760Y-91785295D01*
X160941874Y-91763584D01*
X160911759Y-91756090D01*
X160877292Y-91757920D01*
X160822561Y-91771528D01*
X160784886Y-91799772D01*
X160761991Y-91845433D01*
X160751597Y-91911289D01*
X160751595Y-91911331D01*
X160752494Y-91984939D01*
X160766463Y-92038946D01*
X160794328Y-92075716D01*
X160813325Y-92088168D01*
X160863776Y-92103673D01*
X160917663Y-92103683D01*
X160964546Y-92088638D01*
X160975644Y-92081287D01*
X161003476Y-92062511D01*
X161025236Y-92059434D01*
X161048704Y-92073409D01*
X161074649Y-92098510D01*
X161115716Y-92140880D01*
X161070121Y-92178464D01*
X160999674Y-92220882D01*
X160920233Y-92241785D01*
X160837215Y-92240272D01*
X160782694Y-92226411D01*
X160718970Y-92192135D01*
X160668005Y-92138212D01*
X160644851Y-92100149D01*
X160626099Y-92045536D01*
X160616715Y-91976369D01*
X160616643Y-91901407D01*
X160625824Y-91829409D01*
X160644199Y-91769137D01*
X160647093Y-91762958D01*
X160689952Y-91702351D01*
X160747979Y-91658224D01*
X160816591Y-91631493D01*
X160891201Y-91623073D01*
X160967226Y-91633880D01*
G37*
X160967226Y-91633880D02*
X161040080Y-91664830D01*
X161063027Y-91679895D01*
X161092354Y-91703048D01*
X161110764Y-91721253D01*
X161113961Y-91727183D01*
X161104935Y-91740340D01*
X161081837Y-91762667D01*
X161063344Y-91778250D01*
X161012728Y-91818926D01*
X160972760Y-91785295D01*
X160941874Y-91763584D01*
X160911759Y-91756090D01*
X160877292Y-91757920D01*
X160822561Y-91771528D01*
X160784886Y-91799772D01*
X160761991Y-91845433D01*
X160751597Y-91911289D01*
X160751595Y-91911331D01*
X160752494Y-91984939D01*
X160766463Y-92038946D01*
X160794328Y-92075716D01*
X160813325Y-92088168D01*
X160863776Y-92103673D01*
X160917663Y-92103683D01*
X160964546Y-92088638D01*
X160975644Y-92081287D01*
X161003476Y-92062511D01*
X161025236Y-92059434D01*
X161048704Y-92073409D01*
X161074649Y-92098510D01*
X161115716Y-92140880D01*
X161070121Y-92178464D01*
X160999674Y-92220882D01*
X160920233Y-92241785D01*
X160837215Y-92240272D01*
X160782694Y-92226411D01*
X160718970Y-92192135D01*
X160668005Y-92138212D01*
X160644851Y-92100149D01*
X160626099Y-92045536D01*
X160616715Y-91976369D01*
X160616643Y-91901407D01*
X160625824Y-91829409D01*
X160644199Y-91769137D01*
X160647093Y-91762958D01*
X160689952Y-91702351D01*
X160747979Y-91658224D01*
X160816591Y-91631493D01*
X160891201Y-91623073D01*
X160967226Y-91633880D01*
G36*
X159743367Y-91824342D02*
G01*
X159744555Y-91916563D01*
X159748897Y-91986610D01*
X159757558Y-92037381D01*
X159771704Y-92071772D01*
X159792500Y-92092679D01*
X159821110Y-92103000D01*
X159856535Y-92105636D01*
X159893636Y-92102682D01*
X159921818Y-92091889D01*
X159942243Y-92070360D01*
X159956079Y-92035199D01*
X159964491Y-91983510D01*
X159968643Y-91912394D01*
X159969703Y-91824342D01*
X159969703Y-91628614D01*
X160108020Y-91628614D01*
X160108020Y-92232179D01*
X160038862Y-92232179D01*
X159997170Y-92230489D01*
X159975701Y-92224556D01*
X159969703Y-92213293D01*
X159966091Y-92203261D01*
X159951714Y-92205383D01*
X159922736Y-92219580D01*
X159856319Y-92241480D01*
X159785875Y-92239928D01*
X159718377Y-92216147D01*
X159686233Y-92197362D01*
X159661715Y-92177022D01*
X159643804Y-92151573D01*
X159631479Y-92117458D01*
X159623723Y-92071121D01*
X159619516Y-92009007D01*
X159617840Y-91927561D01*
X159617624Y-91864578D01*
X159617624Y-91628614D01*
X159743367Y-91628614D01*
X159743367Y-91824342D01*
G37*
X159743367Y-91824342D02*
X159744555Y-91916563D01*
X159748897Y-91986610D01*
X159757558Y-92037381D01*
X159771704Y-92071772D01*
X159792500Y-92092679D01*
X159821110Y-92103000D01*
X159856535Y-92105636D01*
X159893636Y-92102682D01*
X159921818Y-92091889D01*
X159942243Y-92070360D01*
X159956079Y-92035199D01*
X159964491Y-91983510D01*
X159968643Y-91912394D01*
X159969703Y-91824342D01*
X159969703Y-91628614D01*
X160108020Y-91628614D01*
X160108020Y-92232179D01*
X160038862Y-92232179D01*
X159997170Y-92230489D01*
X159975701Y-92224556D01*
X159969703Y-92213293D01*
X159966091Y-92203261D01*
X159951714Y-92205383D01*
X159922736Y-92219580D01*
X159856319Y-92241480D01*
X159785875Y-92239928D01*
X159718377Y-92216147D01*
X159686233Y-92197362D01*
X159661715Y-92177022D01*
X159643804Y-92151573D01*
X159631479Y-92117458D01*
X159623723Y-92071121D01*
X159619516Y-92009007D01*
X159617840Y-91927561D01*
X159617624Y-91864578D01*
X159617624Y-91628614D01*
X159743367Y-91628614D01*
X159743367Y-91824342D01*
G36*
X159360762Y-91636055D02*
G01*
X159424363Y-91670692D01*
X159474123Y-91725372D01*
X159497568Y-91769842D01*
X159507634Y-91809121D01*
X159514156Y-91865116D01*
X159516951Y-91929621D01*
X159515836Y-91994429D01*
X159510626Y-92051334D01*
X159504541Y-92081727D01*
X159484014Y-92123306D01*
X159448463Y-92167468D01*
X159405619Y-92206087D01*
X159363211Y-92231034D01*
X159362177Y-92231430D01*
X159309553Y-92242331D01*
X159247188Y-92242601D01*
X159187924Y-92232676D01*
X159165040Y-92224722D01*
X159106102Y-92191300D01*
X159063890Y-92147511D01*
X159036156Y-92089538D01*
X159020651Y-92013565D01*
X159017143Y-91973771D01*
X159017590Y-91923766D01*
X159152376Y-91923766D01*
X159156917Y-91996732D01*
X159169986Y-92052334D01*
X159190756Y-92087861D01*
X159205552Y-92098020D01*
X159243464Y-92105104D01*
X159288527Y-92103007D01*
X159327487Y-92092812D01*
X159337704Y-92087204D01*
X159364659Y-92054538D01*
X159382451Y-92004545D01*
X159390024Y-91943705D01*
X159386325Y-91878497D01*
X159378057Y-91839253D01*
X159354320Y-91793805D01*
X159316849Y-91765396D01*
X159271720Y-91755573D01*
X159225011Y-91765887D01*
X159189132Y-91791112D01*
X159170277Y-91811925D01*
X159159272Y-91832439D01*
X159154026Y-91860203D01*
X159152449Y-91902762D01*
X159152376Y-91923766D01*
X159017590Y-91923766D01*
X159018094Y-91867580D01*
X159035388Y-91780501D01*
X159069029Y-91712530D01*
X159119018Y-91663664D01*
X159185356Y-91633899D01*
X159199601Y-91630448D01*
X159285210Y-91622345D01*
X159360762Y-91636055D01*
G37*
X159360762Y-91636055D02*
X159424363Y-91670692D01*
X159474123Y-91725372D01*
X159497568Y-91769842D01*
X159507634Y-91809121D01*
X159514156Y-91865116D01*
X159516951Y-91929621D01*
X159515836Y-91994429D01*
X159510626Y-92051334D01*
X159504541Y-92081727D01*
X159484014Y-92123306D01*
X159448463Y-92167468D01*
X159405619Y-92206087D01*
X159363211Y-92231034D01*
X159362177Y-92231430D01*
X159309553Y-92242331D01*
X159247188Y-92242601D01*
X159187924Y-92232676D01*
X159165040Y-92224722D01*
X159106102Y-92191300D01*
X159063890Y-92147511D01*
X159036156Y-92089538D01*
X159020651Y-92013565D01*
X159017143Y-91973771D01*
X159017590Y-91923766D01*
X159152376Y-91923766D01*
X159156917Y-91996732D01*
X159169986Y-92052334D01*
X159190756Y-92087861D01*
X159205552Y-92098020D01*
X159243464Y-92105104D01*
X159288527Y-92103007D01*
X159327487Y-92092812D01*
X159337704Y-92087204D01*
X159364659Y-92054538D01*
X159382451Y-92004545D01*
X159390024Y-91943705D01*
X159386325Y-91878497D01*
X159378057Y-91839253D01*
X159354320Y-91793805D01*
X159316849Y-91765396D01*
X159271720Y-91755573D01*
X159225011Y-91765887D01*
X159189132Y-91791112D01*
X159170277Y-91811925D01*
X159159272Y-91832439D01*
X159154026Y-91860203D01*
X159152449Y-91902762D01*
X159152376Y-91923766D01*
X159017590Y-91923766D01*
X159018094Y-91867580D01*
X159035388Y-91780501D01*
X159069029Y-91712530D01*
X159119018Y-91663664D01*
X159185356Y-91633899D01*
X159199601Y-91630448D01*
X159285210Y-91622345D01*
X159360762Y-91636055D01*
G36*
X158764017Y-91626452D02*
G01*
X158811634Y-91635482D01*
X158861034Y-91654370D01*
X158866312Y-91656777D01*
X158903774Y-91676476D01*
X158929717Y-91694781D01*
X158938103Y-91706508D01*
X158930117Y-91725632D01*
X158910720Y-91753850D01*
X158902110Y-91764384D01*
X158866628Y-91805847D01*
X158820885Y-91778858D01*
X158777350Y-91760878D01*
X158727050Y-91751267D01*
X158678812Y-91750660D01*
X158641467Y-91759691D01*
X158632505Y-91765327D01*
X158615437Y-91791171D01*
X158613363Y-91820941D01*
X158626134Y-91844197D01*
X158633688Y-91848708D01*
X158656325Y-91854309D01*
X158696115Y-91860892D01*
X158745166Y-91867183D01*
X158754215Y-91868170D01*
X158832996Y-91881798D01*
X158890136Y-91904946D01*
X158928030Y-91939752D01*
X158949079Y-91988354D01*
X158955635Y-92047718D01*
X158946577Y-92115198D01*
X158917164Y-92168188D01*
X158867278Y-92206783D01*
X158796800Y-92231081D01*
X158718565Y-92240667D01*
X158654766Y-92240552D01*
X158603016Y-92231845D01*
X158567673Y-92219825D01*
X158523017Y-92198880D01*
X158481747Y-92174574D01*
X158467079Y-92163876D01*
X158429357Y-92133084D01*
X158474852Y-92087049D01*
X158520347Y-92041013D01*
X158572072Y-92075243D01*
X158623952Y-92100952D01*
X158679351Y-92114399D01*
X158732605Y-92115818D01*
X158778049Y-92105443D01*
X158810016Y-92083507D01*
X158820338Y-92064998D01*
X158818789Y-92035314D01*
X158793140Y-92012615D01*
X158743460Y-91996940D01*
X158689031Y-91989695D01*
X158605264Y-91975873D01*
X158543033Y-91949796D01*
X158501507Y-91910699D01*
X158479853Y-91857820D01*
X158476853Y-91795126D01*
X158491671Y-91729642D01*
X158525454Y-91680144D01*
X158578505Y-91646408D01*
X158651126Y-91628207D01*
X158704928Y-91624639D01*
X158764017Y-91626452D01*
G37*
X158764017Y-91626452D02*
X158811634Y-91635482D01*
X158861034Y-91654370D01*
X158866312Y-91656777D01*
X158903774Y-91676476D01*
X158929717Y-91694781D01*
X158938103Y-91706508D01*
X158930117Y-91725632D01*
X158910720Y-91753850D01*
X158902110Y-91764384D01*
X158866628Y-91805847D01*
X158820885Y-91778858D01*
X158777350Y-91760878D01*
X158727050Y-91751267D01*
X158678812Y-91750660D01*
X158641467Y-91759691D01*
X158632505Y-91765327D01*
X158615437Y-91791171D01*
X158613363Y-91820941D01*
X158626134Y-91844197D01*
X158633688Y-91848708D01*
X158656325Y-91854309D01*
X158696115Y-91860892D01*
X158745166Y-91867183D01*
X158754215Y-91868170D01*
X158832996Y-91881798D01*
X158890136Y-91904946D01*
X158928030Y-91939752D01*
X158949079Y-91988354D01*
X158955635Y-92047718D01*
X158946577Y-92115198D01*
X158917164Y-92168188D01*
X158867278Y-92206783D01*
X158796800Y-92231081D01*
X158718565Y-92240667D01*
X158654766Y-92240552D01*
X158603016Y-92231845D01*
X158567673Y-92219825D01*
X158523017Y-92198880D01*
X158481747Y-92174574D01*
X158467079Y-92163876D01*
X158429357Y-92133084D01*
X158474852Y-92087049D01*
X158520347Y-92041013D01*
X158572072Y-92075243D01*
X158623952Y-92100952D01*
X158679351Y-92114399D01*
X158732605Y-92115818D01*
X158778049Y-92105443D01*
X158810016Y-92083507D01*
X158820338Y-92064998D01*
X158818789Y-92035314D01*
X158793140Y-92012615D01*
X158743460Y-91996940D01*
X158689031Y-91989695D01*
X158605264Y-91975873D01*
X158543033Y-91949796D01*
X158501507Y-91910699D01*
X158479853Y-91857820D01*
X158476853Y-91795126D01*
X158491671Y-91729642D01*
X158525454Y-91680144D01*
X158578505Y-91646408D01*
X158651126Y-91628207D01*
X158704928Y-91624639D01*
X158764017Y-91626452D01*
G36*
X157393301Y-91642614D02*
G01*
X157405832Y-91648514D01*
X157449201Y-91680283D01*
X157490210Y-91726646D01*
X157520832Y-91777696D01*
X157529541Y-91801166D01*
X157537488Y-91843091D01*
X157542226Y-91893757D01*
X157542801Y-91914679D01*
X157542871Y-91980693D01*
X157162917Y-91980693D01*
X157171017Y-92015273D01*
X157190896Y-92056170D01*
X157225653Y-92091514D01*
X157267002Y-92114282D01*
X157293351Y-92119010D01*
X157329084Y-92113273D01*
X157371718Y-92098882D01*
X157386201Y-92092262D01*
X157439760Y-92065513D01*
X157485467Y-92100376D01*
X157511842Y-92123955D01*
X157525876Y-92143417D01*
X157526586Y-92149129D01*
X157514049Y-92162973D01*
X157486572Y-92184012D01*
X157461634Y-92200425D01*
X157394336Y-92229930D01*
X157318890Y-92243284D01*
X157244112Y-92239812D01*
X157184505Y-92221663D01*
X157123059Y-92182784D01*
X157079392Y-92131595D01*
X157052074Y-92065367D01*
X157039678Y-91981371D01*
X157038579Y-91942936D01*
X157042978Y-91854861D01*
X157043518Y-91852299D01*
X157169418Y-91852299D01*
X157172885Y-91860558D01*
X157187137Y-91865113D01*
X157216530Y-91867065D01*
X157265425Y-91867517D01*
X157284252Y-91867525D01*
X157341533Y-91866843D01*
X157377859Y-91864364D01*
X157397396Y-91859443D01*
X157404310Y-91851434D01*
X157404555Y-91848862D01*
X157396664Y-91828423D01*
X157376915Y-91799789D01*
X157368425Y-91789763D01*
X157336906Y-91761408D01*
X157304051Y-91750259D01*
X157286349Y-91749327D01*
X157238461Y-91760981D01*
X157198301Y-91792285D01*
X157172827Y-91837752D01*
X157172375Y-91839233D01*
X157169418Y-91852299D01*
X157043518Y-91852299D01*
X157057608Y-91785510D01*
X157083962Y-91730025D01*
X157116193Y-91690639D01*
X157175783Y-91647931D01*
X157245832Y-91625109D01*
X157320339Y-91623046D01*
X157393301Y-91642614D01*
G37*
X157393301Y-91642614D02*
X157405832Y-91648514D01*
X157449201Y-91680283D01*
X157490210Y-91726646D01*
X157520832Y-91777696D01*
X157529541Y-91801166D01*
X157537488Y-91843091D01*
X157542226Y-91893757D01*
X157542801Y-91914679D01*
X157542871Y-91980693D01*
X157162917Y-91980693D01*
X157171017Y-92015273D01*
X157190896Y-92056170D01*
X157225653Y-92091514D01*
X157267002Y-92114282D01*
X157293351Y-92119010D01*
X157329084Y-92113273D01*
X157371718Y-92098882D01*
X157386201Y-92092262D01*
X157439760Y-92065513D01*
X157485467Y-92100376D01*
X157511842Y-92123955D01*
X157525876Y-92143417D01*
X157526586Y-92149129D01*
X157514049Y-92162973D01*
X157486572Y-92184012D01*
X157461634Y-92200425D01*
X157394336Y-92229930D01*
X157318890Y-92243284D01*
X157244112Y-92239812D01*
X157184505Y-92221663D01*
X157123059Y-92182784D01*
X157079392Y-92131595D01*
X157052074Y-92065367D01*
X157039678Y-91981371D01*
X157038579Y-91942936D01*
X157042978Y-91854861D01*
X157043518Y-91852299D01*
X157169418Y-91852299D01*
X157172885Y-91860558D01*
X157187137Y-91865113D01*
X157216530Y-91867065D01*
X157265425Y-91867517D01*
X157284252Y-91867525D01*
X157341533Y-91866843D01*
X157377859Y-91864364D01*
X157397396Y-91859443D01*
X157404310Y-91851434D01*
X157404555Y-91848862D01*
X157396664Y-91828423D01*
X157376915Y-91799789D01*
X157368425Y-91789763D01*
X157336906Y-91761408D01*
X157304051Y-91750259D01*
X157286349Y-91749327D01*
X157238461Y-91760981D01*
X157198301Y-91792285D01*
X157172827Y-91837752D01*
X157172375Y-91839233D01*
X157169418Y-91852299D01*
X157043518Y-91852299D01*
X157057608Y-91785510D01*
X157083962Y-91730025D01*
X157116193Y-91690639D01*
X157175783Y-91647931D01*
X157245832Y-91625109D01*
X157320339Y-91623046D01*
X157393301Y-91642614D01*
G36*
X156211739Y-91635148D02*
G01*
X156277521Y-91664231D01*
X156327460Y-91712793D01*
X156361626Y-91780908D01*
X156380093Y-91868651D01*
X156381417Y-91882351D01*
X156382454Y-91978939D01*
X156369007Y-92063602D01*
X156341892Y-92132221D01*
X156327373Y-92154294D01*
X156276799Y-92201011D01*
X156212391Y-92231268D01*
X156140334Y-92243824D01*
X156066815Y-92237439D01*
X156010928Y-92217772D01*
X155962868Y-92184629D01*
X155923588Y-92141175D01*
X155922908Y-92140158D01*
X155906956Y-92113338D01*
X155896590Y-92086368D01*
X155890312Y-92052332D01*
X155886627Y-92004310D01*
X155885003Y-91964931D01*
X155884328Y-91929219D01*
X156010045Y-91929219D01*
X156011274Y-91964770D01*
X156015734Y-92012094D01*
X156023603Y-92042465D01*
X156037793Y-92064072D01*
X156051083Y-92076694D01*
X156098198Y-92103122D01*
X156147495Y-92106653D01*
X156193407Y-92087639D01*
X156216362Y-92066331D01*
X156232904Y-92044859D01*
X156242579Y-92024313D01*
X156246826Y-91997574D01*
X156247080Y-91957523D01*
X156245772Y-91920638D01*
X156242957Y-91867947D01*
X156238495Y-91833772D01*
X156230452Y-91811480D01*
X156216897Y-91794442D01*
X156206155Y-91784703D01*
X156161223Y-91759123D01*
X156112751Y-91757847D01*
X156072106Y-91772999D01*
X156037433Y-91804642D01*
X156016776Y-91856620D01*
X156010045Y-91929219D01*
X155884328Y-91929219D01*
X155883521Y-91886621D01*
X155886052Y-91828056D01*
X155893638Y-91784007D01*
X155907319Y-91749248D01*
X155928135Y-91718551D01*
X155935853Y-91709436D01*
X155984111Y-91664021D01*
X156035872Y-91637493D01*
X156099172Y-91626379D01*
X156130039Y-91625471D01*
X156211739Y-91635148D01*
G37*
X156211739Y-91635148D02*
X156277521Y-91664231D01*
X156327460Y-91712793D01*
X156361626Y-91780908D01*
X156380093Y-91868651D01*
X156381417Y-91882351D01*
X156382454Y-91978939D01*
X156369007Y-92063602D01*
X156341892Y-92132221D01*
X156327373Y-92154294D01*
X156276799Y-92201011D01*
X156212391Y-92231268D01*
X156140334Y-92243824D01*
X156066815Y-92237439D01*
X156010928Y-92217772D01*
X155962868Y-92184629D01*
X155923588Y-92141175D01*
X155922908Y-92140158D01*
X155906956Y-92113338D01*
X155896590Y-92086368D01*
X155890312Y-92052332D01*
X155886627Y-92004310D01*
X155885003Y-91964931D01*
X155884328Y-91929219D01*
X156010045Y-91929219D01*
X156011274Y-91964770D01*
X156015734Y-92012094D01*
X156023603Y-92042465D01*
X156037793Y-92064072D01*
X156051083Y-92076694D01*
X156098198Y-92103122D01*
X156147495Y-92106653D01*
X156193407Y-92087639D01*
X156216362Y-92066331D01*
X156232904Y-92044859D01*
X156242579Y-92024313D01*
X156246826Y-91997574D01*
X156247080Y-91957523D01*
X156245772Y-91920638D01*
X156242957Y-91867947D01*
X156238495Y-91833772D01*
X156230452Y-91811480D01*
X156216897Y-91794442D01*
X156206155Y-91784703D01*
X156161223Y-91759123D01*
X156112751Y-91757847D01*
X156072106Y-91772999D01*
X156037433Y-91804642D01*
X156016776Y-91856620D01*
X156010045Y-91929219D01*
X155884328Y-91929219D01*
X155883521Y-91886621D01*
X155886052Y-91828056D01*
X155893638Y-91784007D01*
X155907319Y-91749248D01*
X155928135Y-91718551D01*
X155935853Y-91709436D01*
X155984111Y-91664021D01*
X156035872Y-91637493D01*
X156099172Y-91626379D01*
X156130039Y-91625471D01*
X156211739Y-91635148D01*
G36*
X160782581Y-92574970D02*
G01*
X160842685Y-92590597D01*
X160893021Y-92622848D01*
X160917393Y-92646940D01*
X160957345Y-92703895D01*
X160980242Y-92769965D01*
X160988108Y-92851182D01*
X160988148Y-92857748D01*
X160988218Y-92923763D01*
X160608264Y-92923763D01*
X160616363Y-92958342D01*
X160630987Y-92989659D01*
X160656581Y-93022291D01*
X160661935Y-93027500D01*
X160707943Y-93055694D01*
X160760410Y-93060475D01*
X160820803Y-93041926D01*
X160831040Y-93036931D01*
X160862439Y-93021745D01*
X160883470Y-93013094D01*
X160887139Y-93012293D01*
X160899948Y-93020063D01*
X160924378Y-93039072D01*
X160936779Y-93049460D01*
X160962476Y-93073321D01*
X160970915Y-93089077D01*
X160965058Y-93103571D01*
X160961928Y-93107534D01*
X160940725Y-93124879D01*
X160905738Y-93145959D01*
X160881337Y-93158265D01*
X160812072Y-93179946D01*
X160735388Y-93186971D01*
X160662765Y-93178647D01*
X160642426Y-93172686D01*
X160579476Y-93138952D01*
X160532815Y-93087045D01*
X160502173Y-93016459D01*
X160487282Y-92926692D01*
X160485647Y-92879753D01*
X160490421Y-92811413D01*
X160610990Y-92811413D01*
X160622652Y-92816465D01*
X160653998Y-92820429D01*
X160699571Y-92822768D01*
X160730446Y-92823169D01*
X160785981Y-92822783D01*
X160821033Y-92820975D01*
X160840262Y-92816773D01*
X160848330Y-92809203D01*
X160849901Y-92798218D01*
X160839121Y-92764381D01*
X160811980Y-92730940D01*
X160776277Y-92705272D01*
X160740560Y-92694772D01*
X160692048Y-92704086D01*
X160650053Y-92731013D01*
X160620936Y-92769827D01*
X160610990Y-92811413D01*
X160490421Y-92811413D01*
X160492599Y-92780236D01*
X160514055Y-92700949D01*
X160550470Y-92641263D01*
X160602297Y-92600549D01*
X160669990Y-92578179D01*
X160706662Y-92573871D01*
X160782581Y-92574970D01*
G37*
X160782581Y-92574970D02*
X160842685Y-92590597D01*
X160893021Y-92622848D01*
X160917393Y-92646940D01*
X160957345Y-92703895D01*
X160980242Y-92769965D01*
X160988108Y-92851182D01*
X160988148Y-92857748D01*
X160988218Y-92923763D01*
X160608264Y-92923763D01*
X160616363Y-92958342D01*
X160630987Y-92989659D01*
X160656581Y-93022291D01*
X160661935Y-93027500D01*
X160707943Y-93055694D01*
X160760410Y-93060475D01*
X160820803Y-93041926D01*
X160831040Y-93036931D01*
X160862439Y-93021745D01*
X160883470Y-93013094D01*
X160887139Y-93012293D01*
X160899948Y-93020063D01*
X160924378Y-93039072D01*
X160936779Y-93049460D01*
X160962476Y-93073321D01*
X160970915Y-93089077D01*
X160965058Y-93103571D01*
X160961928Y-93107534D01*
X160940725Y-93124879D01*
X160905738Y-93145959D01*
X160881337Y-93158265D01*
X160812072Y-93179946D01*
X160735388Y-93186971D01*
X160662765Y-93178647D01*
X160642426Y-93172686D01*
X160579476Y-93138952D01*
X160532815Y-93087045D01*
X160502173Y-93016459D01*
X160487282Y-92926692D01*
X160485647Y-92879753D01*
X160490421Y-92811413D01*
X160610990Y-92811413D01*
X160622652Y-92816465D01*
X160653998Y-92820429D01*
X160699571Y-92822768D01*
X160730446Y-92823169D01*
X160785981Y-92822783D01*
X160821033Y-92820975D01*
X160840262Y-92816773D01*
X160848330Y-92809203D01*
X160849901Y-92798218D01*
X160839121Y-92764381D01*
X160811980Y-92730940D01*
X160776277Y-92705272D01*
X160740560Y-92694772D01*
X160692048Y-92704086D01*
X160650053Y-92731013D01*
X160620936Y-92769827D01*
X160610990Y-92811413D01*
X160490421Y-92811413D01*
X160492599Y-92780236D01*
X160514055Y-92700949D01*
X160550470Y-92641263D01*
X160602297Y-92600549D01*
X160669990Y-92578179D01*
X160706662Y-92573871D01*
X160782581Y-92574970D01*
G36*
X160385255Y-92571486D02*
G01*
X160433595Y-92581015D01*
X160461114Y-92595125D01*
X160490064Y-92618568D01*
X160448876Y-92670571D01*
X160423482Y-92702064D01*
X160406238Y-92717428D01*
X160389102Y-92719776D01*
X160364027Y-92712217D01*
X160352257Y-92707941D01*
X160304270Y-92701631D01*
X160260324Y-92715156D01*
X160228060Y-92745710D01*
X160222819Y-92755452D01*
X160217112Y-92781258D01*
X160212706Y-92828817D01*
X160209811Y-92894758D01*
X160208631Y-92975710D01*
X160208614Y-92987226D01*
X160208614Y-93187822D01*
X160070297Y-93187822D01*
X160070297Y-92571683D01*
X160139456Y-92571683D01*
X160179333Y-92572725D01*
X160200107Y-92577358D01*
X160207789Y-92587849D01*
X160208614Y-92597745D01*
X160208614Y-92623806D01*
X160241745Y-92597745D01*
X160279735Y-92579965D01*
X160330770Y-92571174D01*
X160385255Y-92571486D01*
G37*
X160385255Y-92571486D02*
X160433595Y-92581015D01*
X160461114Y-92595125D01*
X160490064Y-92618568D01*
X160448876Y-92670571D01*
X160423482Y-92702064D01*
X160406238Y-92717428D01*
X160389102Y-92719776D01*
X160364027Y-92712217D01*
X160352257Y-92707941D01*
X160304270Y-92701631D01*
X160260324Y-92715156D01*
X160228060Y-92745710D01*
X160222819Y-92755452D01*
X160217112Y-92781258D01*
X160212706Y-92828817D01*
X160209811Y-92894758D01*
X160208631Y-92975710D01*
X160208614Y-92987226D01*
X160208614Y-93187822D01*
X160070297Y-93187822D01*
X160070297Y-92571683D01*
X160139456Y-92571683D01*
X160179333Y-92572725D01*
X160200107Y-92577358D01*
X160207789Y-92587849D01*
X160208614Y-92597745D01*
X160208614Y-92623806D01*
X160241745Y-92597745D01*
X160279735Y-92579965D01*
X160330770Y-92571174D01*
X160385255Y-92571486D01*
G36*
X159788411Y-92575417D02*
G01*
X159841411Y-92588290D01*
X159856731Y-92595110D01*
X159886428Y-92612974D01*
X159909220Y-92633093D01*
X159926083Y-92658962D01*
X159937998Y-92694073D01*
X159945942Y-92741920D01*
X159950894Y-92805996D01*
X159953831Y-92889794D01*
X159954947Y-92945768D01*
X159959052Y-93187822D01*
X159888932Y-93187822D01*
X159846393Y-93186038D01*
X159824476Y-93179942D01*
X159818812Y-93169706D01*
X159815821Y-93158637D01*
X159802451Y-93160754D01*
X159784233Y-93169629D01*
X159738624Y-93183233D01*
X159680007Y-93186899D01*
X159618354Y-93180903D01*
X159563638Y-93165521D01*
X159558730Y-93163386D01*
X159508723Y-93128255D01*
X159475756Y-93079419D01*
X159460587Y-93022333D01*
X159461746Y-93001824D01*
X159585508Y-93001824D01*
X159596413Y-93029425D01*
X159628745Y-93049204D01*
X159680910Y-93059819D01*
X159708787Y-93061228D01*
X159755247Y-93057620D01*
X159786129Y-93043597D01*
X159793664Y-93036931D01*
X159814076Y-93000666D01*
X159818812Y-92967773D01*
X159818812Y-92923763D01*
X159757513Y-92923763D01*
X159686256Y-92927395D01*
X159636276Y-92938818D01*
X159604696Y-92958824D01*
X159597626Y-92967743D01*
X159585508Y-93001824D01*
X159461746Y-93001824D01*
X159463971Y-92962456D01*
X159486663Y-92905244D01*
X159517624Y-92866580D01*
X159536376Y-92849864D01*
X159554733Y-92838878D01*
X159578619Y-92832180D01*
X159613957Y-92828326D01*
X159666669Y-92825873D01*
X159687577Y-92825168D01*
X159818812Y-92820879D01*
X159818620Y-92781158D01*
X159813537Y-92739405D01*
X159795162Y-92714158D01*
X159758039Y-92698030D01*
X159757043Y-92697742D01*
X159704410Y-92691400D01*
X159652906Y-92699684D01*
X159614630Y-92719827D01*
X159599272Y-92729773D01*
X159582730Y-92728397D01*
X159557275Y-92713987D01*
X159542328Y-92703817D01*
X159513091Y-92682088D01*
X159494980Y-92665800D01*
X159492074Y-92661137D01*
X159504040Y-92637005D01*
X159539396Y-92608185D01*
X159554753Y-92598461D01*
X159598901Y-92581714D01*
X159658398Y-92572227D01*
X159724487Y-92570095D01*
X159788411Y-92575417D01*
G37*
X159788411Y-92575417D02*
X159841411Y-92588290D01*
X159856731Y-92595110D01*
X159886428Y-92612974D01*
X159909220Y-92633093D01*
X159926083Y-92658962D01*
X159937998Y-92694073D01*
X159945942Y-92741920D01*
X159950894Y-92805996D01*
X159953831Y-92889794D01*
X159954947Y-92945768D01*
X159959052Y-93187822D01*
X159888932Y-93187822D01*
X159846393Y-93186038D01*
X159824476Y-93179942D01*
X159818812Y-93169706D01*
X159815821Y-93158637D01*
X159802451Y-93160754D01*
X159784233Y-93169629D01*
X159738624Y-93183233D01*
X159680007Y-93186899D01*
X159618354Y-93180903D01*
X159563638Y-93165521D01*
X159558730Y-93163386D01*
X159508723Y-93128255D01*
X159475756Y-93079419D01*
X159460587Y-93022333D01*
X159461746Y-93001824D01*
X159585508Y-93001824D01*
X159596413Y-93029425D01*
X159628745Y-93049204D01*
X159680910Y-93059819D01*
X159708787Y-93061228D01*
X159755247Y-93057620D01*
X159786129Y-93043597D01*
X159793664Y-93036931D01*
X159814076Y-93000666D01*
X159818812Y-92967773D01*
X159818812Y-92923763D01*
X159757513Y-92923763D01*
X159686256Y-92927395D01*
X159636276Y-92938818D01*
X159604696Y-92958824D01*
X159597626Y-92967743D01*
X159585508Y-93001824D01*
X159461746Y-93001824D01*
X159463971Y-92962456D01*
X159486663Y-92905244D01*
X159517624Y-92866580D01*
X159536376Y-92849864D01*
X159554733Y-92838878D01*
X159578619Y-92832180D01*
X159613957Y-92828326D01*
X159666669Y-92825873D01*
X159687577Y-92825168D01*
X159818812Y-92820879D01*
X159818620Y-92781158D01*
X159813537Y-92739405D01*
X159795162Y-92714158D01*
X159758039Y-92698030D01*
X159757043Y-92697742D01*
X159704410Y-92691400D01*
X159652906Y-92699684D01*
X159614630Y-92719827D01*
X159599272Y-92729773D01*
X159582730Y-92728397D01*
X159557275Y-92713987D01*
X159542328Y-92703817D01*
X159513091Y-92682088D01*
X159494980Y-92665800D01*
X159492074Y-92661137D01*
X159504040Y-92637005D01*
X159539396Y-92608185D01*
X159554753Y-92598461D01*
X159598901Y-92581714D01*
X159658398Y-92572227D01*
X159724487Y-92570095D01*
X159788411Y-92575417D01*
G36*
X159031524Y-92574237D02*
G01*
X159081255Y-92577971D01*
X159211291Y-92967773D01*
X159231678Y-92898614D01*
X159243946Y-92855874D01*
X159260085Y-92798115D01*
X159277512Y-92734625D01*
X159286726Y-92700570D01*
X159321388Y-92571683D01*
X159464391Y-92571683D01*
X159421646Y-92706857D01*
X159400596Y-92773342D01*
X159375167Y-92853539D01*
X159348610Y-92937193D01*
X159324902Y-93011782D01*
X159270902Y-93181535D01*
X159212598Y-93185328D01*
X159154295Y-93189122D01*
X159122679Y-93084734D01*
X159103182Y-93019889D01*
X159081904Y-92948400D01*
X159063308Y-92885263D01*
X159062574Y-92882750D01*
X159048684Y-92839969D01*
X159036429Y-92810779D01*
X159027846Y-92799741D01*
X159026082Y-92801018D01*
X159019891Y-92818130D01*
X159008128Y-92854787D01*
X158992225Y-92906378D01*
X158973614Y-92968294D01*
X158963543Y-93002352D01*
X158909007Y-93187822D01*
X158793264Y-93187822D01*
X158700737Y-92895471D01*
X158674744Y-92813462D01*
X158651066Y-92738987D01*
X158630820Y-92675544D01*
X158615126Y-92626632D01*
X158605102Y-92595749D01*
X158602055Y-92586726D01*
X158604467Y-92577487D01*
X158623408Y-92573441D01*
X158662823Y-92573846D01*
X158668993Y-92574152D01*
X158742086Y-92577971D01*
X158789957Y-92754010D01*
X158807553Y-92818211D01*
X158823277Y-92874649D01*
X158835746Y-92918422D01*
X158843574Y-92944630D01*
X158845020Y-92948903D01*
X158851014Y-92943990D01*
X158863101Y-92918532D01*
X158879893Y-92875997D01*
X158900003Y-92819850D01*
X158917003Y-92769130D01*
X158981794Y-92570504D01*
X159031524Y-92574237D01*
G37*
X159031524Y-92574237D02*
X159081255Y-92577971D01*
X159211291Y-92967773D01*
X159231678Y-92898614D01*
X159243946Y-92855874D01*
X159260085Y-92798115D01*
X159277512Y-92734625D01*
X159286726Y-92700570D01*
X159321388Y-92571683D01*
X159464391Y-92571683D01*
X159421646Y-92706857D01*
X159400596Y-92773342D01*
X159375167Y-92853539D01*
X159348610Y-92937193D01*
X159324902Y-93011782D01*
X159270902Y-93181535D01*
X159212598Y-93185328D01*
X159154295Y-93189122D01*
X159122679Y-93084734D01*
X159103182Y-93019889D01*
X159081904Y-92948400D01*
X159063308Y-92885263D01*
X159062574Y-92882750D01*
X159048684Y-92839969D01*
X159036429Y-92810779D01*
X159027846Y-92799741D01*
X159026082Y-92801018D01*
X159019891Y-92818130D01*
X159008128Y-92854787D01*
X158992225Y-92906378D01*
X158973614Y-92968294D01*
X158963543Y-93002352D01*
X158909007Y-93187822D01*
X158793264Y-93187822D01*
X158700737Y-92895471D01*
X158674744Y-92813462D01*
X158651066Y-92738987D01*
X158630820Y-92675544D01*
X158615126Y-92626632D01*
X158605102Y-92595749D01*
X158602055Y-92586726D01*
X158604467Y-92577487D01*
X158623408Y-92573441D01*
X158662823Y-92573846D01*
X158668993Y-92574152D01*
X158742086Y-92577971D01*
X158789957Y-92754010D01*
X158807553Y-92818211D01*
X158823277Y-92874649D01*
X158835746Y-92918422D01*
X158843574Y-92944630D01*
X158845020Y-92948903D01*
X158851014Y-92943990D01*
X158863101Y-92918532D01*
X158879893Y-92875997D01*
X158900003Y-92819850D01*
X158917003Y-92769130D01*
X158981794Y-92570504D01*
X159031524Y-92574237D01*
G36*
X158548812Y-93187822D02*
G01*
X158479654Y-93187822D01*
X158439512Y-93186645D01*
X158418606Y-93181772D01*
X158411078Y-93171186D01*
X158410495Y-93164029D01*
X158409226Y-93149676D01*
X158401221Y-93146923D01*
X158380185Y-93155771D01*
X158363827Y-93164029D01*
X158301023Y-93183597D01*
X158232752Y-93184729D01*
X158177248Y-93170135D01*
X158125562Y-93134877D01*
X158086162Y-93082835D01*
X158064587Y-93021450D01*
X158064038Y-93018018D01*
X158060833Y-92980571D01*
X158059239Y-92926813D01*
X158059367Y-92886155D01*
X158196721Y-92886155D01*
X158199903Y-92940194D01*
X158207141Y-92984735D01*
X158216940Y-93009888D01*
X158254011Y-93044260D01*
X158298026Y-93056582D01*
X158343416Y-93046618D01*
X158382203Y-93016895D01*
X158396892Y-92996905D01*
X158405481Y-92973050D01*
X158409504Y-92938230D01*
X158410495Y-92885930D01*
X158408722Y-92834139D01*
X158404037Y-92788634D01*
X158397397Y-92758181D01*
X158396290Y-92755452D01*
X158369509Y-92723000D01*
X158330421Y-92705183D01*
X158286685Y-92702306D01*
X158245962Y-92714674D01*
X158215913Y-92742593D01*
X158212796Y-92748148D01*
X158203039Y-92782022D01*
X158197723Y-92830728D01*
X158196721Y-92886155D01*
X158059367Y-92886155D01*
X158059432Y-92865540D01*
X158060336Y-92832563D01*
X158066486Y-92750981D01*
X158079267Y-92689730D01*
X158100529Y-92644449D01*
X158132122Y-92610779D01*
X158162793Y-92591014D01*
X158205646Y-92577120D01*
X158258944Y-92572354D01*
X158313520Y-92576236D01*
X158360208Y-92588282D01*
X158384876Y-92602693D01*
X158410495Y-92625878D01*
X158410495Y-92332773D01*
X158548812Y-92332773D01*
X158548812Y-93187822D01*
G37*
X158548812Y-93187822D02*
X158479654Y-93187822D01*
X158439512Y-93186645D01*
X158418606Y-93181772D01*
X158411078Y-93171186D01*
X158410495Y-93164029D01*
X158409226Y-93149676D01*
X158401221Y-93146923D01*
X158380185Y-93155771D01*
X158363827Y-93164029D01*
X158301023Y-93183597D01*
X158232752Y-93184729D01*
X158177248Y-93170135D01*
X158125562Y-93134877D01*
X158086162Y-93082835D01*
X158064587Y-93021450D01*
X158064038Y-93018018D01*
X158060833Y-92980571D01*
X158059239Y-92926813D01*
X158059367Y-92886155D01*
X158196721Y-92886155D01*
X158199903Y-92940194D01*
X158207141Y-92984735D01*
X158216940Y-93009888D01*
X158254011Y-93044260D01*
X158298026Y-93056582D01*
X158343416Y-93046618D01*
X158382203Y-93016895D01*
X158396892Y-92996905D01*
X158405481Y-92973050D01*
X158409504Y-92938230D01*
X158410495Y-92885930D01*
X158408722Y-92834139D01*
X158404037Y-92788634D01*
X158397397Y-92758181D01*
X158396290Y-92755452D01*
X158369509Y-92723000D01*
X158330421Y-92705183D01*
X158286685Y-92702306D01*
X158245962Y-92714674D01*
X158215913Y-92742593D01*
X158212796Y-92748148D01*
X158203039Y-92782022D01*
X158197723Y-92830728D01*
X158196721Y-92886155D01*
X158059367Y-92886155D01*
X158059432Y-92865540D01*
X158060336Y-92832563D01*
X158066486Y-92750981D01*
X158079267Y-92689730D01*
X158100529Y-92644449D01*
X158132122Y-92610779D01*
X158162793Y-92591014D01*
X158205646Y-92577120D01*
X158258944Y-92572354D01*
X158313520Y-92576236D01*
X158360208Y-92588282D01*
X158384876Y-92602693D01*
X158410495Y-92625878D01*
X158410495Y-92332773D01*
X158548812Y-92332773D01*
X158548812Y-93187822D01*
G36*
X157756644Y-92573020D02*
G01*
X157775461Y-92578660D01*
X157781527Y-92591053D01*
X157781782Y-92596647D01*
X157782871Y-92612230D01*
X157790368Y-92614676D01*
X157810619Y-92603993D01*
X157822649Y-92596694D01*
X157860600Y-92581063D01*
X157905928Y-92573334D01*
X157953456Y-92572740D01*
X157998005Y-92578513D01*
X158034398Y-92589884D01*
X158057457Y-92606088D01*
X158062004Y-92626355D01*
X158059709Y-92631843D01*
X158042980Y-92654626D01*
X158017037Y-92682647D01*
X158012345Y-92687177D01*
X157987617Y-92708005D01*
X157966282Y-92714735D01*
X157936445Y-92710038D01*
X157924492Y-92706917D01*
X157887295Y-92699421D01*
X157861141Y-92702792D01*
X157839054Y-92714681D01*
X157818822Y-92730635D01*
X157803921Y-92750700D01*
X157793566Y-92778702D01*
X157786971Y-92818467D01*
X157783351Y-92873823D01*
X157781922Y-92948594D01*
X157781782Y-92993740D01*
X157781782Y-93187822D01*
X157656040Y-93187822D01*
X157656040Y-92571683D01*
X157718911Y-92571683D01*
X157756644Y-92573020D01*
G37*
X157756644Y-92573020D02*
X157775461Y-92578660D01*
X157781527Y-92591053D01*
X157781782Y-92596647D01*
X157782871Y-92612230D01*
X157790368Y-92614676D01*
X157810619Y-92603993D01*
X157822649Y-92596694D01*
X157860600Y-92581063D01*
X157905928Y-92573334D01*
X157953456Y-92572740D01*
X157998005Y-92578513D01*
X158034398Y-92589884D01*
X158057457Y-92606088D01*
X158062004Y-92626355D01*
X158059709Y-92631843D01*
X158042980Y-92654626D01*
X158017037Y-92682647D01*
X158012345Y-92687177D01*
X157987617Y-92708005D01*
X157966282Y-92714735D01*
X157936445Y-92710038D01*
X157924492Y-92706917D01*
X157887295Y-92699421D01*
X157861141Y-92702792D01*
X157839054Y-92714681D01*
X157818822Y-92730635D01*
X157803921Y-92750700D01*
X157793566Y-92778702D01*
X157786971Y-92818467D01*
X157783351Y-92873823D01*
X157781922Y-92948594D01*
X157781782Y-92993740D01*
X157781782Y-93187822D01*
X157656040Y-93187822D01*
X157656040Y-92571683D01*
X157718911Y-92571683D01*
X157756644Y-92573020D01*
G36*
X157365790Y-92576555D02*
G01*
X157424945Y-92592339D01*
X157469977Y-92620948D01*
X157501754Y-92658419D01*
X157511634Y-92674411D01*
X157518927Y-92691163D01*
X157524026Y-92712592D01*
X157527321Y-92742616D01*
X157529203Y-92785154D01*
X157530063Y-92844122D01*
X157530293Y-92923440D01*
X157530297Y-92944484D01*
X157530297Y-93187822D01*
X157469941Y-93187822D01*
X157431443Y-93185126D01*
X157402977Y-93178295D01*
X157395845Y-93174083D01*
X157376348Y-93166813D01*
X157356434Y-93174083D01*
X157323647Y-93183160D01*
X157276022Y-93186813D01*
X157223236Y-93185228D01*
X157174964Y-93178589D01*
X157146782Y-93170072D01*
X157092247Y-93135063D01*
X157058165Y-93086479D01*
X157042843Y-93021882D01*
X157042701Y-93020223D01*
X157044045Y-92991566D01*
X157165644Y-92991566D01*
X157176274Y-93024161D01*
X157193590Y-93042505D01*
X157228348Y-93056379D01*
X157274227Y-93061917D01*
X157321012Y-93059191D01*
X157358486Y-93048274D01*
X157368985Y-93041269D01*
X157387332Y-93008904D01*
X157391980Y-92972111D01*
X157391980Y-92923763D01*
X157322418Y-92923763D01*
X157256333Y-92928850D01*
X157206236Y-92943263D01*
X157175071Y-92965729D01*
X157165644Y-92991566D01*
X157044045Y-92991566D01*
X157046013Y-92949647D01*
X157069290Y-92893845D01*
X157113052Y-92851647D01*
X157119101Y-92847808D01*
X157145093Y-92835309D01*
X157177265Y-92827740D01*
X157222240Y-92824061D01*
X157275669Y-92823216D01*
X157391980Y-92823169D01*
X157391980Y-92774411D01*
X157387047Y-92736581D01*
X157374457Y-92711236D01*
X157372983Y-92709887D01*
X157344966Y-92698800D01*
X157302674Y-92694503D01*
X157255936Y-92696615D01*
X157214582Y-92704756D01*
X157190043Y-92716965D01*
X157176747Y-92726746D01*
X157162706Y-92728613D01*
X157143329Y-92720600D01*
X157114024Y-92700739D01*
X157070197Y-92667063D01*
X157066175Y-92663909D01*
X157068236Y-92652236D01*
X157085432Y-92632822D01*
X157111567Y-92611248D01*
X157140448Y-92593096D01*
X157149522Y-92588809D01*
X157182620Y-92580256D01*
X157231120Y-92574155D01*
X157285305Y-92571708D01*
X157287839Y-92571703D01*
X157365790Y-92576555D01*
G37*
X157365790Y-92576555D02*
X157424945Y-92592339D01*
X157469977Y-92620948D01*
X157501754Y-92658419D01*
X157511634Y-92674411D01*
X157518927Y-92691163D01*
X157524026Y-92712592D01*
X157527321Y-92742616D01*
X157529203Y-92785154D01*
X157530063Y-92844122D01*
X157530293Y-92923440D01*
X157530297Y-92944484D01*
X157530297Y-93187822D01*
X157469941Y-93187822D01*
X157431443Y-93185126D01*
X157402977Y-93178295D01*
X157395845Y-93174083D01*
X157376348Y-93166813D01*
X157356434Y-93174083D01*
X157323647Y-93183160D01*
X157276022Y-93186813D01*
X157223236Y-93185228D01*
X157174964Y-93178589D01*
X157146782Y-93170072D01*
X157092247Y-93135063D01*
X157058165Y-93086479D01*
X157042843Y-93021882D01*
X157042701Y-93020223D01*
X157044045Y-92991566D01*
X157165644Y-92991566D01*
X157176274Y-93024161D01*
X157193590Y-93042505D01*
X157228348Y-93056379D01*
X157274227Y-93061917D01*
X157321012Y-93059191D01*
X157358486Y-93048274D01*
X157368985Y-93041269D01*
X157387332Y-93008904D01*
X157391980Y-92972111D01*
X157391980Y-92923763D01*
X157322418Y-92923763D01*
X157256333Y-92928850D01*
X157206236Y-92943263D01*
X157175071Y-92965729D01*
X157165644Y-92991566D01*
X157044045Y-92991566D01*
X157046013Y-92949647D01*
X157069290Y-92893845D01*
X157113052Y-92851647D01*
X157119101Y-92847808D01*
X157145093Y-92835309D01*
X157177265Y-92827740D01*
X157222240Y-92824061D01*
X157275669Y-92823216D01*
X157391980Y-92823169D01*
X157391980Y-92774411D01*
X157387047Y-92736581D01*
X157374457Y-92711236D01*
X157372983Y-92709887D01*
X157344966Y-92698800D01*
X157302674Y-92694503D01*
X157255936Y-92696615D01*
X157214582Y-92704756D01*
X157190043Y-92716965D01*
X157176747Y-92726746D01*
X157162706Y-92728613D01*
X157143329Y-92720600D01*
X157114024Y-92700739D01*
X157070197Y-92667063D01*
X157066175Y-92663909D01*
X157068236Y-92652236D01*
X157085432Y-92632822D01*
X157111567Y-92611248D01*
X157140448Y-92593096D01*
X157149522Y-92588809D01*
X157182620Y-92580256D01*
X157231120Y-92574155D01*
X157285305Y-92571708D01*
X157287839Y-92571703D01*
X157365790Y-92576555D01*
G36*
X156841241Y-91639184D02*
G01*
X156867753Y-91652282D01*
X156900447Y-91675106D01*
X156924275Y-91699996D01*
X156940594Y-91731249D01*
X156950760Y-91773166D01*
X156956128Y-91830044D01*
X156958056Y-91906184D01*
X156958169Y-91938917D01*
X156957839Y-92010656D01*
X156956473Y-92061927D01*
X156953500Y-92097404D01*
X156948351Y-92121763D01*
X156940457Y-92139680D01*
X156932243Y-92151902D01*
X156879813Y-92203905D01*
X156818070Y-92235184D01*
X156751464Y-92244592D01*
X156684442Y-92230980D01*
X156663208Y-92221354D01*
X156612376Y-92194859D01*
X156612376Y-92610052D01*
X156649475Y-92590868D01*
X156698357Y-92576025D01*
X156758439Y-92572222D01*
X156818436Y-92579243D01*
X156863744Y-92595013D01*
X156901325Y-92625047D01*
X156933436Y-92668024D01*
X156935850Y-92672436D01*
X156946033Y-92693221D01*
X156953470Y-92714170D01*
X156958589Y-92739548D01*
X156961819Y-92773618D01*
X156963587Y-92820641D01*
X156964323Y-92884882D01*
X156964456Y-92957176D01*
X156964456Y-93187822D01*
X156826139Y-93187822D01*
X156826139Y-92762533D01*
X156787451Y-92729979D01*
X156747262Y-92703940D01*
X156709203Y-92699205D01*
X156670934Y-92711389D01*
X156650538Y-92723320D01*
X156635358Y-92740313D01*
X156624562Y-92765995D01*
X156617317Y-92803991D01*
X156612792Y-92857926D01*
X156610156Y-92931425D01*
X156609228Y-92980347D01*
X156606089Y-93181535D01*
X156540074Y-93185336D01*
X156474060Y-93189136D01*
X156474060Y-91940650D01*
X156612376Y-91940650D01*
X156615903Y-92010254D01*
X156627785Y-92058569D01*
X156649980Y-92088631D01*
X156684441Y-92103471D01*
X156719258Y-92106436D01*
X156758671Y-92103028D01*
X156784829Y-92089617D01*
X156801186Y-92071896D01*
X156814063Y-92052835D01*
X156821728Y-92031601D01*
X156825139Y-92001849D01*
X156825251Y-91957236D01*
X156824103Y-91919880D01*
X156821468Y-91863604D01*
X156817544Y-91826658D01*
X156810937Y-91803223D01*
X156800251Y-91787480D01*
X156790167Y-91778380D01*
X156748030Y-91758537D01*
X156698160Y-91755332D01*
X156669524Y-91762168D01*
X156641172Y-91786464D01*
X156622391Y-91833728D01*
X156613288Y-91903624D01*
X156612376Y-91940650D01*
X156474060Y-91940650D01*
X156474060Y-91628614D01*
X156543218Y-91628614D01*
X156584740Y-91630256D01*
X156606162Y-91636087D01*
X156612374Y-91647461D01*
X156612376Y-91647798D01*
X156615258Y-91658938D01*
X156627970Y-91657673D01*
X156653243Y-91645433D01*
X156712131Y-91626707D01*
X156778385Y-91624739D01*
X156841241Y-91639184D01*
G37*
X156841241Y-91639184D02*
X156867753Y-91652282D01*
X156900447Y-91675106D01*
X156924275Y-91699996D01*
X156940594Y-91731249D01*
X156950760Y-91773166D01*
X156956128Y-91830044D01*
X156958056Y-91906184D01*
X156958169Y-91938917D01*
X156957839Y-92010656D01*
X156956473Y-92061927D01*
X156953500Y-92097404D01*
X156948351Y-92121763D01*
X156940457Y-92139680D01*
X156932243Y-92151902D01*
X156879813Y-92203905D01*
X156818070Y-92235184D01*
X156751464Y-92244592D01*
X156684442Y-92230980D01*
X156663208Y-92221354D01*
X156612376Y-92194859D01*
X156612376Y-92610052D01*
X156649475Y-92590868D01*
X156698357Y-92576025D01*
X156758439Y-92572222D01*
X156818436Y-92579243D01*
X156863744Y-92595013D01*
X156901325Y-92625047D01*
X156933436Y-92668024D01*
X156935850Y-92672436D01*
X156946033Y-92693221D01*
X156953470Y-92714170D01*
X156958589Y-92739548D01*
X156961819Y-92773618D01*
X156963587Y-92820641D01*
X156964323Y-92884882D01*
X156964456Y-92957176D01*
X156964456Y-93187822D01*
X156826139Y-93187822D01*
X156826139Y-92762533D01*
X156787451Y-92729979D01*
X156747262Y-92703940D01*
X156709203Y-92699205D01*
X156670934Y-92711389D01*
X156650538Y-92723320D01*
X156635358Y-92740313D01*
X156624562Y-92765995D01*
X156617317Y-92803991D01*
X156612792Y-92857926D01*
X156610156Y-92931425D01*
X156609228Y-92980347D01*
X156606089Y-93181535D01*
X156540074Y-93185336D01*
X156474060Y-93189136D01*
X156474060Y-91940650D01*
X156612376Y-91940650D01*
X156615903Y-92010254D01*
X156627785Y-92058569D01*
X156649980Y-92088631D01*
X156684441Y-92103471D01*
X156719258Y-92106436D01*
X156758671Y-92103028D01*
X156784829Y-92089617D01*
X156801186Y-92071896D01*
X156814063Y-92052835D01*
X156821728Y-92031601D01*
X156825139Y-92001849D01*
X156825251Y-91957236D01*
X156824103Y-91919880D01*
X156821468Y-91863604D01*
X156817544Y-91826658D01*
X156810937Y-91803223D01*
X156800251Y-91787480D01*
X156790167Y-91778380D01*
X156748030Y-91758537D01*
X156698160Y-91755332D01*
X156669524Y-91762168D01*
X156641172Y-91786464D01*
X156622391Y-91833728D01*
X156613288Y-91903624D01*
X156612376Y-91940650D01*
X156474060Y-91940650D01*
X156474060Y-91628614D01*
X156543218Y-91628614D01*
X156584740Y-91630256D01*
X156606162Y-91636087D01*
X156612374Y-91647461D01*
X156612376Y-91647798D01*
X156615258Y-91658938D01*
X156627970Y-91657673D01*
X156653243Y-91645433D01*
X156712131Y-91626707D01*
X156778385Y-91624739D01*
X156841241Y-91639184D01*
D12*
G36*
X138692754Y-105813817D02*
G01*
X138856689Y-105881721D01*
X139004227Y-105980303D01*
X139129697Y-106105773D01*
X139228279Y-106253311D01*
X139296183Y-106417246D01*
X139330800Y-106591279D01*
X139330800Y-106768721D01*
X139296183Y-106942754D01*
X139228279Y-107106689D01*
X139129697Y-107254227D01*
X139004227Y-107379697D01*
X138856689Y-107478279D01*
X138692754Y-107546183D01*
X138518721Y-107580800D01*
X138341279Y-107580800D01*
X138167246Y-107546183D01*
X138003311Y-107478279D01*
X137855773Y-107379697D01*
X137730303Y-107254227D01*
X137631721Y-107106689D01*
X137563817Y-106942754D01*
X137529200Y-106768721D01*
X137529200Y-106591279D01*
X137563817Y-106417246D01*
X137631721Y-106253311D01*
X137730303Y-106105773D01*
X137855773Y-105980303D01*
X138003311Y-105881721D01*
X138167246Y-105813817D01*
X138341279Y-105779200D01*
X138518721Y-105779200D01*
X138692754Y-105813817D01*
G37*
G36*
X166632754Y-105813817D02*
G01*
X166796689Y-105881721D01*
X166944227Y-105980303D01*
X167069697Y-106105773D01*
X167168279Y-106253311D01*
X167236183Y-106417246D01*
X167270800Y-106591279D01*
X167270800Y-106768721D01*
X167236183Y-106942754D01*
X167168279Y-107106689D01*
X167069697Y-107254227D01*
X166944227Y-107379697D01*
X166796689Y-107478279D01*
X166632754Y-107546183D01*
X166458721Y-107580800D01*
X166281279Y-107580800D01*
X166107246Y-107546183D01*
X165943311Y-107478279D01*
X165795773Y-107379697D01*
X165670303Y-107254227D01*
X165571721Y-107106689D01*
X165503817Y-106942754D01*
X165469200Y-106768721D01*
X165469200Y-106591279D01*
X165503817Y-106417246D01*
X165571721Y-106253311D01*
X165670303Y-106105773D01*
X165795773Y-105980303D01*
X165943311Y-105881721D01*
X166107246Y-105813817D01*
X166281279Y-105779200D01*
X166458721Y-105779200D01*
X166632754Y-105813817D01*
G37*
G36*
X169810800Y-107580800D02*
G01*
X168009200Y-107580800D01*
X168009200Y-105779200D01*
X169810800Y-105779200D01*
X169810800Y-107580800D01*
G37*
G36*
X164092754Y-105813817D02*
G01*
X164256689Y-105881721D01*
X164404227Y-105980303D01*
X164529697Y-106105773D01*
X164628279Y-106253311D01*
X164696183Y-106417246D01*
X164730800Y-106591279D01*
X164730800Y-106768721D01*
X164696183Y-106942754D01*
X164628279Y-107106689D01*
X164529697Y-107254227D01*
X164404227Y-107379697D01*
X164256689Y-107478279D01*
X164092754Y-107546183D01*
X163918721Y-107580800D01*
X163741279Y-107580800D01*
X163567246Y-107546183D01*
X163403311Y-107478279D01*
X163255773Y-107379697D01*
X163130303Y-107254227D01*
X163031721Y-107106689D01*
X162963817Y-106942754D01*
X162929200Y-106768721D01*
X162929200Y-106591279D01*
X162963817Y-106417246D01*
X163031721Y-106253311D01*
X163130303Y-106105773D01*
X163255773Y-105980303D01*
X163403311Y-105881721D01*
X163567246Y-105813817D01*
X163741279Y-105779200D01*
X163918721Y-105779200D01*
X164092754Y-105813817D01*
G37*
G36*
X141232754Y-105813817D02*
G01*
X141396689Y-105881721D01*
X141544227Y-105980303D01*
X141669697Y-106105773D01*
X141768279Y-106253311D01*
X141836183Y-106417246D01*
X141870800Y-106591279D01*
X141870800Y-106768721D01*
X141836183Y-106942754D01*
X141768279Y-107106689D01*
X141669697Y-107254227D01*
X141544227Y-107379697D01*
X141396689Y-107478279D01*
X141232754Y-107546183D01*
X141058721Y-107580800D01*
X140881279Y-107580800D01*
X140707246Y-107546183D01*
X140543311Y-107478279D01*
X140395773Y-107379697D01*
X140270303Y-107254227D01*
X140171721Y-107106689D01*
X140103817Y-106942754D01*
X140069200Y-106768721D01*
X140069200Y-106591279D01*
X140103817Y-106417246D01*
X140171721Y-106253311D01*
X140270303Y-106105773D01*
X140395773Y-105980303D01*
X140543311Y-105881721D01*
X140707246Y-105813817D01*
X140881279Y-105779200D01*
X141058721Y-105779200D01*
X141232754Y-105813817D01*
G37*
G36*
X144410800Y-107580800D02*
G01*
X142609200Y-107580800D01*
X142609200Y-105779200D01*
X144410800Y-105779200D01*
X144410800Y-107580800D01*
G37*
G36*
X121301587Y-103127233D02*
G01*
X121471387Y-103178742D01*
X121627881Y-103262389D01*
X121765044Y-103374956D01*
X121877611Y-103512119D01*
X121961258Y-103668612D01*
X122012767Y-103838412D01*
X122025800Y-103970741D01*
X122025800Y-104309258D01*
X122012767Y-104441587D01*
X121961258Y-104611387D01*
X121877611Y-104767881D01*
X121765044Y-104905044D01*
X121627881Y-105017611D01*
X121471388Y-105101258D01*
X121301588Y-105152767D01*
X121125000Y-105170159D01*
X120948413Y-105152767D01*
X120778613Y-105101258D01*
X120622120Y-105017611D01*
X120484959Y-104905046D01*
X120372387Y-104767878D01*
X120288742Y-104611388D01*
X120237233Y-104441588D01*
X120224200Y-104309259D01*
X120224200Y-103970742D01*
X120237233Y-103838413D01*
X120288742Y-103668613D01*
X120372389Y-103512119D01*
X120484956Y-103374956D01*
X120622119Y-103262389D01*
X120778612Y-103178742D01*
X120948412Y-103127233D01*
X121125000Y-103109841D01*
X121301587Y-103127233D01*
G37*
G36*
X113801587Y-103127233D02*
G01*
X113971387Y-103178742D01*
X114127881Y-103262389D01*
X114265044Y-103374956D01*
X114377611Y-103512119D01*
X114461258Y-103668612D01*
X114512767Y-103838412D01*
X114525800Y-103970741D01*
X114525800Y-104309258D01*
X114512767Y-104441587D01*
X114461258Y-104611387D01*
X114377611Y-104767881D01*
X114265044Y-104905044D01*
X114127881Y-105017611D01*
X113971388Y-105101258D01*
X113801588Y-105152767D01*
X113625000Y-105170159D01*
X113448413Y-105152767D01*
X113278613Y-105101258D01*
X113122120Y-105017611D01*
X112984959Y-104905046D01*
X112872387Y-104767878D01*
X112788742Y-104611388D01*
X112737233Y-104441588D01*
X112724200Y-104309259D01*
X112724200Y-103970742D01*
X112737233Y-103838413D01*
X112788742Y-103668613D01*
X112872389Y-103512119D01*
X112984956Y-103374956D01*
X113122119Y-103262389D01*
X113278612Y-103178742D01*
X113448412Y-103127233D01*
X113625000Y-103109841D01*
X113801587Y-103127233D01*
G37*
G36*
X116301587Y-103127233D02*
G01*
X116471387Y-103178742D01*
X116627881Y-103262389D01*
X116765044Y-103374956D01*
X116877611Y-103512119D01*
X116961258Y-103668612D01*
X117012767Y-103838412D01*
X117025800Y-103970741D01*
X117025800Y-104309258D01*
X117012767Y-104441587D01*
X116961258Y-104611387D01*
X116877611Y-104767881D01*
X116765044Y-104905044D01*
X116627881Y-105017611D01*
X116471388Y-105101258D01*
X116301588Y-105152767D01*
X116125000Y-105170159D01*
X115948413Y-105152767D01*
X115778613Y-105101258D01*
X115622120Y-105017611D01*
X115484959Y-104905046D01*
X115372387Y-104767878D01*
X115288742Y-104611388D01*
X115237233Y-104441588D01*
X115224200Y-104309259D01*
X115224200Y-103970742D01*
X115237233Y-103838413D01*
X115288742Y-103668613D01*
X115372389Y-103512119D01*
X115484956Y-103374956D01*
X115622119Y-103262389D01*
X115778612Y-103178742D01*
X115948412Y-103127233D01*
X116125000Y-103109841D01*
X116301587Y-103127233D01*
G37*
G36*
X158171587Y-103127233D02*
G01*
X158341387Y-103178742D01*
X158497881Y-103262389D01*
X158635044Y-103374956D01*
X158747611Y-103512119D01*
X158831258Y-103668612D01*
X158882767Y-103838412D01*
X158895800Y-103970741D01*
X158895800Y-104309258D01*
X158882767Y-104441587D01*
X158831258Y-104611387D01*
X158747611Y-104767881D01*
X158635044Y-104905044D01*
X158497881Y-105017611D01*
X158341388Y-105101258D01*
X158171588Y-105152767D01*
X157995000Y-105170159D01*
X157818413Y-105152767D01*
X157648613Y-105101258D01*
X157492120Y-105017611D01*
X157354959Y-104905046D01*
X157242387Y-104767878D01*
X157158742Y-104611388D01*
X157107233Y-104441588D01*
X157094200Y-104309259D01*
X157094200Y-103970742D01*
X157107233Y-103838413D01*
X157158742Y-103668613D01*
X157242389Y-103512119D01*
X157354956Y-103374956D01*
X157492119Y-103262389D01*
X157648612Y-103178742D01*
X157818412Y-103127233D01*
X157995000Y-103109841D01*
X158171587Y-103127233D01*
G37*
G36*
X155671587Y-103127233D02*
G01*
X155841387Y-103178742D01*
X155997881Y-103262389D01*
X156135044Y-103374956D01*
X156247611Y-103512119D01*
X156331258Y-103668612D01*
X156382767Y-103838412D01*
X156395800Y-103970741D01*
X156395800Y-104309258D01*
X156382767Y-104441587D01*
X156331258Y-104611387D01*
X156247611Y-104767881D01*
X156135044Y-104905044D01*
X155997881Y-105017611D01*
X155841388Y-105101258D01*
X155671588Y-105152767D01*
X155495000Y-105170159D01*
X155318413Y-105152767D01*
X155148613Y-105101258D01*
X154992120Y-105017611D01*
X154854959Y-104905046D01*
X154742387Y-104767878D01*
X154658742Y-104611388D01*
X154607233Y-104441588D01*
X154594200Y-104309259D01*
X154594200Y-103970742D01*
X154607233Y-103838413D01*
X154658742Y-103668613D01*
X154742389Y-103512119D01*
X154854956Y-103374956D01*
X154992119Y-103262389D01*
X155148612Y-103178742D01*
X155318412Y-103127233D01*
X155495000Y-103109841D01*
X155671587Y-103127233D01*
G37*
G36*
X153171587Y-103127233D02*
G01*
X153341387Y-103178742D01*
X153497881Y-103262389D01*
X153635044Y-103374956D01*
X153747611Y-103512119D01*
X153831258Y-103668612D01*
X153882767Y-103838412D01*
X153895800Y-103970741D01*
X153895800Y-104309258D01*
X153882767Y-104441587D01*
X153831258Y-104611387D01*
X153747611Y-104767881D01*
X153635044Y-104905044D01*
X153497881Y-105017611D01*
X153341388Y-105101258D01*
X153171588Y-105152767D01*
X152995000Y-105170159D01*
X152818413Y-105152767D01*
X152648613Y-105101258D01*
X152492120Y-105017611D01*
X152354959Y-104905046D01*
X152242387Y-104767878D01*
X152158742Y-104611388D01*
X152107233Y-104441588D01*
X152094200Y-104309259D01*
X152094200Y-103970742D01*
X152107233Y-103838413D01*
X152158742Y-103668613D01*
X152242389Y-103512119D01*
X152354956Y-103374956D01*
X152492119Y-103262389D01*
X152648612Y-103178742D01*
X152818412Y-103127233D01*
X152995000Y-103109841D01*
X153171587Y-103127233D01*
G37*
G36*
X132811587Y-103127233D02*
G01*
X132981387Y-103178742D01*
X133137881Y-103262389D01*
X133275044Y-103374956D01*
X133387611Y-103512119D01*
X133471258Y-103668612D01*
X133522767Y-103838412D01*
X133535800Y-103970741D01*
X133535800Y-104309258D01*
X133522767Y-104441587D01*
X133471258Y-104611387D01*
X133387611Y-104767881D01*
X133275044Y-104905044D01*
X133137881Y-105017611D01*
X132981388Y-105101258D01*
X132811588Y-105152767D01*
X132635000Y-105170159D01*
X132458413Y-105152767D01*
X132288613Y-105101258D01*
X132132120Y-105017611D01*
X131994959Y-104905046D01*
X131882387Y-104767878D01*
X131798742Y-104611388D01*
X131747233Y-104441588D01*
X131734200Y-104309259D01*
X131734200Y-103970742D01*
X131747233Y-103838413D01*
X131798742Y-103668613D01*
X131882389Y-103512119D01*
X131994956Y-103374956D01*
X132132119Y-103262389D01*
X132288612Y-103178742D01*
X132458412Y-103127233D01*
X132635000Y-103109841D01*
X132811587Y-103127233D01*
G37*
G36*
X118801587Y-103127233D02*
G01*
X118971387Y-103178742D01*
X119127881Y-103262389D01*
X119265044Y-103374956D01*
X119377611Y-103512119D01*
X119461258Y-103668612D01*
X119512767Y-103838412D01*
X119525800Y-103970741D01*
X119525800Y-104309258D01*
X119512767Y-104441587D01*
X119461258Y-104611387D01*
X119377611Y-104767881D01*
X119265044Y-104905044D01*
X119127881Y-105017611D01*
X118971388Y-105101258D01*
X118801588Y-105152767D01*
X118625000Y-105170159D01*
X118448413Y-105152767D01*
X118278613Y-105101258D01*
X118122120Y-105017611D01*
X117984959Y-104905046D01*
X117872387Y-104767878D01*
X117788742Y-104611388D01*
X117737233Y-104441588D01*
X117724200Y-104309259D01*
X117724200Y-103970742D01*
X117737233Y-103838413D01*
X117788742Y-103668613D01*
X117872389Y-103512119D01*
X117984956Y-103374956D01*
X118122119Y-103262389D01*
X118278612Y-103178742D01*
X118448412Y-103127233D01*
X118625000Y-103109841D01*
X118801587Y-103127233D01*
G37*
G36*
X130311587Y-103127233D02*
G01*
X130481387Y-103178742D01*
X130637881Y-103262389D01*
X130775044Y-103374956D01*
X130887611Y-103512119D01*
X130971258Y-103668612D01*
X131022767Y-103838412D01*
X131035800Y-103970741D01*
X131035800Y-104309258D01*
X131022767Y-104441587D01*
X130971258Y-104611387D01*
X130887611Y-104767881D01*
X130775044Y-104905044D01*
X130637881Y-105017611D01*
X130481388Y-105101258D01*
X130311588Y-105152767D01*
X130135000Y-105170159D01*
X129958413Y-105152767D01*
X129788613Y-105101258D01*
X129632120Y-105017611D01*
X129494959Y-104905046D01*
X129382387Y-104767878D01*
X129298742Y-104611388D01*
X129247233Y-104441588D01*
X129234200Y-104309259D01*
X129234200Y-103970742D01*
X129247233Y-103838413D01*
X129298742Y-103668613D01*
X129382389Y-103512119D01*
X129494956Y-103374956D01*
X129632119Y-103262389D01*
X129788612Y-103178742D01*
X129958412Y-103127233D01*
X130135000Y-103109841D01*
X130311587Y-103127233D01*
G37*
G36*
X151254586Y-103118171D02*
G01*
X151287352Y-103128111D01*
X151317552Y-103144253D01*
X151344023Y-103165977D01*
X151365747Y-103192448D01*
X151381889Y-103222648D01*
X151391829Y-103255414D01*
X151395800Y-103295738D01*
X151395800Y-104984262D01*
X151391829Y-105024586D01*
X151381889Y-105057352D01*
X151365747Y-105087552D01*
X151344023Y-105114023D01*
X151317552Y-105135747D01*
X151287352Y-105151889D01*
X151254586Y-105161829D01*
X151214262Y-105165800D01*
X149775738Y-105165800D01*
X149735414Y-105161829D01*
X149702648Y-105151889D01*
X149672448Y-105135747D01*
X149645977Y-105114023D01*
X149624253Y-105087552D01*
X149608111Y-105057352D01*
X149598171Y-105024586D01*
X149594200Y-104984262D01*
X149594200Y-103295738D01*
X149598171Y-103255414D01*
X149608111Y-103222648D01*
X149624253Y-103192448D01*
X149645977Y-103165977D01*
X149672448Y-103144253D01*
X149702648Y-103128111D01*
X149735414Y-103118171D01*
X149775738Y-103114200D01*
X151214262Y-103114200D01*
X151254586Y-103118171D01*
G37*
G36*
X111884586Y-103118171D02*
G01*
X111917352Y-103128111D01*
X111947552Y-103144253D01*
X111974023Y-103165977D01*
X111995747Y-103192448D01*
X112011889Y-103222648D01*
X112021829Y-103255414D01*
X112025800Y-103295738D01*
X112025800Y-104984262D01*
X112021829Y-105024586D01*
X112011889Y-105057352D01*
X111995747Y-105087552D01*
X111974023Y-105114023D01*
X111947552Y-105135747D01*
X111917352Y-105151889D01*
X111884586Y-105161829D01*
X111844262Y-105165800D01*
X110405738Y-105165800D01*
X110365414Y-105161829D01*
X110332648Y-105151889D01*
X110302448Y-105135747D01*
X110275977Y-105114023D01*
X110254253Y-105087552D01*
X110238111Y-105057352D01*
X110228171Y-105024586D01*
X110224200Y-104984262D01*
X110224200Y-103295738D01*
X110228171Y-103255414D01*
X110238111Y-103222648D01*
X110254253Y-103192448D01*
X110275977Y-103165977D01*
X110302448Y-103144253D01*
X110332648Y-103128111D01*
X110365414Y-103118171D01*
X110405738Y-103114200D01*
X111844262Y-103114200D01*
X111884586Y-103118171D01*
G37*
G36*
X128394586Y-103118171D02*
G01*
X128427352Y-103128111D01*
X128457552Y-103144253D01*
X128484023Y-103165977D01*
X128505747Y-103192448D01*
X128521889Y-103222648D01*
X128531829Y-103255414D01*
X128535800Y-103295738D01*
X128535800Y-104984262D01*
X128531829Y-105024586D01*
X128521889Y-105057352D01*
X128505747Y-105087552D01*
X128484023Y-105114023D01*
X128457552Y-105135747D01*
X128427352Y-105151889D01*
X128394586Y-105161829D01*
X128354262Y-105165800D01*
X126915738Y-105165800D01*
X126875414Y-105161829D01*
X126842648Y-105151889D01*
X126812448Y-105135747D01*
X126785977Y-105114023D01*
X126764253Y-105087552D01*
X126748111Y-105057352D01*
X126738171Y-105024586D01*
X126734200Y-104984262D01*
X126734200Y-103295738D01*
X126738171Y-103255414D01*
X126748111Y-103222648D01*
X126764253Y-103192448D01*
X126785977Y-103165977D01*
X126812448Y-103144253D01*
X126842648Y-103128111D01*
X126875414Y-103118171D01*
X126915738Y-103114200D01*
X128354262Y-103114200D01*
X128394586Y-103118171D01*
G37*
G36*
X144410800Y-104405800D02*
G01*
X142609200Y-104405800D01*
X142609200Y-102604200D01*
X144410800Y-102604200D01*
X144410800Y-104405800D01*
G37*
G36*
X169810800Y-104405800D02*
G01*
X168009200Y-104405800D01*
X168009200Y-102604200D01*
X169810800Y-102604200D01*
X169810800Y-104405800D01*
G37*
G36*
X127262754Y-97558817D02*
G01*
X127426689Y-97626721D01*
X127574227Y-97725303D01*
X127699697Y-97850773D01*
X127798279Y-97998311D01*
X127866183Y-98162246D01*
X127900800Y-98336279D01*
X127900800Y-98513721D01*
X127866183Y-98687754D01*
X127798279Y-98851689D01*
X127699697Y-98999227D01*
X127574227Y-99124697D01*
X127426689Y-99223279D01*
X127262754Y-99291183D01*
X127088721Y-99325800D01*
X126911279Y-99325800D01*
X126737246Y-99291183D01*
X126573311Y-99223279D01*
X126425773Y-99124697D01*
X126300303Y-98999227D01*
X126201721Y-98851689D01*
X126133817Y-98687754D01*
X126099200Y-98513721D01*
X126099200Y-98336279D01*
X126133817Y-98162246D01*
X126201721Y-97998311D01*
X126300303Y-97850773D01*
X126425773Y-97725303D01*
X126573311Y-97626721D01*
X126737246Y-97558817D01*
X126911279Y-97524200D01*
X127088721Y-97524200D01*
X127262754Y-97558817D01*
G37*
G36*
X165362754Y-97558817D02*
G01*
X165526689Y-97626721D01*
X165674227Y-97725303D01*
X165799697Y-97850773D01*
X165898279Y-97998311D01*
X165966183Y-98162246D01*
X166000800Y-98336279D01*
X166000800Y-98513721D01*
X165966183Y-98687754D01*
X165898279Y-98851689D01*
X165799697Y-98999227D01*
X165674227Y-99124697D01*
X165526689Y-99223279D01*
X165362754Y-99291183D01*
X165188721Y-99325800D01*
X165011279Y-99325800D01*
X164837246Y-99291183D01*
X164673311Y-99223279D01*
X164525773Y-99124697D01*
X164400303Y-98999227D01*
X164301721Y-98851689D01*
X164233817Y-98687754D01*
X164199200Y-98513721D01*
X164199200Y-98336279D01*
X164233817Y-98162246D01*
X164301721Y-97998311D01*
X164400303Y-97850773D01*
X164525773Y-97725303D01*
X164673311Y-97626721D01*
X164837246Y-97558817D01*
X165011279Y-97524200D01*
X165188721Y-97524200D01*
X165362754Y-97558817D01*
G37*
G36*
X162822754Y-97558817D02*
G01*
X162986689Y-97626721D01*
X163134227Y-97725303D01*
X163259697Y-97850773D01*
X163358279Y-97998311D01*
X163426183Y-98162246D01*
X163460800Y-98336279D01*
X163460800Y-98513721D01*
X163426183Y-98687754D01*
X163358279Y-98851689D01*
X163259697Y-98999227D01*
X163134227Y-99124697D01*
X162986689Y-99223279D01*
X162822754Y-99291183D01*
X162648721Y-99325800D01*
X162471279Y-99325800D01*
X162297246Y-99291183D01*
X162133311Y-99223279D01*
X161985773Y-99124697D01*
X161860303Y-98999227D01*
X161761721Y-98851689D01*
X161693817Y-98687754D01*
X161659200Y-98513721D01*
X161659200Y-98336279D01*
X161693817Y-98162246D01*
X161761721Y-97998311D01*
X161860303Y-97850773D01*
X161985773Y-97725303D01*
X162133311Y-97626721D01*
X162297246Y-97558817D01*
X162471279Y-97524200D01*
X162648721Y-97524200D01*
X162822754Y-97558817D01*
G37*
G36*
X160282754Y-97558817D02*
G01*
X160446689Y-97626721D01*
X160594227Y-97725303D01*
X160719697Y-97850773D01*
X160818279Y-97998311D01*
X160886183Y-98162246D01*
X160920800Y-98336279D01*
X160920800Y-98513721D01*
X160886183Y-98687754D01*
X160818279Y-98851689D01*
X160719697Y-98999227D01*
X160594227Y-99124697D01*
X160446689Y-99223279D01*
X160282754Y-99291183D01*
X160108721Y-99325800D01*
X159931279Y-99325800D01*
X159757246Y-99291183D01*
X159593311Y-99223279D01*
X159445773Y-99124697D01*
X159320303Y-98999227D01*
X159221721Y-98851689D01*
X159153817Y-98687754D01*
X159119200Y-98513721D01*
X159119200Y-98336279D01*
X159153817Y-98162246D01*
X159221721Y-97998311D01*
X159320303Y-97850773D01*
X159445773Y-97725303D01*
X159593311Y-97626721D01*
X159757246Y-97558817D01*
X159931279Y-97524200D01*
X160108721Y-97524200D01*
X160282754Y-97558817D01*
G37*
G36*
X157742754Y-97558817D02*
G01*
X157906689Y-97626721D01*
X158054227Y-97725303D01*
X158179697Y-97850773D01*
X158278279Y-97998311D01*
X158346183Y-98162246D01*
X158380800Y-98336279D01*
X158380800Y-98513721D01*
X158346183Y-98687754D01*
X158278279Y-98851689D01*
X158179697Y-98999227D01*
X158054227Y-99124697D01*
X157906689Y-99223279D01*
X157742754Y-99291183D01*
X157568721Y-99325800D01*
X157391279Y-99325800D01*
X157217246Y-99291183D01*
X157053311Y-99223279D01*
X156905773Y-99124697D01*
X156780303Y-98999227D01*
X156681721Y-98851689D01*
X156613817Y-98687754D01*
X156579200Y-98513721D01*
X156579200Y-98336279D01*
X156613817Y-98162246D01*
X156681721Y-97998311D01*
X156780303Y-97850773D01*
X156905773Y-97725303D01*
X157053311Y-97626721D01*
X157217246Y-97558817D01*
X157391279Y-97524200D01*
X157568721Y-97524200D01*
X157742754Y-97558817D01*
G37*
G36*
X155202754Y-97558817D02*
G01*
X155366689Y-97626721D01*
X155514227Y-97725303D01*
X155639697Y-97850773D01*
X155738279Y-97998311D01*
X155806183Y-98162246D01*
X155840800Y-98336279D01*
X155840800Y-98513721D01*
X155806183Y-98687754D01*
X155738279Y-98851689D01*
X155639697Y-98999227D01*
X155514227Y-99124697D01*
X155366689Y-99223279D01*
X155202754Y-99291183D01*
X155028721Y-99325800D01*
X154851279Y-99325800D01*
X154677246Y-99291183D01*
X154513311Y-99223279D01*
X154365773Y-99124697D01*
X154240303Y-98999227D01*
X154141721Y-98851689D01*
X154073817Y-98687754D01*
X154039200Y-98513721D01*
X154039200Y-98336279D01*
X154073817Y-98162246D01*
X154141721Y-97998311D01*
X154240303Y-97850773D01*
X154365773Y-97725303D01*
X154513311Y-97626721D01*
X154677246Y-97558817D01*
X154851279Y-97524200D01*
X155028721Y-97524200D01*
X155202754Y-97558817D01*
G37*
G36*
X152662754Y-97558817D02*
G01*
X152826689Y-97626721D01*
X152974227Y-97725303D01*
X153099697Y-97850773D01*
X153198279Y-97998311D01*
X153266183Y-98162246D01*
X153300800Y-98336279D01*
X153300800Y-98513721D01*
X153266183Y-98687754D01*
X153198279Y-98851689D01*
X153099697Y-98999227D01*
X152974227Y-99124697D01*
X152826689Y-99223279D01*
X152662754Y-99291183D01*
X152488721Y-99325800D01*
X152311279Y-99325800D01*
X152137246Y-99291183D01*
X151973311Y-99223279D01*
X151825773Y-99124697D01*
X151700303Y-98999227D01*
X151601721Y-98851689D01*
X151533817Y-98687754D01*
X151499200Y-98513721D01*
X151499200Y-98336279D01*
X151533817Y-98162246D01*
X151601721Y-97998311D01*
X151700303Y-97850773D01*
X151825773Y-97725303D01*
X151973311Y-97626721D01*
X152137246Y-97558817D01*
X152311279Y-97524200D01*
X152488721Y-97524200D01*
X152662754Y-97558817D01*
G37*
G36*
X150122754Y-97558817D02*
G01*
X150286689Y-97626721D01*
X150434227Y-97725303D01*
X150559697Y-97850773D01*
X150658279Y-97998311D01*
X150726183Y-98162246D01*
X150760800Y-98336279D01*
X150760800Y-98513721D01*
X150726183Y-98687754D01*
X150658279Y-98851689D01*
X150559697Y-98999227D01*
X150434227Y-99124697D01*
X150286689Y-99223279D01*
X150122754Y-99291183D01*
X149948721Y-99325800D01*
X149771279Y-99325800D01*
X149597246Y-99291183D01*
X149433311Y-99223279D01*
X149285773Y-99124697D01*
X149160303Y-98999227D01*
X149061721Y-98851689D01*
X148993817Y-98687754D01*
X148959200Y-98513721D01*
X148959200Y-98336279D01*
X148993817Y-98162246D01*
X149061721Y-97998311D01*
X149160303Y-97850773D01*
X149285773Y-97725303D01*
X149433311Y-97626721D01*
X149597246Y-97558817D01*
X149771279Y-97524200D01*
X149948721Y-97524200D01*
X150122754Y-97558817D01*
G37*
G36*
X147582754Y-97558817D02*
G01*
X147746689Y-97626721D01*
X147894227Y-97725303D01*
X148019697Y-97850773D01*
X148118279Y-97998311D01*
X148186183Y-98162246D01*
X148220800Y-98336279D01*
X148220800Y-98513721D01*
X148186183Y-98687754D01*
X148118279Y-98851689D01*
X148019697Y-98999227D01*
X147894227Y-99124697D01*
X147746689Y-99223279D01*
X147582754Y-99291183D01*
X147408721Y-99325800D01*
X147231279Y-99325800D01*
X147057246Y-99291183D01*
X146893311Y-99223279D01*
X146745773Y-99124697D01*
X146620303Y-98999227D01*
X146521721Y-98851689D01*
X146453817Y-98687754D01*
X146419200Y-98513721D01*
X146419200Y-98336279D01*
X146453817Y-98162246D01*
X146521721Y-97998311D01*
X146620303Y-97850773D01*
X146745773Y-97725303D01*
X146893311Y-97626721D01*
X147057246Y-97558817D01*
X147231279Y-97524200D01*
X147408721Y-97524200D01*
X147582754Y-97558817D01*
G37*
G36*
X145042754Y-97558817D02*
G01*
X145206689Y-97626721D01*
X145354227Y-97725303D01*
X145479697Y-97850773D01*
X145578279Y-97998311D01*
X145646183Y-98162246D01*
X145680800Y-98336279D01*
X145680800Y-98513721D01*
X145646183Y-98687754D01*
X145578279Y-98851689D01*
X145479697Y-98999227D01*
X145354227Y-99124697D01*
X145206689Y-99223279D01*
X145042754Y-99291183D01*
X144868721Y-99325800D01*
X144691279Y-99325800D01*
X144517246Y-99291183D01*
X144353311Y-99223279D01*
X144205773Y-99124697D01*
X144080303Y-98999227D01*
X143981721Y-98851689D01*
X143913817Y-98687754D01*
X143879200Y-98513721D01*
X143879200Y-98336279D01*
X143913817Y-98162246D01*
X143981721Y-97998311D01*
X144080303Y-97850773D01*
X144205773Y-97725303D01*
X144353311Y-97626721D01*
X144517246Y-97558817D01*
X144691279Y-97524200D01*
X144868721Y-97524200D01*
X145042754Y-97558817D01*
G37*
G36*
X142502754Y-97558817D02*
G01*
X142666689Y-97626721D01*
X142814227Y-97725303D01*
X142939697Y-97850773D01*
X143038279Y-97998311D01*
X143106183Y-98162246D01*
X143140800Y-98336279D01*
X143140800Y-98513721D01*
X143106183Y-98687754D01*
X143038279Y-98851689D01*
X142939697Y-98999227D01*
X142814227Y-99124697D01*
X142666689Y-99223279D01*
X142502754Y-99291183D01*
X142328721Y-99325800D01*
X142151279Y-99325800D01*
X141977246Y-99291183D01*
X141813311Y-99223279D01*
X141665773Y-99124697D01*
X141540303Y-98999227D01*
X141441721Y-98851689D01*
X141373817Y-98687754D01*
X141339200Y-98513721D01*
X141339200Y-98336279D01*
X141373817Y-98162246D01*
X141441721Y-97998311D01*
X141540303Y-97850773D01*
X141665773Y-97725303D01*
X141813311Y-97626721D01*
X141977246Y-97558817D01*
X142151279Y-97524200D01*
X142328721Y-97524200D01*
X142502754Y-97558817D01*
G37*
G36*
X137422754Y-97558817D02*
G01*
X137586689Y-97626721D01*
X137734227Y-97725303D01*
X137859697Y-97850773D01*
X137958279Y-97998311D01*
X138026183Y-98162246D01*
X138060800Y-98336279D01*
X138060800Y-98513721D01*
X138026183Y-98687754D01*
X137958279Y-98851689D01*
X137859697Y-98999227D01*
X137734227Y-99124697D01*
X137586689Y-99223279D01*
X137422754Y-99291183D01*
X137248721Y-99325800D01*
X137071279Y-99325800D01*
X136897246Y-99291183D01*
X136733311Y-99223279D01*
X136585773Y-99124697D01*
X136460303Y-98999227D01*
X136361721Y-98851689D01*
X136293817Y-98687754D01*
X136259200Y-98513721D01*
X136259200Y-98336279D01*
X136293817Y-98162246D01*
X136361721Y-97998311D01*
X136460303Y-97850773D01*
X136585773Y-97725303D01*
X136733311Y-97626721D01*
X136897246Y-97558817D01*
X137071279Y-97524200D01*
X137248721Y-97524200D01*
X137422754Y-97558817D01*
G37*
G36*
X134882754Y-97558817D02*
G01*
X135046689Y-97626721D01*
X135194227Y-97725303D01*
X135319697Y-97850773D01*
X135418279Y-97998311D01*
X135486183Y-98162246D01*
X135520800Y-98336279D01*
X135520800Y-98513721D01*
X135486183Y-98687754D01*
X135418279Y-98851689D01*
X135319697Y-98999227D01*
X135194227Y-99124697D01*
X135046689Y-99223279D01*
X134882754Y-99291183D01*
X134708721Y-99325800D01*
X134531279Y-99325800D01*
X134357246Y-99291183D01*
X134193311Y-99223279D01*
X134045773Y-99124697D01*
X133920303Y-98999227D01*
X133821721Y-98851689D01*
X133753817Y-98687754D01*
X133719200Y-98513721D01*
X133719200Y-98336279D01*
X133753817Y-98162246D01*
X133821721Y-97998311D01*
X133920303Y-97850773D01*
X134045773Y-97725303D01*
X134193311Y-97626721D01*
X134357246Y-97558817D01*
X134531279Y-97524200D01*
X134708721Y-97524200D01*
X134882754Y-97558817D01*
G37*
G36*
X167902754Y-97558817D02*
G01*
X168066689Y-97626721D01*
X168214227Y-97725303D01*
X168339697Y-97850773D01*
X168438279Y-97998311D01*
X168506183Y-98162246D01*
X168540800Y-98336279D01*
X168540800Y-98513721D01*
X168506183Y-98687754D01*
X168438279Y-98851689D01*
X168339697Y-98999227D01*
X168214227Y-99124697D01*
X168066689Y-99223279D01*
X167902754Y-99291183D01*
X167728721Y-99325800D01*
X167551279Y-99325800D01*
X167377246Y-99291183D01*
X167213311Y-99223279D01*
X167065773Y-99124697D01*
X166940303Y-98999227D01*
X166841721Y-98851689D01*
X166773817Y-98687754D01*
X166739200Y-98513721D01*
X166739200Y-98336279D01*
X166773817Y-98162246D01*
X166841721Y-97998311D01*
X166940303Y-97850773D01*
X167065773Y-97725303D01*
X167213311Y-97626721D01*
X167377246Y-97558817D01*
X167551279Y-97524200D01*
X167728721Y-97524200D01*
X167902754Y-97558817D01*
G37*
G36*
X170442754Y-97558817D02*
G01*
X170606689Y-97626721D01*
X170754227Y-97725303D01*
X170879697Y-97850773D01*
X170978279Y-97998311D01*
X171046183Y-98162246D01*
X171080800Y-98336279D01*
X171080800Y-98513721D01*
X171046183Y-98687754D01*
X170978279Y-98851689D01*
X170879697Y-98999227D01*
X170754227Y-99124697D01*
X170606689Y-99223279D01*
X170442754Y-99291183D01*
X170268721Y-99325800D01*
X170091279Y-99325800D01*
X169917246Y-99291183D01*
X169753311Y-99223279D01*
X169605773Y-99124697D01*
X169480303Y-98999227D01*
X169381721Y-98851689D01*
X169313817Y-98687754D01*
X169279200Y-98513721D01*
X169279200Y-98336279D01*
X169313817Y-98162246D01*
X169381721Y-97998311D01*
X169480303Y-97850773D01*
X169605773Y-97725303D01*
X169753311Y-97626721D01*
X169917246Y-97558817D01*
X170091279Y-97524200D01*
X170268721Y-97524200D01*
X170442754Y-97558817D01*
G37*
G36*
X173617754Y-97558817D02*
G01*
X173781689Y-97626721D01*
X173929227Y-97725303D01*
X174054697Y-97850773D01*
X174153279Y-97998311D01*
X174221183Y-98162246D01*
X174255800Y-98336279D01*
X174255800Y-98513721D01*
X174221183Y-98687754D01*
X174153279Y-98851689D01*
X174054697Y-98999227D01*
X173929227Y-99124697D01*
X173781689Y-99223279D01*
X173617754Y-99291183D01*
X173443721Y-99325800D01*
X173266279Y-99325800D01*
X173092246Y-99291183D01*
X172928311Y-99223279D01*
X172780773Y-99124697D01*
X172655303Y-98999227D01*
X172556721Y-98851689D01*
X172488817Y-98687754D01*
X172454200Y-98513721D01*
X172454200Y-98336279D01*
X172488817Y-98162246D01*
X172556721Y-97998311D01*
X172655303Y-97850773D01*
X172780773Y-97725303D01*
X172928311Y-97626721D01*
X173092246Y-97558817D01*
X173266279Y-97524200D01*
X173443721Y-97524200D01*
X173617754Y-97558817D01*
G37*
G36*
X122182754Y-97558817D02*
G01*
X122346689Y-97626721D01*
X122494227Y-97725303D01*
X122619697Y-97850773D01*
X122718279Y-97998311D01*
X122786183Y-98162246D01*
X122820800Y-98336279D01*
X122820800Y-98513721D01*
X122786183Y-98687754D01*
X122718279Y-98851689D01*
X122619697Y-98999227D01*
X122494227Y-99124697D01*
X122346689Y-99223279D01*
X122182754Y-99291183D01*
X122008721Y-99325800D01*
X121831279Y-99325800D01*
X121657246Y-99291183D01*
X121493311Y-99223279D01*
X121345773Y-99124697D01*
X121220303Y-98999227D01*
X121121721Y-98851689D01*
X121053817Y-98687754D01*
X121019200Y-98513721D01*
X121019200Y-98336279D01*
X121053817Y-98162246D01*
X121121721Y-97998311D01*
X121220303Y-97850773D01*
X121345773Y-97725303D01*
X121493311Y-97626721D01*
X121657246Y-97558817D01*
X121831279Y-97524200D01*
X122008721Y-97524200D01*
X122182754Y-97558817D01*
G37*
G36*
X124722754Y-97558817D02*
G01*
X124886689Y-97626721D01*
X125034227Y-97725303D01*
X125159697Y-97850773D01*
X125258279Y-97998311D01*
X125326183Y-98162246D01*
X125360800Y-98336279D01*
X125360800Y-98513721D01*
X125326183Y-98687754D01*
X125258279Y-98851689D01*
X125159697Y-98999227D01*
X125034227Y-99124697D01*
X124886689Y-99223279D01*
X124722754Y-99291183D01*
X124548721Y-99325800D01*
X124371279Y-99325800D01*
X124197246Y-99291183D01*
X124033311Y-99223279D01*
X123885773Y-99124697D01*
X123760303Y-98999227D01*
X123661721Y-98851689D01*
X123593817Y-98687754D01*
X123559200Y-98513721D01*
X123559200Y-98336279D01*
X123593817Y-98162246D01*
X123661721Y-97998311D01*
X123760303Y-97850773D01*
X123885773Y-97725303D01*
X124033311Y-97626721D01*
X124197246Y-97558817D01*
X124371279Y-97524200D01*
X124548721Y-97524200D01*
X124722754Y-97558817D01*
G37*
G36*
X129802754Y-97558817D02*
G01*
X129966689Y-97626721D01*
X130114227Y-97725303D01*
X130239697Y-97850773D01*
X130338279Y-97998311D01*
X130406183Y-98162246D01*
X130440800Y-98336279D01*
X130440800Y-98513721D01*
X130406183Y-98687754D01*
X130338279Y-98851689D01*
X130239697Y-98999227D01*
X130114227Y-99124697D01*
X129966689Y-99223279D01*
X129802754Y-99291183D01*
X129628721Y-99325800D01*
X129451279Y-99325800D01*
X129277246Y-99291183D01*
X129113311Y-99223279D01*
X128965773Y-99124697D01*
X128840303Y-98999227D01*
X128741721Y-98851689D01*
X128673817Y-98687754D01*
X128639200Y-98513721D01*
X128639200Y-98336279D01*
X128673817Y-98162246D01*
X128741721Y-97998311D01*
X128840303Y-97850773D01*
X128965773Y-97725303D01*
X129113311Y-97626721D01*
X129277246Y-97558817D01*
X129451279Y-97524200D01*
X129628721Y-97524200D01*
X129802754Y-97558817D01*
G37*
G36*
X132342754Y-97558817D02*
G01*
X132506689Y-97626721D01*
X132654227Y-97725303D01*
X132779697Y-97850773D01*
X132878279Y-97998311D01*
X132946183Y-98162246D01*
X132980800Y-98336279D01*
X132980800Y-98513721D01*
X132946183Y-98687754D01*
X132878279Y-98851689D01*
X132779697Y-98999227D01*
X132654227Y-99124697D01*
X132506689Y-99223279D01*
X132342754Y-99291183D01*
X132168721Y-99325800D01*
X131991279Y-99325800D01*
X131817246Y-99291183D01*
X131653311Y-99223279D01*
X131505773Y-99124697D01*
X131380303Y-98999227D01*
X131281721Y-98851689D01*
X131213817Y-98687754D01*
X131179200Y-98513721D01*
X131179200Y-98336279D01*
X131213817Y-98162246D01*
X131281721Y-97998311D01*
X131380303Y-97850773D01*
X131505773Y-97725303D01*
X131653311Y-97626721D01*
X131817246Y-97558817D01*
X131991279Y-97524200D01*
X132168721Y-97524200D01*
X132342754Y-97558817D01*
G37*
G36*
X139962754Y-97558817D02*
G01*
X140126689Y-97626721D01*
X140274227Y-97725303D01*
X140399697Y-97850773D01*
X140498279Y-97998311D01*
X140566183Y-98162246D01*
X140600800Y-98336279D01*
X140600800Y-98513721D01*
X140566183Y-98687754D01*
X140498279Y-98851689D01*
X140399697Y-98999227D01*
X140274227Y-99124697D01*
X140126689Y-99223279D01*
X139962754Y-99291183D01*
X139788721Y-99325800D01*
X139611279Y-99325800D01*
X139437246Y-99291183D01*
X139273311Y-99223279D01*
X139125773Y-99124697D01*
X139000303Y-98999227D01*
X138901721Y-98851689D01*
X138833817Y-98687754D01*
X138799200Y-98513721D01*
X138799200Y-98336279D01*
X138833817Y-98162246D01*
X138901721Y-97998311D01*
X139000303Y-97850773D01*
X139125773Y-97725303D01*
X139273311Y-97626721D01*
X139437246Y-97558817D01*
X139611279Y-97524200D01*
X139788721Y-97524200D01*
X139962754Y-97558817D01*
G37*
G36*
X112061588Y-96782233D02*
G01*
X112231388Y-96833742D01*
X112387881Y-96917389D01*
X112525044Y-97029956D01*
X112637611Y-97167119D01*
X112721258Y-97323612D01*
X112772767Y-97493412D01*
X112790159Y-97670000D01*
X112772767Y-97846588D01*
X112721258Y-98016388D01*
X112637611Y-98172881D01*
X112525044Y-98310044D01*
X112387881Y-98422611D01*
X112231388Y-98506258D01*
X112061588Y-98557767D01*
X111929259Y-98570800D01*
X111590741Y-98570800D01*
X111458412Y-98557767D01*
X111288612Y-98506258D01*
X111132119Y-98422611D01*
X110994956Y-98310044D01*
X110882389Y-98172881D01*
X110798742Y-98016388D01*
X110747233Y-97846588D01*
X110729841Y-97670000D01*
X110747233Y-97493412D01*
X110798742Y-97323612D01*
X110882389Y-97167119D01*
X110994956Y-97029956D01*
X111132119Y-96917389D01*
X111288612Y-96833742D01*
X111458412Y-96782233D01*
X111590741Y-96769200D01*
X111929259Y-96769200D01*
X112061588Y-96782233D01*
G37*
G36*
X117740800Y-98055800D02*
G01*
X115939200Y-98055800D01*
X115939200Y-96254200D01*
X117740800Y-96254200D01*
X117740800Y-98055800D01*
G37*
G36*
X112061588Y-94282233D02*
G01*
X112231388Y-94333742D01*
X112387881Y-94417389D01*
X112525044Y-94529956D01*
X112637611Y-94667119D01*
X112721258Y-94823612D01*
X112772767Y-94993412D01*
X112790159Y-95170000D01*
X112772767Y-95346588D01*
X112721258Y-95516388D01*
X112637611Y-95672881D01*
X112525044Y-95810044D01*
X112387881Y-95922611D01*
X112231388Y-96006258D01*
X112061588Y-96057767D01*
X111929259Y-96070800D01*
X111590741Y-96070800D01*
X111458412Y-96057767D01*
X111288612Y-96006258D01*
X111132119Y-95922611D01*
X110994956Y-95810044D01*
X110882389Y-95672881D01*
X110798742Y-95516388D01*
X110747233Y-95346588D01*
X110729841Y-95170000D01*
X110747233Y-94993412D01*
X110798742Y-94823612D01*
X110882389Y-94667119D01*
X110994956Y-94529956D01*
X111132119Y-94417389D01*
X111288612Y-94333742D01*
X111458412Y-94282233D01*
X111590741Y-94269200D01*
X111929259Y-94269200D01*
X112061588Y-94282233D01*
G37*
G36*
X167946507Y-93584582D02*
G01*
X168137740Y-93663793D01*
X168309846Y-93778791D01*
X168456209Y-93925154D01*
X168571207Y-94097260D01*
X168650418Y-94288493D01*
X168690800Y-94491505D01*
X168690800Y-94698495D01*
X168650418Y-94901507D01*
X168571207Y-95092740D01*
X168456209Y-95264846D01*
X168309846Y-95411209D01*
X168137740Y-95526207D01*
X167946507Y-95605418D01*
X167743495Y-95645800D01*
X167536505Y-95645800D01*
X167333493Y-95605418D01*
X167142260Y-95526207D01*
X166970154Y-95411209D01*
X166823791Y-95264846D01*
X166708793Y-95092740D01*
X166629582Y-94901507D01*
X166589200Y-94698495D01*
X166589200Y-94491505D01*
X166629582Y-94288493D01*
X166708793Y-94097260D01*
X166823791Y-93925154D01*
X166970154Y-93778791D01*
X167142260Y-93663793D01*
X167333493Y-93584582D01*
X167536505Y-93544200D01*
X167743495Y-93544200D01*
X167946507Y-93584582D01*
G37*
G36*
X117102754Y-93748817D02*
G01*
X117266689Y-93816721D01*
X117414227Y-93915303D01*
X117539697Y-94040773D01*
X117638279Y-94188311D01*
X117706183Y-94352246D01*
X117740800Y-94526279D01*
X117740800Y-94703721D01*
X117706183Y-94877754D01*
X117638279Y-95041689D01*
X117539697Y-95189227D01*
X117414227Y-95314697D01*
X117266689Y-95413279D01*
X117102754Y-95481183D01*
X116928721Y-95515800D01*
X116751279Y-95515800D01*
X116577246Y-95481183D01*
X116413311Y-95413279D01*
X116265773Y-95314697D01*
X116140303Y-95189227D01*
X116041721Y-95041689D01*
X115973817Y-94877754D01*
X115939200Y-94703721D01*
X115939200Y-94526279D01*
X115973817Y-94352246D01*
X116041721Y-94188311D01*
X116140303Y-94040773D01*
X116265773Y-93915303D01*
X116413311Y-93816721D01*
X116577246Y-93748817D01*
X116751279Y-93714200D01*
X116928721Y-93714200D01*
X117102754Y-93748817D01*
G37*
G36*
X112061588Y-91782233D02*
G01*
X112231388Y-91833742D01*
X112387881Y-91917389D01*
X112525044Y-92029956D01*
X112637611Y-92167119D01*
X112721258Y-92323612D01*
X112772767Y-92493412D01*
X112790159Y-92670000D01*
X112772767Y-92846588D01*
X112721258Y-93016388D01*
X112637611Y-93172881D01*
X112525044Y-93310044D01*
X112387881Y-93422611D01*
X112231388Y-93506258D01*
X112061588Y-93557767D01*
X111929259Y-93570800D01*
X111590741Y-93570800D01*
X111458412Y-93557767D01*
X111288612Y-93506258D01*
X111132119Y-93422611D01*
X110994956Y-93310044D01*
X110882389Y-93172881D01*
X110798742Y-93016388D01*
X110747233Y-92846588D01*
X110729841Y-92670000D01*
X110747233Y-92493412D01*
X110798742Y-92323612D01*
X110882389Y-92167119D01*
X110994956Y-92029956D01*
X111132119Y-91917389D01*
X111288612Y-91833742D01*
X111458412Y-91782233D01*
X111590741Y-91769200D01*
X111929259Y-91769200D01*
X112061588Y-91782233D01*
G37*
G36*
X112644586Y-89273171D02*
G01*
X112677352Y-89283111D01*
X112707552Y-89299253D01*
X112734023Y-89320977D01*
X112755747Y-89347448D01*
X112771889Y-89377648D01*
X112781829Y-89410414D01*
X112785800Y-89450738D01*
X112785800Y-90889262D01*
X112781829Y-90929586D01*
X112771889Y-90962352D01*
X112755747Y-90992552D01*
X112734023Y-91019023D01*
X112707552Y-91040747D01*
X112677352Y-91056889D01*
X112644586Y-91066829D01*
X112604262Y-91070800D01*
X110915738Y-91070800D01*
X110875414Y-91066829D01*
X110842648Y-91056889D01*
X110812448Y-91040747D01*
X110785977Y-91019023D01*
X110764253Y-90992552D01*
X110748111Y-90962352D01*
X110738171Y-90929586D01*
X110734200Y-90889262D01*
X110734200Y-89450738D01*
X110738171Y-89410414D01*
X110748111Y-89377648D01*
X110764253Y-89347448D01*
X110785977Y-89320977D01*
X110812448Y-89299253D01*
X110842648Y-89283111D01*
X110875414Y-89273171D01*
X110915738Y-89269200D01*
X112604262Y-89269200D01*
X112644586Y-89273171D01*
G37*
G36*
X168690800Y-88045800D02*
G01*
X166589200Y-88045800D01*
X166589200Y-85944200D01*
X168690800Y-85944200D01*
X168690800Y-88045800D01*
G37*
G36*
X112061588Y-82812233D02*
G01*
X112231388Y-82863742D01*
X112387881Y-82947389D01*
X112525044Y-83059956D01*
X112637611Y-83197119D01*
X112721258Y-83353612D01*
X112772767Y-83523412D01*
X112790159Y-83700000D01*
X112772767Y-83876588D01*
X112721258Y-84046388D01*
X112637611Y-84202881D01*
X112525044Y-84340044D01*
X112387881Y-84452611D01*
X112231388Y-84536258D01*
X112061588Y-84587767D01*
X111929259Y-84600800D01*
X111590741Y-84600800D01*
X111458412Y-84587767D01*
X111288612Y-84536258D01*
X111132119Y-84452611D01*
X110994956Y-84340044D01*
X110882389Y-84202881D01*
X110798742Y-84046388D01*
X110747233Y-83876588D01*
X110729841Y-83700000D01*
X110747233Y-83523412D01*
X110798742Y-83353612D01*
X110882389Y-83197119D01*
X110994956Y-83059956D01*
X111132119Y-82947389D01*
X111288612Y-82863742D01*
X111458412Y-82812233D01*
X111590741Y-82799200D01*
X111929259Y-82799200D01*
X112061588Y-82812233D01*
G37*
G36*
X145042754Y-82318817D02*
G01*
X145206689Y-82386721D01*
X145354227Y-82485303D01*
X145479697Y-82610773D01*
X145578279Y-82758311D01*
X145646183Y-82922246D01*
X145680800Y-83096279D01*
X145680800Y-83273721D01*
X145646183Y-83447754D01*
X145578279Y-83611689D01*
X145479697Y-83759227D01*
X145354227Y-83884697D01*
X145206689Y-83983279D01*
X145042754Y-84051183D01*
X144868721Y-84085800D01*
X144691279Y-84085800D01*
X144517246Y-84051183D01*
X144353311Y-83983279D01*
X144205773Y-83884697D01*
X144080303Y-83759227D01*
X143981721Y-83611689D01*
X143913817Y-83447754D01*
X143879200Y-83273721D01*
X143879200Y-83096279D01*
X143913817Y-82922246D01*
X143981721Y-82758311D01*
X144080303Y-82610773D01*
X144205773Y-82485303D01*
X144353311Y-82386721D01*
X144517246Y-82318817D01*
X144691279Y-82284200D01*
X144868721Y-82284200D01*
X145042754Y-82318817D01*
G37*
G36*
X142502754Y-82318817D02*
G01*
X142666689Y-82386721D01*
X142814227Y-82485303D01*
X142939697Y-82610773D01*
X143038279Y-82758311D01*
X143106183Y-82922246D01*
X143140800Y-83096279D01*
X143140800Y-83273721D01*
X143106183Y-83447754D01*
X143038279Y-83611689D01*
X142939697Y-83759227D01*
X142814227Y-83884697D01*
X142666689Y-83983279D01*
X142502754Y-84051183D01*
X142328721Y-84085800D01*
X142151279Y-84085800D01*
X141977246Y-84051183D01*
X141813311Y-83983279D01*
X141665773Y-83884697D01*
X141540303Y-83759227D01*
X141441721Y-83611689D01*
X141373817Y-83447754D01*
X141339200Y-83273721D01*
X141339200Y-83096279D01*
X141373817Y-82922246D01*
X141441721Y-82758311D01*
X141540303Y-82610773D01*
X141665773Y-82485303D01*
X141813311Y-82386721D01*
X141977246Y-82318817D01*
X142151279Y-82284200D01*
X142328721Y-82284200D01*
X142502754Y-82318817D01*
G37*
G36*
X139962754Y-82318817D02*
G01*
X140126689Y-82386721D01*
X140274227Y-82485303D01*
X140399697Y-82610773D01*
X140498279Y-82758311D01*
X140566183Y-82922246D01*
X140600800Y-83096279D01*
X140600800Y-83273721D01*
X140566183Y-83447754D01*
X140498279Y-83611689D01*
X140399697Y-83759227D01*
X140274227Y-83884697D01*
X140126689Y-83983279D01*
X139962754Y-84051183D01*
X139788721Y-84085800D01*
X139611279Y-84085800D01*
X139437246Y-84051183D01*
X139273311Y-83983279D01*
X139125773Y-83884697D01*
X139000303Y-83759227D01*
X138901721Y-83611689D01*
X138833817Y-83447754D01*
X138799200Y-83273721D01*
X138799200Y-83096279D01*
X138833817Y-82922246D01*
X138901721Y-82758311D01*
X139000303Y-82610773D01*
X139125773Y-82485303D01*
X139273311Y-82386721D01*
X139437246Y-82318817D01*
X139611279Y-82284200D01*
X139788721Y-82284200D01*
X139962754Y-82318817D01*
G37*
G36*
X137422754Y-82318817D02*
G01*
X137586689Y-82386721D01*
X137734227Y-82485303D01*
X137859697Y-82610773D01*
X137958279Y-82758311D01*
X138026183Y-82922246D01*
X138060800Y-83096279D01*
X138060800Y-83273721D01*
X138026183Y-83447754D01*
X137958279Y-83611689D01*
X137859697Y-83759227D01*
X137734227Y-83884697D01*
X137586689Y-83983279D01*
X137422754Y-84051183D01*
X137248721Y-84085800D01*
X137071279Y-84085800D01*
X136897246Y-84051183D01*
X136733311Y-83983279D01*
X136585773Y-83884697D01*
X136460303Y-83759227D01*
X136361721Y-83611689D01*
X136293817Y-83447754D01*
X136259200Y-83273721D01*
X136259200Y-83096279D01*
X136293817Y-82922246D01*
X136361721Y-82758311D01*
X136460303Y-82610773D01*
X136585773Y-82485303D01*
X136733311Y-82386721D01*
X136897246Y-82318817D01*
X137071279Y-82284200D01*
X137248721Y-82284200D01*
X137422754Y-82318817D01*
G37*
G36*
X134882754Y-82318817D02*
G01*
X135046689Y-82386721D01*
X135194227Y-82485303D01*
X135319697Y-82610773D01*
X135418279Y-82758311D01*
X135486183Y-82922246D01*
X135520800Y-83096279D01*
X135520800Y-83273721D01*
X135486183Y-83447754D01*
X135418279Y-83611689D01*
X135319697Y-83759227D01*
X135194227Y-83884697D01*
X135046689Y-83983279D01*
X134882754Y-84051183D01*
X134708721Y-84085800D01*
X134531279Y-84085800D01*
X134357246Y-84051183D01*
X134193311Y-83983279D01*
X134045773Y-83884697D01*
X133920303Y-83759227D01*
X133821721Y-83611689D01*
X133753817Y-83447754D01*
X133719200Y-83273721D01*
X133719200Y-83096279D01*
X133753817Y-82922246D01*
X133821721Y-82758311D01*
X133920303Y-82610773D01*
X134045773Y-82485303D01*
X134193311Y-82386721D01*
X134357246Y-82318817D01*
X134531279Y-82284200D01*
X134708721Y-82284200D01*
X134882754Y-82318817D01*
G37*
G36*
X147582754Y-82318817D02*
G01*
X147746689Y-82386721D01*
X147894227Y-82485303D01*
X148019697Y-82610773D01*
X148118279Y-82758311D01*
X148186183Y-82922246D01*
X148220800Y-83096279D01*
X148220800Y-83273721D01*
X148186183Y-83447754D01*
X148118279Y-83611689D01*
X148019697Y-83759227D01*
X147894227Y-83884697D01*
X147746689Y-83983279D01*
X147582754Y-84051183D01*
X147408721Y-84085800D01*
X147231279Y-84085800D01*
X147057246Y-84051183D01*
X146893311Y-83983279D01*
X146745773Y-83884697D01*
X146620303Y-83759227D01*
X146521721Y-83611689D01*
X146453817Y-83447754D01*
X146419200Y-83273721D01*
X146419200Y-83096279D01*
X146453817Y-82922246D01*
X146521721Y-82758311D01*
X146620303Y-82610773D01*
X146745773Y-82485303D01*
X146893311Y-82386721D01*
X147057246Y-82318817D01*
X147231279Y-82284200D01*
X147408721Y-82284200D01*
X147582754Y-82318817D01*
G37*
G36*
X150122754Y-82318817D02*
G01*
X150286689Y-82386721D01*
X150434227Y-82485303D01*
X150559697Y-82610773D01*
X150658279Y-82758311D01*
X150726183Y-82922246D01*
X150760800Y-83096279D01*
X150760800Y-83273721D01*
X150726183Y-83447754D01*
X150658279Y-83611689D01*
X150559697Y-83759227D01*
X150434227Y-83884697D01*
X150286689Y-83983279D01*
X150122754Y-84051183D01*
X149948721Y-84085800D01*
X149771279Y-84085800D01*
X149597246Y-84051183D01*
X149433311Y-83983279D01*
X149285773Y-83884697D01*
X149160303Y-83759227D01*
X149061721Y-83611689D01*
X148993817Y-83447754D01*
X148959200Y-83273721D01*
X148959200Y-83096279D01*
X148993817Y-82922246D01*
X149061721Y-82758311D01*
X149160303Y-82610773D01*
X149285773Y-82485303D01*
X149433311Y-82386721D01*
X149597246Y-82318817D01*
X149771279Y-82284200D01*
X149948721Y-82284200D01*
X150122754Y-82318817D01*
G37*
G36*
X152662754Y-82318817D02*
G01*
X152826689Y-82386721D01*
X152974227Y-82485303D01*
X153099697Y-82610773D01*
X153198279Y-82758311D01*
X153266183Y-82922246D01*
X153300800Y-83096279D01*
X153300800Y-83273721D01*
X153266183Y-83447754D01*
X153198279Y-83611689D01*
X153099697Y-83759227D01*
X152974227Y-83884697D01*
X152826689Y-83983279D01*
X152662754Y-84051183D01*
X152488721Y-84085800D01*
X152311279Y-84085800D01*
X152137246Y-84051183D01*
X151973311Y-83983279D01*
X151825773Y-83884697D01*
X151700303Y-83759227D01*
X151601721Y-83611689D01*
X151533817Y-83447754D01*
X151499200Y-83273721D01*
X151499200Y-83096279D01*
X151533817Y-82922246D01*
X151601721Y-82758311D01*
X151700303Y-82610773D01*
X151825773Y-82485303D01*
X151973311Y-82386721D01*
X152137246Y-82318817D01*
X152311279Y-82284200D01*
X152488721Y-82284200D01*
X152662754Y-82318817D01*
G37*
G36*
X155202754Y-82318817D02*
G01*
X155366689Y-82386721D01*
X155514227Y-82485303D01*
X155639697Y-82610773D01*
X155738279Y-82758311D01*
X155806183Y-82922246D01*
X155840800Y-83096279D01*
X155840800Y-83273721D01*
X155806183Y-83447754D01*
X155738279Y-83611689D01*
X155639697Y-83759227D01*
X155514227Y-83884697D01*
X155366689Y-83983279D01*
X155202754Y-84051183D01*
X155028721Y-84085800D01*
X154851279Y-84085800D01*
X154677246Y-84051183D01*
X154513311Y-83983279D01*
X154365773Y-83884697D01*
X154240303Y-83759227D01*
X154141721Y-83611689D01*
X154073817Y-83447754D01*
X154039200Y-83273721D01*
X154039200Y-83096279D01*
X154073817Y-82922246D01*
X154141721Y-82758311D01*
X154240303Y-82610773D01*
X154365773Y-82485303D01*
X154513311Y-82386721D01*
X154677246Y-82318817D01*
X154851279Y-82284200D01*
X155028721Y-82284200D01*
X155202754Y-82318817D01*
G37*
G36*
X157742754Y-82318817D02*
G01*
X157906689Y-82386721D01*
X158054227Y-82485303D01*
X158179697Y-82610773D01*
X158278279Y-82758311D01*
X158346183Y-82922246D01*
X158380800Y-83096279D01*
X158380800Y-83273721D01*
X158346183Y-83447754D01*
X158278279Y-83611689D01*
X158179697Y-83759227D01*
X158054227Y-83884697D01*
X157906689Y-83983279D01*
X157742754Y-84051183D01*
X157568721Y-84085800D01*
X157391279Y-84085800D01*
X157217246Y-84051183D01*
X157053311Y-83983279D01*
X156905773Y-83884697D01*
X156780303Y-83759227D01*
X156681721Y-83611689D01*
X156613817Y-83447754D01*
X156579200Y-83273721D01*
X156579200Y-83096279D01*
X156613817Y-82922246D01*
X156681721Y-82758311D01*
X156780303Y-82610773D01*
X156905773Y-82485303D01*
X157053311Y-82386721D01*
X157217246Y-82318817D01*
X157391279Y-82284200D01*
X157568721Y-82284200D01*
X157742754Y-82318817D01*
G37*
G36*
X160282754Y-82318817D02*
G01*
X160446689Y-82386721D01*
X160594227Y-82485303D01*
X160719697Y-82610773D01*
X160818279Y-82758311D01*
X160886183Y-82922246D01*
X160920800Y-83096279D01*
X160920800Y-83273721D01*
X160886183Y-83447754D01*
X160818279Y-83611689D01*
X160719697Y-83759227D01*
X160594227Y-83884697D01*
X160446689Y-83983279D01*
X160282754Y-84051183D01*
X160108721Y-84085800D01*
X159931279Y-84085800D01*
X159757246Y-84051183D01*
X159593311Y-83983279D01*
X159445773Y-83884697D01*
X159320303Y-83759227D01*
X159221721Y-83611689D01*
X159153817Y-83447754D01*
X159119200Y-83273721D01*
X159119200Y-83096279D01*
X159153817Y-82922246D01*
X159221721Y-82758311D01*
X159320303Y-82610773D01*
X159445773Y-82485303D01*
X159593311Y-82386721D01*
X159757246Y-82318817D01*
X159931279Y-82284200D01*
X160108721Y-82284200D01*
X160282754Y-82318817D01*
G37*
G36*
X170442754Y-82318817D02*
G01*
X170606689Y-82386721D01*
X170754227Y-82485303D01*
X170879697Y-82610773D01*
X170978279Y-82758311D01*
X171046183Y-82922246D01*
X171080800Y-83096279D01*
X171080800Y-83273721D01*
X171046183Y-83447754D01*
X170978279Y-83611689D01*
X170879697Y-83759227D01*
X170754227Y-83884697D01*
X170606689Y-83983279D01*
X170442754Y-84051183D01*
X170268721Y-84085800D01*
X170091279Y-84085800D01*
X169917246Y-84051183D01*
X169753311Y-83983279D01*
X169605773Y-83884697D01*
X169480303Y-83759227D01*
X169381721Y-83611689D01*
X169313817Y-83447754D01*
X169279200Y-83273721D01*
X169279200Y-83096279D01*
X169313817Y-82922246D01*
X169381721Y-82758311D01*
X169480303Y-82610773D01*
X169605773Y-82485303D01*
X169753311Y-82386721D01*
X169917246Y-82318817D01*
X170091279Y-82284200D01*
X170268721Y-82284200D01*
X170442754Y-82318817D01*
G37*
G36*
X165362754Y-82318817D02*
G01*
X165526689Y-82386721D01*
X165674227Y-82485303D01*
X165799697Y-82610773D01*
X165898279Y-82758311D01*
X165966183Y-82922246D01*
X166000800Y-83096279D01*
X166000800Y-83273721D01*
X165966183Y-83447754D01*
X165898279Y-83611689D01*
X165799697Y-83759227D01*
X165674227Y-83884697D01*
X165526689Y-83983279D01*
X165362754Y-84051183D01*
X165188721Y-84085800D01*
X165011279Y-84085800D01*
X164837246Y-84051183D01*
X164673311Y-83983279D01*
X164525773Y-83884697D01*
X164400303Y-83759227D01*
X164301721Y-83611689D01*
X164233817Y-83447754D01*
X164199200Y-83273721D01*
X164199200Y-83096279D01*
X164233817Y-82922246D01*
X164301721Y-82758311D01*
X164400303Y-82610773D01*
X164525773Y-82485303D01*
X164673311Y-82386721D01*
X164837246Y-82318817D01*
X165011279Y-82284200D01*
X165188721Y-82284200D01*
X165362754Y-82318817D01*
G37*
G36*
X167902754Y-82318817D02*
G01*
X168066689Y-82386721D01*
X168214227Y-82485303D01*
X168339697Y-82610773D01*
X168438279Y-82758311D01*
X168506183Y-82922246D01*
X168540800Y-83096279D01*
X168540800Y-83273721D01*
X168506183Y-83447754D01*
X168438279Y-83611689D01*
X168339697Y-83759227D01*
X168214227Y-83884697D01*
X168066689Y-83983279D01*
X167902754Y-84051183D01*
X167728721Y-84085800D01*
X167551279Y-84085800D01*
X167377246Y-84051183D01*
X167213311Y-83983279D01*
X167065773Y-83884697D01*
X166940303Y-83759227D01*
X166841721Y-83611689D01*
X166773817Y-83447754D01*
X166739200Y-83273721D01*
X166739200Y-83096279D01*
X166773817Y-82922246D01*
X166841721Y-82758311D01*
X166940303Y-82610773D01*
X167065773Y-82485303D01*
X167213311Y-82386721D01*
X167377246Y-82318817D01*
X167551279Y-82284200D01*
X167728721Y-82284200D01*
X167902754Y-82318817D01*
G37*
G36*
X122182754Y-82318817D02*
G01*
X122346689Y-82386721D01*
X122494227Y-82485303D01*
X122619697Y-82610773D01*
X122718279Y-82758311D01*
X122786183Y-82922246D01*
X122820800Y-83096279D01*
X122820800Y-83273721D01*
X122786183Y-83447754D01*
X122718279Y-83611689D01*
X122619697Y-83759227D01*
X122494227Y-83884697D01*
X122346689Y-83983279D01*
X122182754Y-84051183D01*
X122008721Y-84085800D01*
X121831279Y-84085800D01*
X121657246Y-84051183D01*
X121493311Y-83983279D01*
X121345773Y-83884697D01*
X121220303Y-83759227D01*
X121121721Y-83611689D01*
X121053817Y-83447754D01*
X121019200Y-83273721D01*
X121019200Y-83096279D01*
X121053817Y-82922246D01*
X121121721Y-82758311D01*
X121220303Y-82610773D01*
X121345773Y-82485303D01*
X121493311Y-82386721D01*
X121657246Y-82318817D01*
X121831279Y-82284200D01*
X122008721Y-82284200D01*
X122182754Y-82318817D01*
G37*
G36*
X124722754Y-82318817D02*
G01*
X124886689Y-82386721D01*
X125034227Y-82485303D01*
X125159697Y-82610773D01*
X125258279Y-82758311D01*
X125326183Y-82922246D01*
X125360800Y-83096279D01*
X125360800Y-83273721D01*
X125326183Y-83447754D01*
X125258279Y-83611689D01*
X125159697Y-83759227D01*
X125034227Y-83884697D01*
X124886689Y-83983279D01*
X124722754Y-84051183D01*
X124548721Y-84085800D01*
X124371279Y-84085800D01*
X124197246Y-84051183D01*
X124033311Y-83983279D01*
X123885773Y-83884697D01*
X123760303Y-83759227D01*
X123661721Y-83611689D01*
X123593817Y-83447754D01*
X123559200Y-83273721D01*
X123559200Y-83096279D01*
X123593817Y-82922246D01*
X123661721Y-82758311D01*
X123760303Y-82610773D01*
X123885773Y-82485303D01*
X124033311Y-82386721D01*
X124197246Y-82318817D01*
X124371279Y-82284200D01*
X124548721Y-82284200D01*
X124722754Y-82318817D01*
G37*
G36*
X127262754Y-82318817D02*
G01*
X127426689Y-82386721D01*
X127574227Y-82485303D01*
X127699697Y-82610773D01*
X127798279Y-82758311D01*
X127866183Y-82922246D01*
X127900800Y-83096279D01*
X127900800Y-83273721D01*
X127866183Y-83447754D01*
X127798279Y-83611689D01*
X127699697Y-83759227D01*
X127574227Y-83884697D01*
X127426689Y-83983279D01*
X127262754Y-84051183D01*
X127088721Y-84085800D01*
X126911279Y-84085800D01*
X126737246Y-84051183D01*
X126573311Y-83983279D01*
X126425773Y-83884697D01*
X126300303Y-83759227D01*
X126201721Y-83611689D01*
X126133817Y-83447754D01*
X126099200Y-83273721D01*
X126099200Y-83096279D01*
X126133817Y-82922246D01*
X126201721Y-82758311D01*
X126300303Y-82610773D01*
X126425773Y-82485303D01*
X126573311Y-82386721D01*
X126737246Y-82318817D01*
X126911279Y-82284200D01*
X127088721Y-82284200D01*
X127262754Y-82318817D01*
G37*
G36*
X129802754Y-82318817D02*
G01*
X129966689Y-82386721D01*
X130114227Y-82485303D01*
X130239697Y-82610773D01*
X130338279Y-82758311D01*
X130406183Y-82922246D01*
X130440800Y-83096279D01*
X130440800Y-83273721D01*
X130406183Y-83447754D01*
X130338279Y-83611689D01*
X130239697Y-83759227D01*
X130114227Y-83884697D01*
X129966689Y-83983279D01*
X129802754Y-84051183D01*
X129628721Y-84085800D01*
X129451279Y-84085800D01*
X129277246Y-84051183D01*
X129113311Y-83983279D01*
X128965773Y-83884697D01*
X128840303Y-83759227D01*
X128741721Y-83611689D01*
X128673817Y-83447754D01*
X128639200Y-83273721D01*
X128639200Y-83096279D01*
X128673817Y-82922246D01*
X128741721Y-82758311D01*
X128840303Y-82610773D01*
X128965773Y-82485303D01*
X129113311Y-82386721D01*
X129277246Y-82318817D01*
X129451279Y-82284200D01*
X129628721Y-82284200D01*
X129802754Y-82318817D01*
G37*
G36*
X132342754Y-82318817D02*
G01*
X132506689Y-82386721D01*
X132654227Y-82485303D01*
X132779697Y-82610773D01*
X132878279Y-82758311D01*
X132946183Y-82922246D01*
X132980800Y-83096279D01*
X132980800Y-83273721D01*
X132946183Y-83447754D01*
X132878279Y-83611689D01*
X132779697Y-83759227D01*
X132654227Y-83884697D01*
X132506689Y-83983279D01*
X132342754Y-84051183D01*
X132168721Y-84085800D01*
X131991279Y-84085800D01*
X131817246Y-84051183D01*
X131653311Y-83983279D01*
X131505773Y-83884697D01*
X131380303Y-83759227D01*
X131281721Y-83611689D01*
X131213817Y-83447754D01*
X131179200Y-83273721D01*
X131179200Y-83096279D01*
X131213817Y-82922246D01*
X131281721Y-82758311D01*
X131380303Y-82610773D01*
X131505773Y-82485303D01*
X131653311Y-82386721D01*
X131817246Y-82318817D01*
X131991279Y-82284200D01*
X132168721Y-82284200D01*
X132342754Y-82318817D01*
G37*
G36*
X162822754Y-82318817D02*
G01*
X162986689Y-82386721D01*
X163134227Y-82485303D01*
X163259697Y-82610773D01*
X163358279Y-82758311D01*
X163426183Y-82922246D01*
X163460800Y-83096279D01*
X163460800Y-83273721D01*
X163426183Y-83447754D01*
X163358279Y-83611689D01*
X163259697Y-83759227D01*
X163134227Y-83884697D01*
X162986689Y-83983279D01*
X162822754Y-84051183D01*
X162648721Y-84085800D01*
X162471279Y-84085800D01*
X162297246Y-84051183D01*
X162133311Y-83983279D01*
X161985773Y-83884697D01*
X161860303Y-83759227D01*
X161761721Y-83611689D01*
X161693817Y-83447754D01*
X161659200Y-83273721D01*
X161659200Y-83096279D01*
X161693817Y-82922246D01*
X161761721Y-82758311D01*
X161860303Y-82610773D01*
X161985773Y-82485303D01*
X162133311Y-82386721D01*
X162297246Y-82318817D01*
X162471279Y-82284200D01*
X162648721Y-82284200D01*
X162822754Y-82318817D01*
G37*
G36*
X112061588Y-80312233D02*
G01*
X112231388Y-80363742D01*
X112387881Y-80447389D01*
X112525044Y-80559956D01*
X112637611Y-80697119D01*
X112721258Y-80853612D01*
X112772767Y-81023412D01*
X112790159Y-81200000D01*
X112772767Y-81376588D01*
X112721258Y-81546388D01*
X112637611Y-81702881D01*
X112525044Y-81840044D01*
X112387881Y-81952611D01*
X112231388Y-82036258D01*
X112061588Y-82087767D01*
X111929259Y-82100800D01*
X111590741Y-82100800D01*
X111458412Y-82087767D01*
X111288612Y-82036258D01*
X111132119Y-81952611D01*
X110994956Y-81840044D01*
X110882389Y-81702881D01*
X110798742Y-81546388D01*
X110747233Y-81376588D01*
X110729841Y-81200000D01*
X110747233Y-81023412D01*
X110798742Y-80853612D01*
X110882389Y-80697119D01*
X110994956Y-80559956D01*
X111132119Y-80447389D01*
X111288612Y-80363742D01*
X111458412Y-80312233D01*
X111590741Y-80299200D01*
X111929259Y-80299200D01*
X112061588Y-80312233D01*
G37*
G36*
X152989449Y-80413650D02*
G01*
X153026914Y-80425015D01*
X153061438Y-80443469D01*
X153091698Y-80468302D01*
X153116531Y-80498562D01*
X153134985Y-80533086D01*
X153146350Y-80570551D01*
X153150800Y-80615738D01*
X153150800Y-81454262D01*
X153146350Y-81499449D01*
X153134985Y-81536914D01*
X153116531Y-81571438D01*
X153091698Y-81601698D01*
X153061438Y-81626531D01*
X153026914Y-81644985D01*
X152989449Y-81656350D01*
X152944262Y-81660800D01*
X151855738Y-81660800D01*
X151810551Y-81656350D01*
X151773086Y-81644985D01*
X151738562Y-81626531D01*
X151708302Y-81601698D01*
X151683469Y-81571438D01*
X151665015Y-81536914D01*
X151653650Y-81499449D01*
X151649200Y-81454262D01*
X151649200Y-80615738D01*
X151653650Y-80570551D01*
X151665015Y-80533086D01*
X151683469Y-80498562D01*
X151708302Y-80468302D01*
X151738562Y-80443469D01*
X151773086Y-80425015D01*
X151810551Y-80413650D01*
X151855738Y-80409200D01*
X152944262Y-80409200D01*
X152989449Y-80413650D01*
G37*
G36*
X155529449Y-80413650D02*
G01*
X155566914Y-80425015D01*
X155601438Y-80443469D01*
X155631698Y-80468302D01*
X155656531Y-80498562D01*
X155674985Y-80533086D01*
X155686350Y-80570551D01*
X155690800Y-80615738D01*
X155690800Y-81454262D01*
X155686350Y-81499449D01*
X155674985Y-81536914D01*
X155656531Y-81571438D01*
X155631698Y-81601698D01*
X155601438Y-81626531D01*
X155566914Y-81644985D01*
X155529449Y-81656350D01*
X155484262Y-81660800D01*
X154395738Y-81660800D01*
X154350551Y-81656350D01*
X154313086Y-81644985D01*
X154278562Y-81626531D01*
X154248302Y-81601698D01*
X154223469Y-81571438D01*
X154205015Y-81536914D01*
X154193650Y-81499449D01*
X154189200Y-81454262D01*
X154189200Y-80615738D01*
X154193650Y-80570551D01*
X154205015Y-80533086D01*
X154223469Y-80498562D01*
X154248302Y-80468302D01*
X154278562Y-80443469D01*
X154313086Y-80425015D01*
X154350551Y-80413650D01*
X154395738Y-80409200D01*
X155484262Y-80409200D01*
X155529449Y-80413650D01*
G37*
G36*
X160282754Y-78508817D02*
G01*
X160446689Y-78576721D01*
X160594227Y-78675303D01*
X160719697Y-78800773D01*
X160818279Y-78948311D01*
X160886183Y-79112246D01*
X160920800Y-79286279D01*
X160920800Y-79463721D01*
X160886183Y-79637754D01*
X160818279Y-79801689D01*
X160719697Y-79949227D01*
X160594227Y-80074697D01*
X160446689Y-80173279D01*
X160282754Y-80241183D01*
X160108721Y-80275800D01*
X159931279Y-80275800D01*
X159757246Y-80241183D01*
X159593311Y-80173279D01*
X159445773Y-80074697D01*
X159320303Y-79949227D01*
X159221721Y-79801689D01*
X159153817Y-79637754D01*
X159119200Y-79463721D01*
X159119200Y-79286279D01*
X159153817Y-79112246D01*
X159221721Y-78948311D01*
X159320303Y-78800773D01*
X159445773Y-78675303D01*
X159593311Y-78576721D01*
X159757246Y-78508817D01*
X159931279Y-78474200D01*
X160108721Y-78474200D01*
X160282754Y-78508817D01*
G37*
G36*
X152989449Y-78363650D02*
G01*
X153026914Y-78375015D01*
X153061438Y-78393469D01*
X153091698Y-78418302D01*
X153116531Y-78448562D01*
X153134985Y-78483086D01*
X153146350Y-78520551D01*
X153150800Y-78565738D01*
X153150800Y-79404262D01*
X153146350Y-79449449D01*
X153134985Y-79486914D01*
X153116531Y-79521438D01*
X153091698Y-79551698D01*
X153061438Y-79576531D01*
X153026914Y-79594985D01*
X152989449Y-79606350D01*
X152944262Y-79610800D01*
X151855738Y-79610800D01*
X151810551Y-79606350D01*
X151773086Y-79594985D01*
X151738562Y-79576531D01*
X151708302Y-79551698D01*
X151683469Y-79521438D01*
X151665015Y-79486914D01*
X151653650Y-79449449D01*
X151649200Y-79404262D01*
X151649200Y-78565738D01*
X151653650Y-78520551D01*
X151665015Y-78483086D01*
X151683469Y-78448562D01*
X151708302Y-78418302D01*
X151738562Y-78393469D01*
X151773086Y-78375015D01*
X151810551Y-78363650D01*
X151855738Y-78359200D01*
X152944262Y-78359200D01*
X152989449Y-78363650D01*
G37*
G36*
X155529449Y-78363650D02*
G01*
X155566914Y-78375015D01*
X155601438Y-78393469D01*
X155631698Y-78418302D01*
X155656531Y-78448562D01*
X155674985Y-78483086D01*
X155686350Y-78520551D01*
X155690800Y-78565738D01*
X155690800Y-79404262D01*
X155686350Y-79449449D01*
X155674985Y-79486914D01*
X155656531Y-79521438D01*
X155631698Y-79551698D01*
X155601438Y-79576531D01*
X155566914Y-79594985D01*
X155529449Y-79606350D01*
X155484262Y-79610800D01*
X154395738Y-79610800D01*
X154350551Y-79606350D01*
X154313086Y-79594985D01*
X154278562Y-79576531D01*
X154248302Y-79551698D01*
X154223469Y-79521438D01*
X154205015Y-79486914D01*
X154193650Y-79449449D01*
X154189200Y-79404262D01*
X154189200Y-78565738D01*
X154193650Y-78520551D01*
X154205015Y-78483086D01*
X154223469Y-78448562D01*
X154248302Y-78418302D01*
X154278562Y-78393469D01*
X154313086Y-78375015D01*
X154350551Y-78363650D01*
X154395738Y-78359200D01*
X155484262Y-78359200D01*
X155529449Y-78363650D01*
G37*
G36*
X112061588Y-77812233D02*
G01*
X112231388Y-77863742D01*
X112387881Y-77947389D01*
X112525044Y-78059956D01*
X112637611Y-78197119D01*
X112721258Y-78353612D01*
X112772767Y-78523412D01*
X112790159Y-78700000D01*
X112772767Y-78876588D01*
X112721258Y-79046388D01*
X112637611Y-79202881D01*
X112525044Y-79340044D01*
X112387881Y-79452611D01*
X112231388Y-79536258D01*
X112061588Y-79587767D01*
X111929259Y-79600800D01*
X111590741Y-79600800D01*
X111458412Y-79587767D01*
X111288612Y-79536258D01*
X111132119Y-79452611D01*
X110994956Y-79340044D01*
X110882389Y-79202881D01*
X110798742Y-79046388D01*
X110747233Y-78876588D01*
X110729841Y-78700000D01*
X110747233Y-78523412D01*
X110798742Y-78353612D01*
X110882389Y-78197119D01*
X110994956Y-78059956D01*
X111132119Y-77947389D01*
X111288612Y-77863742D01*
X111458412Y-77812233D01*
X111590741Y-77799200D01*
X111929259Y-77799200D01*
X112061588Y-77812233D01*
G37*
G36*
X169126588Y-75797233D02*
G01*
X169296388Y-75848742D01*
X169452881Y-75932389D01*
X169590044Y-76044956D01*
X169702611Y-76182119D01*
X169786258Y-76338613D01*
X169837767Y-76508413D01*
X169850800Y-76640742D01*
X169850800Y-77029259D01*
X169837767Y-77161588D01*
X169786258Y-77331388D01*
X169702611Y-77487881D01*
X169590044Y-77625044D01*
X169452881Y-77737611D01*
X169296387Y-77821258D01*
X169126587Y-77872767D01*
X168950000Y-77890159D01*
X168773412Y-77872767D01*
X168603612Y-77821258D01*
X168447119Y-77737611D01*
X168309956Y-77625044D01*
X168197389Y-77487881D01*
X168113742Y-77331387D01*
X168062233Y-77161587D01*
X168049200Y-77029258D01*
X168049200Y-76640741D01*
X168062233Y-76508412D01*
X168113742Y-76338612D01*
X168197387Y-76182122D01*
X168309959Y-76044954D01*
X168447120Y-75932389D01*
X168603613Y-75848742D01*
X168773413Y-75797233D01*
X168950000Y-75779841D01*
X169126588Y-75797233D01*
G37*
G36*
X172209586Y-75788171D02*
G01*
X172242352Y-75798111D01*
X172272552Y-75814253D01*
X172299023Y-75835977D01*
X172320747Y-75862448D01*
X172336889Y-75892648D01*
X172346829Y-75925414D01*
X172350800Y-75965738D01*
X172350800Y-77704262D01*
X172346829Y-77744586D01*
X172336889Y-77777352D01*
X172320747Y-77807552D01*
X172299023Y-77834023D01*
X172272552Y-77855747D01*
X172242352Y-77871889D01*
X172209586Y-77881829D01*
X172169262Y-77885800D01*
X170730738Y-77885800D01*
X170690414Y-77881829D01*
X170657648Y-77871889D01*
X170627448Y-77855747D01*
X170600977Y-77834023D01*
X170579253Y-77807552D01*
X170563111Y-77777352D01*
X170553171Y-77744586D01*
X170549200Y-77704262D01*
X170549200Y-75965738D01*
X170553171Y-75925414D01*
X170563111Y-75892648D01*
X170579253Y-75862448D01*
X170600977Y-75835977D01*
X170627448Y-75814253D01*
X170657648Y-75798111D01*
X170690414Y-75788171D01*
X170730738Y-75784200D01*
X172169262Y-75784200D01*
X172209586Y-75788171D01*
G37*
G36*
X142496588Y-75822233D02*
G01*
X142666388Y-75873742D01*
X142822881Y-75957389D01*
X142960044Y-76069956D01*
X143072611Y-76207119D01*
X143156258Y-76363613D01*
X143207767Y-76533413D01*
X143220800Y-76665742D01*
X143220800Y-77004259D01*
X143207767Y-77136588D01*
X143156258Y-77306388D01*
X143072611Y-77462881D01*
X142960044Y-77600044D01*
X142822881Y-77712611D01*
X142666387Y-77796258D01*
X142496587Y-77847767D01*
X142320000Y-77865159D01*
X142143412Y-77847767D01*
X141973612Y-77796258D01*
X141817119Y-77712611D01*
X141679956Y-77600044D01*
X141567389Y-77462881D01*
X141483742Y-77306387D01*
X141432233Y-77136587D01*
X141419200Y-77004258D01*
X141419200Y-76665741D01*
X141432233Y-76533412D01*
X141483742Y-76363612D01*
X141567387Y-76207122D01*
X141679959Y-76069954D01*
X141817120Y-75957389D01*
X141973613Y-75873742D01*
X142143413Y-75822233D01*
X142320000Y-75804841D01*
X142496588Y-75822233D01*
G37*
G36*
X134996588Y-75822233D02*
G01*
X135166388Y-75873742D01*
X135322881Y-75957389D01*
X135460044Y-76069956D01*
X135572611Y-76207119D01*
X135656258Y-76363613D01*
X135707767Y-76533413D01*
X135720800Y-76665742D01*
X135720800Y-77004259D01*
X135707767Y-77136588D01*
X135656258Y-77306388D01*
X135572611Y-77462881D01*
X135460044Y-77600044D01*
X135322881Y-77712611D01*
X135166387Y-77796258D01*
X134996587Y-77847767D01*
X134820000Y-77865159D01*
X134643412Y-77847767D01*
X134473612Y-77796258D01*
X134317119Y-77712611D01*
X134179956Y-77600044D01*
X134067389Y-77462881D01*
X133983742Y-77306387D01*
X133932233Y-77136587D01*
X133919200Y-77004258D01*
X133919200Y-76665741D01*
X133932233Y-76533412D01*
X133983742Y-76363612D01*
X134067387Y-76207122D01*
X134179959Y-76069954D01*
X134317120Y-75957389D01*
X134473613Y-75873742D01*
X134643413Y-75822233D01*
X134820000Y-75804841D01*
X134996588Y-75822233D01*
G37*
G36*
X137496588Y-75822233D02*
G01*
X137666388Y-75873742D01*
X137822881Y-75957389D01*
X137960044Y-76069956D01*
X138072611Y-76207119D01*
X138156258Y-76363613D01*
X138207767Y-76533413D01*
X138220800Y-76665742D01*
X138220800Y-77004259D01*
X138207767Y-77136588D01*
X138156258Y-77306388D01*
X138072611Y-77462881D01*
X137960044Y-77600044D01*
X137822881Y-77712611D01*
X137666387Y-77796258D01*
X137496587Y-77847767D01*
X137320000Y-77865159D01*
X137143412Y-77847767D01*
X136973612Y-77796258D01*
X136817119Y-77712611D01*
X136679956Y-77600044D01*
X136567389Y-77462881D01*
X136483742Y-77306387D01*
X136432233Y-77136587D01*
X136419200Y-77004258D01*
X136419200Y-76665741D01*
X136432233Y-76533412D01*
X136483742Y-76363612D01*
X136567387Y-76207122D01*
X136679959Y-76069954D01*
X136817120Y-75957389D01*
X136973613Y-75873742D01*
X137143413Y-75822233D01*
X137320000Y-75804841D01*
X137496588Y-75822233D01*
G37*
G36*
X139996588Y-75822233D02*
G01*
X140166388Y-75873742D01*
X140322881Y-75957389D01*
X140460044Y-76069956D01*
X140572611Y-76207119D01*
X140656258Y-76363613D01*
X140707767Y-76533413D01*
X140720800Y-76665742D01*
X140720800Y-77004259D01*
X140707767Y-77136588D01*
X140656258Y-77306388D01*
X140572611Y-77462881D01*
X140460044Y-77600044D01*
X140322881Y-77712611D01*
X140166387Y-77796258D01*
X139996587Y-77847767D01*
X139820000Y-77865159D01*
X139643412Y-77847767D01*
X139473612Y-77796258D01*
X139317119Y-77712611D01*
X139179956Y-77600044D01*
X139067389Y-77462881D01*
X138983742Y-77306387D01*
X138932233Y-77136587D01*
X138919200Y-77004258D01*
X138919200Y-76665741D01*
X138932233Y-76533412D01*
X138983742Y-76363612D01*
X139067387Y-76207122D01*
X139179959Y-76069954D01*
X139317120Y-75957389D01*
X139473613Y-75873742D01*
X139643413Y-75822233D01*
X139820000Y-75804841D01*
X139996588Y-75822233D01*
G37*
G36*
X144996588Y-75822233D02*
G01*
X145166388Y-75873742D01*
X145322881Y-75957389D01*
X145460044Y-76069956D01*
X145572611Y-76207119D01*
X145656258Y-76363613D01*
X145707767Y-76533413D01*
X145720800Y-76665742D01*
X145720800Y-77004259D01*
X145707767Y-77136588D01*
X145656258Y-77306388D01*
X145572611Y-77462881D01*
X145460044Y-77600044D01*
X145322881Y-77712611D01*
X145166387Y-77796258D01*
X144996587Y-77847767D01*
X144820000Y-77865159D01*
X144643412Y-77847767D01*
X144473612Y-77796258D01*
X144317119Y-77712611D01*
X144179956Y-77600044D01*
X144067389Y-77462881D01*
X143983742Y-77306387D01*
X143932233Y-77136587D01*
X143919200Y-77004258D01*
X143919200Y-76665741D01*
X143932233Y-76533412D01*
X143983742Y-76363612D01*
X144067387Y-76207122D01*
X144179959Y-76069954D01*
X144317120Y-75957389D01*
X144473613Y-75873742D01*
X144643413Y-75822233D01*
X144820000Y-75804841D01*
X144996588Y-75822233D01*
G37*
G36*
X148079586Y-75813171D02*
G01*
X148112352Y-75823111D01*
X148142552Y-75839253D01*
X148169023Y-75860977D01*
X148190747Y-75887448D01*
X148206889Y-75917648D01*
X148216829Y-75950414D01*
X148220800Y-75990738D01*
X148220800Y-77679262D01*
X148216829Y-77719586D01*
X148206889Y-77752352D01*
X148190747Y-77782552D01*
X148169023Y-77809023D01*
X148142552Y-77830747D01*
X148112352Y-77846889D01*
X148079586Y-77856829D01*
X148039262Y-77860800D01*
X146600738Y-77860800D01*
X146560414Y-77856829D01*
X146527648Y-77846889D01*
X146497448Y-77830747D01*
X146470977Y-77809023D01*
X146449253Y-77782552D01*
X146433111Y-77752352D01*
X146423171Y-77719586D01*
X146419200Y-77679262D01*
X146419200Y-75990738D01*
X146423171Y-75950414D01*
X146433111Y-75917648D01*
X146449253Y-75887448D01*
X146470977Y-75860977D01*
X146497448Y-75839253D01*
X146527648Y-75823111D01*
X146560414Y-75813171D01*
X146600738Y-75809200D01*
X148039262Y-75809200D01*
X148079586Y-75813171D01*
G37*
G36*
X155202754Y-75968817D02*
G01*
X155366689Y-76036721D01*
X155514227Y-76135303D01*
X155639697Y-76260773D01*
X155738279Y-76408311D01*
X155806183Y-76572246D01*
X155840800Y-76746279D01*
X155840800Y-76923721D01*
X155806183Y-77097754D01*
X155738279Y-77261689D01*
X155639697Y-77409227D01*
X155514227Y-77534697D01*
X155366689Y-77633279D01*
X155202754Y-77701183D01*
X155028721Y-77735800D01*
X154851279Y-77735800D01*
X154677246Y-77701183D01*
X154513311Y-77633279D01*
X154365773Y-77534697D01*
X154240303Y-77409227D01*
X154141721Y-77261689D01*
X154073817Y-77097754D01*
X154039200Y-76923721D01*
X154039200Y-76746279D01*
X154073817Y-76572246D01*
X154141721Y-76408311D01*
X154240303Y-76260773D01*
X154365773Y-76135303D01*
X154513311Y-76036721D01*
X154677246Y-75968817D01*
X154851279Y-75934200D01*
X155028721Y-75934200D01*
X155202754Y-75968817D01*
G37*
G36*
X122182754Y-75968817D02*
G01*
X122346689Y-76036721D01*
X122494227Y-76135303D01*
X122619697Y-76260773D01*
X122718279Y-76408311D01*
X122786183Y-76572246D01*
X122820800Y-76746279D01*
X122820800Y-76923721D01*
X122786183Y-77097754D01*
X122718279Y-77261689D01*
X122619697Y-77409227D01*
X122494227Y-77534697D01*
X122346689Y-77633279D01*
X122182754Y-77701183D01*
X122008721Y-77735800D01*
X121831279Y-77735800D01*
X121657246Y-77701183D01*
X121493311Y-77633279D01*
X121345773Y-77534697D01*
X121220303Y-77409227D01*
X121121721Y-77261689D01*
X121053817Y-77097754D01*
X121019200Y-76923721D01*
X121019200Y-76746279D01*
X121053817Y-76572246D01*
X121121721Y-76408311D01*
X121220303Y-76260773D01*
X121345773Y-76135303D01*
X121493311Y-76036721D01*
X121657246Y-75968817D01*
X121831279Y-75934200D01*
X122008721Y-75934200D01*
X122182754Y-75968817D01*
G37*
G36*
X119642754Y-75968817D02*
G01*
X119806689Y-76036721D01*
X119954227Y-76135303D01*
X120079697Y-76260773D01*
X120178279Y-76408311D01*
X120246183Y-76572246D01*
X120280800Y-76746279D01*
X120280800Y-76923721D01*
X120246183Y-77097754D01*
X120178279Y-77261689D01*
X120079697Y-77409227D01*
X119954227Y-77534697D01*
X119806689Y-77633279D01*
X119642754Y-77701183D01*
X119468721Y-77735800D01*
X119291279Y-77735800D01*
X119117246Y-77701183D01*
X118953311Y-77633279D01*
X118805773Y-77534697D01*
X118680303Y-77409227D01*
X118581721Y-77261689D01*
X118513817Y-77097754D01*
X118479200Y-76923721D01*
X118479200Y-76746279D01*
X118513817Y-76572246D01*
X118581721Y-76408311D01*
X118680303Y-76260773D01*
X118805773Y-76135303D01*
X118953311Y-76036721D01*
X119117246Y-75968817D01*
X119291279Y-75934200D01*
X119468721Y-75934200D01*
X119642754Y-75968817D01*
G37*
G36*
X127262754Y-75968817D02*
G01*
X127426689Y-76036721D01*
X127574227Y-76135303D01*
X127699697Y-76260773D01*
X127798279Y-76408311D01*
X127866183Y-76572246D01*
X127900800Y-76746279D01*
X127900800Y-76923721D01*
X127866183Y-77097754D01*
X127798279Y-77261689D01*
X127699697Y-77409227D01*
X127574227Y-77534697D01*
X127426689Y-77633279D01*
X127262754Y-77701183D01*
X127088721Y-77735800D01*
X126911279Y-77735800D01*
X126737246Y-77701183D01*
X126573311Y-77633279D01*
X126425773Y-77534697D01*
X126300303Y-77409227D01*
X126201721Y-77261689D01*
X126133817Y-77097754D01*
X126099200Y-76923721D01*
X126099200Y-76746279D01*
X126133817Y-76572246D01*
X126201721Y-76408311D01*
X126300303Y-76260773D01*
X126425773Y-76135303D01*
X126573311Y-76036721D01*
X126737246Y-75968817D01*
X126911279Y-75934200D01*
X127088721Y-75934200D01*
X127262754Y-75968817D01*
G37*
G36*
X124722754Y-75968817D02*
G01*
X124886689Y-76036721D01*
X125034227Y-76135303D01*
X125159697Y-76260773D01*
X125258279Y-76408311D01*
X125326183Y-76572246D01*
X125360800Y-76746279D01*
X125360800Y-76923721D01*
X125326183Y-77097754D01*
X125258279Y-77261689D01*
X125159697Y-77409227D01*
X125034227Y-77534697D01*
X124886689Y-77633279D01*
X124722754Y-77701183D01*
X124548721Y-77735800D01*
X124371279Y-77735800D01*
X124197246Y-77701183D01*
X124033311Y-77633279D01*
X123885773Y-77534697D01*
X123760303Y-77409227D01*
X123661721Y-77261689D01*
X123593817Y-77097754D01*
X123559200Y-76923721D01*
X123559200Y-76746279D01*
X123593817Y-76572246D01*
X123661721Y-76408311D01*
X123760303Y-76260773D01*
X123885773Y-76135303D01*
X124033311Y-76036721D01*
X124197246Y-75968817D01*
X124371279Y-75934200D01*
X124548721Y-75934200D01*
X124722754Y-75968817D01*
G37*
G36*
X160282754Y-75968817D02*
G01*
X160446689Y-76036721D01*
X160594227Y-76135303D01*
X160719697Y-76260773D01*
X160818279Y-76408311D01*
X160886183Y-76572246D01*
X160920800Y-76746279D01*
X160920800Y-76923721D01*
X160886183Y-77097754D01*
X160818279Y-77261689D01*
X160719697Y-77409227D01*
X160594227Y-77534697D01*
X160446689Y-77633279D01*
X160282754Y-77701183D01*
X160108721Y-77735800D01*
X159931279Y-77735800D01*
X159757246Y-77701183D01*
X159593311Y-77633279D01*
X159445773Y-77534697D01*
X159320303Y-77409227D01*
X159221721Y-77261689D01*
X159153817Y-77097754D01*
X159119200Y-76923721D01*
X159119200Y-76746279D01*
X159153817Y-76572246D01*
X159221721Y-76408311D01*
X159320303Y-76260773D01*
X159445773Y-76135303D01*
X159593311Y-76036721D01*
X159757246Y-75968817D01*
X159931279Y-75934200D01*
X160108721Y-75934200D01*
X160282754Y-75968817D01*
G37*
G36*
X157742754Y-75968817D02*
G01*
X157906689Y-76036721D01*
X158054227Y-76135303D01*
X158179697Y-76260773D01*
X158278279Y-76408311D01*
X158346183Y-76572246D01*
X158380800Y-76746279D01*
X158380800Y-76923721D01*
X158346183Y-77097754D01*
X158278279Y-77261689D01*
X158179697Y-77409227D01*
X158054227Y-77534697D01*
X157906689Y-77633279D01*
X157742754Y-77701183D01*
X157568721Y-77735800D01*
X157391279Y-77735800D01*
X157217246Y-77701183D01*
X157053311Y-77633279D01*
X156905773Y-77534697D01*
X156780303Y-77409227D01*
X156681721Y-77261689D01*
X156613817Y-77097754D01*
X156579200Y-76923721D01*
X156579200Y-76746279D01*
X156613817Y-76572246D01*
X156681721Y-76408311D01*
X156780303Y-76260773D01*
X156905773Y-76135303D01*
X157053311Y-76036721D01*
X157217246Y-75968817D01*
X157391279Y-75934200D01*
X157568721Y-75934200D01*
X157742754Y-75968817D01*
G37*
G36*
X162822754Y-75968817D02*
G01*
X162986689Y-76036721D01*
X163134227Y-76135303D01*
X163259697Y-76260773D01*
X163358279Y-76408311D01*
X163426183Y-76572246D01*
X163460800Y-76746279D01*
X163460800Y-76923721D01*
X163426183Y-77097754D01*
X163358279Y-77261689D01*
X163259697Y-77409227D01*
X163134227Y-77534697D01*
X162986689Y-77633279D01*
X162822754Y-77701183D01*
X162648721Y-77735800D01*
X162471279Y-77735800D01*
X162297246Y-77701183D01*
X162133311Y-77633279D01*
X161985773Y-77534697D01*
X161860303Y-77409227D01*
X161761721Y-77261689D01*
X161693817Y-77097754D01*
X161659200Y-76923721D01*
X161659200Y-76746279D01*
X161693817Y-76572246D01*
X161761721Y-76408311D01*
X161860303Y-76260773D01*
X161985773Y-76135303D01*
X162133311Y-76036721D01*
X162297246Y-75968817D01*
X162471279Y-75934200D01*
X162648721Y-75934200D01*
X162822754Y-75968817D01*
G37*
G36*
X112644586Y-75303171D02*
G01*
X112677352Y-75313111D01*
X112707552Y-75329253D01*
X112734023Y-75350977D01*
X112755747Y-75377448D01*
X112771889Y-75407648D01*
X112781829Y-75440414D01*
X112785800Y-75480738D01*
X112785800Y-76919262D01*
X112781829Y-76959586D01*
X112771889Y-76992352D01*
X112755747Y-77022552D01*
X112734023Y-77049023D01*
X112707552Y-77070747D01*
X112677352Y-77086889D01*
X112644586Y-77096829D01*
X112604262Y-77100800D01*
X110915738Y-77100800D01*
X110875414Y-77096829D01*
X110842648Y-77086889D01*
X110812448Y-77070747D01*
X110785977Y-77049023D01*
X110764253Y-77022552D01*
X110748111Y-76992352D01*
X110738171Y-76959586D01*
X110734200Y-76919262D01*
X110734200Y-75480738D01*
X110738171Y-75440414D01*
X110748111Y-75407648D01*
X110764253Y-75377448D01*
X110785977Y-75350977D01*
X110812448Y-75329253D01*
X110842648Y-75313111D01*
X110875414Y-75303171D01*
X110915738Y-75299200D01*
X112604262Y-75299200D01*
X112644586Y-75303171D01*
G37*
M02*
