M48
INCH,TZ
T1C0.0157
T2C0.0374
T3C0.0394
%
G90
G05
T1
X43000Y-41750
X45000Y-35250
X45000Y-38750
X46250Y-33250
X48250Y-35250
X52500Y-35750
X53250Y-41750
X54350Y-32000
X57250Y-40650
X59000Y-36250
X59100Y-31550
X59500Y-35750
X65000Y-39750
X67600Y-39300
X68000Y-32750
T2
X44000Y-30000
X44000Y-30984
X44000Y-31969
X44000Y-32953
X59250Y-41000
X60234Y-41000
X61219Y-41000
X62203Y-41000
X43750Y-41000
X44734Y-41000
X45719Y-41000
X46703Y-41000
X47687Y-41000
X44000Y-35500
X44000Y-36484
X44000Y-37469
X44000Y-38453
X53079Y-30250
X54063Y-30250
X55047Y-30250
X56031Y-30250
X57016Y-30250
X58000Y-30250
X50250Y-41000
X51234Y-41000
X52219Y-41000
T3
X63000Y-31250
X66516Y-30250
X67500Y-30250
X61000Y-30250
X62000Y-30250
X63000Y-30250
X64000Y-30250
X66500Y-40750
X46000Y-37250
X46000Y-38250
X47000Y-30250
X48000Y-30250
X49000Y-30250
X50000Y-30250
X48000Y-32750
X48000Y-38750
X49000Y-32750
X49000Y-38750
X50000Y-32750
X50000Y-38750
X51000Y-32750
X51000Y-38750
X52000Y-32750
X52000Y-38750
X53000Y-32750
X53000Y-38750
X54000Y-32750
X54000Y-38750
X55000Y-32750
X55000Y-38750
X56000Y-32750
X56000Y-38750
X57000Y-32750
X57000Y-38750
X58000Y-32750
X58000Y-38750
X59000Y-32750
X59000Y-38750
X60000Y-32750
X60000Y-38750
X61000Y-32750
X61000Y-38750
X62000Y-32750
X62000Y-38750
X63000Y-32750
X63000Y-38750
X64000Y-32750
X64000Y-38750
X65000Y-32750
X65000Y-38750
X66000Y-32750
X66000Y-38750
X67000Y-32750
X67000Y-38750
X56500Y-40750
X64500Y-42000
X65500Y-42000
X66500Y-42000
X68250Y-38750
X54500Y-42000
X55500Y-42000
X56500Y-42000
X66000Y-34250
X66000Y-37242
T0
M30
