G04 #@! TF.GenerationSoftware,KiCad,Pcbnew,5.1.5-52549c5~86~ubuntu19.04.1*
G04 #@! TF.CreationDate,2020-12-26T14:33:06+01:00*
G04 #@! TF.ProjectId,high-accuracy-logging-volt-ampmeter,68696768-2d61-4636-9375-726163792d6c,v1.0*
G04 #@! TF.SameCoordinates,Original*
G04 #@! TF.FileFunction,Legend,Top*
G04 #@! TF.FilePolarity,Positive*
%FSLAX46Y46*%
G04 Gerber Fmt 4.6, Leading zero omitted, Abs format (unit mm)*
G04 Created by KiCad (PCBNEW 5.1.5-52549c5~86~ubuntu19.04.1) date 2020-12-26 14:33:06*
%MOMM*%
%LPD*%
G04 APERTURE LIST*
%ADD10C,0.150000*%
%ADD11C,0.120000*%
G04 APERTURE END LIST*
D10*
X136604952Y-74128380D02*
X136604952Y-74842666D01*
X136557333Y-74985523D01*
X136462095Y-75080761D01*
X136319238Y-75128380D01*
X136224000Y-75128380D01*
X137557333Y-75128380D02*
X137081142Y-75128380D01*
X137081142Y-74128380D01*
X138462095Y-75033142D02*
X138414476Y-75080761D01*
X138271619Y-75128380D01*
X138176380Y-75128380D01*
X138033523Y-75080761D01*
X137938285Y-74985523D01*
X137890666Y-74890285D01*
X137843047Y-74699809D01*
X137843047Y-74556952D01*
X137890666Y-74366476D01*
X137938285Y-74271238D01*
X138033523Y-74176000D01*
X138176380Y-74128380D01*
X138271619Y-74128380D01*
X138414476Y-74176000D01*
X138462095Y-74223619D01*
X139176380Y-74128380D02*
X139176380Y-74842666D01*
X139128761Y-74985523D01*
X139033523Y-75080761D01*
X138890666Y-75128380D01*
X138795428Y-75128380D01*
X140128761Y-75128380D02*
X139652571Y-75128380D01*
X139652571Y-74128380D01*
X141033523Y-75033142D02*
X140985904Y-75080761D01*
X140843047Y-75128380D01*
X140747809Y-75128380D01*
X140604952Y-75080761D01*
X140509714Y-74985523D01*
X140462095Y-74890285D01*
X140414476Y-74699809D01*
X140414476Y-74556952D01*
X140462095Y-74366476D01*
X140509714Y-74271238D01*
X140604952Y-74176000D01*
X140747809Y-74128380D01*
X140843047Y-74128380D01*
X140985904Y-74176000D01*
X141033523Y-74223619D01*
X141747809Y-74128380D02*
X141747809Y-74842666D01*
X141700190Y-74985523D01*
X141604952Y-75080761D01*
X141462095Y-75128380D01*
X141366857Y-75128380D01*
X142700190Y-75128380D02*
X142224000Y-75128380D01*
X142224000Y-74128380D01*
X143604952Y-75033142D02*
X143557333Y-75080761D01*
X143414476Y-75128380D01*
X143319238Y-75128380D01*
X143176380Y-75080761D01*
X143081142Y-74985523D01*
X143033523Y-74890285D01*
X142985904Y-74699809D01*
X142985904Y-74556952D01*
X143033523Y-74366476D01*
X143081142Y-74271238D01*
X143176380Y-74176000D01*
X143319238Y-74128380D01*
X143414476Y-74128380D01*
X143557333Y-74176000D01*
X143604952Y-74223619D01*
X144319238Y-74128380D02*
X144319238Y-74842666D01*
X144271619Y-74985523D01*
X144176380Y-75080761D01*
X144033523Y-75128380D01*
X143938285Y-75128380D01*
X145271619Y-75128380D02*
X144795428Y-75128380D01*
X144795428Y-74128380D01*
X146176380Y-75033142D02*
X146128761Y-75080761D01*
X145985904Y-75128380D01*
X145890666Y-75128380D01*
X145747809Y-75080761D01*
X145652571Y-74985523D01*
X145604952Y-74890285D01*
X145557333Y-74699809D01*
X145557333Y-74556952D01*
X145604952Y-74366476D01*
X145652571Y-74271238D01*
X145747809Y-74176000D01*
X145890666Y-74128380D01*
X145985904Y-74128380D01*
X146128761Y-74176000D01*
X146176380Y-74223619D01*
D11*
X120015000Y-98425000D02*
X120650000Y-98425000D01*
X120015000Y-97155000D02*
X120015000Y-98425000D01*
X118745000Y-97155000D02*
X120015000Y-97155000D01*
D10*
X120683928Y-79938571D02*
X120826785Y-79986190D01*
X120874404Y-80033809D01*
X120922023Y-80129047D01*
X120922023Y-80271904D01*
X120874404Y-80367142D01*
X120826785Y-80414761D01*
X120731547Y-80462380D01*
X120350595Y-80462380D01*
X120350595Y-79462380D01*
X120683928Y-79462380D01*
X120779166Y-79510000D01*
X120826785Y-79557619D01*
X120874404Y-79652857D01*
X120874404Y-79748095D01*
X120826785Y-79843333D01*
X120779166Y-79890952D01*
X120683928Y-79938571D01*
X120350595Y-79938571D01*
X121350595Y-80462380D02*
X121350595Y-79795714D01*
X121350595Y-79986190D02*
X121398214Y-79890952D01*
X121445833Y-79843333D01*
X121541071Y-79795714D01*
X121636309Y-79795714D01*
X122350595Y-80414761D02*
X122255357Y-80462380D01*
X122064880Y-80462380D01*
X121969642Y-80414761D01*
X121922023Y-80319523D01*
X121922023Y-79938571D01*
X121969642Y-79843333D01*
X122064880Y-79795714D01*
X122255357Y-79795714D01*
X122350595Y-79843333D01*
X122398214Y-79938571D01*
X122398214Y-80033809D01*
X121922023Y-80129047D01*
X123255357Y-80414761D02*
X123160119Y-80462380D01*
X122969642Y-80462380D01*
X122874404Y-80414761D01*
X122826785Y-80367142D01*
X122779166Y-80271904D01*
X122779166Y-79986190D01*
X122826785Y-79890952D01*
X122874404Y-79843333D01*
X122969642Y-79795714D01*
X123160119Y-79795714D01*
X123255357Y-79843333D01*
X123683928Y-80462380D02*
X123683928Y-79462380D01*
X124112500Y-80462380D02*
X124112500Y-79938571D01*
X124064880Y-79843333D01*
X123969642Y-79795714D01*
X123826785Y-79795714D01*
X123731547Y-79843333D01*
X123683928Y-79890952D01*
X124445833Y-79795714D02*
X124826785Y-79795714D01*
X124588690Y-79462380D02*
X124588690Y-80319523D01*
X124636309Y-80414761D01*
X124731547Y-80462380D01*
X124826785Y-80462380D01*
X125779166Y-79462380D02*
X126112500Y-80462380D01*
X126445833Y-79462380D01*
X127207738Y-80462380D02*
X127207738Y-79938571D01*
X127160119Y-79843333D01*
X127064880Y-79795714D01*
X126874404Y-79795714D01*
X126779166Y-79843333D01*
X127207738Y-80414761D02*
X127112500Y-80462380D01*
X126874404Y-80462380D01*
X126779166Y-80414761D01*
X126731547Y-80319523D01*
X126731547Y-80224285D01*
X126779166Y-80129047D01*
X126874404Y-80081428D01*
X127112500Y-80081428D01*
X127207738Y-80033809D01*
X127683928Y-79795714D02*
X127683928Y-80462380D01*
X127683928Y-79890952D02*
X127731547Y-79843333D01*
X127826785Y-79795714D01*
X127969642Y-79795714D01*
X128064880Y-79843333D01*
X128112500Y-79938571D01*
X128112500Y-80462380D01*
X129350595Y-79938571D02*
X129683928Y-79938571D01*
X129826785Y-80462380D02*
X129350595Y-80462380D01*
X129350595Y-79462380D01*
X129826785Y-79462380D01*
X130636309Y-80414761D02*
X130541071Y-80462380D01*
X130350595Y-80462380D01*
X130255357Y-80414761D01*
X130207738Y-80319523D01*
X130207738Y-79938571D01*
X130255357Y-79843333D01*
X130350595Y-79795714D01*
X130541071Y-79795714D01*
X130636309Y-79843333D01*
X130683928Y-79938571D01*
X130683928Y-80033809D01*
X130207738Y-80129047D01*
X131541071Y-80414761D02*
X131445833Y-80462380D01*
X131255357Y-80462380D01*
X131160119Y-80414761D01*
X131112500Y-80367142D01*
X131064880Y-80271904D01*
X131064880Y-79986190D01*
X131112500Y-79890952D01*
X131160119Y-79843333D01*
X131255357Y-79795714D01*
X131445833Y-79795714D01*
X131541071Y-79843333D01*
X131969642Y-80462380D02*
X131969642Y-79462380D01*
X132064880Y-80081428D02*
X132350595Y-80462380D01*
X132350595Y-79795714D02*
X131969642Y-80176666D01*
X132779166Y-80462380D02*
X132779166Y-79462380D01*
X133207738Y-80462380D02*
X133207738Y-79938571D01*
X133160119Y-79843333D01*
X133064880Y-79795714D01*
X132922023Y-79795714D01*
X132826785Y-79843333D01*
X132779166Y-79890952D01*
X133826785Y-80462380D02*
X133731547Y-80414761D01*
X133683928Y-80367142D01*
X133636309Y-80271904D01*
X133636309Y-79986190D01*
X133683928Y-79890952D01*
X133731547Y-79843333D01*
X133826785Y-79795714D01*
X133969642Y-79795714D01*
X134064880Y-79843333D01*
X134112500Y-79890952D01*
X134160119Y-79986190D01*
X134160119Y-80271904D01*
X134112500Y-80367142D01*
X134064880Y-80414761D01*
X133969642Y-80462380D01*
X133826785Y-80462380D01*
X135017261Y-79795714D02*
X135017261Y-80462380D01*
X134588690Y-79795714D02*
X134588690Y-80319523D01*
X134636309Y-80414761D01*
X134731547Y-80462380D01*
X134874404Y-80462380D01*
X134969642Y-80414761D01*
X135017261Y-80367142D01*
X135922023Y-80462380D02*
X135922023Y-79462380D01*
X135922023Y-80414761D02*
X135826785Y-80462380D01*
X135636309Y-80462380D01*
X135541071Y-80414761D01*
X135493452Y-80367142D01*
X135445833Y-80271904D01*
X135445833Y-79986190D01*
X135493452Y-79890952D01*
X135541071Y-79843333D01*
X135636309Y-79795714D01*
X135826785Y-79795714D01*
X135922023Y-79843333D01*
X136255357Y-79795714D02*
X136636309Y-79795714D01*
X136398214Y-79462380D02*
X136398214Y-80319523D01*
X136445833Y-80414761D01*
X136541071Y-80462380D01*
X136636309Y-80462380D01*
D11*
X155575000Y-92456000D02*
X155575000Y-88900000D01*
X120015000Y-92456000D02*
X155575000Y-92456000D01*
X120015000Y-88900000D02*
X155575000Y-88900000D01*
X120015000Y-88900000D02*
X120015000Y-92456000D01*
D10*
X120826785Y-92146380D02*
X120350595Y-92146380D01*
X120350595Y-91146380D01*
X121160119Y-92146380D02*
X121160119Y-91479714D01*
X121160119Y-91146380D02*
X121112500Y-91194000D01*
X121160119Y-91241619D01*
X121207738Y-91194000D01*
X121160119Y-91146380D01*
X121160119Y-91241619D01*
X122064880Y-92098761D02*
X121969642Y-92146380D01*
X121779166Y-92146380D01*
X121683928Y-92098761D01*
X121636309Y-92051142D01*
X121588690Y-91955904D01*
X121588690Y-91670190D01*
X121636309Y-91574952D01*
X121683928Y-91527333D01*
X121779166Y-91479714D01*
X121969642Y-91479714D01*
X122064880Y-91527333D01*
X122874404Y-92098761D02*
X122779166Y-92146380D01*
X122588690Y-92146380D01*
X122493452Y-92098761D01*
X122445833Y-92003523D01*
X122445833Y-91622571D01*
X122493452Y-91527333D01*
X122588690Y-91479714D01*
X122779166Y-91479714D01*
X122874404Y-91527333D01*
X122922023Y-91622571D01*
X122922023Y-91717809D01*
X122445833Y-91813047D01*
X123350595Y-91479714D02*
X123350595Y-92146380D01*
X123350595Y-91574952D02*
X123398214Y-91527333D01*
X123493452Y-91479714D01*
X123636309Y-91479714D01*
X123731547Y-91527333D01*
X123779166Y-91622571D01*
X123779166Y-92146380D01*
X124207738Y-92098761D02*
X124302976Y-92146380D01*
X124493452Y-92146380D01*
X124588690Y-92098761D01*
X124636309Y-92003523D01*
X124636309Y-91955904D01*
X124588690Y-91860666D01*
X124493452Y-91813047D01*
X124350595Y-91813047D01*
X124255357Y-91765428D01*
X124207738Y-91670190D01*
X124207738Y-91622571D01*
X124255357Y-91527333D01*
X124350595Y-91479714D01*
X124493452Y-91479714D01*
X124588690Y-91527333D01*
X125445833Y-92098761D02*
X125350595Y-92146380D01*
X125160119Y-92146380D01*
X125064880Y-92098761D01*
X125017261Y-92003523D01*
X125017261Y-91622571D01*
X125064880Y-91527333D01*
X125160119Y-91479714D01*
X125350595Y-91479714D01*
X125445833Y-91527333D01*
X125493452Y-91622571D01*
X125493452Y-91717809D01*
X125017261Y-91813047D01*
X126350595Y-92146380D02*
X126350595Y-91146380D01*
X126350595Y-92098761D02*
X126255357Y-92146380D01*
X126064880Y-92146380D01*
X125969642Y-92098761D01*
X125922023Y-92051142D01*
X125874404Y-91955904D01*
X125874404Y-91670190D01*
X125922023Y-91574952D01*
X125969642Y-91527333D01*
X126064880Y-91479714D01*
X126255357Y-91479714D01*
X126350595Y-91527333D01*
X128017261Y-91479714D02*
X128017261Y-92146380D01*
X127588690Y-91479714D02*
X127588690Y-92003523D01*
X127636309Y-92098761D01*
X127731547Y-92146380D01*
X127874404Y-92146380D01*
X127969642Y-92098761D01*
X128017261Y-92051142D01*
X128493452Y-91479714D02*
X128493452Y-92146380D01*
X128493452Y-91574952D02*
X128541071Y-91527333D01*
X128636309Y-91479714D01*
X128779166Y-91479714D01*
X128874404Y-91527333D01*
X128922023Y-91622571D01*
X128922023Y-92146380D01*
X129826785Y-92146380D02*
X129826785Y-91146380D01*
X129826785Y-92098761D02*
X129731547Y-92146380D01*
X129541071Y-92146380D01*
X129445833Y-92098761D01*
X129398214Y-92051142D01*
X129350595Y-91955904D01*
X129350595Y-91670190D01*
X129398214Y-91574952D01*
X129445833Y-91527333D01*
X129541071Y-91479714D01*
X129731547Y-91479714D01*
X129826785Y-91527333D01*
X130683928Y-92098761D02*
X130588690Y-92146380D01*
X130398214Y-92146380D01*
X130302976Y-92098761D01*
X130255357Y-92003523D01*
X130255357Y-91622571D01*
X130302976Y-91527333D01*
X130398214Y-91479714D01*
X130588690Y-91479714D01*
X130683928Y-91527333D01*
X130731547Y-91622571D01*
X130731547Y-91717809D01*
X130255357Y-91813047D01*
X131160119Y-92146380D02*
X131160119Y-91479714D01*
X131160119Y-91670190D02*
X131207738Y-91574952D01*
X131255357Y-91527333D01*
X131350595Y-91479714D01*
X131445833Y-91479714D01*
X133112500Y-92051142D02*
X133064880Y-92098761D01*
X132922023Y-92146380D01*
X132826785Y-92146380D01*
X132683928Y-92098761D01*
X132588690Y-92003523D01*
X132541071Y-91908285D01*
X132493452Y-91717809D01*
X132493452Y-91574952D01*
X132541071Y-91384476D01*
X132588690Y-91289238D01*
X132683928Y-91194000D01*
X132826785Y-91146380D01*
X132922023Y-91146380D01*
X133064880Y-91194000D01*
X133112500Y-91241619D01*
X133541071Y-91622571D02*
X133874404Y-91622571D01*
X134017261Y-92146380D02*
X133541071Y-92146380D01*
X133541071Y-91146380D01*
X134017261Y-91146380D01*
X135017261Y-92146380D02*
X134683928Y-91670190D01*
X134445833Y-92146380D02*
X134445833Y-91146380D01*
X134826785Y-91146380D01*
X134922023Y-91194000D01*
X134969642Y-91241619D01*
X135017261Y-91336857D01*
X135017261Y-91479714D01*
X134969642Y-91574952D01*
X134922023Y-91622571D01*
X134826785Y-91670190D01*
X134445833Y-91670190D01*
X135445833Y-92146380D02*
X135445833Y-91146380D01*
X136017261Y-92146380D01*
X136017261Y-91146380D01*
X137445833Y-91146380D02*
X137636309Y-91146380D01*
X137731547Y-91194000D01*
X137826785Y-91289238D01*
X137874404Y-91479714D01*
X137874404Y-91813047D01*
X137826785Y-92003523D01*
X137731547Y-92098761D01*
X137636309Y-92146380D01*
X137445833Y-92146380D01*
X137350595Y-92098761D01*
X137255357Y-92003523D01*
X137207738Y-91813047D01*
X137207738Y-91479714D01*
X137255357Y-91289238D01*
X137350595Y-91194000D01*
X137445833Y-91146380D01*
X138302976Y-92146380D02*
X138302976Y-91146380D01*
X138302976Y-91622571D02*
X138874404Y-91622571D01*
X138874404Y-92146380D02*
X138874404Y-91146380D01*
X139826785Y-92146380D02*
X139350595Y-92146380D01*
X139350595Y-91146380D01*
X140826785Y-91479714D02*
X141064880Y-92146380D01*
X141302976Y-91479714D01*
X141683928Y-92051142D02*
X141731547Y-92098761D01*
X141683928Y-92146380D01*
X141636309Y-92098761D01*
X141683928Y-92051142D01*
X141683928Y-92146380D01*
X142683928Y-92146380D02*
X142112500Y-92146380D01*
X142398214Y-92146380D02*
X142398214Y-91146380D01*
X142302976Y-91289238D01*
X142207738Y-91384476D01*
X142112500Y-91432095D01*
X143112500Y-92051142D02*
X143160119Y-92098761D01*
X143112500Y-92146380D01*
X143064880Y-92098761D01*
X143112500Y-92051142D01*
X143112500Y-92146380D01*
X143541071Y-91241619D02*
X143588690Y-91194000D01*
X143683928Y-91146380D01*
X143922023Y-91146380D01*
X144017261Y-91194000D01*
X144064880Y-91241619D01*
X144112500Y-91336857D01*
X144112500Y-91432095D01*
X144064880Y-91574952D01*
X143493452Y-92146380D01*
X144112500Y-92146380D01*
X149477500Y-92146380D02*
X148906071Y-92146380D01*
X149191785Y-92146380D02*
X149191785Y-91146380D01*
X149096547Y-91289238D01*
X149001309Y-91384476D01*
X148906071Y-91432095D01*
X149858452Y-91241619D02*
X149906071Y-91194000D01*
X150001309Y-91146380D01*
X150239404Y-91146380D01*
X150334642Y-91194000D01*
X150382261Y-91241619D01*
X150429880Y-91336857D01*
X150429880Y-91432095D01*
X150382261Y-91574952D01*
X149810833Y-92146380D01*
X150429880Y-92146380D01*
X151572738Y-91098761D02*
X150715595Y-92384476D01*
X151858452Y-91241619D02*
X151906071Y-91194000D01*
X152001309Y-91146380D01*
X152239404Y-91146380D01*
X152334642Y-91194000D01*
X152382261Y-91241619D01*
X152429880Y-91336857D01*
X152429880Y-91432095D01*
X152382261Y-91574952D01*
X151810833Y-92146380D01*
X152429880Y-92146380D01*
X153048928Y-91146380D02*
X153144166Y-91146380D01*
X153239404Y-91194000D01*
X153287023Y-91241619D01*
X153334642Y-91336857D01*
X153382261Y-91527333D01*
X153382261Y-91765428D01*
X153334642Y-91955904D01*
X153287023Y-92051142D01*
X153239404Y-92098761D01*
X153144166Y-92146380D01*
X153048928Y-92146380D01*
X152953690Y-92098761D01*
X152906071Y-92051142D01*
X152858452Y-91955904D01*
X152810833Y-91765428D01*
X152810833Y-91527333D01*
X152858452Y-91336857D01*
X152906071Y-91241619D01*
X152953690Y-91194000D01*
X153048928Y-91146380D01*
X153763214Y-91241619D02*
X153810833Y-91194000D01*
X153906071Y-91146380D01*
X154144166Y-91146380D01*
X154239404Y-91194000D01*
X154287023Y-91241619D01*
X154334642Y-91336857D01*
X154334642Y-91432095D01*
X154287023Y-91574952D01*
X153715595Y-92146380D01*
X154334642Y-92146380D01*
X154953690Y-91146380D02*
X155048928Y-91146380D01*
X155144166Y-91194000D01*
X155191785Y-91241619D01*
X155239404Y-91336857D01*
X155287023Y-91527333D01*
X155287023Y-91765428D01*
X155239404Y-91955904D01*
X155191785Y-92051142D01*
X155144166Y-92098761D01*
X155048928Y-92146380D01*
X154953690Y-92146380D01*
X154858452Y-92098761D01*
X154810833Y-92051142D01*
X154763214Y-91955904D01*
X154715595Y-91765428D01*
X154715595Y-91527333D01*
X154763214Y-91336857D01*
X154810833Y-91241619D01*
X154858452Y-91194000D01*
X154953690Y-91146380D01*
X120350595Y-90241380D02*
X120350595Y-89241380D01*
X120350595Y-89717571D02*
X120922023Y-89717571D01*
X120922023Y-90241380D02*
X120922023Y-89241380D01*
X121398214Y-90241380D02*
X121398214Y-89574714D01*
X121398214Y-89241380D02*
X121350595Y-89289000D01*
X121398214Y-89336619D01*
X121445833Y-89289000D01*
X121398214Y-89241380D01*
X121398214Y-89336619D01*
X122302976Y-89574714D02*
X122302976Y-90384238D01*
X122255357Y-90479476D01*
X122207738Y-90527095D01*
X122112500Y-90574714D01*
X121969642Y-90574714D01*
X121874404Y-90527095D01*
X122302976Y-90193761D02*
X122207738Y-90241380D01*
X122017261Y-90241380D01*
X121922023Y-90193761D01*
X121874404Y-90146142D01*
X121826785Y-90050904D01*
X121826785Y-89765190D01*
X121874404Y-89669952D01*
X121922023Y-89622333D01*
X122017261Y-89574714D01*
X122207738Y-89574714D01*
X122302976Y-89622333D01*
X122779166Y-90241380D02*
X122779166Y-89241380D01*
X123207738Y-90241380D02*
X123207738Y-89717571D01*
X123160119Y-89622333D01*
X123064880Y-89574714D01*
X122922023Y-89574714D01*
X122826785Y-89622333D01*
X122779166Y-89669952D01*
X123683928Y-89860428D02*
X124445833Y-89860428D01*
X125350595Y-90241380D02*
X125350595Y-89717571D01*
X125302976Y-89622333D01*
X125207738Y-89574714D01*
X125017261Y-89574714D01*
X124922023Y-89622333D01*
X125350595Y-90193761D02*
X125255357Y-90241380D01*
X125017261Y-90241380D01*
X124922023Y-90193761D01*
X124874404Y-90098523D01*
X124874404Y-90003285D01*
X124922023Y-89908047D01*
X125017261Y-89860428D01*
X125255357Y-89860428D01*
X125350595Y-89812809D01*
X126255357Y-90193761D02*
X126160119Y-90241380D01*
X125969642Y-90241380D01*
X125874404Y-90193761D01*
X125826785Y-90146142D01*
X125779166Y-90050904D01*
X125779166Y-89765190D01*
X125826785Y-89669952D01*
X125874404Y-89622333D01*
X125969642Y-89574714D01*
X126160119Y-89574714D01*
X126255357Y-89622333D01*
X127112500Y-90193761D02*
X127017261Y-90241380D01*
X126826785Y-90241380D01*
X126731547Y-90193761D01*
X126683928Y-90146142D01*
X126636309Y-90050904D01*
X126636309Y-89765190D01*
X126683928Y-89669952D01*
X126731547Y-89622333D01*
X126826785Y-89574714D01*
X127017261Y-89574714D01*
X127112500Y-89622333D01*
X127969642Y-89574714D02*
X127969642Y-90241380D01*
X127541071Y-89574714D02*
X127541071Y-90098523D01*
X127588690Y-90193761D01*
X127683928Y-90241380D01*
X127826785Y-90241380D01*
X127922023Y-90193761D01*
X127969642Y-90146142D01*
X128445833Y-90241380D02*
X128445833Y-89574714D01*
X128445833Y-89765190D02*
X128493452Y-89669952D01*
X128541071Y-89622333D01*
X128636309Y-89574714D01*
X128731547Y-89574714D01*
X129493452Y-90241380D02*
X129493452Y-89717571D01*
X129445833Y-89622333D01*
X129350595Y-89574714D01*
X129160119Y-89574714D01*
X129064880Y-89622333D01*
X129493452Y-90193761D02*
X129398214Y-90241380D01*
X129160119Y-90241380D01*
X129064880Y-90193761D01*
X129017261Y-90098523D01*
X129017261Y-90003285D01*
X129064880Y-89908047D01*
X129160119Y-89860428D01*
X129398214Y-89860428D01*
X129493452Y-89812809D01*
X130398214Y-90193761D02*
X130302976Y-90241380D01*
X130112500Y-90241380D01*
X130017261Y-90193761D01*
X129969642Y-90146142D01*
X129922023Y-90050904D01*
X129922023Y-89765190D01*
X129969642Y-89669952D01*
X130017261Y-89622333D01*
X130112500Y-89574714D01*
X130302976Y-89574714D01*
X130398214Y-89622333D01*
X130731547Y-89574714D02*
X130969642Y-90241380D01*
X131207738Y-89574714D02*
X130969642Y-90241380D01*
X130874404Y-90479476D01*
X130826785Y-90527095D01*
X130731547Y-90574714D01*
X132493452Y-90241380D02*
X132398214Y-90193761D01*
X132350595Y-90098523D01*
X132350595Y-89241380D01*
X133017261Y-90241380D02*
X132922023Y-90193761D01*
X132874404Y-90146142D01*
X132826785Y-90050904D01*
X132826785Y-89765190D01*
X132874404Y-89669952D01*
X132922023Y-89622333D01*
X133017261Y-89574714D01*
X133160119Y-89574714D01*
X133255357Y-89622333D01*
X133302976Y-89669952D01*
X133350595Y-89765190D01*
X133350595Y-90050904D01*
X133302976Y-90146142D01*
X133255357Y-90193761D01*
X133160119Y-90241380D01*
X133017261Y-90241380D01*
X134207738Y-89574714D02*
X134207738Y-90384238D01*
X134160119Y-90479476D01*
X134112500Y-90527095D01*
X134017261Y-90574714D01*
X133874404Y-90574714D01*
X133779166Y-90527095D01*
X134207738Y-90193761D02*
X134112500Y-90241380D01*
X133922023Y-90241380D01*
X133826785Y-90193761D01*
X133779166Y-90146142D01*
X133731547Y-90050904D01*
X133731547Y-89765190D01*
X133779166Y-89669952D01*
X133826785Y-89622333D01*
X133922023Y-89574714D01*
X134112500Y-89574714D01*
X134207738Y-89622333D01*
X135112500Y-89574714D02*
X135112500Y-90384238D01*
X135064880Y-90479476D01*
X135017261Y-90527095D01*
X134922023Y-90574714D01*
X134779166Y-90574714D01*
X134683928Y-90527095D01*
X135112500Y-90193761D02*
X135017261Y-90241380D01*
X134826785Y-90241380D01*
X134731547Y-90193761D01*
X134683928Y-90146142D01*
X134636309Y-90050904D01*
X134636309Y-89765190D01*
X134683928Y-89669952D01*
X134731547Y-89622333D01*
X134826785Y-89574714D01*
X135017261Y-89574714D01*
X135112500Y-89622333D01*
X135588690Y-90241380D02*
X135588690Y-89574714D01*
X135588690Y-89241380D02*
X135541071Y-89289000D01*
X135588690Y-89336619D01*
X135636309Y-89289000D01*
X135588690Y-89241380D01*
X135588690Y-89336619D01*
X136064880Y-89574714D02*
X136064880Y-90241380D01*
X136064880Y-89669952D02*
X136112500Y-89622333D01*
X136207738Y-89574714D01*
X136350595Y-89574714D01*
X136445833Y-89622333D01*
X136493452Y-89717571D01*
X136493452Y-90241380D01*
X137398214Y-89574714D02*
X137398214Y-90384238D01*
X137350595Y-90479476D01*
X137302976Y-90527095D01*
X137207738Y-90574714D01*
X137064880Y-90574714D01*
X136969642Y-90527095D01*
X137398214Y-90193761D02*
X137302976Y-90241380D01*
X137112500Y-90241380D01*
X137017261Y-90193761D01*
X136969642Y-90146142D01*
X136922023Y-90050904D01*
X136922023Y-89765190D01*
X136969642Y-89669952D01*
X137017261Y-89622333D01*
X137112500Y-89574714D01*
X137302976Y-89574714D01*
X137398214Y-89622333D01*
X138541071Y-89574714D02*
X138779166Y-90241380D01*
X139017261Y-89574714D01*
X139541071Y-90241380D02*
X139445833Y-90193761D01*
X139398214Y-90146142D01*
X139350595Y-90050904D01*
X139350595Y-89765190D01*
X139398214Y-89669952D01*
X139445833Y-89622333D01*
X139541071Y-89574714D01*
X139683928Y-89574714D01*
X139779166Y-89622333D01*
X139826785Y-89669952D01*
X139874404Y-89765190D01*
X139874404Y-90050904D01*
X139826785Y-90146142D01*
X139779166Y-90193761D01*
X139683928Y-90241380D01*
X139541071Y-90241380D01*
X140445833Y-90241380D02*
X140350595Y-90193761D01*
X140302976Y-90098523D01*
X140302976Y-89241380D01*
X140683928Y-89574714D02*
X141064880Y-89574714D01*
X140826785Y-89241380D02*
X140826785Y-90098523D01*
X140874404Y-90193761D01*
X140969642Y-90241380D01*
X141064880Y-90241380D01*
X142112500Y-89193761D02*
X141255357Y-90479476D01*
X142874404Y-90241380D02*
X142874404Y-89717571D01*
X142826785Y-89622333D01*
X142731547Y-89574714D01*
X142541071Y-89574714D01*
X142445833Y-89622333D01*
X142874404Y-90193761D02*
X142779166Y-90241380D01*
X142541071Y-90241380D01*
X142445833Y-90193761D01*
X142398214Y-90098523D01*
X142398214Y-90003285D01*
X142445833Y-89908047D01*
X142541071Y-89860428D01*
X142779166Y-89860428D01*
X142874404Y-89812809D01*
X143350595Y-90241380D02*
X143350595Y-89574714D01*
X143350595Y-89669952D02*
X143398214Y-89622333D01*
X143493452Y-89574714D01*
X143636309Y-89574714D01*
X143731547Y-89622333D01*
X143779166Y-89717571D01*
X143779166Y-90241380D01*
X143779166Y-89717571D02*
X143826785Y-89622333D01*
X143922023Y-89574714D01*
X144064880Y-89574714D01*
X144160119Y-89622333D01*
X144207738Y-89717571D01*
X144207738Y-90241380D01*
X144683928Y-89574714D02*
X144683928Y-90574714D01*
X144683928Y-89622333D02*
X144779166Y-89574714D01*
X144969642Y-89574714D01*
X145064880Y-89622333D01*
X145112500Y-89669952D01*
X145160119Y-89765190D01*
X145160119Y-90050904D01*
X145112500Y-90146142D01*
X145064880Y-90193761D01*
X144969642Y-90241380D01*
X144779166Y-90241380D01*
X144683928Y-90193761D01*
X146350595Y-90241380D02*
X146350595Y-89574714D01*
X146350595Y-89669952D02*
X146398214Y-89622333D01*
X146493452Y-89574714D01*
X146636309Y-89574714D01*
X146731547Y-89622333D01*
X146779166Y-89717571D01*
X146779166Y-90241380D01*
X146779166Y-89717571D02*
X146826785Y-89622333D01*
X146922023Y-89574714D01*
X147064880Y-89574714D01*
X147160119Y-89622333D01*
X147207738Y-89717571D01*
X147207738Y-90241380D01*
X148064880Y-90193761D02*
X147969642Y-90241380D01*
X147779166Y-90241380D01*
X147683928Y-90193761D01*
X147636309Y-90098523D01*
X147636309Y-89717571D01*
X147683928Y-89622333D01*
X147779166Y-89574714D01*
X147969642Y-89574714D01*
X148064880Y-89622333D01*
X148112500Y-89717571D01*
X148112500Y-89812809D01*
X147636309Y-89908047D01*
X148398214Y-89574714D02*
X148779166Y-89574714D01*
X148541071Y-89241380D02*
X148541071Y-90098523D01*
X148588690Y-90193761D01*
X148683928Y-90241380D01*
X148779166Y-90241380D01*
X149493452Y-90193761D02*
X149398214Y-90241380D01*
X149207738Y-90241380D01*
X149112500Y-90193761D01*
X149064880Y-90098523D01*
X149064880Y-89717571D01*
X149112500Y-89622333D01*
X149207738Y-89574714D01*
X149398214Y-89574714D01*
X149493452Y-89622333D01*
X149541071Y-89717571D01*
X149541071Y-89812809D01*
X149064880Y-89908047D01*
X149969642Y-90241380D02*
X149969642Y-89574714D01*
X149969642Y-89765190D02*
X150017261Y-89669952D01*
X150064880Y-89622333D01*
X150160119Y-89574714D01*
X150255357Y-89574714D01*
X162212976Y-80414761D02*
X162355833Y-80462380D01*
X162593928Y-80462380D01*
X162689166Y-80414761D01*
X162736785Y-80367142D01*
X162784404Y-80271904D01*
X162784404Y-80176666D01*
X162736785Y-80081428D01*
X162689166Y-80033809D01*
X162593928Y-79986190D01*
X162403452Y-79938571D01*
X162308214Y-79890952D01*
X162260595Y-79843333D01*
X162212976Y-79748095D01*
X162212976Y-79652857D01*
X162260595Y-79557619D01*
X162308214Y-79510000D01*
X162403452Y-79462380D01*
X162641547Y-79462380D01*
X162784404Y-79510000D01*
X163117738Y-79462380D02*
X163355833Y-80462380D01*
X163546309Y-79748095D01*
X163736785Y-80462380D01*
X163974880Y-79462380D01*
X164546309Y-79462380D02*
X164736785Y-79462380D01*
X164832023Y-79510000D01*
X164927261Y-79605238D01*
X164974880Y-79795714D01*
X164974880Y-80129047D01*
X164927261Y-80319523D01*
X164832023Y-80414761D01*
X164736785Y-80462380D01*
X164546309Y-80462380D01*
X164451071Y-80414761D01*
X164355833Y-80319523D01*
X164308214Y-80129047D01*
X164308214Y-79795714D01*
X164355833Y-79605238D01*
X164451071Y-79510000D01*
X164546309Y-79462380D01*
X171997857Y-100685000D02*
X172997857Y-100685000D01*
X172807380Y-102052380D02*
X172474047Y-101576190D01*
X172235952Y-102052380D02*
X172235952Y-101052380D01*
X172616904Y-101052380D01*
X172712142Y-101100000D01*
X172759761Y-101147619D01*
X172807380Y-101242857D01*
X172807380Y-101385714D01*
X172759761Y-101480952D01*
X172712142Y-101528571D01*
X172616904Y-101576190D01*
X172235952Y-101576190D01*
X172997857Y-100685000D02*
X173950238Y-100685000D01*
X173188333Y-102004761D02*
X173331190Y-102052380D01*
X173569285Y-102052380D01*
X173664523Y-102004761D01*
X173712142Y-101957142D01*
X173759761Y-101861904D01*
X173759761Y-101766666D01*
X173712142Y-101671428D01*
X173664523Y-101623809D01*
X173569285Y-101576190D01*
X173378809Y-101528571D01*
X173283571Y-101480952D01*
X173235952Y-101433333D01*
X173188333Y-101338095D01*
X173188333Y-101242857D01*
X173235952Y-101147619D01*
X173283571Y-101100000D01*
X173378809Y-101052380D01*
X173616904Y-101052380D01*
X173759761Y-101100000D01*
X173950238Y-100685000D02*
X174712142Y-100685000D01*
X174045476Y-101052380D02*
X174616904Y-101052380D01*
X174331190Y-102052380D02*
X174331190Y-101052380D01*
D11*
X164465000Y-104394000D02*
X163195000Y-104394000D01*
X164465000Y-102489000D02*
X164465000Y-104394000D01*
X163195000Y-102489000D02*
X164465000Y-102489000D01*
X163195000Y-104394000D02*
X163195000Y-102489000D01*
X139065000Y-102489000D02*
X137795000Y-102489000D01*
X139065000Y-104394000D02*
X139065000Y-102489000D01*
X137795000Y-104394000D02*
X139065000Y-104394000D01*
X137795000Y-102489000D02*
X137795000Y-104394000D01*
D10*
X114492738Y-80732380D02*
X114826071Y-81732380D01*
X115159404Y-80732380D01*
X115826071Y-81208571D02*
X115968928Y-81256190D01*
X116016547Y-81303809D01*
X116064166Y-81399047D01*
X116064166Y-81541904D01*
X116016547Y-81637142D01*
X115968928Y-81684761D01*
X115873690Y-81732380D01*
X115492738Y-81732380D01*
X115492738Y-80732380D01*
X115826071Y-80732380D01*
X115921309Y-80780000D01*
X115968928Y-80827619D01*
X116016547Y-80922857D01*
X116016547Y-81018095D01*
X115968928Y-81113333D01*
X115921309Y-81160952D01*
X115826071Y-81208571D01*
X115492738Y-81208571D01*
X116445119Y-81446666D02*
X116921309Y-81446666D01*
X116349880Y-81732380D02*
X116683214Y-80732380D01*
X117016547Y-81732380D01*
X117207023Y-80732380D02*
X117778452Y-80732380D01*
X117492738Y-81732380D02*
X117492738Y-80732380D01*
X117968928Y-80732380D02*
X118540357Y-80732380D01*
X118254642Y-81732380D02*
X118254642Y-80732380D01*
X114540357Y-78192380D02*
X115159404Y-78192380D01*
X114826071Y-78573333D01*
X114968928Y-78573333D01*
X115064166Y-78620952D01*
X115111785Y-78668571D01*
X115159404Y-78763809D01*
X115159404Y-79001904D01*
X115111785Y-79097142D01*
X115064166Y-79144761D01*
X114968928Y-79192380D01*
X114683214Y-79192380D01*
X114587976Y-79144761D01*
X114540357Y-79097142D01*
X115445119Y-78192380D02*
X115778452Y-79192380D01*
X116111785Y-78192380D01*
X116349880Y-78192380D02*
X116968928Y-78192380D01*
X116635595Y-78573333D01*
X116778452Y-78573333D01*
X116873690Y-78620952D01*
X116921309Y-78668571D01*
X116968928Y-78763809D01*
X116968928Y-79001904D01*
X116921309Y-79097142D01*
X116873690Y-79144761D01*
X116778452Y-79192380D01*
X116492738Y-79192380D01*
X116397500Y-79144761D01*
X116349880Y-79097142D01*
X115159404Y-75700000D02*
X115064166Y-75652380D01*
X114921309Y-75652380D01*
X114778452Y-75700000D01*
X114683214Y-75795238D01*
X114635595Y-75890476D01*
X114587976Y-76080952D01*
X114587976Y-76223809D01*
X114635595Y-76414285D01*
X114683214Y-76509523D01*
X114778452Y-76604761D01*
X114921309Y-76652380D01*
X115016547Y-76652380D01*
X115159404Y-76604761D01*
X115207023Y-76557142D01*
X115207023Y-76223809D01*
X115016547Y-76223809D01*
X115635595Y-76652380D02*
X115635595Y-75652380D01*
X116207023Y-76652380D01*
X116207023Y-75652380D01*
X116683214Y-76652380D02*
X116683214Y-75652380D01*
X116921309Y-75652380D01*
X117064166Y-75700000D01*
X117159404Y-75795238D01*
X117207023Y-75890476D01*
X117254642Y-76080952D01*
X117254642Y-76223809D01*
X117207023Y-76414285D01*
X117159404Y-76509523D01*
X117064166Y-76604761D01*
X116921309Y-76652380D01*
X116683214Y-76652380D01*
X114492738Y-83272380D02*
X114826071Y-84272380D01*
X115159404Y-83272380D01*
X115492738Y-83272380D02*
X115492738Y-84081904D01*
X115540357Y-84177142D01*
X115587976Y-84224761D01*
X115683214Y-84272380D01*
X115873690Y-84272380D01*
X115968928Y-84224761D01*
X116016547Y-84177142D01*
X116064166Y-84081904D01*
X116064166Y-83272380D01*
X116492738Y-84224761D02*
X116635595Y-84272380D01*
X116873690Y-84272380D01*
X116968928Y-84224761D01*
X117016547Y-84177142D01*
X117064166Y-84081904D01*
X117064166Y-83986666D01*
X117016547Y-83891428D01*
X116968928Y-83843809D01*
X116873690Y-83796190D01*
X116683214Y-83748571D01*
X116587976Y-83700952D01*
X116540357Y-83653333D01*
X116492738Y-83558095D01*
X116492738Y-83462857D01*
X116540357Y-83367619D01*
X116587976Y-83320000D01*
X116683214Y-83272380D01*
X116921309Y-83272380D01*
X117064166Y-83320000D01*
X117826071Y-83748571D02*
X117968928Y-83796190D01*
X118016547Y-83843809D01*
X118064166Y-83939047D01*
X118064166Y-84081904D01*
X118016547Y-84177142D01*
X117968928Y-84224761D01*
X117873690Y-84272380D01*
X117492738Y-84272380D01*
X117492738Y-83272380D01*
X117826071Y-83272380D01*
X117921309Y-83320000D01*
X117968928Y-83367619D01*
X118016547Y-83462857D01*
X118016547Y-83558095D01*
X117968928Y-83653333D01*
X117921309Y-83700952D01*
X117826071Y-83748571D01*
X117492738Y-83748571D01*
X163591904Y-103671666D02*
X164068095Y-103671666D01*
X163496666Y-103957380D02*
X163830000Y-102957380D01*
X164163333Y-103957380D01*
X138096666Y-102957380D02*
X138430000Y-103957380D01*
X138763333Y-102957380D01*
D11*
X118170000Y-98485000D02*
X116840000Y-98485000D01*
X118170000Y-97155000D02*
X118170000Y-98485000D01*
X118170000Y-95885000D02*
X115510000Y-95885000D01*
X115510000Y-95885000D02*
X115510000Y-93285000D01*
X118170000Y-95885000D02*
X118170000Y-93285000D01*
X118170000Y-93285000D02*
X115510000Y-93285000D01*
X173740000Y-90795000D02*
G75*
G03X173740000Y-90795000I-6100000J0D01*
G01*
X171450000Y-100965000D02*
X171450000Y-80645000D01*
X171450000Y-80645000D02*
X119380000Y-80645000D01*
X119380000Y-100965000D02*
X119380000Y-80645000D01*
X171450000Y-100965000D02*
X119380000Y-100965000D01*
X147645000Y-101390000D02*
X147645000Y-102640000D01*
X148895000Y-101390000D02*
X147645000Y-101390000D01*
X159795000Y-106890000D02*
X154245000Y-106890000D01*
X159795000Y-103940000D02*
X159795000Y-106890000D01*
X160545000Y-103940000D02*
X159795000Y-103940000D01*
X148695000Y-106890000D02*
X154245000Y-106890000D01*
X148695000Y-103940000D02*
X148695000Y-106890000D01*
X147945000Y-103940000D02*
X148695000Y-103940000D01*
X160545000Y-101690000D02*
X158745000Y-101690000D01*
X160545000Y-102440000D02*
X160545000Y-101690000D01*
X158745000Y-102440000D02*
X160545000Y-102440000D01*
X158745000Y-101690000D02*
X158745000Y-102440000D01*
X149745000Y-101690000D02*
X147945000Y-101690000D01*
X149745000Y-102440000D02*
X149745000Y-101690000D01*
X147945000Y-102440000D02*
X149745000Y-102440000D01*
X147945000Y-101690000D02*
X147945000Y-102440000D01*
X157245000Y-101690000D02*
X151245000Y-101690000D01*
X157245000Y-102440000D02*
X157245000Y-101690000D01*
X151245000Y-102440000D02*
X157245000Y-102440000D01*
X151245000Y-101690000D02*
X151245000Y-102440000D01*
X160555000Y-101680000D02*
X147935000Y-101680000D01*
X160555000Y-107650000D02*
X160555000Y-101680000D01*
X147935000Y-107650000D02*
X160555000Y-107650000D01*
X147935000Y-101680000D02*
X147935000Y-107650000D01*
X144840000Y-105350000D02*
X144840000Y-106680000D01*
X143510000Y-105350000D02*
X144840000Y-105350000D01*
X142240000Y-105350000D02*
X142240000Y-108010000D01*
X142240000Y-108010000D02*
X137100000Y-108010000D01*
X142240000Y-105350000D02*
X137100000Y-105350000D01*
X137100000Y-105350000D02*
X137100000Y-108010000D01*
X114510000Y-73350000D02*
X113260000Y-73350000D01*
X114510000Y-74600000D02*
X114510000Y-73350000D01*
X109010000Y-85500000D02*
X109010000Y-79950000D01*
X111960000Y-85500000D02*
X109010000Y-85500000D01*
X111960000Y-86250000D02*
X111960000Y-85500000D01*
X109010000Y-74400000D02*
X109010000Y-79950000D01*
X111960000Y-74400000D02*
X109010000Y-74400000D01*
X111960000Y-73650000D02*
X111960000Y-74400000D01*
X114210000Y-86250000D02*
X114210000Y-84450000D01*
X113460000Y-86250000D02*
X114210000Y-86250000D01*
X113460000Y-84450000D02*
X113460000Y-86250000D01*
X114210000Y-84450000D02*
X113460000Y-84450000D01*
X114210000Y-75450000D02*
X114210000Y-73650000D01*
X113460000Y-75450000D02*
X114210000Y-75450000D01*
X113460000Y-73650000D02*
X113460000Y-75450000D01*
X114210000Y-73650000D02*
X113460000Y-73650000D01*
X114210000Y-82950000D02*
X114210000Y-76950000D01*
X113460000Y-82950000D02*
X114210000Y-82950000D01*
X113460000Y-76950000D02*
X113460000Y-82950000D01*
X114210000Y-76950000D02*
X113460000Y-76950000D01*
X114220000Y-86260000D02*
X114220000Y-73640000D01*
X108250000Y-86260000D02*
X114220000Y-86260000D01*
X108250000Y-73640000D02*
X108250000Y-86260000D01*
X114220000Y-73640000D02*
X108250000Y-73640000D01*
X108275000Y-101390000D02*
X108275000Y-102640000D01*
X109525000Y-101390000D02*
X108275000Y-101390000D01*
X122925000Y-106890000D02*
X116125000Y-106890000D01*
X122925000Y-103940000D02*
X122925000Y-106890000D01*
X123675000Y-103940000D02*
X122925000Y-103940000D01*
X109325000Y-106890000D02*
X116125000Y-106890000D01*
X109325000Y-103940000D02*
X109325000Y-106890000D01*
X108575000Y-103940000D02*
X109325000Y-103940000D01*
X123675000Y-101690000D02*
X121875000Y-101690000D01*
X123675000Y-102440000D02*
X123675000Y-101690000D01*
X121875000Y-102440000D02*
X123675000Y-102440000D01*
X121875000Y-101690000D02*
X121875000Y-102440000D01*
X110375000Y-101690000D02*
X108575000Y-101690000D01*
X110375000Y-102440000D02*
X110375000Y-101690000D01*
X108575000Y-102440000D02*
X110375000Y-102440000D01*
X108575000Y-101690000D02*
X108575000Y-102440000D01*
X120375000Y-101690000D02*
X111875000Y-101690000D01*
X120375000Y-102440000D02*
X120375000Y-101690000D01*
X111875000Y-102440000D02*
X120375000Y-102440000D01*
X111875000Y-101690000D02*
X111875000Y-102440000D01*
X123685000Y-101680000D02*
X108565000Y-101680000D01*
X123685000Y-107650000D02*
X123685000Y-101680000D01*
X108565000Y-107650000D02*
X123685000Y-107650000D01*
X108565000Y-101680000D02*
X108565000Y-107650000D01*
X174300000Y-79585000D02*
X174300000Y-78335000D01*
X173050000Y-79585000D02*
X174300000Y-79585000D01*
X167150000Y-74085000D02*
X170200000Y-74085000D01*
X167150000Y-77035000D02*
X167150000Y-74085000D01*
X166400000Y-77035000D02*
X167150000Y-77035000D01*
X173250000Y-74085000D02*
X170200000Y-74085000D01*
X173250000Y-77035000D02*
X173250000Y-74085000D01*
X174000000Y-77035000D02*
X173250000Y-77035000D01*
X166400000Y-79285000D02*
X168200000Y-79285000D01*
X166400000Y-78535000D02*
X166400000Y-79285000D01*
X168200000Y-78535000D02*
X166400000Y-78535000D01*
X168200000Y-79285000D02*
X168200000Y-78535000D01*
X172200000Y-79285000D02*
X174000000Y-79285000D01*
X172200000Y-78535000D02*
X172200000Y-79285000D01*
X174000000Y-78535000D02*
X172200000Y-78535000D01*
X174000000Y-79285000D02*
X174000000Y-78535000D01*
X169700000Y-79285000D02*
X170700000Y-79285000D01*
X169700000Y-78535000D02*
X169700000Y-79285000D01*
X170700000Y-78535000D02*
X169700000Y-78535000D01*
X170700000Y-79285000D02*
X170700000Y-78535000D01*
X166390000Y-79295000D02*
X174010000Y-79295000D01*
X166390000Y-73325000D02*
X166390000Y-79295000D01*
X174010000Y-73325000D02*
X166390000Y-73325000D01*
X174010000Y-79295000D02*
X174010000Y-73325000D01*
X167580000Y-102175000D02*
X168910000Y-102175000D01*
X167580000Y-103505000D02*
X167580000Y-102175000D01*
X167580000Y-104775000D02*
X170240000Y-104775000D01*
X170240000Y-104775000D02*
X170240000Y-104835000D01*
X167580000Y-104775000D02*
X167580000Y-104835000D01*
X167580000Y-104835000D02*
X170240000Y-104835000D01*
X142180000Y-104835000D02*
X144840000Y-104835000D01*
X142180000Y-104775000D02*
X142180000Y-104835000D01*
X144840000Y-104775000D02*
X144840000Y-104835000D01*
X142180000Y-104775000D02*
X144840000Y-104775000D01*
X142180000Y-103505000D02*
X142180000Y-102175000D01*
X142180000Y-102175000D02*
X143510000Y-102175000D01*
X172025000Y-97095000D02*
X173355000Y-97095000D01*
X172025000Y-98425000D02*
X172025000Y-97095000D01*
X172025000Y-99695000D02*
X174685000Y-99695000D01*
X174685000Y-99695000D02*
X174685000Y-99755000D01*
X172025000Y-99695000D02*
X172025000Y-99755000D01*
X172025000Y-99755000D02*
X174685000Y-99755000D01*
X151690000Y-79748748D02*
X151690000Y-80271252D01*
X153110000Y-79748748D02*
X153110000Y-80271252D01*
X155650000Y-80271252D02*
X155650000Y-79748748D01*
X154230000Y-80271252D02*
X154230000Y-79748748D01*
X150170000Y-79585000D02*
X150170000Y-78335000D01*
X148920000Y-79585000D02*
X150170000Y-79585000D01*
X133020000Y-74085000D02*
X141070000Y-74085000D01*
X133020000Y-77035000D02*
X133020000Y-74085000D01*
X132270000Y-77035000D02*
X133020000Y-77035000D01*
X149120000Y-74085000D02*
X141070000Y-74085000D01*
X149120000Y-77035000D02*
X149120000Y-74085000D01*
X149870000Y-77035000D02*
X149120000Y-77035000D01*
X132270000Y-79285000D02*
X134070000Y-79285000D01*
X132270000Y-78535000D02*
X132270000Y-79285000D01*
X134070000Y-78535000D02*
X132270000Y-78535000D01*
X134070000Y-79285000D02*
X134070000Y-78535000D01*
X148070000Y-79285000D02*
X149870000Y-79285000D01*
X148070000Y-78535000D02*
X148070000Y-79285000D01*
X149870000Y-78535000D02*
X148070000Y-78535000D01*
X149870000Y-79285000D02*
X149870000Y-78535000D01*
X135570000Y-79285000D02*
X146570000Y-79285000D01*
X135570000Y-78535000D02*
X135570000Y-79285000D01*
X146570000Y-78535000D02*
X135570000Y-78535000D01*
X146570000Y-79285000D02*
X146570000Y-78535000D01*
X132260000Y-79295000D02*
X149880000Y-79295000D01*
X132260000Y-73325000D02*
X132260000Y-79295000D01*
X149880000Y-73325000D02*
X132260000Y-73325000D01*
X149880000Y-79295000D02*
X149880000Y-73325000D01*
X124785000Y-101390000D02*
X124785000Y-102640000D01*
X126035000Y-101390000D02*
X124785000Y-101390000D01*
X134435000Y-106890000D02*
X130135000Y-106890000D01*
X134435000Y-103940000D02*
X134435000Y-106890000D01*
X135185000Y-103940000D02*
X134435000Y-103940000D01*
X125835000Y-106890000D02*
X130135000Y-106890000D01*
X125835000Y-103940000D02*
X125835000Y-106890000D01*
X125085000Y-103940000D02*
X125835000Y-103940000D01*
X135185000Y-101690000D02*
X133385000Y-101690000D01*
X135185000Y-102440000D02*
X135185000Y-101690000D01*
X133385000Y-102440000D02*
X135185000Y-102440000D01*
X133385000Y-101690000D02*
X133385000Y-102440000D01*
X126885000Y-101690000D02*
X125085000Y-101690000D01*
X126885000Y-102440000D02*
X126885000Y-101690000D01*
X125085000Y-102440000D02*
X126885000Y-102440000D01*
X125085000Y-101690000D02*
X125085000Y-102440000D01*
X131885000Y-101690000D02*
X128385000Y-101690000D01*
X131885000Y-102440000D02*
X131885000Y-101690000D01*
X128385000Y-102440000D02*
X131885000Y-102440000D01*
X128385000Y-101690000D02*
X128385000Y-102440000D01*
X135195000Y-101680000D02*
X125075000Y-101680000D01*
X135195000Y-107650000D02*
X135195000Y-101680000D01*
X125075000Y-107650000D02*
X135195000Y-107650000D01*
X125075000Y-101680000D02*
X125075000Y-107650000D01*
X170240000Y-105350000D02*
X170240000Y-106680000D01*
X168910000Y-105350000D02*
X170240000Y-105350000D01*
X167640000Y-105350000D02*
X167640000Y-108010000D01*
X167640000Y-108010000D02*
X162500000Y-108010000D01*
X167640000Y-105350000D02*
X162500000Y-105350000D01*
X162500000Y-105350000D02*
X162500000Y-108010000D01*
X158690000Y-78045000D02*
X160020000Y-78045000D01*
X158690000Y-79375000D02*
X158690000Y-78045000D01*
X158690000Y-80645000D02*
X161350000Y-80645000D01*
X161350000Y-80645000D02*
X161350000Y-80705000D01*
X158690000Y-80645000D02*
X158690000Y-80705000D01*
X158690000Y-80705000D02*
X161350000Y-80705000D01*
X114510000Y-87320000D02*
X113260000Y-87320000D01*
X114510000Y-88570000D02*
X114510000Y-87320000D01*
X109010000Y-99470000D02*
X109010000Y-93920000D01*
X111960000Y-99470000D02*
X109010000Y-99470000D01*
X111960000Y-100220000D02*
X111960000Y-99470000D01*
X109010000Y-88370000D02*
X109010000Y-93920000D01*
X111960000Y-88370000D02*
X109010000Y-88370000D01*
X111960000Y-87620000D02*
X111960000Y-88370000D01*
X114210000Y-100220000D02*
X114210000Y-98420000D01*
X113460000Y-100220000D02*
X114210000Y-100220000D01*
X113460000Y-98420000D02*
X113460000Y-100220000D01*
X114210000Y-98420000D02*
X113460000Y-98420000D01*
X114210000Y-89420000D02*
X114210000Y-87620000D01*
X113460000Y-89420000D02*
X114210000Y-89420000D01*
X113460000Y-87620000D02*
X113460000Y-89420000D01*
X114210000Y-87620000D02*
X113460000Y-87620000D01*
X114210000Y-96920000D02*
X114210000Y-90920000D01*
X113460000Y-96920000D02*
X114210000Y-96920000D01*
X113460000Y-90920000D02*
X113460000Y-96920000D01*
X114210000Y-90920000D02*
X113460000Y-90920000D01*
X114220000Y-100230000D02*
X114220000Y-87610000D01*
X108250000Y-100230000D02*
X114220000Y-100230000D01*
X108250000Y-87610000D02*
X108250000Y-100230000D01*
X114220000Y-87610000D02*
X108250000Y-87610000D01*
D10*
X116506666Y-91527380D02*
X116506666Y-92241666D01*
X116459047Y-92384523D01*
X116363809Y-92479761D01*
X116220952Y-92527380D01*
X116125714Y-92527380D01*
X116887619Y-91527380D02*
X117554285Y-91527380D01*
X117125714Y-92527380D01*
X166759047Y-90733571D02*
X166901904Y-90781190D01*
X166949523Y-90828809D01*
X166997142Y-90924047D01*
X166997142Y-91066904D01*
X166949523Y-91162142D01*
X166901904Y-91209761D01*
X166806666Y-91257380D01*
X166425714Y-91257380D01*
X166425714Y-90257380D01*
X166759047Y-90257380D01*
X166854285Y-90305000D01*
X166901904Y-90352619D01*
X166949523Y-90447857D01*
X166949523Y-90543095D01*
X166901904Y-90638333D01*
X166854285Y-90685952D01*
X166759047Y-90733571D01*
X166425714Y-90733571D01*
X167330476Y-90257380D02*
X167997142Y-90257380D01*
X167330476Y-91257380D01*
X167997142Y-91257380D01*
X168901904Y-91257380D02*
X168330476Y-91257380D01*
X168616190Y-91257380D02*
X168616190Y-90257380D01*
X168520952Y-90400238D01*
X168425714Y-90495476D01*
X168330476Y-90543095D01*
X167711428Y-89280952D02*
X167711428Y-88519047D01*
X168092380Y-88900000D02*
X167330476Y-88900000D01*
X172172380Y-91566904D02*
X172981904Y-91566904D01*
X173077142Y-91519285D01*
X173124761Y-91471666D01*
X173172380Y-91376428D01*
X173172380Y-91185952D01*
X173124761Y-91090714D01*
X173077142Y-91043095D01*
X172981904Y-90995476D01*
X172172380Y-90995476D01*
X173172380Y-89995476D02*
X173172380Y-90566904D01*
X173172380Y-90281190D02*
X172172380Y-90281190D01*
X172315238Y-90376428D01*
X172410476Y-90471666D01*
X172458095Y-90566904D01*
X126452380Y-85647738D02*
X126452380Y-86123928D01*
X126928571Y-86171547D01*
X126880952Y-86123928D01*
X126833333Y-86028690D01*
X126833333Y-85790595D01*
X126880952Y-85695357D01*
X126928571Y-85647738D01*
X127023809Y-85600119D01*
X127261904Y-85600119D01*
X127357142Y-85647738D01*
X127404761Y-85695357D01*
X127452380Y-85790595D01*
X127452380Y-86028690D01*
X127404761Y-86123928D01*
X127357142Y-86171547D01*
X126452380Y-85314404D02*
X127452380Y-84981071D01*
X126452380Y-84647738D01*
X129992380Y-87266785D02*
X128992380Y-87266785D01*
X128992380Y-86885833D01*
X129040000Y-86790595D01*
X129087619Y-86742976D01*
X129182857Y-86695357D01*
X129325714Y-86695357D01*
X129420952Y-86742976D01*
X129468571Y-86790595D01*
X129516190Y-86885833D01*
X129516190Y-87266785D01*
X129468571Y-85933452D02*
X129516190Y-85790595D01*
X129563809Y-85742976D01*
X129659047Y-85695357D01*
X129801904Y-85695357D01*
X129897142Y-85742976D01*
X129944761Y-85790595D01*
X129992380Y-85885833D01*
X129992380Y-86266785D01*
X128992380Y-86266785D01*
X128992380Y-85933452D01*
X129040000Y-85838214D01*
X129087619Y-85790595D01*
X129182857Y-85742976D01*
X129278095Y-85742976D01*
X129373333Y-85790595D01*
X129420952Y-85838214D01*
X129468571Y-85933452D01*
X129468571Y-86266785D01*
X129992380Y-85219166D02*
X129992380Y-85028690D01*
X129944761Y-84933452D01*
X129897142Y-84885833D01*
X129754285Y-84790595D01*
X129563809Y-84742976D01*
X129182857Y-84742976D01*
X129087619Y-84790595D01*
X129040000Y-84838214D01*
X128992380Y-84933452D01*
X128992380Y-85123928D01*
X129040000Y-85219166D01*
X129087619Y-85266785D01*
X129182857Y-85314404D01*
X129420952Y-85314404D01*
X129516190Y-85266785D01*
X129563809Y-85219166D01*
X129611428Y-85123928D01*
X129611428Y-84933452D01*
X129563809Y-84838214D01*
X129516190Y-84790595D01*
X129420952Y-84742976D01*
X132532380Y-87266785D02*
X131532380Y-87266785D01*
X131532380Y-86885833D01*
X131580000Y-86790595D01*
X131627619Y-86742976D01*
X131722857Y-86695357D01*
X131865714Y-86695357D01*
X131960952Y-86742976D01*
X132008571Y-86790595D01*
X132056190Y-86885833D01*
X132056190Y-87266785D01*
X132008571Y-85933452D02*
X132056190Y-85790595D01*
X132103809Y-85742976D01*
X132199047Y-85695357D01*
X132341904Y-85695357D01*
X132437142Y-85742976D01*
X132484761Y-85790595D01*
X132532380Y-85885833D01*
X132532380Y-86266785D01*
X131532380Y-86266785D01*
X131532380Y-85933452D01*
X131580000Y-85838214D01*
X131627619Y-85790595D01*
X131722857Y-85742976D01*
X131818095Y-85742976D01*
X131913333Y-85790595D01*
X131960952Y-85838214D01*
X132008571Y-85933452D01*
X132008571Y-86266785D01*
X131960952Y-85123928D02*
X131913333Y-85219166D01*
X131865714Y-85266785D01*
X131770476Y-85314404D01*
X131722857Y-85314404D01*
X131627619Y-85266785D01*
X131580000Y-85219166D01*
X131532380Y-85123928D01*
X131532380Y-84933452D01*
X131580000Y-84838214D01*
X131627619Y-84790595D01*
X131722857Y-84742976D01*
X131770476Y-84742976D01*
X131865714Y-84790595D01*
X131913333Y-84838214D01*
X131960952Y-84933452D01*
X131960952Y-85123928D01*
X132008571Y-85219166D01*
X132056190Y-85266785D01*
X132151428Y-85314404D01*
X132341904Y-85314404D01*
X132437142Y-85266785D01*
X132484761Y-85219166D01*
X132532380Y-85123928D01*
X132532380Y-84933452D01*
X132484761Y-84838214D01*
X132437142Y-84790595D01*
X132341904Y-84742976D01*
X132151428Y-84742976D01*
X132056190Y-84790595D01*
X132008571Y-84838214D01*
X131960952Y-84933452D01*
X135072380Y-87266785D02*
X134072380Y-87266785D01*
X134072380Y-86885833D01*
X134120000Y-86790595D01*
X134167619Y-86742976D01*
X134262857Y-86695357D01*
X134405714Y-86695357D01*
X134500952Y-86742976D01*
X134548571Y-86790595D01*
X134596190Y-86885833D01*
X134596190Y-87266785D01*
X134548571Y-85933452D02*
X134596190Y-85790595D01*
X134643809Y-85742976D01*
X134739047Y-85695357D01*
X134881904Y-85695357D01*
X134977142Y-85742976D01*
X135024761Y-85790595D01*
X135072380Y-85885833D01*
X135072380Y-86266785D01*
X134072380Y-86266785D01*
X134072380Y-85933452D01*
X134120000Y-85838214D01*
X134167619Y-85790595D01*
X134262857Y-85742976D01*
X134358095Y-85742976D01*
X134453333Y-85790595D01*
X134500952Y-85838214D01*
X134548571Y-85933452D01*
X134548571Y-86266785D01*
X134072380Y-85362023D02*
X134072380Y-84695357D01*
X135072380Y-85123928D01*
X137612380Y-87266785D02*
X136612380Y-87266785D01*
X136612380Y-86885833D01*
X136660000Y-86790595D01*
X136707619Y-86742976D01*
X136802857Y-86695357D01*
X136945714Y-86695357D01*
X137040952Y-86742976D01*
X137088571Y-86790595D01*
X137136190Y-86885833D01*
X137136190Y-87266785D01*
X137088571Y-85933452D02*
X137136190Y-85790595D01*
X137183809Y-85742976D01*
X137279047Y-85695357D01*
X137421904Y-85695357D01*
X137517142Y-85742976D01*
X137564761Y-85790595D01*
X137612380Y-85885833D01*
X137612380Y-86266785D01*
X136612380Y-86266785D01*
X136612380Y-85933452D01*
X136660000Y-85838214D01*
X136707619Y-85790595D01*
X136802857Y-85742976D01*
X136898095Y-85742976D01*
X136993333Y-85790595D01*
X137040952Y-85838214D01*
X137088571Y-85933452D01*
X137088571Y-86266785D01*
X136612380Y-84838214D02*
X136612380Y-85028690D01*
X136660000Y-85123928D01*
X136707619Y-85171547D01*
X136850476Y-85266785D01*
X137040952Y-85314404D01*
X137421904Y-85314404D01*
X137517142Y-85266785D01*
X137564761Y-85219166D01*
X137612380Y-85123928D01*
X137612380Y-84933452D01*
X137564761Y-84838214D01*
X137517142Y-84790595D01*
X137421904Y-84742976D01*
X137183809Y-84742976D01*
X137088571Y-84790595D01*
X137040952Y-84838214D01*
X136993333Y-84933452D01*
X136993333Y-85123928D01*
X137040952Y-85219166D01*
X137088571Y-85266785D01*
X137183809Y-85314404D01*
X140152380Y-87266785D02*
X139152380Y-87266785D01*
X139152380Y-86885833D01*
X139200000Y-86790595D01*
X139247619Y-86742976D01*
X139342857Y-86695357D01*
X139485714Y-86695357D01*
X139580952Y-86742976D01*
X139628571Y-86790595D01*
X139676190Y-86885833D01*
X139676190Y-87266785D01*
X139628571Y-85933452D02*
X139676190Y-85790595D01*
X139723809Y-85742976D01*
X139819047Y-85695357D01*
X139961904Y-85695357D01*
X140057142Y-85742976D01*
X140104761Y-85790595D01*
X140152380Y-85885833D01*
X140152380Y-86266785D01*
X139152380Y-86266785D01*
X139152380Y-85933452D01*
X139200000Y-85838214D01*
X139247619Y-85790595D01*
X139342857Y-85742976D01*
X139438095Y-85742976D01*
X139533333Y-85790595D01*
X139580952Y-85838214D01*
X139628571Y-85933452D01*
X139628571Y-86266785D01*
X139152380Y-84790595D02*
X139152380Y-85266785D01*
X139628571Y-85314404D01*
X139580952Y-85266785D01*
X139533333Y-85171547D01*
X139533333Y-84933452D01*
X139580952Y-84838214D01*
X139628571Y-84790595D01*
X139723809Y-84742976D01*
X139961904Y-84742976D01*
X140057142Y-84790595D01*
X140104761Y-84838214D01*
X140152380Y-84933452D01*
X140152380Y-85171547D01*
X140104761Y-85266785D01*
X140057142Y-85314404D01*
X142692380Y-87266785D02*
X141692380Y-87266785D01*
X141692380Y-86885833D01*
X141740000Y-86790595D01*
X141787619Y-86742976D01*
X141882857Y-86695357D01*
X142025714Y-86695357D01*
X142120952Y-86742976D01*
X142168571Y-86790595D01*
X142216190Y-86885833D01*
X142216190Y-87266785D01*
X142168571Y-85933452D02*
X142216190Y-85790595D01*
X142263809Y-85742976D01*
X142359047Y-85695357D01*
X142501904Y-85695357D01*
X142597142Y-85742976D01*
X142644761Y-85790595D01*
X142692380Y-85885833D01*
X142692380Y-86266785D01*
X141692380Y-86266785D01*
X141692380Y-85933452D01*
X141740000Y-85838214D01*
X141787619Y-85790595D01*
X141882857Y-85742976D01*
X141978095Y-85742976D01*
X142073333Y-85790595D01*
X142120952Y-85838214D01*
X142168571Y-85933452D01*
X142168571Y-86266785D01*
X142025714Y-84838214D02*
X142692380Y-84838214D01*
X141644761Y-85076309D02*
X142359047Y-85314404D01*
X142359047Y-84695357D01*
X145232380Y-87266785D02*
X144232380Y-87266785D01*
X144232380Y-86885833D01*
X144280000Y-86790595D01*
X144327619Y-86742976D01*
X144422857Y-86695357D01*
X144565714Y-86695357D01*
X144660952Y-86742976D01*
X144708571Y-86790595D01*
X144756190Y-86885833D01*
X144756190Y-87266785D01*
X144708571Y-85933452D02*
X144756190Y-85790595D01*
X144803809Y-85742976D01*
X144899047Y-85695357D01*
X145041904Y-85695357D01*
X145137142Y-85742976D01*
X145184761Y-85790595D01*
X145232380Y-85885833D01*
X145232380Y-86266785D01*
X144232380Y-86266785D01*
X144232380Y-85933452D01*
X144280000Y-85838214D01*
X144327619Y-85790595D01*
X144422857Y-85742976D01*
X144518095Y-85742976D01*
X144613333Y-85790595D01*
X144660952Y-85838214D01*
X144708571Y-85933452D01*
X144708571Y-86266785D01*
X144232380Y-85362023D02*
X144232380Y-84742976D01*
X144613333Y-85076309D01*
X144613333Y-84933452D01*
X144660952Y-84838214D01*
X144708571Y-84790595D01*
X144803809Y-84742976D01*
X145041904Y-84742976D01*
X145137142Y-84790595D01*
X145184761Y-84838214D01*
X145232380Y-84933452D01*
X145232380Y-85219166D01*
X145184761Y-85314404D01*
X145137142Y-85362023D01*
X147772380Y-88076309D02*
X146772380Y-88076309D01*
X146772380Y-87695357D01*
X146820000Y-87600119D01*
X146867619Y-87552500D01*
X146962857Y-87504880D01*
X147105714Y-87504880D01*
X147200952Y-87552500D01*
X147248571Y-87600119D01*
X147296190Y-87695357D01*
X147296190Y-88076309D01*
X147486666Y-87123928D02*
X147486666Y-86647738D01*
X147772380Y-87219166D02*
X146772380Y-86885833D01*
X147772380Y-86552500D01*
X147772380Y-85695357D02*
X147772380Y-86266785D01*
X147772380Y-85981071D02*
X146772380Y-85981071D01*
X146915238Y-86076309D01*
X147010476Y-86171547D01*
X147058095Y-86266785D01*
X146772380Y-84790595D02*
X146772380Y-85266785D01*
X147248571Y-85314404D01*
X147200952Y-85266785D01*
X147153333Y-85171547D01*
X147153333Y-84933452D01*
X147200952Y-84838214D01*
X147248571Y-84790595D01*
X147343809Y-84742976D01*
X147581904Y-84742976D01*
X147677142Y-84790595D01*
X147724761Y-84838214D01*
X147772380Y-84933452D01*
X147772380Y-85171547D01*
X147724761Y-85266785D01*
X147677142Y-85314404D01*
X150312380Y-88076309D02*
X149312380Y-88076309D01*
X149312380Y-87695357D01*
X149360000Y-87600119D01*
X149407619Y-87552500D01*
X149502857Y-87504880D01*
X149645714Y-87504880D01*
X149740952Y-87552500D01*
X149788571Y-87600119D01*
X149836190Y-87695357D01*
X149836190Y-88076309D01*
X150026666Y-87123928D02*
X150026666Y-86647738D01*
X150312380Y-87219166D02*
X149312380Y-86885833D01*
X150312380Y-86552500D01*
X150312380Y-85695357D02*
X150312380Y-86266785D01*
X150312380Y-85981071D02*
X149312380Y-85981071D01*
X149455238Y-86076309D01*
X149550476Y-86171547D01*
X149598095Y-86266785D01*
X149407619Y-85314404D02*
X149360000Y-85266785D01*
X149312380Y-85171547D01*
X149312380Y-84933452D01*
X149360000Y-84838214D01*
X149407619Y-84790595D01*
X149502857Y-84742976D01*
X149598095Y-84742976D01*
X149740952Y-84790595D01*
X150312380Y-85362023D01*
X150312380Y-84742976D01*
X152852380Y-88076309D02*
X151852380Y-88076309D01*
X151852380Y-87695357D01*
X151900000Y-87600119D01*
X151947619Y-87552500D01*
X152042857Y-87504880D01*
X152185714Y-87504880D01*
X152280952Y-87552500D01*
X152328571Y-87600119D01*
X152376190Y-87695357D01*
X152376190Y-88076309D01*
X152566666Y-87123928D02*
X152566666Y-86647738D01*
X152852380Y-87219166D02*
X151852380Y-86885833D01*
X152852380Y-86552500D01*
X152852380Y-85695357D02*
X152852380Y-86266785D01*
X152852380Y-85981071D02*
X151852380Y-85981071D01*
X151995238Y-86076309D01*
X152090476Y-86171547D01*
X152138095Y-86266785D01*
X152852380Y-84742976D02*
X152852380Y-85314404D01*
X152852380Y-85028690D02*
X151852380Y-85028690D01*
X151995238Y-85123928D01*
X152090476Y-85219166D01*
X152138095Y-85314404D01*
X155392380Y-88076309D02*
X154392380Y-88076309D01*
X154392380Y-87695357D01*
X154440000Y-87600119D01*
X154487619Y-87552500D01*
X154582857Y-87504880D01*
X154725714Y-87504880D01*
X154820952Y-87552500D01*
X154868571Y-87600119D01*
X154916190Y-87695357D01*
X154916190Y-88076309D01*
X155106666Y-87123928D02*
X155106666Y-86647738D01*
X155392380Y-87219166D02*
X154392380Y-86885833D01*
X155392380Y-86552500D01*
X155392380Y-85695357D02*
X155392380Y-86266785D01*
X155392380Y-85981071D02*
X154392380Y-85981071D01*
X154535238Y-86076309D01*
X154630476Y-86171547D01*
X154678095Y-86266785D01*
X154392380Y-85076309D02*
X154392380Y-84981071D01*
X154440000Y-84885833D01*
X154487619Y-84838214D01*
X154582857Y-84790595D01*
X154773333Y-84742976D01*
X155011428Y-84742976D01*
X155201904Y-84790595D01*
X155297142Y-84838214D01*
X155344761Y-84885833D01*
X155392380Y-84981071D01*
X155392380Y-85076309D01*
X155344761Y-85171547D01*
X155297142Y-85219166D01*
X155201904Y-85266785D01*
X155011428Y-85314404D01*
X154773333Y-85314404D01*
X154582857Y-85266785D01*
X154487619Y-85219166D01*
X154440000Y-85171547D01*
X154392380Y-85076309D01*
X157932380Y-87123928D02*
X156932380Y-87123928D01*
X156932380Y-86742976D01*
X156980000Y-86647738D01*
X157027619Y-86600119D01*
X157122857Y-86552500D01*
X157265714Y-86552500D01*
X157360952Y-86600119D01*
X157408571Y-86647738D01*
X157456190Y-86742976D01*
X157456190Y-87123928D01*
X157646666Y-86171547D02*
X157646666Y-85695357D01*
X157932380Y-86266785D02*
X156932380Y-85933452D01*
X157932380Y-85600119D01*
X157932380Y-85219166D02*
X157932380Y-85028690D01*
X157884761Y-84933452D01*
X157837142Y-84885833D01*
X157694285Y-84790595D01*
X157503809Y-84742976D01*
X157122857Y-84742976D01*
X157027619Y-84790595D01*
X156980000Y-84838214D01*
X156932380Y-84933452D01*
X156932380Y-85123928D01*
X156980000Y-85219166D01*
X157027619Y-85266785D01*
X157122857Y-85314404D01*
X157360952Y-85314404D01*
X157456190Y-85266785D01*
X157503809Y-85219166D01*
X157551428Y-85123928D01*
X157551428Y-84933452D01*
X157503809Y-84838214D01*
X157456190Y-84790595D01*
X157360952Y-84742976D01*
X160472380Y-87123928D02*
X159472380Y-87123928D01*
X159472380Y-86742976D01*
X159520000Y-86647738D01*
X159567619Y-86600119D01*
X159662857Y-86552500D01*
X159805714Y-86552500D01*
X159900952Y-86600119D01*
X159948571Y-86647738D01*
X159996190Y-86742976D01*
X159996190Y-87123928D01*
X160186666Y-86171547D02*
X160186666Y-85695357D01*
X160472380Y-86266785D02*
X159472380Y-85933452D01*
X160472380Y-85600119D01*
X159900952Y-85123928D02*
X159853333Y-85219166D01*
X159805714Y-85266785D01*
X159710476Y-85314404D01*
X159662857Y-85314404D01*
X159567619Y-85266785D01*
X159520000Y-85219166D01*
X159472380Y-85123928D01*
X159472380Y-84933452D01*
X159520000Y-84838214D01*
X159567619Y-84790595D01*
X159662857Y-84742976D01*
X159710476Y-84742976D01*
X159805714Y-84790595D01*
X159853333Y-84838214D01*
X159900952Y-84933452D01*
X159900952Y-85123928D01*
X159948571Y-85219166D01*
X159996190Y-85266785D01*
X160091428Y-85314404D01*
X160281904Y-85314404D01*
X160377142Y-85266785D01*
X160424761Y-85219166D01*
X160472380Y-85123928D01*
X160472380Y-84933452D01*
X160424761Y-84838214D01*
X160377142Y-84790595D01*
X160281904Y-84742976D01*
X160091428Y-84742976D01*
X159996190Y-84790595D01*
X159948571Y-84838214D01*
X159900952Y-84933452D01*
X163012380Y-88219166D02*
X162012380Y-88219166D01*
X162012380Y-87838214D01*
X162060000Y-87742976D01*
X162107619Y-87695357D01*
X162202857Y-87647738D01*
X162345714Y-87647738D01*
X162440952Y-87695357D01*
X162488571Y-87742976D01*
X162536190Y-87838214D01*
X162536190Y-88219166D01*
X162488571Y-86885833D02*
X162536190Y-86742976D01*
X162583809Y-86695357D01*
X162679047Y-86647738D01*
X162821904Y-86647738D01*
X162917142Y-86695357D01*
X162964761Y-86742976D01*
X163012380Y-86838214D01*
X163012380Y-87219166D01*
X162012380Y-87219166D01*
X162012380Y-86885833D01*
X162060000Y-86790595D01*
X162107619Y-86742976D01*
X162202857Y-86695357D01*
X162298095Y-86695357D01*
X162393333Y-86742976D01*
X162440952Y-86790595D01*
X162488571Y-86885833D01*
X162488571Y-87219166D01*
X163012380Y-85695357D02*
X163012380Y-86266785D01*
X163012380Y-85981071D02*
X162012380Y-85981071D01*
X162155238Y-86076309D01*
X162250476Y-86171547D01*
X162298095Y-86266785D01*
X162012380Y-84790595D02*
X162012380Y-85266785D01*
X162488571Y-85314404D01*
X162440952Y-85266785D01*
X162393333Y-85171547D01*
X162393333Y-84933452D01*
X162440952Y-84838214D01*
X162488571Y-84790595D01*
X162583809Y-84742976D01*
X162821904Y-84742976D01*
X162917142Y-84790595D01*
X162964761Y-84838214D01*
X163012380Y-84933452D01*
X163012380Y-85171547D01*
X162964761Y-85266785D01*
X162917142Y-85314404D01*
X165552380Y-88219166D02*
X164552380Y-88219166D01*
X164552380Y-87838214D01*
X164600000Y-87742976D01*
X164647619Y-87695357D01*
X164742857Y-87647738D01*
X164885714Y-87647738D01*
X164980952Y-87695357D01*
X165028571Y-87742976D01*
X165076190Y-87838214D01*
X165076190Y-88219166D01*
X165028571Y-86885833D02*
X165076190Y-86742976D01*
X165123809Y-86695357D01*
X165219047Y-86647738D01*
X165361904Y-86647738D01*
X165457142Y-86695357D01*
X165504761Y-86742976D01*
X165552380Y-86838214D01*
X165552380Y-87219166D01*
X164552380Y-87219166D01*
X164552380Y-86885833D01*
X164600000Y-86790595D01*
X164647619Y-86742976D01*
X164742857Y-86695357D01*
X164838095Y-86695357D01*
X164933333Y-86742976D01*
X164980952Y-86790595D01*
X165028571Y-86885833D01*
X165028571Y-87219166D01*
X165552380Y-85695357D02*
X165552380Y-86266785D01*
X165552380Y-85981071D02*
X164552380Y-85981071D01*
X164695238Y-86076309D01*
X164790476Y-86171547D01*
X164838095Y-86266785D01*
X164885714Y-84838214D02*
X165552380Y-84838214D01*
X164504761Y-85076309D02*
X165219047Y-85314404D01*
X165219047Y-84695357D01*
X168092380Y-88219166D02*
X167092380Y-88219166D01*
X167092380Y-87838214D01*
X167140000Y-87742976D01*
X167187619Y-87695357D01*
X167282857Y-87647738D01*
X167425714Y-87647738D01*
X167520952Y-87695357D01*
X167568571Y-87742976D01*
X167616190Y-87838214D01*
X167616190Y-88219166D01*
X167568571Y-86885833D02*
X167616190Y-86742976D01*
X167663809Y-86695357D01*
X167759047Y-86647738D01*
X167901904Y-86647738D01*
X167997142Y-86695357D01*
X168044761Y-86742976D01*
X168092380Y-86838214D01*
X168092380Y-87219166D01*
X167092380Y-87219166D01*
X167092380Y-86885833D01*
X167140000Y-86790595D01*
X167187619Y-86742976D01*
X167282857Y-86695357D01*
X167378095Y-86695357D01*
X167473333Y-86742976D01*
X167520952Y-86790595D01*
X167568571Y-86885833D01*
X167568571Y-87219166D01*
X168092380Y-85695357D02*
X168092380Y-86266785D01*
X168092380Y-85981071D02*
X167092380Y-85981071D01*
X167235238Y-86076309D01*
X167330476Y-86171547D01*
X167378095Y-86266785D01*
X167092380Y-85362023D02*
X167092380Y-84742976D01*
X167473333Y-85076309D01*
X167473333Y-84933452D01*
X167520952Y-84838214D01*
X167568571Y-84790595D01*
X167663809Y-84742976D01*
X167901904Y-84742976D01*
X167997142Y-84790595D01*
X168044761Y-84838214D01*
X168092380Y-84933452D01*
X168092380Y-85219166D01*
X168044761Y-85314404D01*
X167997142Y-85362023D01*
X170632380Y-88219166D02*
X169632380Y-88219166D01*
X169632380Y-87838214D01*
X169680000Y-87742976D01*
X169727619Y-87695357D01*
X169822857Y-87647738D01*
X169965714Y-87647738D01*
X170060952Y-87695357D01*
X170108571Y-87742976D01*
X170156190Y-87838214D01*
X170156190Y-88219166D01*
X170108571Y-86885833D02*
X170156190Y-86742976D01*
X170203809Y-86695357D01*
X170299047Y-86647738D01*
X170441904Y-86647738D01*
X170537142Y-86695357D01*
X170584761Y-86742976D01*
X170632380Y-86838214D01*
X170632380Y-87219166D01*
X169632380Y-87219166D01*
X169632380Y-86885833D01*
X169680000Y-86790595D01*
X169727619Y-86742976D01*
X169822857Y-86695357D01*
X169918095Y-86695357D01*
X170013333Y-86742976D01*
X170060952Y-86790595D01*
X170108571Y-86885833D01*
X170108571Y-87219166D01*
X170632380Y-85695357D02*
X170632380Y-86266785D01*
X170632380Y-85981071D02*
X169632380Y-85981071D01*
X169775238Y-86076309D01*
X169870476Y-86171547D01*
X169918095Y-86266785D01*
X169727619Y-85314404D02*
X169680000Y-85266785D01*
X169632380Y-85171547D01*
X169632380Y-84933452D01*
X169680000Y-84838214D01*
X169727619Y-84790595D01*
X169822857Y-84742976D01*
X169918095Y-84742976D01*
X170060952Y-84790595D01*
X170632380Y-85362023D01*
X170632380Y-84742976D01*
X123960000Y-86838214D02*
X123912380Y-86933452D01*
X123912380Y-87076309D01*
X123960000Y-87219166D01*
X124055238Y-87314404D01*
X124150476Y-87362023D01*
X124340952Y-87409642D01*
X124483809Y-87409642D01*
X124674285Y-87362023D01*
X124769523Y-87314404D01*
X124864761Y-87219166D01*
X124912380Y-87076309D01*
X124912380Y-86981071D01*
X124864761Y-86838214D01*
X124817142Y-86790595D01*
X124483809Y-86790595D01*
X124483809Y-86981071D01*
X124912380Y-86362023D02*
X123912380Y-86362023D01*
X124912380Y-85790595D01*
X123912380Y-85790595D01*
X124912380Y-85314404D02*
X123912380Y-85314404D01*
X123912380Y-85076309D01*
X123960000Y-84933452D01*
X124055238Y-84838214D01*
X124150476Y-84790595D01*
X124340952Y-84742976D01*
X124483809Y-84742976D01*
X124674285Y-84790595D01*
X124769523Y-84838214D01*
X124864761Y-84933452D01*
X124912380Y-85076309D01*
X124912380Y-85314404D01*
X121372380Y-87171547D02*
X121372380Y-86552500D01*
X121753333Y-86885833D01*
X121753333Y-86742976D01*
X121800952Y-86647738D01*
X121848571Y-86600119D01*
X121943809Y-86552500D01*
X122181904Y-86552500D01*
X122277142Y-86600119D01*
X122324761Y-86647738D01*
X122372380Y-86742976D01*
X122372380Y-87028690D01*
X122324761Y-87123928D01*
X122277142Y-87171547D01*
X121372380Y-86266785D02*
X122372380Y-85933452D01*
X121372380Y-85600119D01*
X121372380Y-85362023D02*
X121372380Y-84742976D01*
X121753333Y-85076309D01*
X121753333Y-84933452D01*
X121800952Y-84838214D01*
X121848571Y-84790595D01*
X121943809Y-84742976D01*
X122181904Y-84742976D01*
X122277142Y-84790595D01*
X122324761Y-84838214D01*
X122372380Y-84933452D01*
X122372380Y-85219166D01*
X122324761Y-85314404D01*
X122277142Y-85362023D01*
X121372380Y-96962261D02*
X122372380Y-96628928D01*
X121372380Y-96295595D01*
X121848571Y-95628928D02*
X121896190Y-95486071D01*
X121943809Y-95438452D01*
X122039047Y-95390833D01*
X122181904Y-95390833D01*
X122277142Y-95438452D01*
X122324761Y-95486071D01*
X122372380Y-95581309D01*
X122372380Y-95962261D01*
X121372380Y-95962261D01*
X121372380Y-95628928D01*
X121420000Y-95533690D01*
X121467619Y-95486071D01*
X121562857Y-95438452D01*
X121658095Y-95438452D01*
X121753333Y-95486071D01*
X121800952Y-95533690D01*
X121848571Y-95628928D01*
X121848571Y-95962261D01*
X124912380Y-96819404D02*
X123912380Y-96819404D01*
X123912380Y-96438452D01*
X123960000Y-96343214D01*
X124007619Y-96295595D01*
X124102857Y-96247976D01*
X124245714Y-96247976D01*
X124340952Y-96295595D01*
X124388571Y-96343214D01*
X124436190Y-96438452D01*
X124436190Y-96819404D01*
X124817142Y-95247976D02*
X124864761Y-95295595D01*
X124912380Y-95438452D01*
X124912380Y-95533690D01*
X124864761Y-95676547D01*
X124769523Y-95771785D01*
X124674285Y-95819404D01*
X124483809Y-95867023D01*
X124340952Y-95867023D01*
X124150476Y-95819404D01*
X124055238Y-95771785D01*
X123960000Y-95676547D01*
X123912380Y-95533690D01*
X123912380Y-95438452D01*
X123960000Y-95295595D01*
X124007619Y-95247976D01*
X124912380Y-94295595D02*
X124912380Y-94867023D01*
X124912380Y-94581309D02*
X123912380Y-94581309D01*
X124055238Y-94676547D01*
X124150476Y-94771785D01*
X124198095Y-94867023D01*
X123912380Y-93962261D02*
X123912380Y-93343214D01*
X124293333Y-93676547D01*
X124293333Y-93533690D01*
X124340952Y-93438452D01*
X124388571Y-93390833D01*
X124483809Y-93343214D01*
X124721904Y-93343214D01*
X124817142Y-93390833D01*
X124864761Y-93438452D01*
X124912380Y-93533690D01*
X124912380Y-93819404D01*
X124864761Y-93914642D01*
X124817142Y-93962261D01*
X127452380Y-96819404D02*
X126452380Y-96819404D01*
X126452380Y-96438452D01*
X126500000Y-96343214D01*
X126547619Y-96295595D01*
X126642857Y-96247976D01*
X126785714Y-96247976D01*
X126880952Y-96295595D01*
X126928571Y-96343214D01*
X126976190Y-96438452D01*
X126976190Y-96819404D01*
X127357142Y-95247976D02*
X127404761Y-95295595D01*
X127452380Y-95438452D01*
X127452380Y-95533690D01*
X127404761Y-95676547D01*
X127309523Y-95771785D01*
X127214285Y-95819404D01*
X127023809Y-95867023D01*
X126880952Y-95867023D01*
X126690476Y-95819404D01*
X126595238Y-95771785D01*
X126500000Y-95676547D01*
X126452380Y-95533690D01*
X126452380Y-95438452D01*
X126500000Y-95295595D01*
X126547619Y-95247976D01*
X127452380Y-94295595D02*
X127452380Y-94867023D01*
X127452380Y-94581309D02*
X126452380Y-94581309D01*
X126595238Y-94676547D01*
X126690476Y-94771785D01*
X126738095Y-94867023D01*
X126785714Y-93438452D02*
X127452380Y-93438452D01*
X126404761Y-93676547D02*
X127119047Y-93914642D01*
X127119047Y-93295595D01*
X129992380Y-96819404D02*
X128992380Y-96819404D01*
X128992380Y-96438452D01*
X129040000Y-96343214D01*
X129087619Y-96295595D01*
X129182857Y-96247976D01*
X129325714Y-96247976D01*
X129420952Y-96295595D01*
X129468571Y-96343214D01*
X129516190Y-96438452D01*
X129516190Y-96819404D01*
X129897142Y-95247976D02*
X129944761Y-95295595D01*
X129992380Y-95438452D01*
X129992380Y-95533690D01*
X129944761Y-95676547D01*
X129849523Y-95771785D01*
X129754285Y-95819404D01*
X129563809Y-95867023D01*
X129420952Y-95867023D01*
X129230476Y-95819404D01*
X129135238Y-95771785D01*
X129040000Y-95676547D01*
X128992380Y-95533690D01*
X128992380Y-95438452D01*
X129040000Y-95295595D01*
X129087619Y-95247976D01*
X129992380Y-94295595D02*
X129992380Y-94867023D01*
X129992380Y-94581309D02*
X128992380Y-94581309D01*
X129135238Y-94676547D01*
X129230476Y-94771785D01*
X129278095Y-94867023D01*
X128992380Y-93390833D02*
X128992380Y-93867023D01*
X129468571Y-93914642D01*
X129420952Y-93867023D01*
X129373333Y-93771785D01*
X129373333Y-93533690D01*
X129420952Y-93438452D01*
X129468571Y-93390833D01*
X129563809Y-93343214D01*
X129801904Y-93343214D01*
X129897142Y-93390833D01*
X129944761Y-93438452D01*
X129992380Y-93533690D01*
X129992380Y-93771785D01*
X129944761Y-93867023D01*
X129897142Y-93914642D01*
X132532380Y-96819404D02*
X131532380Y-96819404D01*
X131532380Y-96438452D01*
X131580000Y-96343214D01*
X131627619Y-96295595D01*
X131722857Y-96247976D01*
X131865714Y-96247976D01*
X131960952Y-96295595D01*
X132008571Y-96343214D01*
X132056190Y-96438452D01*
X132056190Y-96819404D01*
X132246666Y-95867023D02*
X132246666Y-95390833D01*
X132532380Y-95962261D02*
X131532380Y-95628928D01*
X132532380Y-95295595D01*
X131532380Y-94771785D02*
X131532380Y-94676547D01*
X131580000Y-94581309D01*
X131627619Y-94533690D01*
X131722857Y-94486071D01*
X131913333Y-94438452D01*
X132151428Y-94438452D01*
X132341904Y-94486071D01*
X132437142Y-94533690D01*
X132484761Y-94581309D01*
X132532380Y-94676547D01*
X132532380Y-94771785D01*
X132484761Y-94867023D01*
X132437142Y-94914642D01*
X132341904Y-94962261D01*
X132151428Y-95009880D01*
X131913333Y-95009880D01*
X131722857Y-94962261D01*
X131627619Y-94914642D01*
X131580000Y-94867023D01*
X131532380Y-94771785D01*
X135072380Y-96819404D02*
X134072380Y-96819404D01*
X134072380Y-96438452D01*
X134120000Y-96343214D01*
X134167619Y-96295595D01*
X134262857Y-96247976D01*
X134405714Y-96247976D01*
X134500952Y-96295595D01*
X134548571Y-96343214D01*
X134596190Y-96438452D01*
X134596190Y-96819404D01*
X134786666Y-95867023D02*
X134786666Y-95390833D01*
X135072380Y-95962261D02*
X134072380Y-95628928D01*
X135072380Y-95295595D01*
X135072380Y-94438452D02*
X135072380Y-95009880D01*
X135072380Y-94724166D02*
X134072380Y-94724166D01*
X134215238Y-94819404D01*
X134310476Y-94914642D01*
X134358095Y-95009880D01*
X137612380Y-96819404D02*
X136612380Y-96819404D01*
X136612380Y-96438452D01*
X136660000Y-96343214D01*
X136707619Y-96295595D01*
X136802857Y-96247976D01*
X136945714Y-96247976D01*
X137040952Y-96295595D01*
X137088571Y-96343214D01*
X137136190Y-96438452D01*
X137136190Y-96819404D01*
X137326666Y-95867023D02*
X137326666Y-95390833D01*
X137612380Y-95962261D02*
X136612380Y-95628928D01*
X137612380Y-95295595D01*
X136707619Y-95009880D02*
X136660000Y-94962261D01*
X136612380Y-94867023D01*
X136612380Y-94628928D01*
X136660000Y-94533690D01*
X136707619Y-94486071D01*
X136802857Y-94438452D01*
X136898095Y-94438452D01*
X137040952Y-94486071D01*
X137612380Y-95057500D01*
X137612380Y-94438452D01*
X140152380Y-96819404D02*
X139152380Y-96819404D01*
X139152380Y-96438452D01*
X139200000Y-96343214D01*
X139247619Y-96295595D01*
X139342857Y-96247976D01*
X139485714Y-96247976D01*
X139580952Y-96295595D01*
X139628571Y-96343214D01*
X139676190Y-96438452D01*
X139676190Y-96819404D01*
X139866666Y-95867023D02*
X139866666Y-95390833D01*
X140152380Y-95962261D02*
X139152380Y-95628928D01*
X140152380Y-95295595D01*
X139152380Y-95057500D02*
X139152380Y-94438452D01*
X139533333Y-94771785D01*
X139533333Y-94628928D01*
X139580952Y-94533690D01*
X139628571Y-94486071D01*
X139723809Y-94438452D01*
X139961904Y-94438452D01*
X140057142Y-94486071D01*
X140104761Y-94533690D01*
X140152380Y-94628928D01*
X140152380Y-94914642D01*
X140104761Y-95009880D01*
X140057142Y-95057500D01*
X142692380Y-96819404D02*
X141692380Y-96819404D01*
X141692380Y-96438452D01*
X141740000Y-96343214D01*
X141787619Y-96295595D01*
X141882857Y-96247976D01*
X142025714Y-96247976D01*
X142120952Y-96295595D01*
X142168571Y-96343214D01*
X142216190Y-96438452D01*
X142216190Y-96819404D01*
X142406666Y-95867023D02*
X142406666Y-95390833D01*
X142692380Y-95962261D02*
X141692380Y-95628928D01*
X142692380Y-95295595D01*
X142025714Y-94533690D02*
X142692380Y-94533690D01*
X141644761Y-94771785D02*
X142359047Y-95009880D01*
X142359047Y-94390833D01*
X145232380Y-96819404D02*
X144232380Y-96819404D01*
X144232380Y-96438452D01*
X144280000Y-96343214D01*
X144327619Y-96295595D01*
X144422857Y-96247976D01*
X144565714Y-96247976D01*
X144660952Y-96295595D01*
X144708571Y-96343214D01*
X144756190Y-96438452D01*
X144756190Y-96819404D01*
X144946666Y-95867023D02*
X144946666Y-95390833D01*
X145232380Y-95962261D02*
X144232380Y-95628928D01*
X145232380Y-95295595D01*
X144232380Y-94486071D02*
X144232380Y-94962261D01*
X144708571Y-95009880D01*
X144660952Y-94962261D01*
X144613333Y-94867023D01*
X144613333Y-94628928D01*
X144660952Y-94533690D01*
X144708571Y-94486071D01*
X144803809Y-94438452D01*
X145041904Y-94438452D01*
X145137142Y-94486071D01*
X145184761Y-94533690D01*
X145232380Y-94628928D01*
X145232380Y-94867023D01*
X145184761Y-94962261D01*
X145137142Y-95009880D01*
X147772380Y-96819404D02*
X146772380Y-96819404D01*
X146772380Y-96438452D01*
X146820000Y-96343214D01*
X146867619Y-96295595D01*
X146962857Y-96247976D01*
X147105714Y-96247976D01*
X147200952Y-96295595D01*
X147248571Y-96343214D01*
X147296190Y-96438452D01*
X147296190Y-96819404D01*
X147486666Y-95867023D02*
X147486666Y-95390833D01*
X147772380Y-95962261D02*
X146772380Y-95628928D01*
X147772380Y-95295595D01*
X146772380Y-94533690D02*
X146772380Y-94724166D01*
X146820000Y-94819404D01*
X146867619Y-94867023D01*
X147010476Y-94962261D01*
X147200952Y-95009880D01*
X147581904Y-95009880D01*
X147677142Y-94962261D01*
X147724761Y-94914642D01*
X147772380Y-94819404D01*
X147772380Y-94628928D01*
X147724761Y-94533690D01*
X147677142Y-94486071D01*
X147581904Y-94438452D01*
X147343809Y-94438452D01*
X147248571Y-94486071D01*
X147200952Y-94533690D01*
X147153333Y-94628928D01*
X147153333Y-94819404D01*
X147200952Y-94914642D01*
X147248571Y-94962261D01*
X147343809Y-95009880D01*
X150312380Y-96819404D02*
X149312380Y-96819404D01*
X149312380Y-96438452D01*
X149360000Y-96343214D01*
X149407619Y-96295595D01*
X149502857Y-96247976D01*
X149645714Y-96247976D01*
X149740952Y-96295595D01*
X149788571Y-96343214D01*
X149836190Y-96438452D01*
X149836190Y-96819404D01*
X150026666Y-95867023D02*
X150026666Y-95390833D01*
X150312380Y-95962261D02*
X149312380Y-95628928D01*
X150312380Y-95295595D01*
X149312380Y-95057500D02*
X149312380Y-94390833D01*
X150312380Y-94819404D01*
X152852380Y-96819404D02*
X151852380Y-96819404D01*
X151852380Y-96438452D01*
X151900000Y-96343214D01*
X151947619Y-96295595D01*
X152042857Y-96247976D01*
X152185714Y-96247976D01*
X152280952Y-96295595D01*
X152328571Y-96343214D01*
X152376190Y-96438452D01*
X152376190Y-96819404D01*
X152328571Y-95486071D02*
X152376190Y-95343214D01*
X152423809Y-95295595D01*
X152519047Y-95247976D01*
X152661904Y-95247976D01*
X152757142Y-95295595D01*
X152804761Y-95343214D01*
X152852380Y-95438452D01*
X152852380Y-95819404D01*
X151852380Y-95819404D01*
X151852380Y-95486071D01*
X151900000Y-95390833D01*
X151947619Y-95343214D01*
X152042857Y-95295595D01*
X152138095Y-95295595D01*
X152233333Y-95343214D01*
X152280952Y-95390833D01*
X152328571Y-95486071D01*
X152328571Y-95819404D01*
X151852380Y-94628928D02*
X151852380Y-94533690D01*
X151900000Y-94438452D01*
X151947619Y-94390833D01*
X152042857Y-94343214D01*
X152233333Y-94295595D01*
X152471428Y-94295595D01*
X152661904Y-94343214D01*
X152757142Y-94390833D01*
X152804761Y-94438452D01*
X152852380Y-94533690D01*
X152852380Y-94628928D01*
X152804761Y-94724166D01*
X152757142Y-94771785D01*
X152661904Y-94819404D01*
X152471428Y-94867023D01*
X152233333Y-94867023D01*
X152042857Y-94819404D01*
X151947619Y-94771785D01*
X151900000Y-94724166D01*
X151852380Y-94628928D01*
X155392380Y-96819404D02*
X154392380Y-96819404D01*
X154392380Y-96438452D01*
X154440000Y-96343214D01*
X154487619Y-96295595D01*
X154582857Y-96247976D01*
X154725714Y-96247976D01*
X154820952Y-96295595D01*
X154868571Y-96343214D01*
X154916190Y-96438452D01*
X154916190Y-96819404D01*
X154868571Y-95486071D02*
X154916190Y-95343214D01*
X154963809Y-95295595D01*
X155059047Y-95247976D01*
X155201904Y-95247976D01*
X155297142Y-95295595D01*
X155344761Y-95343214D01*
X155392380Y-95438452D01*
X155392380Y-95819404D01*
X154392380Y-95819404D01*
X154392380Y-95486071D01*
X154440000Y-95390833D01*
X154487619Y-95343214D01*
X154582857Y-95295595D01*
X154678095Y-95295595D01*
X154773333Y-95343214D01*
X154820952Y-95390833D01*
X154868571Y-95486071D01*
X154868571Y-95819404D01*
X155392380Y-94295595D02*
X155392380Y-94867023D01*
X155392380Y-94581309D02*
X154392380Y-94581309D01*
X154535238Y-94676547D01*
X154630476Y-94771785D01*
X154678095Y-94867023D01*
X157932380Y-96819404D02*
X156932380Y-96819404D01*
X156932380Y-96438452D01*
X156980000Y-96343214D01*
X157027619Y-96295595D01*
X157122857Y-96247976D01*
X157265714Y-96247976D01*
X157360952Y-96295595D01*
X157408571Y-96343214D01*
X157456190Y-96438452D01*
X157456190Y-96819404D01*
X157408571Y-95486071D02*
X157456190Y-95343214D01*
X157503809Y-95295595D01*
X157599047Y-95247976D01*
X157741904Y-95247976D01*
X157837142Y-95295595D01*
X157884761Y-95343214D01*
X157932380Y-95438452D01*
X157932380Y-95819404D01*
X156932380Y-95819404D01*
X156932380Y-95486071D01*
X156980000Y-95390833D01*
X157027619Y-95343214D01*
X157122857Y-95295595D01*
X157218095Y-95295595D01*
X157313333Y-95343214D01*
X157360952Y-95390833D01*
X157408571Y-95486071D01*
X157408571Y-95819404D01*
X157932380Y-94295595D02*
X157932380Y-94867023D01*
X157932380Y-94581309D02*
X156932380Y-94581309D01*
X157075238Y-94676547D01*
X157170476Y-94771785D01*
X157218095Y-94867023D01*
X156932380Y-93676547D02*
X156932380Y-93581309D01*
X156980000Y-93486071D01*
X157027619Y-93438452D01*
X157122857Y-93390833D01*
X157313333Y-93343214D01*
X157551428Y-93343214D01*
X157741904Y-93390833D01*
X157837142Y-93438452D01*
X157884761Y-93486071D01*
X157932380Y-93581309D01*
X157932380Y-93676547D01*
X157884761Y-93771785D01*
X157837142Y-93819404D01*
X157741904Y-93867023D01*
X157551428Y-93914642D01*
X157313333Y-93914642D01*
X157122857Y-93867023D01*
X157027619Y-93819404D01*
X156980000Y-93771785D01*
X156932380Y-93676547D01*
X160472380Y-96819404D02*
X159472380Y-96819404D01*
X159472380Y-96438452D01*
X159520000Y-96343214D01*
X159567619Y-96295595D01*
X159662857Y-96247976D01*
X159805714Y-96247976D01*
X159900952Y-96295595D01*
X159948571Y-96343214D01*
X159996190Y-96438452D01*
X159996190Y-96819404D01*
X159948571Y-95486071D02*
X159996190Y-95343214D01*
X160043809Y-95295595D01*
X160139047Y-95247976D01*
X160281904Y-95247976D01*
X160377142Y-95295595D01*
X160424761Y-95343214D01*
X160472380Y-95438452D01*
X160472380Y-95819404D01*
X159472380Y-95819404D01*
X159472380Y-95486071D01*
X159520000Y-95390833D01*
X159567619Y-95343214D01*
X159662857Y-95295595D01*
X159758095Y-95295595D01*
X159853333Y-95343214D01*
X159900952Y-95390833D01*
X159948571Y-95486071D01*
X159948571Y-95819404D01*
X160472380Y-94295595D02*
X160472380Y-94867023D01*
X160472380Y-94581309D02*
X159472380Y-94581309D01*
X159615238Y-94676547D01*
X159710476Y-94771785D01*
X159758095Y-94867023D01*
X160472380Y-93343214D02*
X160472380Y-93914642D01*
X160472380Y-93628928D02*
X159472380Y-93628928D01*
X159615238Y-93724166D01*
X159710476Y-93819404D01*
X159758095Y-93914642D01*
X161645000Y-97057500D02*
X161645000Y-96057500D01*
X163012380Y-96247976D02*
X162536190Y-96581309D01*
X163012380Y-96819404D02*
X162012380Y-96819404D01*
X162012380Y-96438452D01*
X162060000Y-96343214D01*
X162107619Y-96295595D01*
X162202857Y-96247976D01*
X162345714Y-96247976D01*
X162440952Y-96295595D01*
X162488571Y-96343214D01*
X162536190Y-96438452D01*
X162536190Y-96819404D01*
X161645000Y-96057500D02*
X161645000Y-95152738D01*
X162488571Y-95819404D02*
X162488571Y-95486071D01*
X163012380Y-95343214D02*
X163012380Y-95819404D01*
X162012380Y-95819404D01*
X162012380Y-95343214D01*
X161645000Y-95152738D02*
X161645000Y-94200357D01*
X162964761Y-94962261D02*
X163012380Y-94819404D01*
X163012380Y-94581309D01*
X162964761Y-94486071D01*
X162917142Y-94438452D01*
X162821904Y-94390833D01*
X162726666Y-94390833D01*
X162631428Y-94438452D01*
X162583809Y-94486071D01*
X162536190Y-94581309D01*
X162488571Y-94771785D01*
X162440952Y-94867023D01*
X162393333Y-94914642D01*
X162298095Y-94962261D01*
X162202857Y-94962261D01*
X162107619Y-94914642D01*
X162060000Y-94867023D01*
X162012380Y-94771785D01*
X162012380Y-94533690D01*
X162060000Y-94390833D01*
X161645000Y-94200357D02*
X161645000Y-93295595D01*
X162488571Y-93962261D02*
X162488571Y-93628928D01*
X163012380Y-93486071D02*
X163012380Y-93962261D01*
X162012380Y-93962261D01*
X162012380Y-93486071D01*
X161645000Y-93295595D02*
X161645000Y-92533690D01*
X162012380Y-93200357D02*
X162012380Y-92628928D01*
X163012380Y-92914642D02*
X162012380Y-92914642D01*
X164552380Y-96914642D02*
X164552380Y-96295595D01*
X164933333Y-96628928D01*
X164933333Y-96486071D01*
X164980952Y-96390833D01*
X165028571Y-96343214D01*
X165123809Y-96295595D01*
X165361904Y-96295595D01*
X165457142Y-96343214D01*
X165504761Y-96390833D01*
X165552380Y-96486071D01*
X165552380Y-96771785D01*
X165504761Y-96867023D01*
X165457142Y-96914642D01*
X164552380Y-96009880D02*
X165552380Y-95676547D01*
X164552380Y-95343214D01*
X164552380Y-95105119D02*
X164552380Y-94486071D01*
X164933333Y-94819404D01*
X164933333Y-94676547D01*
X164980952Y-94581309D01*
X165028571Y-94533690D01*
X165123809Y-94486071D01*
X165361904Y-94486071D01*
X165457142Y-94533690D01*
X165504761Y-94581309D01*
X165552380Y-94676547D01*
X165552380Y-94962261D01*
X165504761Y-95057500D01*
X165457142Y-95105119D01*
X167140000Y-96295595D02*
X167092380Y-96390833D01*
X167092380Y-96533690D01*
X167140000Y-96676547D01*
X167235238Y-96771785D01*
X167330476Y-96819404D01*
X167520952Y-96867023D01*
X167663809Y-96867023D01*
X167854285Y-96819404D01*
X167949523Y-96771785D01*
X168044761Y-96676547D01*
X168092380Y-96533690D01*
X168092380Y-96438452D01*
X168044761Y-96295595D01*
X167997142Y-96247976D01*
X167663809Y-96247976D01*
X167663809Y-96438452D01*
X168092380Y-95819404D02*
X167092380Y-95819404D01*
X168092380Y-95247976D01*
X167092380Y-95247976D01*
X168092380Y-94771785D02*
X167092380Y-94771785D01*
X167092380Y-94533690D01*
X167140000Y-94390833D01*
X167235238Y-94295595D01*
X167330476Y-94247976D01*
X167520952Y-94200357D01*
X167663809Y-94200357D01*
X167854285Y-94247976D01*
X167949523Y-94295595D01*
X168044761Y-94390833D01*
X168092380Y-94533690D01*
X168092380Y-94771785D01*
X169632380Y-96343214D02*
X169632380Y-96819404D01*
X170108571Y-96867023D01*
X170060952Y-96819404D01*
X170013333Y-96724166D01*
X170013333Y-96486071D01*
X170060952Y-96390833D01*
X170108571Y-96343214D01*
X170203809Y-96295595D01*
X170441904Y-96295595D01*
X170537142Y-96343214D01*
X170584761Y-96390833D01*
X170632380Y-96486071D01*
X170632380Y-96724166D01*
X170584761Y-96819404D01*
X170537142Y-96867023D01*
X169632380Y-96009880D02*
X170632380Y-95676547D01*
X169632380Y-95343214D01*
X153435476Y-99782380D02*
X153435476Y-100496666D01*
X153387857Y-100639523D01*
X153292619Y-100734761D01*
X153149761Y-100782380D01*
X153054523Y-100782380D01*
X154435476Y-100782380D02*
X153864047Y-100782380D01*
X154149761Y-100782380D02*
X154149761Y-99782380D01*
X154054523Y-99925238D01*
X153959285Y-100020476D01*
X153864047Y-100068095D01*
X155387857Y-100782380D02*
X154816428Y-100782380D01*
X155102142Y-100782380D02*
X155102142Y-99782380D01*
X155006904Y-99925238D01*
X154911666Y-100020476D01*
X154816428Y-100068095D01*
X146036309Y-106132380D02*
X146036309Y-106846666D01*
X145988690Y-106989523D01*
X145893452Y-107084761D01*
X145750595Y-107132380D01*
X145655357Y-107132380D01*
X147036309Y-107132380D02*
X146464880Y-107132380D01*
X146750595Y-107132380D02*
X146750595Y-106132380D01*
X146655357Y-106275238D01*
X146560119Y-106370476D01*
X146464880Y-106418095D01*
X147655357Y-106132380D02*
X147750595Y-106132380D01*
X147845833Y-106180000D01*
X147893452Y-106227619D01*
X147941071Y-106322857D01*
X147988690Y-106513333D01*
X147988690Y-106751428D01*
X147941071Y-106941904D01*
X147893452Y-107037142D01*
X147845833Y-107084761D01*
X147750595Y-107132380D01*
X147655357Y-107132380D01*
X147560119Y-107084761D01*
X147512500Y-107037142D01*
X147464880Y-106941904D01*
X147417261Y-106751428D01*
X147417261Y-106513333D01*
X147464880Y-106322857D01*
X147512500Y-106227619D01*
X147560119Y-106180000D01*
X147655357Y-106132380D01*
X115236666Y-73747380D02*
X115236666Y-74461666D01*
X115189047Y-74604523D01*
X115093809Y-74699761D01*
X114950952Y-74747380D01*
X114855714Y-74747380D01*
X115617619Y-73747380D02*
X116236666Y-73747380D01*
X115903333Y-74128333D01*
X116046190Y-74128333D01*
X116141428Y-74175952D01*
X116189047Y-74223571D01*
X116236666Y-74318809D01*
X116236666Y-74556904D01*
X116189047Y-74652142D01*
X116141428Y-74699761D01*
X116046190Y-74747380D01*
X115760476Y-74747380D01*
X115665238Y-74699761D01*
X115617619Y-74652142D01*
X115871666Y-99782380D02*
X115871666Y-100496666D01*
X115824047Y-100639523D01*
X115728809Y-100734761D01*
X115585952Y-100782380D01*
X115490714Y-100782380D01*
X116395476Y-100782380D02*
X116585952Y-100782380D01*
X116681190Y-100734761D01*
X116728809Y-100687142D01*
X116824047Y-100544285D01*
X116871666Y-100353809D01*
X116871666Y-99972857D01*
X116824047Y-99877619D01*
X116776428Y-99830000D01*
X116681190Y-99782380D01*
X116490714Y-99782380D01*
X116395476Y-99830000D01*
X116347857Y-99877619D01*
X116300238Y-99972857D01*
X116300238Y-100210952D01*
X116347857Y-100306190D01*
X116395476Y-100353809D01*
X116490714Y-100401428D01*
X116681190Y-100401428D01*
X116776428Y-100353809D01*
X116824047Y-100306190D01*
X116871666Y-100210952D01*
X169370476Y-79462380D02*
X169370476Y-80176666D01*
X169322857Y-80319523D01*
X169227619Y-80414761D01*
X169084761Y-80462380D01*
X168989523Y-80462380D01*
X170370476Y-80462380D02*
X169799047Y-80462380D01*
X170084761Y-80462380D02*
X170084761Y-79462380D01*
X169989523Y-79605238D01*
X169894285Y-79700476D01*
X169799047Y-79748095D01*
X170751428Y-79557619D02*
X170799047Y-79510000D01*
X170894285Y-79462380D01*
X171132380Y-79462380D01*
X171227619Y-79510000D01*
X171275238Y-79557619D01*
X171322857Y-79652857D01*
X171322857Y-79748095D01*
X171275238Y-79890952D01*
X170703809Y-80462380D01*
X171322857Y-80462380D01*
X171436309Y-102957380D02*
X171436309Y-103671666D01*
X171388690Y-103814523D01*
X171293452Y-103909761D01*
X171150595Y-103957380D01*
X171055357Y-103957380D01*
X172055357Y-103385952D02*
X171960119Y-103338333D01*
X171912500Y-103290714D01*
X171864880Y-103195476D01*
X171864880Y-103147857D01*
X171912500Y-103052619D01*
X171960119Y-103005000D01*
X172055357Y-102957380D01*
X172245833Y-102957380D01*
X172341071Y-103005000D01*
X172388690Y-103052619D01*
X172436309Y-103147857D01*
X172436309Y-103195476D01*
X172388690Y-103290714D01*
X172341071Y-103338333D01*
X172245833Y-103385952D01*
X172055357Y-103385952D01*
X171960119Y-103433571D01*
X171912500Y-103481190D01*
X171864880Y-103576428D01*
X171864880Y-103766904D01*
X171912500Y-103862142D01*
X171960119Y-103909761D01*
X172055357Y-103957380D01*
X172245833Y-103957380D01*
X172341071Y-103909761D01*
X172388690Y-103862142D01*
X172436309Y-103766904D01*
X172436309Y-103576428D01*
X172388690Y-103481190D01*
X172341071Y-103433571D01*
X172245833Y-103385952D01*
X146036309Y-102957380D02*
X146036309Y-103671666D01*
X145988690Y-103814523D01*
X145893452Y-103909761D01*
X145750595Y-103957380D01*
X145655357Y-103957380D01*
X147036309Y-103957380D02*
X146464880Y-103957380D01*
X146750595Y-103957380D02*
X146750595Y-102957380D01*
X146655357Y-103100238D01*
X146560119Y-103195476D01*
X146464880Y-103243095D01*
X173021666Y-95337380D02*
X173021666Y-96051666D01*
X172974047Y-96194523D01*
X172878809Y-96289761D01*
X172735952Y-96337380D01*
X172640714Y-96337380D01*
X173926428Y-95337380D02*
X173735952Y-95337380D01*
X173640714Y-95385000D01*
X173593095Y-95432619D01*
X173497857Y-95575476D01*
X173450238Y-95765952D01*
X173450238Y-96146904D01*
X173497857Y-96242142D01*
X173545476Y-96289761D01*
X173640714Y-96337380D01*
X173831190Y-96337380D01*
X173926428Y-96289761D01*
X173974047Y-96242142D01*
X174021666Y-96146904D01*
X174021666Y-95908809D01*
X173974047Y-95813571D01*
X173926428Y-95765952D01*
X173831190Y-95718333D01*
X173640714Y-95718333D01*
X173545476Y-95765952D01*
X173497857Y-95813571D01*
X173450238Y-95908809D01*
X149572261Y-80462380D02*
X149238928Y-79986190D01*
X149000833Y-80462380D02*
X149000833Y-79462380D01*
X149381785Y-79462380D01*
X149477023Y-79510000D01*
X149524642Y-79557619D01*
X149572261Y-79652857D01*
X149572261Y-79795714D01*
X149524642Y-79890952D01*
X149477023Y-79938571D01*
X149381785Y-79986190D01*
X149000833Y-79986190D01*
X149953214Y-79557619D02*
X150000833Y-79510000D01*
X150096071Y-79462380D01*
X150334166Y-79462380D01*
X150429404Y-79510000D01*
X150477023Y-79557619D01*
X150524642Y-79652857D01*
X150524642Y-79748095D01*
X150477023Y-79890952D01*
X149905595Y-80462380D01*
X150524642Y-80462380D01*
X151381785Y-79462380D02*
X151191309Y-79462380D01*
X151096071Y-79510000D01*
X151048452Y-79557619D01*
X150953214Y-79700476D01*
X150905595Y-79890952D01*
X150905595Y-80271904D01*
X150953214Y-80367142D01*
X151000833Y-80414761D01*
X151096071Y-80462380D01*
X151286547Y-80462380D01*
X151381785Y-80414761D01*
X151429404Y-80367142D01*
X151477023Y-80271904D01*
X151477023Y-80033809D01*
X151429404Y-79938571D01*
X151381785Y-79890952D01*
X151286547Y-79843333D01*
X151096071Y-79843333D01*
X151000833Y-79890952D01*
X150953214Y-79938571D01*
X150905595Y-80033809D01*
X156482023Y-80462380D02*
X156148690Y-79986190D01*
X155910595Y-80462380D02*
X155910595Y-79462380D01*
X156291547Y-79462380D01*
X156386785Y-79510000D01*
X156434404Y-79557619D01*
X156482023Y-79652857D01*
X156482023Y-79795714D01*
X156434404Y-79890952D01*
X156386785Y-79938571D01*
X156291547Y-79986190D01*
X155910595Y-79986190D01*
X156862976Y-79557619D02*
X156910595Y-79510000D01*
X157005833Y-79462380D01*
X157243928Y-79462380D01*
X157339166Y-79510000D01*
X157386785Y-79557619D01*
X157434404Y-79652857D01*
X157434404Y-79748095D01*
X157386785Y-79890952D01*
X156815357Y-80462380D01*
X157434404Y-80462380D01*
X158339166Y-79462380D02*
X157862976Y-79462380D01*
X157815357Y-79938571D01*
X157862976Y-79890952D01*
X157958214Y-79843333D01*
X158196309Y-79843333D01*
X158291547Y-79890952D01*
X158339166Y-79938571D01*
X158386785Y-80033809D01*
X158386785Y-80271904D01*
X158339166Y-80367142D01*
X158291547Y-80414761D01*
X158196309Y-80462380D01*
X157958214Y-80462380D01*
X157862976Y-80414761D01*
X157815357Y-80367142D01*
X140160476Y-79462380D02*
X140160476Y-80176666D01*
X140112857Y-80319523D01*
X140017619Y-80414761D01*
X139874761Y-80462380D01*
X139779523Y-80462380D01*
X141160476Y-80462380D02*
X140589047Y-80462380D01*
X140874761Y-80462380D02*
X140874761Y-79462380D01*
X140779523Y-79605238D01*
X140684285Y-79700476D01*
X140589047Y-79748095D01*
X142017619Y-79795714D02*
X142017619Y-80462380D01*
X141779523Y-79414761D02*
X141541428Y-80129047D01*
X142160476Y-80129047D01*
X129325476Y-99782380D02*
X129325476Y-100496666D01*
X129277857Y-100639523D01*
X129182619Y-100734761D01*
X129039761Y-100782380D01*
X128944523Y-100782380D01*
X130325476Y-100782380D02*
X129754047Y-100782380D01*
X130039761Y-100782380D02*
X130039761Y-99782380D01*
X129944523Y-99925238D01*
X129849285Y-100020476D01*
X129754047Y-100068095D01*
X130658809Y-99782380D02*
X131277857Y-99782380D01*
X130944523Y-100163333D01*
X131087380Y-100163333D01*
X131182619Y-100210952D01*
X131230238Y-100258571D01*
X131277857Y-100353809D01*
X131277857Y-100591904D01*
X131230238Y-100687142D01*
X131182619Y-100734761D01*
X131087380Y-100782380D01*
X130801666Y-100782380D01*
X130706428Y-100734761D01*
X130658809Y-100687142D01*
X171436309Y-106132380D02*
X171436309Y-106846666D01*
X171388690Y-106989523D01*
X171293452Y-107084761D01*
X171150595Y-107132380D01*
X171055357Y-107132380D01*
X172341071Y-106465714D02*
X172341071Y-107132380D01*
X172102976Y-106084761D02*
X171864880Y-106799047D01*
X172483928Y-106799047D01*
X162546309Y-78192380D02*
X162546309Y-78906666D01*
X162498690Y-79049523D01*
X162403452Y-79144761D01*
X162260595Y-79192380D01*
X162165357Y-79192380D01*
X162974880Y-78287619D02*
X163022500Y-78240000D01*
X163117738Y-78192380D01*
X163355833Y-78192380D01*
X163451071Y-78240000D01*
X163498690Y-78287619D01*
X163546309Y-78382857D01*
X163546309Y-78478095D01*
X163498690Y-78620952D01*
X162927261Y-79192380D01*
X163546309Y-79192380D01*
X115236666Y-87717380D02*
X115236666Y-88431666D01*
X115189047Y-88574523D01*
X115093809Y-88669761D01*
X114950952Y-88717380D01*
X114855714Y-88717380D01*
X116189047Y-87717380D02*
X115712857Y-87717380D01*
X115665238Y-88193571D01*
X115712857Y-88145952D01*
X115808095Y-88098333D01*
X116046190Y-88098333D01*
X116141428Y-88145952D01*
X116189047Y-88193571D01*
X116236666Y-88288809D01*
X116236666Y-88526904D01*
X116189047Y-88622142D01*
X116141428Y-88669761D01*
X116046190Y-88717380D01*
X115808095Y-88717380D01*
X115712857Y-88669761D01*
X115665238Y-88622142D01*
M02*
