G04 #@! TF.GenerationSoftware,KiCad,Pcbnew,5.1.5-52549c5~86~ubuntu19.04.1*
G04 #@! TF.CreationDate,2020-12-26T14:33:06+01:00*
G04 #@! TF.ProjectId,high-accuracy-logging-volt-ampmeter,68696768-2d61-4636-9375-726163792d6c,v1.0*
G04 #@! TF.SameCoordinates,Original*
G04 #@! TF.FileFunction,Paste,Top*
G04 #@! TF.FilePolarity,Positive*
%FSLAX46Y46*%
G04 Gerber Fmt 4.6, Leading zero omitted, Abs format (unit mm)*
G04 Created by KiCad (PCBNEW 5.1.5-52549c5~86~ubuntu19.04.1) date 2020-12-26 14:33:06*
%MOMM*%
%LPD*%
G04 APERTURE LIST*
%ADD10C,0.100000*%
G04 APERTURE END LIST*
D10*
G36*
X152874505Y-80461204D02*
G01*
X152898773Y-80464804D01*
X152922572Y-80470765D01*
X152945671Y-80479030D01*
X152967850Y-80489520D01*
X152988893Y-80502132D01*
X153008599Y-80516747D01*
X153026777Y-80533223D01*
X153043253Y-80551401D01*
X153057868Y-80571107D01*
X153070480Y-80592150D01*
X153080970Y-80614329D01*
X153089235Y-80637428D01*
X153095196Y-80661227D01*
X153098796Y-80685495D01*
X153100000Y-80709999D01*
X153100000Y-81360001D01*
X153098796Y-81384505D01*
X153095196Y-81408773D01*
X153089235Y-81432572D01*
X153080970Y-81455671D01*
X153070480Y-81477850D01*
X153057868Y-81498893D01*
X153043253Y-81518599D01*
X153026777Y-81536777D01*
X153008599Y-81553253D01*
X152988893Y-81567868D01*
X152967850Y-81580480D01*
X152945671Y-81590970D01*
X152922572Y-81599235D01*
X152898773Y-81605196D01*
X152874505Y-81608796D01*
X152850001Y-81610000D01*
X151949999Y-81610000D01*
X151925495Y-81608796D01*
X151901227Y-81605196D01*
X151877428Y-81599235D01*
X151854329Y-81590970D01*
X151832150Y-81580480D01*
X151811107Y-81567868D01*
X151791401Y-81553253D01*
X151773223Y-81536777D01*
X151756747Y-81518599D01*
X151742132Y-81498893D01*
X151729520Y-81477850D01*
X151719030Y-81455671D01*
X151710765Y-81432572D01*
X151704804Y-81408773D01*
X151701204Y-81384505D01*
X151700000Y-81360001D01*
X151700000Y-80709999D01*
X151701204Y-80685495D01*
X151704804Y-80661227D01*
X151710765Y-80637428D01*
X151719030Y-80614329D01*
X151729520Y-80592150D01*
X151742132Y-80571107D01*
X151756747Y-80551401D01*
X151773223Y-80533223D01*
X151791401Y-80516747D01*
X151811107Y-80502132D01*
X151832150Y-80489520D01*
X151854329Y-80479030D01*
X151877428Y-80470765D01*
X151901227Y-80464804D01*
X151925495Y-80461204D01*
X151949999Y-80460000D01*
X152850001Y-80460000D01*
X152874505Y-80461204D01*
G37*
G36*
X152874505Y-78411204D02*
G01*
X152898773Y-78414804D01*
X152922572Y-78420765D01*
X152945671Y-78429030D01*
X152967850Y-78439520D01*
X152988893Y-78452132D01*
X153008599Y-78466747D01*
X153026777Y-78483223D01*
X153043253Y-78501401D01*
X153057868Y-78521107D01*
X153070480Y-78542150D01*
X153080970Y-78564329D01*
X153089235Y-78587428D01*
X153095196Y-78611227D01*
X153098796Y-78635495D01*
X153100000Y-78659999D01*
X153100000Y-79310001D01*
X153098796Y-79334505D01*
X153095196Y-79358773D01*
X153089235Y-79382572D01*
X153080970Y-79405671D01*
X153070480Y-79427850D01*
X153057868Y-79448893D01*
X153043253Y-79468599D01*
X153026777Y-79486777D01*
X153008599Y-79503253D01*
X152988893Y-79517868D01*
X152967850Y-79530480D01*
X152945671Y-79540970D01*
X152922572Y-79549235D01*
X152898773Y-79555196D01*
X152874505Y-79558796D01*
X152850001Y-79560000D01*
X151949999Y-79560000D01*
X151925495Y-79558796D01*
X151901227Y-79555196D01*
X151877428Y-79549235D01*
X151854329Y-79540970D01*
X151832150Y-79530480D01*
X151811107Y-79517868D01*
X151791401Y-79503253D01*
X151773223Y-79486777D01*
X151756747Y-79468599D01*
X151742132Y-79448893D01*
X151729520Y-79427850D01*
X151719030Y-79405671D01*
X151710765Y-79382572D01*
X151704804Y-79358773D01*
X151701204Y-79334505D01*
X151700000Y-79310001D01*
X151700000Y-78659999D01*
X151701204Y-78635495D01*
X151704804Y-78611227D01*
X151710765Y-78587428D01*
X151719030Y-78564329D01*
X151729520Y-78542150D01*
X151742132Y-78521107D01*
X151756747Y-78501401D01*
X151773223Y-78483223D01*
X151791401Y-78466747D01*
X151811107Y-78452132D01*
X151832150Y-78439520D01*
X151854329Y-78429030D01*
X151877428Y-78420765D01*
X151901227Y-78414804D01*
X151925495Y-78411204D01*
X151949999Y-78410000D01*
X152850001Y-78410000D01*
X152874505Y-78411204D01*
G37*
G36*
X155414505Y-78411204D02*
G01*
X155438773Y-78414804D01*
X155462572Y-78420765D01*
X155485671Y-78429030D01*
X155507850Y-78439520D01*
X155528893Y-78452132D01*
X155548599Y-78466747D01*
X155566777Y-78483223D01*
X155583253Y-78501401D01*
X155597868Y-78521107D01*
X155610480Y-78542150D01*
X155620970Y-78564329D01*
X155629235Y-78587428D01*
X155635196Y-78611227D01*
X155638796Y-78635495D01*
X155640000Y-78659999D01*
X155640000Y-79310001D01*
X155638796Y-79334505D01*
X155635196Y-79358773D01*
X155629235Y-79382572D01*
X155620970Y-79405671D01*
X155610480Y-79427850D01*
X155597868Y-79448893D01*
X155583253Y-79468599D01*
X155566777Y-79486777D01*
X155548599Y-79503253D01*
X155528893Y-79517868D01*
X155507850Y-79530480D01*
X155485671Y-79540970D01*
X155462572Y-79549235D01*
X155438773Y-79555196D01*
X155414505Y-79558796D01*
X155390001Y-79560000D01*
X154489999Y-79560000D01*
X154465495Y-79558796D01*
X154441227Y-79555196D01*
X154417428Y-79549235D01*
X154394329Y-79540970D01*
X154372150Y-79530480D01*
X154351107Y-79517868D01*
X154331401Y-79503253D01*
X154313223Y-79486777D01*
X154296747Y-79468599D01*
X154282132Y-79448893D01*
X154269520Y-79427850D01*
X154259030Y-79405671D01*
X154250765Y-79382572D01*
X154244804Y-79358773D01*
X154241204Y-79334505D01*
X154240000Y-79310001D01*
X154240000Y-78659999D01*
X154241204Y-78635495D01*
X154244804Y-78611227D01*
X154250765Y-78587428D01*
X154259030Y-78564329D01*
X154269520Y-78542150D01*
X154282132Y-78521107D01*
X154296747Y-78501401D01*
X154313223Y-78483223D01*
X154331401Y-78466747D01*
X154351107Y-78452132D01*
X154372150Y-78439520D01*
X154394329Y-78429030D01*
X154417428Y-78420765D01*
X154441227Y-78414804D01*
X154465495Y-78411204D01*
X154489999Y-78410000D01*
X155390001Y-78410000D01*
X155414505Y-78411204D01*
G37*
G36*
X155414505Y-80461204D02*
G01*
X155438773Y-80464804D01*
X155462572Y-80470765D01*
X155485671Y-80479030D01*
X155507850Y-80489520D01*
X155528893Y-80502132D01*
X155548599Y-80516747D01*
X155566777Y-80533223D01*
X155583253Y-80551401D01*
X155597868Y-80571107D01*
X155610480Y-80592150D01*
X155620970Y-80614329D01*
X155629235Y-80637428D01*
X155635196Y-80661227D01*
X155638796Y-80685495D01*
X155640000Y-80709999D01*
X155640000Y-81360001D01*
X155638796Y-81384505D01*
X155635196Y-81408773D01*
X155629235Y-81432572D01*
X155620970Y-81455671D01*
X155610480Y-81477850D01*
X155597868Y-81498893D01*
X155583253Y-81518599D01*
X155566777Y-81536777D01*
X155548599Y-81553253D01*
X155528893Y-81567868D01*
X155507850Y-81580480D01*
X155485671Y-81590970D01*
X155462572Y-81599235D01*
X155438773Y-81605196D01*
X155414505Y-81608796D01*
X155390001Y-81610000D01*
X154489999Y-81610000D01*
X154465495Y-81608796D01*
X154441227Y-81605196D01*
X154417428Y-81599235D01*
X154394329Y-81590970D01*
X154372150Y-81580480D01*
X154351107Y-81567868D01*
X154331401Y-81553253D01*
X154313223Y-81536777D01*
X154296747Y-81518599D01*
X154282132Y-81498893D01*
X154269520Y-81477850D01*
X154259030Y-81455671D01*
X154250765Y-81432572D01*
X154244804Y-81408773D01*
X154241204Y-81384505D01*
X154240000Y-81360001D01*
X154240000Y-80709999D01*
X154241204Y-80685495D01*
X154244804Y-80661227D01*
X154250765Y-80637428D01*
X154259030Y-80614329D01*
X154269520Y-80592150D01*
X154282132Y-80571107D01*
X154296747Y-80551401D01*
X154313223Y-80533223D01*
X154331401Y-80516747D01*
X154351107Y-80502132D01*
X154372150Y-80489520D01*
X154394329Y-80479030D01*
X154417428Y-80470765D01*
X154441227Y-80464804D01*
X154465495Y-80461204D01*
X154489999Y-80460000D01*
X155390001Y-80460000D01*
X155414505Y-80461204D01*
G37*
M02*
